<?xml version="1.0" encoding="UTF-8"?>
<svg version="1.1" viewBox="0 0 1024 1024" width="1280" height="1280" xmlns="http://www.w3.org/2000/svg">
<path transform="translate(487,24)" d="m0 0h50l35 3 36 6 30 7 24 7 26 9 26 11 23 11 23 13 21 13 17 12 17 13 11 9 14 12 16 15 12 12 7 8 9 10 11 14 14 18 16 24 12 20 14 26 10 22 11 28 9 28 9 36 5 28 3 23 2 25v50l-3 35-6 36-7 30-7 24-9 26-11 26-11 23-13 23-13 21-12 17-13 17-9 11-12 14-15 16-12 12-8 7-10 9-14 11-18 14-24 16-20 12-26 14-22 10-28 11-28 9-36 9-27 5-24 3-25 2h-50l-35-3-36-6-30-7-24-7-26-9-26-11-23-11-23-13-21-13-17-12-17-13-11-9-14-12-16-15-12-12-7-8-9-10-11-14-14-18-16-24-12-20-14-26-10-22-11-28-9-28-9-36-5-28-3-23-2-25v-50l3-35 6-36 7-30 7-24 9-26 11-26 11-23 13-23 13-21 12-17 13-17 9-11 12-14 15-16 12-12 8-7 10-9 14-11 18-14 24-16 20-12 26-14 22-10 28-11 28-9 36-9 28-5 23-3z" fill="#FAD000"/>
<path transform="translate(510,219)" d="m0 0h5l12 12 5 6 11 9 12 9 12 6 16 4 7 1h18l14-4 22-9 6 1 14 22 11 16 9 12 11 9 12 9 14 7 32 11 3 3-1 7-10 11-11 15-6 12-6 20-3 20-1 244-5 21-7 20-8 15-12 17-11 12-18 10-18 6-21 4-33 4-16 4-29 11-15 8-9 9h-5l-9-9-14-8-23-9-15-5-15-3-33-4-19-4-16-6-14-8-9-8-10-13-10-16-7-16-7-23-2-13-1-241-3-20-7-23-7-12-11-14-9-11 1-7 10-4 24-8 14-7 12-9 12-10 13-18 13-20 6-10 3-2 7 1 25 10 8 2h19l19-4 10-4 12-8 11-9 8-7 7-8z" fill="#0047A8"/>
<path transform="translate(499,164)" d="m0 0h24l27 2 32 5 24 6 30 10 23 10 20 10 20 12 17 12 13 10 14 12 15 14 7 7 7 8 11 13 14 19 12 19 10 18 12 25 9 24 8 27 5 24 4 31 1 18v22l-2 29-5 31-7 28-9 26-10 23-10 20-12 20-14 20-13 16-18 20-10 10-8 7-13 11-19 14-19 12-18 10-25 12-24 9-23 7-28 6-31 4-18 1h-22l-29-2-31-5-28-7-26-9-23-10-20-10-23-14-17-12-16-13-20-18-9-9-7-8-12-14-14-19-12-19-10-18-12-25-9-24-8-27-5-24-4-31-1-17v-24l2-27 5-32 6-24 10-30 11-25 13-25 12-19 14-19 11-13 7-8 11-12 7-7 8-7 14-12 18-13 15-10 21-12 27-13 24-9 27-8 24-5 31-4zm11 55-12 12-5 6-11 9-13 9-10 5-16 4-6 1h-19l-14-4-22-9-6 1-6 9-10 16-14 20-4 5-11 9-12 9-14 7-32 11-3 3 1 7 10 11 13 18 5 12 5 17 3 20 1 241 3 17 9 27 8 15 10 14 9 11 9 7 16 8 15 5 22 4 32 4 19 5 28 11 11 6 10 9 2 2h5l9-9 15-8 29-11 16-4 39-5 19-4 16-6 16-9 8-8 11-15 8-13 6-13 8-26 2-10 1-244 3-20 7-23 7-12 11-14 9-11-1-7-10-4-24-8-14-7-12-9-12-10-13-18-13-20-7-11-6-1-28 11-8 2h-18l-20-4-10-4-12-8-11-9-9-8-7-8-6-6z" fill="#FEFEFE"/>
<path transform="translate(511,225)" d="m0 0 4 1 14 15 10 9 16 11 10 5 16 4 6 1h23l21-7 14-6 4 4 10 16 7 10 12 17 13 12 17 12 12 5 31 11-4 6-11 13-10 15-5 13-2 6-5 32-1 245-4 17-8 22-8 14-8 11-9 10-8 7-15 8-18 6-10 2-23 2-25 4-13 4-27 11-12 6-10 9-2 1v-328l8-4 79-31 89-35 25-10h3v-2h-18l-35-6-20-5-19-7-29-13-15-8-12-8-12-7-18-13-20-15v-2l-4-2-6-5-7 6-8 7-28 16-27 14-20 9-7 2-4-5-2-4v-4l-16 1-8 7-2 3-1 9-17 1-5 2-3 5h-1l-1-16-3-2v-8h-2v9l-5 3v16h-10v14l-12 5-1 1-11 1-6-17-8-14-10-13-9-11 1-2 30-10 12-5 14-10 10-9 5-4 9-12 16-24 7-11 7 1 20 8 10 3h23l15-3 13-5 13-8 10-8 7-6 2-3h2l2-4z" fill="#E5161A"/>
<path transform="translate(511,225)" d="m0 0 4 1 14 15 10 9 16 11 10 5 16 4 6 1h23l21-7 14-6 4 4 10 16 7 10 12 17 13 12 17 12 12 5 31 11-4 6-11 13-10 15-5 13-3 8-19-1-35-6-20-5-19-7-29-13-15-8-12-8-12-7-18-13-20-15v-2l-4-2-6-5-7 6-8 7-28 16-27 14-20 9-7 2-4-5-2-4v-4l-16 1-8 7-2 3-1 9-17 1-5 2-3 5h-1l-1-16-3-2v-8h-2v9l-5 3v16h-10v14l-12 5-1 1-11 1-6-17-8-14-10-13-9-11 1-2 30-10 12-5 14-10 10-9 5-4 9-12 16-24 7-11 7 1 20 8 10 3h23l15-3 13-5 13-8 10-8 7-6 2-3h2l2-4z" fill="#FEFEFE"/>
<path transform="translate(508,307)" d="m0 0 5 3 6 5 5 5 16 12 23 16 6 3 1 2 5 2 15 9 19 9 21 9 21 7 29 6 19 3v2h-76l-2 7-2 5h-2l-2 5-8 7-4 1-14 1h-34l-20-1-5-4-4-6-2-6 4-1v-6l1-1-77-1v18h2v8h-83l-17-7-6-2v-1h19v-2h-25l-4-2h29v-2l-33 1-2-1v-10h-13l1-3 10-4h2v-14l9-1v-15l4-3h2v-9h2l1 8 3 2 1 15 3-5 5-2h17v-9l7-8 4-3h16l3 10 4 2 20-8 28-14 24-14 13-8 8-7z" fill="#2CAA05"/>
<path transform="translate(487,24)" d="m0 0h50l35 3 36 6 30 7 24 7 26 9 26 11 23 11 23 13 21 13 17 12 17 13 11 9 14 12 16 15 12 12 7 8 9 10 11 14 14 18 16 24 12 20 14 26 10 22 11 28 9 28 9 36 5 28 3 23 2 25v50l-3 35-6 36-7 30-7 24-9 26-11 26-11 23-13 23-13 21-12 17-13 17-9 11-12 14-15 16-12 12-8 7-10 9-14 11-18 14-24 16-20 12-26 14-22 10-28 11-28 9-36 9-27 5-24 3-25 2h-50l-35-3-36-6-30-7-24-7-26-9-26-11-23-11-23-13-21-13-17-12-17-13-11-9-14-12-16-15-12-12-7-8-9-10-11-14-14-18-16-24-12-20-14-26-10-22-11-28-9-28-9-36-5-28-3-23-2-25v-50l3-35 6-36 7-30 7-24 9-26 11-26 11-23 13-23 13-21 12-17 13-17 9-11 12-14 15-16 12-12 8-7 10-9 14-11 18-14 24-16 20-12 26-14 22-10 28-11 28-9 36-9 28-5 23-3zm4 6-29 2-35 5-29 6-32 9-31 11-30 13-20 10-24 14-19 12-18 13-14 11-13 11-10 9-8 7-22 22-7 8-12 14-13 17-13 18-12 19-12 21-12 23-11 25-11 30-9 30-6 26-5 30-3 28-1 18v41l2 29 5 35 6 29 9 32 11 31 10 23 13 27 14 24 12 19 13 18 11 14 11 13 9 10 7 8 22 22 8 7 14 12 17 13 18 13 19 12 21 12 23 12 25 11 30 11 30 9 26 6 30 5 28 3 17 1h42l29-2 35-5 29-6 32-9 31-11 30-13 20-10 24-14 19-12 18-13 14-11 13-11 10-9 8-7 22-22 7-8 12-14 13-17 13-18 12-19 12-21 12-23 11-25 11-30 9-30 6-26 5-30 3-28 1-17v-42l-2-29-5-35-6-29-9-32-11-31-13-30-10-20-14-24-12-19-13-18-11-14-11-13-9-10-7-8-22-22-8-7-14-12-17-13-18-13-19-12-21-12-23-12-25-11-30-11-30-9-26-6-30-5-28-3-17-1z" fill="#030400"/>
<path transform="translate(599,501)" d="m0 0 6 1 5 5 1 2v6l-4 6-2 2v11l1 14 3 3 6 1 1-7 4-6 10-6 18-7 20-7 12-7 5-5h2l-1 9-6 8-10 6-14 5-15 4-16 7-4 4v2l4-5 10-5 13-4 21-5 11-7 3-3h2l-2 11-4 6-7 7-8 4-25 1-10 3 1 1 4-2h28l9-3-2 6-5 4-4 2h-16l6 2h10l4-1-1 4-5 3-9 4-4 1 5 12 1 7 3 1h8l4-1h8l2 2v8l-2 2h-8l-4-1h-8l-2 1-4 13-6 10 1 7 5 4 8 6 1 5-5 5-5-1-6-8-3-5-8-1-10 6-10 3v22l1 19 5 5 12-1 11-4 10-9 6-7 9-15 3 1v9l-8 15-9 10-13 9-24 10-8 6-2 2-5-1-7-6-11-5-13-5-11-7-10-9-7-11-4-8v-9l3-1 11 18 11 11 10 5 10 2h6l4-3 1-3 1-19v-21l-14-5-6-4-7 1-9 12-3 2-5-1-3-4 1-5 8-6 5-2 2-8-6-9-5-15-2-1h-8l-3 1h-9l-2-2v-8l3-2h7l3 1h12l2-11 5-10 3-4-2-7-11-7-3-4 2-5 4-3 5 2 7 10 1 2 8 1 8-5 15-5 1-1 1-26-6-7v-7l4-6z" fill="#FDF300"/>
<path transform="translate(699,399)" d="m0 0h18v2l-94 37-89 35-20 8-5-1-21-8-56-22-43-17-13-5-1-2h79v-8h-2v-18h80l-3 3v6l-4 1 3 7v2l3 1 4 4 20 1h34l14-1 7-2 2-4 3-1 2-5 6-12z" fill="#00ABFB"/>
<path transform="translate(496,159)" d="m0 0h30l25 2 26 4 30 7 30 10 21 9 16 8 17 9 27 18 13 10 14 12 15 14 9 9 7 8 11 13 14 19 11 17 10 18 8 16 10 23 10 30 7 30 4 26 2 26v28l-2 26-4 26-7 30-11 33-13 29-12 22-16 24-12 16-12 14-12 13-12 12-8 7-13 11-18 13-17 11-25 14-29 13-33 11-30 7-26 4-26 2h-28l-26-2-26-4-30-7-33-11-33-15-24-14-14-9-16-12-10-8-12-11-8-7-11-11-7-8-9-10-15-20-11-17-10-17-8-16-8-17-9-24-7-24-6-27-4-31-1-15v-30l2-25 4-26 7-30 10-30 9-21 8-16 11-20 16-24 10-13 12-14 14-15 9-9 8-7 14-12 11-8 21-14 21-12 16-8 18-8 25-9 30-8 28-5 18-2zm3 5-27 2-32 5-24 6-30 10-23 10-27 14-19 12-19 14-13 11-8 7-12 11-7 7-7 8-12 14-13 18-10 15-12 21-13 27-9 24-8 27-5 24-4 31-1 17v24l2 27 5 32 6 24 10 30 10 23 10 20 12 20 12 17 10 13 12 14 14 15 7 7 8 7 13 11 19 14 19 12 18 10 25 12 24 9 23 7 28 6 20 3 29 2h22l28-2 32-5 28-7 26-9 23-10 20-10 20-12 20-14 16-13 20-18 10-10 7-8 11-13 14-19 12-19 10-18 12-25 9-24 7-23 6-28 3-20 2-29v-22l-2-28-5-32-6-24-10-30-10-23-10-20-14-23-12-17-13-16-18-20-9-9-8-7-14-12-19-14-19-12-18-10-25-12-24-9-27-8-24-5-31-4-17-1z" fill="#0A0D01"/>
<path transform="translate(510,219)" d="m0 0h5l12 12 5 6 11 9 12 9 12 6 16 4 7 1h18l14-4 22-9 6 1 14 22 11 16 9 12 11 9 12 9 14 7 32 11 3 3-1 7-10 11-11 15-6 12-6 20-3 20-1 244-5 21-7 20-8 15-12 17-11 12-18 10-18 6-21 4-33 4-16 4-29 11-15 8-9 9h-5l-9-9-14-8-23-9-15-5-15-3-33-4-19-4-16-6-14-8-9-8-10-13-10-16-7-16-7-23-2-13-1-241-3-20-7-23-7-12-11-14-9-11 1-7 10-4 24-8 14-7 12-9 12-10 13-18 13-20 6-10 3-2 7 1 25 10 8 2h19l19-4 10-4 12-8 11-9 8-7 7-8zm1 6-10 10v2l-3 1-5 5-10 9-14 9-12 5-11 3-7 1h-23l-18-6-15-6-5 1-11 18-7 10-9 13-6 7-8 7-13 10-10 6-25 9-13 4v3l9 11 10 13 8 15 5 16 2 12 2 17 1 241 2 12 8 24 8 16 11 16 9 10 8 7 12 6 15 5 13 3 17 3 29 3 14 4 14 5 12 5 17 8 8 7 4 4 8-8 11-6 18-8 15-6 15-4 21-3 23-2 16-4 12-4 17-9 13-13 10-14 6-10 6-14 7-23 1-6 1-245 5-32 7-19 11-16 11-13 3-5-39-14-14-9-10-8-11-10-13-19-18-27-13 5-19 7-4 1h-23l-19-4-9-4-12-7-11-9-10-9-12-13z" fill="#141B03"/>
<path transform="translate(445,523)" d="m0 0h7l-6 7-10 10-1 5 4-2 8-8 5-4 8-2h7l17 4 8 4 3 2v3l-10 1-14-3-8 1-5 4v2l5-2h9l8 4 10 9 7 6 3 7h-4l-19-11-8-3-5 1-2 2 10 5 7 6 6 16 4 15v13h-2l-16-27-4-4 2 7v8l-4-2-8-14v20l5 16 5 21v59l-2 16v7l1 1v5l-5 4-9 1-7-3-2-5 1-2 2-16 5-22 2-19v-30l-1-13-3 3-4 12h-3l-3-7 1-15v-16l-1-8-3 1-3 23-3 5-4 1v-29l-5 8-8 16-5 6h-2l-1-4-1-21 5-11 1-4-5 5-5 6h-2v-7l6-11 2-4-11 6-7 11-7 17-3 1v-16l6-17 5-10 9-8 7-3h6v-2l-10-1-12 3-10 5h-3l2-6 9-8 12-6 4-1h7l8 3 7 4 2-10 5-5 7-5z" fill="#1AC603"/>
<path transform="translate(390,349)" d="m0 0h16l3 10h2v34h6v-15l1-1 14-1h10l7 1 1 3 1 14 2 1-1 23h2v8h-83l-17-7-6-2v-1h19v-2h-25l-4-2h29v-2l-33 1-2-1v-10h-13l1-3 10-4h2v-14l9-1v-15l4-3h2v-9h2l1 8 3 2 1 15 3-5 5-2h17v-9l7-8z" fill="#14180B"/>
<path transform="translate(160,698)" d="m0 0h13l7 3 5 4 5 8 2 7-1 10-4 8-10 10-13 8-13 4-10-1-8-4-7-8-3-7v-11l6-12 7-7 11-7 9-4z" fill="#F9CF00"/>
<path transform="translate(393,631)" d="m0 0 9 4 5 6 2 6 5-12 3-3h2l1 12h3l7-4 7-2 5 2-1 6-5 4h-2v2l-3 3 4 1 5-1h8l2 3-3 6-8 5 2-1h9l-2 6-6 5-17 7-5 3-2 10-1 22 12 3-3 3-6 2h-13l-8-4 4-2h6v-2h2l-1-14-1-9-7-1-8-10v-2l-4-2-3-5 1-4 5 1 5 2-9-9-4-9 1-7 5 2 6 4 2 1-6-20z" fill="#749110"/>
<path transform="translate(549,289)" d="m0 0 11 1 9 4 8 6 6 10 2 6v14l-4 11-8 9-5 2-15-10-17-12-13-10-4-3 1-7 6-10 11-8z" fill="#FDF900"/>
<path transform="translate(333,106)" d="m0 0 10 1 9 6 7 9 6 13 2 9-1 10-5 8-8 6-11 2-9-3-10-9-8-16-2-7v-11l3-7 5-6 8-4z" fill="#F9CF00"/>
<path transform="translate(930,339)" d="m0 0 2 2 11 34 1 5v10l-3 8-5 5-5 3h-13l-9-6-5-9-3-10-1-6-11 3-18 6v12l-2-1-10-30v-2h2l3 6 3 2 10-2 43-14 9-4 1-2z"/>
<path transform="translate(597,378)" d="m0 0h5l1 1v18l7 1v-13l4-2 2 1 1 13 7 2-4 9-1 4h-2l-2 5-8 7-4 1-14 1h-34l-20-1-5-4-4-6-2-6 4-1v-6l4-1v-5h5v4l5-1 1 10 8-1v-7l-1-3 6-1v4l-1 8 6-1v-6l-1-4 7-1 1-5 4-1 2 2-1 16 4-1v-10l5 1-1 7 1 2h5l5-10h5l-1-19z" fill="#030604"/>
<path transform="translate(835,194)" d="m0 0h3l-1 5-19 49-6 16-1 9 2 7-7-6-12-12-3-4 1-2 5 3 4-1 6-14 1-5-21-21-7 1-11 4-2 2 1 6 2 4-4-2-7-7-7-8 1-2 4 2h8l33-11z"/>
<path transform="translate(816,730)" d="m0 0 14 2 57 11h9l7-4-1 4-16 23-1-3 1-5-3-3-12-3h-6l-13 18-4 6 1 4 7 12v2h6l4-4h2l-2 4-11 16-2 1v-10l-8-16-16-29-13-23z"/>
<path transform="translate(525,889)" d="m0 0h3l30 60 7 11 8 3v2l-18 1h-13v-2l6-2 1-4-7-15v-2l-25 1-8 1-6 15v5l9 3-1 2-24 1-1-2 7-3 8-16 15-37z"/>
<path transform="translate(150,688)" d="m0 0h13l12 4 9 7 7 8 5 11 1 5v13l-3 10-5 8-5 5-5 4-8 4-7 2h-12l-10-3-10-6-7-8-6-12-2-9 1-14 4-9 6-8 9-7 9-4zm10 10-11 4-10 6-10 9-6 12v11l5 10 8 7 9 3 11-1 12-5 11-8 8-8 4-8 1-10-4-11-5-6-7-4-3-1z"/>
<path transform="translate(721,116)" d="m0 0 13 1 11 4 10 7 11 11 6-2-2 6-8 16-2-2v-13l-5-10-8-7-10-4h-12l-9 4-8 6-7 11-4 11v15l4 10 4 5 9 6 11 3 3-1 13-22-1-7-4-3v-2l5 2 22 13v2l-7-1-6 5-11 19-2 2h-7l-13-4-13-7-12-11-7-14-1-5v-12l4-11 6-8 7-6 10-5z"/>
<path transform="translate(357,672)" d="m0 0h10l8 3 5 3 5 5 8 9-1 4-8 5-9 4-5 7-1 6-3 1-1 11-5 5-6-2-10-5-4-5 6-7h2l1-9 4-2 1-4v-7l-6-11-1-6 2-3z" fill="#EECA01"/>
<path transform="translate(610,68)" d="m0 0 33 10 26 8 2 1-4 16-2-1-1-9-5-5-28-9-3 12-4 13v4l20 6 7-1 3-3 1-3h2l-1 7-6 18-2-2v-6l-5-5-22-7-3 12-4 13v7l18 6 4 1h11l8-5 5-3-1 4-9 12-8-1-52-16-2-2h8l4-2 4-11 13-42 1-10-8-5z"/>
<path transform="translate(885,259)" d="m0 0 4 1 17 29 12 20v2l-69-8-16-2-3-1 6 11 13 22 6 5 3 1h12v2l-18 6-7-10-13-23-9-15-5-8 1-3 27 3 59 7-6-11-8-14-5-5-2-1h-7l-6 1v-2z"/>
<path transform="translate(783,774)" d="m0 0 4 2 8 8v2l-5-2-8-1-5 3-10 9-9 8 3 5 15 16v2l11-9 7-7 2-4-1-6-1-4 7 6 10 11-1 3-4-3h-7l-8 6-10 9 2 4 9 10 8 9 3 1 6-4 7-7 6-5 4-7v-17h2l6 16-1 4-36 33-8 7-2-1 4-5 1-4-4-6-27-30-7-8-4-4h-6l-4 3h-2v-2l8-7 15-14 10-9z"/>
<path transform="translate(722,823)" d="m0 0h2l12 20-1 3-8-7-5-2h-11l-10 5-3 5-1 6 2 5 5 3h41l8 3 6 7 2 10-3 10-7 8-10 6-16 5-1 6-4-4-10-17 2-2 8 7 5 2h9l8-3 6-4 4-7v-6l-3-5-7-3h-39l-8-4-4-5-2-10 3-10 5-6 10-6 14-4z"/>
<path transform="translate(335,102)" d="m0 0h11l12 4 9 7 6 10 3 10v10l-4 11-4 6-5 5-9 6-11 3h-9l-13-4-10-9-5-9-3-10v-8l3-10 6-9 9-8 10-4zm-2 4-10 4-6 5-3 5-1 4v11l4 12 6 11 7 7 7 4 8 1 10-3 8-7 3-6 1-10-3-12-7-13-7-8-7-4z"/>
<path transform="translate(70,386)" d="m0 0 14 1 13 2-1 2-13 4-7 5-5 8-2 7v12l4 10 9 8 11 5 9 2h17l9-4 6-5 6-12 1-4v-13l-4-10-6-9 4 1 7 10 4 11v13l-3 12-5 9-6 7-10 6-10 3h-11l-12-3-11-7-8-9-5-11-1-4v-17l4-12 6-10-2-5-2-1z"/>
<path transform="translate(229,155)" d="m0 0v3l-2 5v13l6 36 11 12 7 6h6l4-3 2 1-14 14-8 7-4 2 4-6v-6l-7-8-9-9-12-3-33-6-8 1-5 2 2-4 7-7 8-7 7-7 2 1-3 4v6l5 2 32 6-5-31-3-6-7 1h-3l14-14z"/>
<path transform="translate(262,799)" d="m0 0 7 4 16 12 19 14 7 5-1 4-6 10h-2v-11l-4-7-18-13h-2l-13 19-2 2 1 4 14 9 7-1 2-2 3 1-13 18-3 1 1-3v-8l-9-8-6-4h-2l-10 14-6 9 1 7 4 4-1 2-19-14-8-6 1-2 5 3h5l7-8 12-17 13-18 5-8v-5l-1-3-4-2z"/>
<path transform="translate(382,872)" d="m0 0h15l10 3 10 6 5 4 5-2 3-1-1 8-4 17h-2l-2-12-5-9-8-6-10-3h-8l-9 3-8 7-7 14-3 11v12l4 10 5 5 8 5 10 3h8l10-4 5-3 3 1-8 6-10 4h-14l-13-4-10-7-6-7-5-12v-17l4-11 8-11 9-6z"/>
<path transform="translate(214,749)" d="m0 0 3 1 7 8 16 17 12 13 4 5-10 11h-2l2-8-1-8-12-14-6-5-8 7-8 8h-2l-2 6 12 12 7 1 6-2-1 3-8 7-8 8h-2l2-4 1-7-4-6-7-7-1-2-4 1-19 19v6l3 4v2l-3-1-7-8-14-15h3l5 3 5-1 10-9 11-11 8-7 11-11h2l2-4v-6l-3-4z"/>
<path transform="translate(147,240)" d="m0 0 5 2 10 6v2l-11-1-6 4-8 12 4 4 38 24 12 7 6-1 5-5-2 6-11 17-5 7-1-2 2-4-1-7-15-10-24-15-14-9-4 4-6 11 1 8 4 5-1 2-13-9 1-4 11-18 14-22z"/>
<path transform="translate(511,58)" d="m0 0h11l25 2 1 2-9 1-4 2-2 13-3 40v12l10 1h22l7-4 7-9 1 2-8 18-21-1-41-3-2-2 11-2 2-18 3-39v-8l-3-4-7-2z"/>
<path transform="translate(921,650)" d="m0 0 8 6 8 7-3 9-13 31-8 19-2 1 1-10-4-4-22-10-29-12-6-1-4 4-3 4-1-2 14-33h2l-2 10 1 4 12 6 42 18h5l6-12 5-15-1-8-4-7z"/>
<path transform="translate(606,878)" d="m0 0h2v2l-9 4-1 2 1 10 13 49 2 3 11-1 18-6 5-5 3-7 2-6h1v12l-1 9-8 3-52 14-2-2 7-3 2-2-1-10-14-52-3-3h-9v-2z"/>
<path transform="translate(433,73)" d="m0 0h5l3 9v5l-5-5-6-3-13 2-11 2 5 26 17-4 3-3 1-7h2l5 20v2h-2l-4-6h-9l-8 2h-4l7 27 3 2h8l-1 2-25 6h-5l2-2 5-2 1-6-8-36-4-16-3-2h-7v-2z"/>
<path transform="translate(99,323)" d="m0 0 1 4v7l8 5 47 19 7 1 4-4 2-4 1 3-12 29-2 1 1-9-1-3-18-8-37-15-5-1-4 2-3 6h-2l3-9z"/>
<path transform="translate(955,426)" d="m0 0h2l5 34-2 1-3-8-4-2-24 3-37 6-3 3-1 9-2-2-4-26v-7l2 2 3 7 5 1 54-8 7-2 1-2z"/>
<path transform="translate(443,886)" d="m0 0 11 1 23 3v2l-10 2-2 7-7 53 1 6 5 3 4 2-3 1-29-4-2-2 9-2 3-7 7-53-1-7-9-4z"/>
<path transform="translate(322,842)" d="m0 0 5 1 20 10 7 4-3 1-8-1-4 4-25 50-1 5 4 5 3 2-1 2-29-15-1-2 11 1 6-9 23-46-1-7-6-4z"/>
<path transform="translate(549,289)" d="m0 0 11 1 9 4 8 6 6 10 2 6v14l-4 11-8 9-5 2-8-5 4-1 8-6 4-7 1-3v-12l-4-9-5-5-6-4-8-2-9 1-10 5-5 6-2 5-1 7-4-2-4-3 1-7 6-10 11-8z" fill="#F5CD00"/>
<path transform="translate(698,336)" d="m0 0 2 1 5 13 16 2v2l-11 9 2 12 1 5-5-2-8-5-5 1-9 6h-2l3-16v-2l-4-2-7-6v-2l16-1 3-9z" fill="#0B0F01"/>
<path transform="translate(321,332)" d="m0 0 3 3 4 10v2l16 1-2 4-9 8 3 16-5-2-8-5-4 1-11 6 1-10 1-7-8-7-3-2v-2l16-2 5-13z" fill="#0B0F01"/>
<path transform="translate(513,249)" d="m0 0 2 1 5 13 16 2-2 4-9 7 2 11 1 6-5-2-8-5-4 1-10 6h-2l3-16v-2l-4-2-7-6v-2l16-2 5-13z" fill="#0B0E01"/>
<path transform="translate(931,363)" d="m0 0h3l4 9v9l-3 6-6 5-6 2h-7l-7-4-5-8-1-9 10-4z" fill="#F6CE00"/>
<path transform="translate(485,481)" d="m0 0h9l5 4 1 2v7l-3 4 4 5v9l-4 6-2 1h-10l-6-5-1-9 3-5 2-3h-2l-2-4v-6l4-5z"/>
<path transform="translate(562,481)" d="m0 0 6 1 4 4 1 5h-6l-1-3-6 1-2 8 4-2 6 1 5 5 1 8-3 7-3 3-7 1-6-3-3-4-1-3v-18l3-6 5-4z"/>
<path transform="translate(529,482)" d="m0 0h17v7l-12 1-1 5 5-1 6 3 3 4 1 8-3 7-4 3-7 1-6-3-3-5v-3l6-1 3 5 5-1 1-1v-8l-1-1h-7l-1 1h-5l1-13z"/>
<path transform="translate(821,204)" d="m0 0h2l-3 9-8 21h-4l-17-17v-3z" fill="#EFCA01"/>
<path transform="translate(829,743)" d="m0 0 32 6-2 5-12 17-3 2-14-25-2-4z" fill="#F1CC01"/>
<path transform="translate(523,907)" d="m0 0h2l14 28v2l-15 1h-13l3-9z" fill="#F3CC01"/>
<path transform="translate(506,317)" d="m0 0 5 2 14 11 12 9 5 5-5-1-20-12-2-1-4 7-2-1-2-9-2-1-2 4-5 6-3-4-5 2-7 3-3-1 13-10z" fill="#FEFEFE"/>
<path transform="translate(463,481)" d="m0 0h6v38h-6l-1-1-1-24-4 3h-3v-7l7-5z"/>
<path transform="translate(615,604)" d="m0 0 9 1 3-1h7l5 1-1 9-5 10h-4l-7-6-4-6-5-3z" fill="#E6161B"/>
<path transform="translate(568,604)" d="m0 0h7l9 1h4l1 4-6 4-5 8-6 4-3-1-4-8-2-6v-5z" fill="#E6161B"/>
<path transform="translate(570,577)" d="m0 0 4 2 6 5 4 6 5 3-2 5-9-1-3 1h-7l-5-1 1-9z" fill="#E6161B"/>
<path transform="translate(630,578)" d="m0 0 4 2 3 5 2 7v5l-5 1h-7l-8-1-4 1-2-5 6-4 6-8z" fill="#E6161B"/>
<path transform="translate(592,563)" d="m0 0h4v25h-4l-3-5-8-6-4-5v-2l12-6z" fill="#E6161B"/>
<path transform="translate(606,563)" d="m0 0 7 1 3 3 6 7-2 5-8 5-3 5-3-1z" fill="#E6161B"/>
<path transform="translate(608,613)" d="m0 0 2 1 3 5 8 6 4 5-1 3-10 5-6 1-1-25z" fill="#E6161B"/>
<path transform="translate(593,613)" d="m0 0h1v26l-8-2-8-4v-4l6-7 6-4z" fill="#E6161B"/>
<path transform="translate(441,668)" d="m0 0h9l-2 6-6 5-17 7-5 3-2-1v-3l4 1 2-4 8-8 9-5z" fill="#729210"/>
<path transform="translate(600,594)" d="m0 0 5 1 3 4v5l-7 6-5-3-3-4 2-5z" fill="#E6161B"/>
<path transform="translate(309,399)" d="m0 0h10l13 1v10l-16-6-7-3z" fill="#01ACFC"/>
<path transform="translate(353,377)" d="m0 0 18 1 1 1v38h-2v-37h-17z" fill="#729311"/>
<path transform="translate(560,501)" d="m0 0h5l3 5-1 6-2 2-5-1-2-2v-7z" fill="#E6161B"/>
<path transform="translate(403,723)" d="m0 0h7l1 2h-2v2l10-1-1-3h9l2 2-9 4h-13l-8-4z" fill="#C4950B"/>
<path transform="translate(488,501)" d="m0 0 5 1 1 1v8l-3 3-4-1-2-2v-7z" fill="#0047A9"/>
<path transform="translate(336,398)" d="m0 0h31l-1 3h-30z" fill="#9FB55E"/>
<path transform="translate(550,399)" d="m0 0 2 2v8h-9l-1-9z" fill="#0090E5"/>
<path transform="translate(582,400)" d="m0 0h10l-5 9h-6l-1-5z" fill="#009AED"/>
<path transform="translate(599,507)" d="m0 0 4 1 2 2-1 6-5 1-3-3 1-5z" fill="#E6161B"/>
<path transform="translate(417,670)" d="m0 0h2l-3 12h2l1-2 2 6-3-1-1 7h-1l-1-8-2 4v-13l2-3h2z" fill="#003886"/>
<path transform="translate(544,414)" d="m0 0 6 1 2-1h3l13 1h10l-1 2h-32z" fill="#0055B4"/>
<path transform="translate(425,657)" d="m0 0 5 1-3 3-5 3h-2l-4 7h-1v-7l3-3h2l1-3z" fill="#000A18"/>
<path transform="translate(330,393)" d="m0 0h2v7h-13l1-3z" fill="#44A209"/>
<path transform="translate(556,400)" d="m0 0h5l1 2v6l-1 1h-6v-8z" fill="#008EE4"/>
<path transform="translate(353,713)" d="m0 0 6 2 4 3h-3v5h-3l-1-2h-2v-3l-3 3 1-5z" fill="#729311"/>
<path transform="translate(489,486)" d="m0 0 4 2 1 4-2 3h-5l-2-5z" fill="#0047A9"/>
<path transform="translate(573,400)" d="m0 0 5 1v7l-5 1-1-6z" fill="#0092E6"/>
<path transform="translate(436,670)" d="m0 0 3 1-9 6-7 7-1-2 7-8z"/>
<path transform="translate(387,544)" d="m0 0 2 1-10 10 2 2-5 1 2-6z" fill="#44A809"/>
<path transform="translate(418,723)" d="m0 0h9l2 2-6 3-4-2z" fill="#DAAD06"/>
<path transform="translate(567,400)" d="m0 0h2v9h-4v-7z" fill="#0374C7"/>
<path transform="translate(402,680)" d="m0 0 7 1 2 9-2 1-3-6-4-3z" fill="#0047A9"/>
<path transform="translate(398,556)" d="m0 0 2 1-11 11-2-1 7-8z" fill="#39AE08"/>
<path transform="translate(418,680)" d="m0 0 3 4-1 2-2-1-1 7h-1l-1-11 3 1z" fill="#326865"/>
</svg>
