<?xml version="1.0" encoding="UTF-8"?>
<svg version="1.1" viewBox="0 0 900 900" width="1280" height="1280" xmlns="http://www.w3.org/2000/svg">
<path transform="translate(429,20)" d="m0 0h34l24 1 31 4 26 5 31 8 28 10 20 8 25 12 23 13 17 11 20 14 16 13 10 9 2 1v2l4 2 27 27 7 8 11 13 13 18 11 16 8 13 12 21 14 29 10 26 9 27 7 28 6 35 3 33v49l-4 38-6 31-7 27-9 27-10 24-14 29-13 23-16 24-9 12-11 13-9 11-12 13-16 16-8 7-14 12-17 13-16 11-19 12-24 13-25 12-29 11-25 8-30 7-31 5-35 3h-41l-33-3-36-6-28-7-36-12-32-14-30-16-19-12-20-14-16-13-11-9-13-12-22-22-9-11-11-13-14-19-14-21-11-19-10-19-12-27-9-24-8-27-6-26-5-32-2-20-1-18v-26l2-30 5-33 5-24 6-23 12-35 12-28 10-20 14-23 14-21 14-18 9-10 9-11 12-13 12-12 8-7 14-12 10-8 15-11 23-15 26-15 27-13 35-13 23-7 21-5 21-4 31-4zm20 53 2 2v-2zm-119 24 4 1zm126 0m-3 12m-113 1-4 2 3 1 2-1zm174 13m-171 2 4 1zm284 0-1 2 4-1zm-288 1m283 7-1 4 2-4zm-165 4m-108 4-4 2h8l2-2zm284 4m-2 2 1 2zm-1 2 1 2zm-1 2 1 2zm-1 2m-18 2m-259 2-2 2 5-1zm258 0m68 0-5 5 1 2 6-7zm-335 3m-4 1 4 1zm268 0m87 0v2h2v-2zm-23 3-1 4 3-2v-2zm-53 11 1 4v-4zm42 5-2 4 3-2zm18 0-7 9h3l6-7v-2zm-63 4m42 0m-43 1m104 11-1 4 3-2v-2zm-3 4m-2 1-1 2 3-1zm10 0m-1 1m-3 3m-2 1-1 2 3-1zm-503 2 1 3 2-1zm501 0m-16 6m-1 1m-2 1v3l2-3zm-470 1v2h2v-2zm468 2m-2 1-7 7h3l6-7zm10 0-2 4 3-2zm33 1m-1 1m-1 1m-34 1m33 0m-34 1m21 0 1 2zm-22 1m-2 1 1 2 1-2zm-11 1-7 6h3l5-4zm10 1m-1 1m-2 1v3l2-3zm-2 3m-2 1-5 5 1 2 6-7zm74 9m-3 1m-1 1m-4 2m-602 8v3zm575 5m-579 3 1 2zm571 1m50 0-2 3 1 3 3-3 2-1v-2zm-622 1 1 2zm-1 3m631 0-1 2h3v-2zm-632 1-3 5 3-1 1-4zm626 3m-6 4v5h1v-5zm-24 2-13 6 3 1 12-5 1-2zm2 6-3 4 4-2 1-2zm-464 3v13l2 38 6 7 14 11 11 10 4 2h253l19-1 6-4 12-11 13-10 2-2 1-5 1-34v-14h-97l-1 43h-29l-1-3-2-38-1-1-12-1h-38l-31 1-1 1-1 8-1 19v14l-30 1-1-44zm485 0 1 2zm-26 1m-2 1m-2 1-1 2 3-1zm30 0m-1 3m-596 1v3l2-1v-2zm595 2 1 2zm-1 2 1 2zm-1 2m-1 1m-1 1m-1 1m-1 1m-1 1m-1 1m-2 1m-2 1-1 2 3-1zm-3 2m-3 1m-4 1 4 1zm61 45m-9 2-5 1v1h6l1-2zm-26 5 1 2 2-2zm-645 4m195 2-2 6-3 23 1 1h23l1-1v-25l-1-4zm24 0-1 29 18 1h44l2-1 2-22v-7zm69 0-1 1-2 18v10l5 1h82l3-1v-21l-1-7-1-1zm89 0v28l1 1h64v-29zm86-1-18 1-1 2 1 27 3 1h22l-1-12-3-19zm239 12m-512 21-1 1-4 29v4h16l44-1 1-30-3-3zm59 0-1 8v25l17 1h34l28-13 4-3 4 3 18 8 8 5h2l2 4 8 11 5 11 18-1h23l26-1v-22l-75-1-1-1 44-1 1-17v-13l-2-3zm168 0-1 3v27l1 2 3 1h55l-1-12-3-21zm270 22v1h7v-1zm-723 13-3 3h7l9 1-3-3-3-1zm221 0-2 9-3 21-3 20 1 1h11l1-1v-23l-4-1 26-1 1-1 1-8-1-14-1-1zm264 0-1 1v22l12 1h18l1-1-1-10-2-13zm-232 1v23l19 1h46l2-1 4-11 9-10v-2zm-259 2m718 0v1h7v-1zm-667 21m-8 1 4 1zm471 0-1 1v24l1 1h11l-1-11-2-14-1-1zm-480 1v1h7v-1zm392-1-5 1v22l1 3h31l2-1v-23l-1-1zm33 1-1 3v21h53v-24zm-441 1-7 1v1h12l11-1v-1zm217 0-1 1v22l1 1h51l2-1v-17l-1-5-37-1zm57 0-2 5v18l1 1h32l1-23-1-1zm-253 5m-7 1 4 1zm-5 1 4 1zm-5 1m-4 1m-5 1m-4 1 4 1zm-4 1m-4 1m-4 1m-3 1m225 11-3 18v4h36l4-1v-20l-1-1zm40 0-1 1v17l1 3 18 1h45l1-8v-14zm163 0v21h64l1-1v-20zm90-1-22 1-1 4 1 16 1 1 37 1-1-15-1-7zm-476 5m-7 1-11 2v1l12-1 4-2zm-15 3 4 1zm36 0m-41 1 4 1zm38 0m-44 1-1 2 7-1v-1zm40 0m-10 2m-4 1m-5 1m-9 2m-6 1m-6 1 4 1zm213 5-2 8-3 21h20l1-2v-26zm206 0v16l1 12h32l1-11v-11l-2-6zm37 0-1 2v22l1 4h52l1-2-1-25-1-1zm55 0-1 9 1 19h19l-3-23-1-5zm-280 1v28h53l1-8v-15l-1-5zm74-1-18 1v28l1 1h31l1-28-1-2zm-264 11m-3 1m26 1m-36 1m33 0m-41 1-5 1v1l13-1v-1zm38 0-2 2 5-1zm-4 2m-2 1m-4 1m-2 1m-4 1m-2 1m-1 1m-20 6m401 0v35l9 1h113l5-3 4-6 1-3v-12l-5-4-14-7zm-404 1m-2 1m191 0-17 9-2 4v8l3 6 4 6 4 2h101l20-1 1-2v-32zm-193 1m-3 1m-2 1m-2 1m63 0-8 3 3 1 9-3zm-11 4-3 2 6-1zm-6 2m-3 1-2 2 5-1zm22 0m-3 1m-2 1m-2 1m-3 1m-3 1m-3 1m-4 1m-21 1m20 0m-27 1-5 5 9-3 3-2zm10 4m-3 1m-3 1-7 2 2 2 8-3zm46 10m-3 1m-2 1m-3 1m-3 1-48 16v2l6-1 30-10 13-5 2-2zm31 10m-2 1m-48 0-6 4 2 1 5-3zm46 1m-2 1m-1 1m-2 1m-49 1-5 5 4-2 3-3zm47 0m251 0-11 4-4 5-2 6v20l3 7 5 3 10 1 6-2v15h-6v-9h-17l-1 5 3 7 7 6 3 1h19l5-2 4-5 1-6v-42l-2-6-7-6-7-2zm50 0-10 3-5 4-3 5v45l3 5 6 5 6 2h15l8-4 3-7v-27l-4-5-6-2h-8l-3 2h-3l1-13 1-2h3l2 8 14 2h4l-2-12-5-6-10-3zm47 0-9 3-6 7-2 6 1 8 4 5-2 5-3 5v16l3 7 6 5 5 2h15l7-3 4-4 2-10-1-14-3-7-2-2 4-2 1-4v-10l-3-7-4-4-7-2zm-349 1m-2 1m223 0-24 12 1 5 7 2 4 1 1 45 1 1 16 1 1-2-1-64-1-1zm-224 1m-2 1m-48 1-3 2v2l4-2 1-2zm46 0m-1 1m-2 1m-1 1m-20 4-9 5v2l6-2 6-4zm53 0-4 4 5-2 1-2zm-47 4-1 2 4-2zm41 0-1 2 3-1zm-44 2m41 0m-42 1m40 0m-42 1-9 5 3 1 8-5zm41 0m-2 1m-1 1m-2 1m-2 1m-1 1m-2 1m-1 1m-2 1m-5 3m-2 1-3 3 5-2zm-5 3m-2 1-1 2 3-1zm-3 2m-1 1m120 77m-1 1 1 2zm23 19 1 2 1-2zm32 6-1 4 2-1zm-73 4m71 0 1 2zm-72 1m-1 1m-1 1m-1 1m-1 1m-1 1m74 1m-1 2m-1 3m-1 1 1 2zm232 1m-233 1 1 2zm-38 1m103 0m-66 1m-38 1m37 1 1 2zm-1 2 1 2zm263 1-1 2h3v-2zm-264 1 1 2zm-1 2 1 2zm250 1-1 2 7-1v-1zm-251 2v3zm74 1-1 3h2zm193 1-3 2 5-1zm-269 2m257 1m-223 1m-1 2m65 0 1 2zm-1 2 1 2zm41 0v1h7v-1zm-106 1m-1 1 1 2zm65 0m-1 1m-1 1m-64 1m-1 1 1 2zm-1 2 1 2zm38 0 1 2zm188 0v2l2-1zm-227 2m-1 1 1 2zm-1 2 1 2zm-1 2m-2 3m-1 1m-2 1-1 2 3-1zm86 4m153 1 1 3 1-3zm12 7-2 3 3-1zm-212 2 1 2zm209 1m-210 1 1 3zm209 0m-1 1m-2 1m-207 1-1 2h2zm204 0-3 2 6-1z" fill="#F9F91A"/>
<path transform="translate(431,164)" d="m0 0h35l22 2 27 5 22 6 27 10 30 15 11 7 10 7 11 8 14 12 10 9 14 14 11 14 10 13 12 19 11 20 9 21 8 24 6 26 4 28 1 12v29l-2 20-4 25-6 24-7 20-10 23-13 23-10 15-13 17-10 11-7 8-8 8-8 7-16 13-13 9-21 13-22 11-26 10-26 7-22 4-25 3h-32l-27-3-22-4-26-7-21-8-25-12-14-8-12-8-11-8-16-13-10-9-14-14-9-11-11-14-10-15-10-17-11-23-8-21-5-18-3-11-4-24-2-20v-33l3-29 5-26 7-24 11-27 13-25 18-27 12-14 11-13 16-15 17-14 19-13 21-12 23-11 25-9 28-7 27-4zm-154 124v13l2 38 6 7 14 11 11 10 4 2h253l19-1 6-4 12-11 13-10 2-2 1-5 1-34v-14h-97l-1 43h-29l-1-3-2-38-1-1-12-1h-38l-31 1-1 1-1 8-1 19v14l-30 1-1-44zm37 83-2 6-3 23 1 1h23l1-1v-25l-1-4zm24 0-1 29 18 1h44l2-1 2-22v-7zm69 0-1 1-2 18v10l5 1h82l3-1v-21l-1-7-1-1zm89 0v28l1 1h64v-29zm86-1-18 1-1 2 1 27 3 1h22l-1-12-3-19zm-273 33-1 1-4 29v4h16l44-1 1-30-3-3zm59 0-1 8v25l17 1h34l28-13 4-3 4 3 18 8 8 5h2l2 4 8 11 5 11 18-1h23l26-1v-22l-75-1-1-1 44-1 1-17v-13l-2-3zm168 0-1 3v27l1 2 3 1h55l-1-12-3-21zm-232 35-2 9-3 21-3 20 1 1h11l1-1v-23l-4-1 26-1 1-1 1-8-1-14-1-1zm264 0-1 1v22l12 1h18l1-1-1-10-2-13zm-232 1v23l19 1h46l2-1 4-11 9-10v-2zm255 24-1 1v24l1 1h11l-1-11-2-14-1-1zm-88 0-5 1v22l1 3h31l2-1v-23l-1-1zm33 1-1 3v21h53v-24zm-224 1-1 1v22l1 1h51l2-1v-17l-1-5-37-1zm57 0-2 5v18l1 1h32l1-23-1-1zm-73 26-3 18v4h36l4-1v-20l-1-1zm40 0-1 1v17l1 3 18 1h45l1-8v-14zm163 0v21h64l1-1v-20zm90-1-22 1-1 4 1 16 1 1 37 1-1-15-1-7zm-296 24-2 8-3 21h20l1-2v-26zm206 0v16l1 12h32l1-11v-11l-2-6zm37 0-1 2v22l1 4h52l1-2-1-25-1-1zm55 0-1 9 1 19h19l-3-23-1-5zm-280 1v28h53l1-8v-15l-1-5zm74-1-18 1v28l1 1h31l1-28-1-2zm115 29v35l9 1h113l5-3 4-6 1-3v-12l-5-4-14-7zm-215 2-17 9-2 4v8l3 6 4 6 4 2h101l20-1 1-2v-32zm127 56-11 4-4 5-2 6v20l3 7 5 3 10 1 6-2v15h-6v-9h-17l-1 5 3 7 7 6 3 1h19l5-2 4-5 1-6v-42l-2-6-7-6-7-2zm50 0-10 3-5 4-3 5v45l3 5 6 5 6 2h15l8-4 3-7v-27l-4-5-6-2h-8l-3 2h-3l1-13 1-2h3l2 8 14 2h4l-2-12-5-6-10-3zm47 0-9 3-6 7-2 6 1 8 4 5-2 5-3 5v16l3 7 6 5 5 2h15l7-3 4-4 2-10-1-14-3-7-2-2 4-2 1-4v-10l-3-7-4-4-7-2zm-128 2-24 12 1 5 7 2 4 1 1 45 1 1 16 1 1-2-1-64-1-1z" fill="#47630A"/>
<path transform="translate(429,20)" d="m0 0h34l24 1 31 4 26 5 31 8 28 10 20 8 25 12 23 13 17 11 20 14 16 13 10 9 2 1v2l4 2 27 27 7 8 11 13 13 18 11 16 8 13 12 21 14 29 10 26 9 27 7 28 6 35 3 33v49l-4 38-6 31-7 27-9 27-10 24-14 29-13 23-16 24-9 12-11 13-9 11-12 13-16 16-8 7-14 12-17 13-16 11-19 12-24 13-25 12-29 11-25 8-30 7-31 5-35 3h-41l-33-3-36-6-28-7-36-12-32-14-30-16-19-12-20-14-16-13-11-9-13-12-22-22-9-11-11-13-14-19-14-21-11-19-10-19-12-27-9-24-8-27-6-26-5-32-2-20-1-18v-26l2-30 5-33 5-24 6-23 12-35 12-28 10-20 14-23 14-21 14-18 9-10 9-11 12-13 12-12 8-7 14-12 10-8 15-11 23-15 26-15 27-13 35-13 23-7 21-5 21-4 31-4zm1 23-31 2-29 5-30 7-33 11-24 10-23 11-24 14-24 16-17 13-28 24-15 15-9 11-10 11-15 20-16 24-13 23-14 29-9 23-9 28-7 29-5 30-2 25v53l3 31 5 27 6 25 7 22 8 21 11 24 13 25 11 17 8 12 10 14 8 10 12 14 12 13 16 16 8 7 13 11 17 13 16 11 13 8 23 13 23 11 20 8 22 8 25 7 25 5 27 4 26 3h38l10-2 22-2 28-5 31-7 26-8 34-13 21-10 19-11 14-9 10-7 20-15 13-11 8-7 16-15v-2l4-2 7-8 8-10 9-11 10-13 9-12 9-14 15-27 10-21 10-26 9-27 6-25 6-36 2-18 1-16v-37l-3-32-4-25-7-31-6-20-10-27-11-25-12-23-11-18-11-16-9-12-13-16-7-8-2-3h-2v-2h-2l-2-4-18-18h-2v-2l-8-7-16-13-19-14-17-11-21-12-21-11-23-10-35-12-24-6-20-4-30-4-17-1z" fill="#47620A"/>
<path transform="translate(431,164)" d="m0 0h35l22 2 27 5 22 6 27 10 30 15 11 7 10 7 11 8 14 12 10 9 14 14 11 14 10 13 12 19 11 20 9 21 8 24 6 26 4 28 1 12v29l-2 20-4 25-6 24-7 20-10 23-13 23-10 15-13 17-10 11-7 8-8 8-8 7-16 13-13 9-21 13-22 11-26 10-26 7-22 4-25 3h-32l-27-3-22-4-26-7-21-8-25-12-14-8-12-8-11-8-16-13-10-9-14-14-9-11-11-14-10-15-10-17-11-23-8-21-5-18-3-11-4-24-2-20v-33l3-29 5-26 7-24 11-27 13-25 18-27 12-14 11-13 16-15 17-14 19-13 21-12 23-11 25-9 28-7 27-4zm1 24-19 2-26 5-27 8-24 10-17 9-16 10-15 11-14 12-22 22-9 11-13 18-11 19-8 16-7 16-7 22-4 17-4 23-2 23v14l2 26 6 31 7 24 8 20 12 24 16 24 13 16 7 7 7 8 10 10 11 9 15 11 17 11 27 14 25 9 22 6 30 5 9 1h36l25-3 20-4 24-7 20-8 20-10 14-8 17-12 14-11 15-14 8-8 7-8 13-17 11-17 6-10 11-23 9-25 6-23 4-23 1-14v-33l-3-28-6-25-7-23-9-21-11-21-8-12-10-14-11-13-6-7h-2l-2-4-12-12-11-9-13-10-17-11-14-8-22-10-17-6-17-5-32-6-15-1z" fill="#48630A"/>
<path transform="translate(432,188)" d="m0 0h35l21 2 26 5 26 8 24 10 22 12 19 13 16 13 12 11 6 6v2l4 2 7 8 12 15 10 15 9 15 12 25 9 27 6 24 3 21 1 12v33l-2 21-5 25-9 29-8 19-10 19-10 16-10 14-9 11-14 15-8 8-11 9-17 13-17 11-16 8-17 8-19 7-27 7-25 4-11 1h-36l-29-4-25-6-27-9-25-12-15-9-16-11-9-7-14-12-12-12-7-8-8-9-11-15-10-16-10-19-8-18-7-21-6-25-3-17-2-26v-14l2-23 4-23 5-21 9-26 8-17 10-18 10-15 9-12 12-14 21-21 11-9 15-11 13-8 18-10 23-10 26-8 24-5 13-2zm-4 7-29 4-30 8-25 10-16 8-15 9-12 8-18 14-13 12-8 8-9 11-7 8-9 13-9 15-7 12-10 24-7 21-5 21-4 30v41l4 28 6 25 8 22 14 29 10 16 14 19 12 14 17 17 17 13 18 12 15 9 24 11 30 10 25 5 13 2 13 1h32l20-2 26-5 20-6 24-10 17-8 17-11 18-13 10-9 8-7 15-15 9-11 13-18 9-15 8-16 9-21 6-18 5-21 3-20 1-12v-29l-3-29-4-20-5-19-9-24-10-19-9-16-13-18-11-13-7-8-11-11-11-9-16-12-16-10-18-10-21-9-21-7-21-5-18-3-10-1z" fill="#F9F91B"/>
<path transform="translate(329,368)" d="m0 0h255v2l-2 1-18 1v28l24 1v2l-52 1v31l55 1v2l-23 1-1 22h12l12 2v25l2 2-4 1-22 1 1 19 8 1 1 2h-41v28h49l11 1v1h-67l-18-1v-1h21v-22l-1-5-28-2v-1l60-1 1-20h-65l1-2 32-1-1-23-28-1h-5l1-2 16-1h49v-22h-75l-6-1v-1l9-1h40v-30l-1-2-163-1-1 33h51l5-1v2l-7 3-80-1v23h19l45 1-1 2-30 1-1 4v18l31 1v2l-63 1v20h18l35 1-4 2h-18l1 28 28 1v2h-111-3l2-2 5-1h19l1-28h-14v-2l38-1-1-20-35-1v-3h11l1-23-7-1v-1l29-1 1-8-1-14-25-1-1-2 15-1h44v-32l-55-1 1-3h23v-29h-19l2-2zm9 3-1 29 18 1h44l2-1 2-22v-7zm69 0-1 1-2 18v10l5 1h82l3-1v-21l-1-7-1-1zm89 0v28l1 1h64v-29zm40 93-1 3v21h53v-24zm-224 1-1 1v22l1 1h51l2-1v-17l-1-5-37-1zm-1 50v28h53l1-8v-15l-1-5z" fill="#E6E99C"/>
<path transform="translate(594,721)" d="m0 0h13l8 3 6 9 8 16 8 17 3 12-3 9-7 8-7 5-12 4h-11l-8-4-7-8-12-24-6-16v-8l4-8 7-7 6-4z" fill="#48630A"/>
<path transform="translate(473,757)" d="m0 0h24l8 4 4 5 3 12 3 31v13l-4 7-7 6-10 4-7 1-12-2-9-4-5-5-3-6-2-15-1-25 1-14 9-7 3-1 2-3z" fill="#47630A"/>
<path transform="translate(798,332)" d="m0 0h15l4 2 7 11 4 13v12l-4 10-5 4-12 5-14 3-19 4h-11l-9-6-6-9-3-9v-15l5-10 5-2-2-1 10-5 21-5zm1 26m-9 2-5 1v1h6l1-2zm-26 5 1 2 2-2z" fill="#47630A"/>
<path transform="translate(298,726)" d="m0 0h18l10 4 9 7 4 6 1 3v11l-4 11-8 19-8 14-5 5-7 3-11-1-13-5-8-6-6-7-1-3v-8l4-11 10-21 7-14 5-5zm15 17-1 4 2-1zm-2 4 1 2zm-3 7m-1 2m-1 3m-1 1 1 2zm-1 2 1 2zm-1 2m-1 2 1 2zm-1 2 1 2zm-1 2 1 2zm-1 2 1 2zm-1 3v3z" fill="#47630A"/>
<path transform="translate(110,468)" d="m0 0h16l7 2 5 5 5 10 3 13-1 11-4 8-5 4-7 3-21 5-14 2h-15l-8-6-5-6-4-12v-12l4-11 4-3 2-1v-2l11-4zm6 2m-7 1 4 1zm-5 1 4 1zm-5 1m-4 1m-5 1m-4 1 4 1zm-4 1m-4 1m-4 1m39 16m-7 1-11 2v1l12-1 4-2zm-15 3 4 1zm36 0m-41 1 4 1zm38 0m-44 1-1 2 7-1v-1zm40 0m-10 2m-4 1m-5 1m-9 2m-6 1m-6 1 4 1z" fill="#48630B"/>
<path transform="translate(348,742)" d="m0 0 7 1 19 5 15 5 5 4 2 4 1 6v10l-4 10-2 2h-7l5 10-2 12-5 18-2 3-10-2-11-3 2-13 4-18v-3l-3-1-3 10-6 22-4 1-13-4-8-2 2-10 12-46 2-7 1-8zm21 21m3 13-1 3h2z" fill="#47630A"/>
<path transform="translate(144,525)" d="m0 0h6l3 7 4 13-1 3-14 4-14 5h-3l1 4 14-4 15-5 5 1 8 22-3 2-19 7-36 12-14 5h-4l-9-24-3-11v-11l5-5 2-1v-3l10-5h6 2 10l2-5 4-3 7-2 9-3zm0 2m-3 1m-3 1-2 2 5-1zm-4 2m-2 1m-4 1m-2 1m-4 1m-2 1m-1 1m-20 6m-3 1m-2 1m-2 1m-3 1m61 9m-3 1m-2 1m-2 1m-3 1m-3 1m-3 1m-4 1m-21 1m20 0m-27 1-5 5 9-3 3-2zm10 4m-3 1m-3 1-7 2 2 2 8-3z" fill="#49640C"/>
<path transform="translate(399,65)" d="m0 0h6l2 7 9 46 4 18v6l-7 2-15 1-6-9-7-13-4-4 3 9 4 17v3l-15 4h-5l-3-7-4-17-10-49 1-5 19-2 4 1 9 15 2 3h2l-4-19 1-4 7-2z" fill="#48630A"/>
<path transform="translate(655,681)" d="m0 0h3l7 11 14 20 8 12 11 16 3 5-2 4-13 8-7-1-13-10-9-6 14 19 2 3-1 5-14 9h-3l-11-16-7-10-11-16-9-13-5-7v-3l6-4 5-2 3-4 7 1 10 6 10 7-4-7-7-10-2-3v-4l8-4z" fill="#47620A"/>
<path transform="translate(542,72)" d="m0 0 8 1 12 4 2 2v13l1 11v10h2l2-18 4-12 1-1 7 1 13 4-1 8-6 18-13 40-4 10-6-1-16-6v-23l1-9-6 16-4 13-11-3-9-3-1-2 12-36 10-32z" fill="#47630A"/>
<path transform="translate(88,301)" d="m0 0 7 1 51 17 17 5v7l-6 15-1 1-26 2h-6v2h8l15 4 6 2-2 10-4 10-10-2-63-21-2-2 2-10 4-9h34l-9-4-17-6-4-3 3-11z" fill="#47630A"/>
<path transform="translate(538,744)" d="m0 0h15l7 2 5 6 4 11v5l-7 3-13 3-5-1-4-12h-3l1 9 8 27 4 11 4 1-1-6-6-11-3-5v-6l1-1 9-2 14-4h3l5 13 8 28-8 3-9 1h-2l-6 5-7 1v2h-13l-9-4-5-6-4-10-9-31-1-3v-7l3-9 8-7h5l-1-3zm27 33-3 2 5-1zm-12 3m-3 13v2l2-1zm4 17 1 3 1-3z" fill="#48630B"/>
<path transform="translate(712,166)" d="m0 0 4 1 5 6 13 13 7 10 2 6v7l-7 11h-2l-2 4-6 3-5-1-4-1v11l-3 5-8 7-10 9-4 1-14-14 1-5 20-20-1-4-10 9-13 12-5-1-13-13 1-4 7-8 13-12 7-6 3-1 7-8 4-2 11-12zm5 30-1 4 3-2v-2zm-3 4m-2 1-1 2 3-1zm10 0m-1 1m-3 3m-2 1-1 2 3-1zm-2 2m-13 12-2 4 3-2zm-3 4m-1 1m-1 1m-2 1 1 2 1-2zm-1 2m-1 1m-2 1v3l2-3zm-2 3m-2 1-5 5 1 2 6-7z" fill="#48630B"/>
<path transform="translate(443,58)" d="m0 0h15l9 3 6 3 3 3 4 12v12h-24l-2-3v-13l-5-2v53l3-1 1-3 1-11 1-2-4-1v-10l16-1h12l1 1v18l-1 19-1 5h-13l-9-3 1 3-13 1-10-2-9-7-2-4-1-6v-31l1-15 2-7 8-7 2-1h6v-2z" fill="#47620A"/>
<path transform="translate(62,406)" d="m0 0 8 1 34 7 25 6 12 2-1 37-4 2-25 4-25 2-17 2h-10v-23l1-4 7-1h9l1 1 6-2 12 1-7-3-10-2-17-4-1-5z" fill="#47630A"/>
<path transform="translate(190,161)" d="m0 0 5 1 14 10 18 13 14 10 9 7 5 4 2 2-16 15-5 2-5-5-6-3-1 6 6 8-2 4-15 15-3-1-13-18-9-13-12-17-10-14 1-4 10-8 7-8zm23 47 1 3 2-1z" fill="#48630A"/>
<path transform="translate(126,244)" d="m0 0 12 1 10 4 3 2v5l-9 17-5 1-13-7h-6l1 4 28 15 10 5 8 1-2-4-10-5-1-1 1-7 4-9 4-7 7 1 10 7 4 5 2 6v10l-5 12-8 12-4 4-3 1h-12l-14-5-16-9-12-7-7-6-3-6v-9l4-11 7-11 6-5 1-2zm39 51v3l2-1v-2z" fill="#47630A"/>
<path transform="translate(755,522)" d="m0 0h20l15 3 14 4 10 3 5 6 3 8 1 10-3 14-7 11-5 4-6 2-16-2-6-2v-8l3-12 2-4 12 2 11 1-2-5-13-4-37-8v6l14 3 2 2v8l-4 15-1 1-8-1-10-4-7-6-3-6v-12l4-16 7-10z" fill="#47630A"/>
<path transform="translate(762,241)" d="m0 0h12l5 3 6 8 4 8 3 10v12l-4 6-5 4-8 1-4-5-5-11v-3h3v-3l6-4-2-2-6 1-3 8-3 21-3 7-8 7-8 4-10 1-8-4-4-4v-2h-2l-5-8-4-12v-9l4-7 12-6v-3l5-2 6 12 3 8v3l-12 5 9-3 5-2v-15l4-12 5-6 7-4zm-2 3m-3 1m-1 1m-4 2m23 21-1 2h3v-2zm-34 16-3 4 4-2 1-2zm-5 4m-2 1m-2 1-1 2 3-1z" fill="#48630B"/>
<path transform="translate(411,757)" d="m0 0h23l10 3 7 6 2 6v9l-1 4h-19l-5-3v-10l-4 1-1 7 5 5 10 7 8 6 4 8 1 4v13l-4 9-6 5-7 3h-13l-12-3-9-6-4-5-1-4 1-15 1-1h11l10 2 2 2v13l6 3-1-4v-10l-5-5-12-9-9-8v-18l2-8 6-3 1-3z" fill="#47630A"/>
<path transform="translate(248,696)" d="m0 0h14l12 6 8 8 4 7 1 2v10l-5 8h-2l-1 2-9-5-8-6-1-5 4-4-1-3-4 1-3 5 2 8 6 11 3 9v8l-6 12-6 7-3 2h-11l-13-5-10-9-6-8-1-2v-8l6-12 3-3 6 1 10 7 3 3v5l-6 7v4l4 1v2l3-3v-3l2-3v-7l-9-18-1-4v-11l5-9 7-7z" fill="#47630A"/>
<path transform="translate(129,591)" d="m0 0 8 1 5 5 5 7 5 4 3-2v-3l17-10 4-1 7 10 3 6-1 4-20 13-22 13-15 9-6 4h-4l-12-20-5-11-1-7 3-6 8-7 5-2v-3zm43 4m-2 1m-48 0-6 4 2 1 5-3zm46 1m-2 1m-1 1m-2 1m-49 1-5 5 4-2 3-3zm47 0m-1 1m-2 1m-1 1m-50 2-3 2v2l4-2 1-2zm42 3m-20 4-9 5v2l6-2 6-4zm6 4-1 2 4-2zm-3 2m-1 1m-2 1-9 5 3 1 8-5z" fill="#48630B"/>
<path transform="translate(731,574)" d="m0 0 6 2 16 8 24 13 23 12 1 4-15 29-3 5-4-1-9-5-1-5 4-5v-5l-7-5h-4l-4 8-2 2-4-1-8-4 3-15-10-6-3 1-7 13-5-2-10-6 1-4 6-10 8-16z" fill="#47620A"/>
<path transform="translate(335,80)" d="m0 0 3 1 4 13-1 2-10 2-2 2 1 7 2 3 9-2h5l5 14v2l-13 2v6l4 8 9-1 4-2 4 1 5 15-6 3-22 7-10 3h-3l-8-21-13-38-3-10v-6l1-1 12-1 3-3 9-3zm5 30-4 2 3 1 2-1zm9 31-4 2h8l2-2z" fill="#47630A"/>
<path transform="translate(613,97)" d="m0 0 16 8 18 10 1 5-6 9h-2v2l-5-2-4-3h-6l-2 5-2 6 9 3 2 2-1 7-4 6-5 1-4-3h-6l-6 8 1 4 10 5 2 2v3h-2l-1 6-2 4-5 1-23-13-9-5-1-4 2-5 2-1 2-6 6-10 7-11 10-19 7-14z" fill="#47630A"/>
<path transform="translate(665,129)" d="m0 0 5 1 26 20 3 3-1 4-8 8-5-1-7-4-1-2-5 6-2 1 1 6 6 2 2 2-1 5-7 9-5-2-7-4-1-1-8 11v3l5 1 6 7-6 11-5 1-26-20-4-4 4-7 3-1 7-11 6-8 9-13 10-14z" fill="#48630A"/>
<path transform="translate(852,501)" d="m0 0h1v9l-3 21-2 12-1 10-5 15-3 8-4 16-2 1-2 9-3 5-3 9-5 11-7 15-4 8-14 22-4 7-7 10-13 17-10 13-4 4h-2l-2 4-5 5-6 7-7 6-5 6-9 7-7 7-5 4h-2l-1 3-15 11-22 15-22 13-19 10-21 9-24 9-24 7-24 6-9 2-13 2-26 3-9 1h-46l-17-1-27-4-16-2-12-3-3-1-10-2-15-5-4-2-7-2-13-5-5-2-8-4 4-1 17 7 22 7 25 6 27 5 41 5h38l10-2 22-2 28-5 31-7 26-8 34-13 21-10 19-11 14-9 10-7 20-15 13-11 8-7 15-14 7-8 10-11 6-8 12-15 7-9 11-16 12-21 12-23 13-32 10-30 6-25z" fill="#587017"/>
<path transform="translate(825,397)" d="m0 0h8l1 1 3 33v6l-1 1-7 1h-9l-1-15-14 1 1 2 1 13h-16l-1-1-1-12-26 2h-6l-1-1-2-16v-7l19-2 1-1 16-2 23-1z" fill="#47620A"/>
<path transform="translate(419,368)" d="m0 0h165v2l-2 1-18 1v28l24 1v2l-52 1v31l55 1v2l-23 1-1 22h12l12 2v25l2 2-4 1-22 1 1 19 8 1 1 2h-41v28h49l11 1v1h-67l-18-1v-1h21v-22l-1-5-28-2v-1l60-1 1-20h-65l1-2 32-1-1-23-28-1h-5l1-2 16-1h49v-22h-75l-6-1v-1l9-1h40v-30l-1-2-79-1v-2l42-1-1-21-1-7-85-1 1-2zm77 3v28l1 1h64v-29zm40 93-1 3v21h53v-24z" fill="#E1E59C"/>
<path transform="translate(763,448)" d="m0 0h73l1 1-1 40-1 1h-13l-2-1-1-5 1-11h-12l-1 1-1 14h-13l-3-1-1-14-31-1-1-1v-20l2-2z" fill="#47620A"/>
<path transform="translate(233,128)" d="m0 0 5 2 7 11 16 24 7 9v2l6 2 2-5 3-2 4 1 7 10 1 3-14 10-18 12-3-3-6-9-8-11-8-12-17-26-2-5 10-7z" fill="#47630A"/>
<path transform="translate(147,206)" d="m0 0 4 1 13 11 16 13 13 11 11 8 4 4-1 4-11 13-3 3-4-1-9-8-14-11-10-9-11-9-12-9-1-3 9-11z" fill="#48630A"/>
<path transform="translate(754,489)" d="m0 0 15 1 60 8 4 1-1 16-2 9h-8l-34-5-34-4-2-1 1-18z" fill="#47630A"/>
<path transform="translate(498,65)" d="m0 0h17l8 1v8l-8 46-3 17-2 8-18-2-6-2-1-2 9-52z" fill="#47620A"/>
<path transform="translate(69,368)" d="m0 0 11 1 33 7 13 3 19 2 1 1v8l-3 17-2 1-68-14-8-2 1-13z" fill="#47620A"/>
<path transform="translate(594,66)" d="m0 0 6 1 17 7 16 8 17 9 10 4 3 3 4 1 1 2 5 2v2l5 2 8 4 3 3 8 5v2l5 2 5 5 5 3v2l5 2 5 5 8 7 5 6 3 2v2l4 1 7 8 5 5v2l4 2 13 15 7 11 7 10 6 7v2l2 1 6 10 1 3 3 3 4 7 5 12 9 18 5 14 4 11 8 24 5 18v5l-2-4-6-20-10-27-11-25-12-23-11-18-11-16-9-12-13-16-7-8-1-3h-2v-2h-2l-7-8-13-13-2-1v-2l-4-2-10-9-10-8-19-14-17-11-21-12-21-11-11-5-1-2-15-6z" fill="#505912"/>
<path transform="translate(755,522)" d="m0 0h20l15 3 14 4 10 3 1 2-10-1-20-4-20-2-5-1-5 3v6l-2 6-1 6h2l1-3 3-1 7 2-3 1-6-1v6l14 3 2 2v8l-4 15-1 1-8-1-10-4-7-6-3-6v-12l4-16 7-10z" fill="#596813"/>
<path transform="translate(419,368)" d="m0 0h165v2l-2 1-18 1v28l24 1v2l-52 1-1 25-3 3v-26l-1-2-79-1v-2l42-1-1-21-1-7-85-1 1-2zm77 3v28l1 1h64v-29z" fill="#E6EA9C"/>
<path transform="translate(129,591)" d="m0 0 8 1 5 5 5 7 4 4-4 4-7 5-6 2-13 7 1 2h-3l-2-2-2-1-1 2v-7l-6-1-1-4-4 1-2 4-1-7 3-6 8-7 5-2v-3zm-7 5-6 4 2 1 5-3zm-8 5-5 5 4-2 3-3zm-7 5-3 2v2l4-2 1-2zm22 7-9 5v2l6-2 6-4z" fill="#49640B"/>
<path transform="translate(110,468)" d="m0 0h16l6 1v1l-16 1-6 1-2 1-4-1v2l-5-1v2l-4-1v2h-9l-1 2-3-1v3l-4 3-6 2-1 6v7l1 2 8 1 1 1 8-2 2-1 20-2v-2l5-1 13-1 2 6-10 3-9 2-2-1-1 2-2 2-15 1-6 3-6 1-1 6-5-1-5-6-2-3h-3l-1 3-1-4v-12l4-11 4-3 2-1v-2l11-4zm-32 10m-4 1m27 26m-15 3m-6 1 4 1z" fill="#596814"/>
<path transform="translate(852,501)" d="m0 0h1v9l-3 21-2 12-1 10-5 15-3 8-4 16-2 1-2 9-3 5-3 9-5 11-7 15-4 8-14 22-4 7-7 10-13 17-10 13-4 4h-2l-2 4-5 5-6 7-7 6-2 2 1-4 3-3 4-7 12-12 9-12 11-13 8-11 11-15 14-25 11-21 13-32 10-30 6-25z" fill="#586F16"/>
<path transform="translate(665,129)" d="m0 0 5 1 9 7-2 1v3l-6-1-1 4-1-2h-5l-5 5h-2l-2 4-7 8-4 7-8 10-1 3h-2l-4 10-1 3 7 1 7 6 6-2-1-4 5-5-2 6v2l5 1 6 7-6 11-5 1-26-20-4-4 4-7 3-1 7-11 6-8 9-13 10-14z" fill="#505812"/>
<path transform="translate(728,257)" d="m0 0 3 1 5 11 3 8v3l-12 5 9-3 5-1-2 5-1 3-6 6-3 2-1 5-1-2-4-2-6-8-4-1-2 2-2-7v-9l4-7 12-6v-3zm4 34-1 2 3-1z" fill="#596814"/>
<path transform="translate(613,97)" d="m0 0 16 8 16 9-2 1h-5v-2h-3v-2l-9-2-5-4-5-1-4 4-10 18-7 14h-2l-1 5-5 8-4 7-1 5v1l6 1 8 4v2l5 1v-2h2l1-10 5 4 8 4 2 2v3h-2l-1 6-2 4-5 1-23-13-9-5-1-4 2-5 2-1 2-6 6-10 7-11 10-19 7-14z" fill="#505912"/>
<path transform="translate(295,826)" d="m0 0 6 1 15 6 22 7 25 6 27 5 41 5h38l10-2 22-2 17-2-3 1 1 4-17 3-21 2h-46l-17-1-27-4-16-2-12-3-3-1-10-2-15-5-4-2-7-2-13-5-5-2-8-4z" fill="#586F16"/>
<path transform="translate(69,368)" d="m0 0 11 1 33 7 13 3 19 2 1 1v8l-3 17-2 1-35-7v-1l20 1 3 2h5l5-7 3-10-22-4-5-2h-11l-10-3h-9l-7-1-1 2-5 2-3 4-1 3 6 2h2l1 3 10 1v3l-9-1-13-3 1-13z" fill="#596914"/>
<path transform="translate(333,499)" d="m0 0h1l1 9 1 4h18l35 1-4 2h-18l1 28 28 1v2h-111-3l2-2 5-1h19l1-28h-14v-2l38-1zm-22 16v28h53l1-8v-15l-1-5z" fill="#ACB765"/>
<path transform="translate(429,20)" d="m0 0h34l24 1 23 3-4 2-1 1h-11l-3-2-22-2h-32l-17 1-7 1v2l-8 1-13-1-8 1-4 3-16 1-5 3h-14l-2 4h-11l-1-3 22-6 26-5 31-4z" fill="#71862F"/>
<path transform="translate(808,356)" d="m0 0h5l2 3-1 5-8 3-9 2-5 2-12 2-6 2-10 2-5-5v-4l5-3h3l16-4h8l2-2 7-1 1-1z" fill="#62791A"/>
<path transform="translate(798,332)" d="m0 0h15l2 2-19 3-37 9-7 4-4 7v8l6 1 2 4 1 3 2 2v5h-2l1 9 3 5-5-2-6-7-4-9-1-4v-15l5-10 5-2-2-1 10-5 21-5z" fill="#505912"/>
<path transform="translate(185,137)" d="m0 0 2 1v2l-11 9-13 12-10 10-9 11-10 11-15 20-16 24-13 23-2 4h-3l1-4 5-11h2v-3l-1-2 3-3h2v-5l3-5 5-5v-2h2l1-4 5-5 3-7 5-5 6-7 7-9 5-5 8-10 3-3h2v-2h2v-2h2v-2h2l2-4h2v-2h2l2-4h2v-2l11-8h2v-2h2z" fill="#424D0F"/>
<path transform="translate(350,181)" d="m0 0 3 1-5 3-10 4-11 5-21 11-9 6-11 7-12 9-14 13-8 7-12 12-1 2h-2l-2 4-11 13-7 10-5 7-5 9-9 15-8 16-2-1 11-23 11-18 11-16 12-14 11-13 16-15 17-14 19-13 21-12 23-11z" fill="#525B12"/>
<path transform="translate(542,72)" d="m0 0 8 1 12 4 2 2v24h-1l-2-18v-4l-12-1-5 1-2 5-2 3v8l-3 3-2 10-3 9-1 4v9l-3 1 1 5h2v2h-6l-3 1-2 6-2-2 12-36 10-32z" fill="#596814"/>
<path transform="translate(744,556)" d="m0 0h5l2 5h8l1 3 3-1 1-3 5-4v2h2v10l-3 11-1 1-8-1-10-4-7-6-1-12z" fill="#48620A"/>
<path transform="translate(88,301)" d="m0 0 7 1 51 17 17 5v7l-6 15-1 1h-9v-1l7-1 3-7 4-12h-7l-12-3-9-3-22-7-17-4-4-1v3h-3l-1 9 5 2v2l-5-1-4-3 3-11z" fill="#586F16"/>
<path transform="translate(498,65)" d="m0 0h17l8 1v8l-5 28h-1v-15l3-14-5-1-7-3h-6v2l-2 1-3 23h-2v7l-1 9-3 13v6l8 4-3 2-1 5 1 2-9-1-2-3 9-52z" fill="#596914"/>
<path transform="translate(126,244)" d="m0 0 12 1 10 4 3 2v5l-9 17h-3l3-8 1-4-2-1 3-5h4l-1-4-5 1h-8l-5-2-1-2-8 4h-2l-1 4-4 4-2 6-2 1-1 6-2-1-3 2v5l2 4 2 1-1 5-2 2-4-7v-9l4-11 7-11 6-5 1-2z" fill="#596814"/>
<path transform="translate(172,184)" d="m0 0 6 1 2 1 3 8 3 4v6h2l1 2 3-1v2l6 3 3 12h-2l-1-1v10l-4-4-8-12-10-14-8-12v-2z" fill="#4F5911"/>
<path transform="translate(731,574)" d="m0 0 6 2 16 8 24 13 19 10-4 1-16-8-10-6-12-5v-2l-11-3-5-3h-5l-4 13-1 8 1 2-4 2-2 3-8 1-2 2-1-4 7-11 8-16z" fill="#586F16"/>
<path transform="translate(561,489)" d="m0 0h8l-2 1 1 21 8 1 1 2h-41v28h49l11 1v1h-67l-18-1v-1h21v-22l-1-5-28-2v-1l60-1 1-21z" fill="#DFE396"/>
<path transform="translate(825,397)" d="m0 0h8l1 1v12h-1l-1-11-9 4-35 3-4 1-16 1v3l-6 1h-3l-1 3-1 13h-1l-2-16v-7l19-2 1-1 16-2 23-1z" fill="#587016"/>
<path transform="translate(335,80)" d="m0 0 3 1 1 5-3-2-4 3h-3v2h-10l-9 4-2 3-4 2 1 9 3 4 1 10h2l2 10v2h2l3 11 2 3 1 7 4 5-1 2h14l-4 3-11 2-8-21-13-38-3-10v-6l1-1 12-1 3-3 9-3z" fill="#515B12"/>
<path transform="translate(98,202)" d="m0 0 1 3-3 9-3 5-5 5-2 6-1 4h-2l-2 7-3 3-1 3h-2l-1 5-1 3h-2l-1 6-3 5h-2l-1 5-3 6-4 5-1 4-4 2 3-9 9-20 12-23 10-16z" fill="#697F28"/>
<path transform="translate(443,58)" d="m0 0h15l9 3 6 3 2 3-5-2-5-1-2 1h-22l-5 2-6 4-2 5-1 7h-2l1 14-1 9v19l-2 3-1-6v-31l1-15 2-7 8-7 2-1h6v-2z" fill="#586E16"/>
<path transform="translate(700,217)" d="m0 0 4 2-2 9h-3l-2 3-5 3-5 5-1 3 4 2 1 5 13-2v-2l4-1 1-3h2l4-10 1-6h1v11l-3 5-8 7-10 9-4 1-14-14 1-5 20-20zm1 3-2 4 3-2zm-3 4m-1 1m-1 1m-2 1 1 2 1-2zm-1 2m-1 1m-2 1v3l2-3zm-2 3m-2 1-5 5 1 2 6-7z" fill="#515C12"/>
<path transform="translate(613,97)" d="m0 0 16 8 16 9-2 1h-5v-2h-3v-2l-9-2-5-4-5-1-4 4-10 18-7 14h-2l-1 5-5 8-4 7-1 5-2 2v2l-4-2 1-5 2-3 1-3 4-7 6-10 6-9 16-32z" fill="#586F16"/>
<path transform="translate(221,732)" d="m0 0 6 1 9 6-2 1-10-6-2 8h-4l-1 4h-2l1 7 3 5 6 4 2 2 5 3 2 7 9 2h8l4-2 1-2h2v-3h2l2-4 2-5 1-11 2 3v9l-7 12-7 6h-11l-13-5-10-9-6-8-1-2v-8l6-12z" fill="#515912"/>
<path transform="translate(665,129)" d="m0 0 5 1 9 7-2 1v3l-6-1-1 4-1-2h-5l-5 5h-2l-2 4-7 8-4 7-8 10-1 3h-2l-2 5-4 6-4 1-1 4-2-4 4-6 3-1 7-11 6-8 9-13 10-14z" fill="#586F16"/>
<path transform="translate(397,806)" d="m0 0h11l10 2 2 2v13l6 3-1-3h3v4l-6 2-1-2-4-1-1-1 1-11-1-2-3 3v5l1 5-3 1-12-6v-2h-2l-2 4 1-15z" fill="#596814"/>
<path transform="translate(327,37)" d="m0 0 2 1-1 2h3l-1 2-6 1h-7v3l-9 2-2 2h-1l-2 1h-6v2l-4 1-2 1h-6v3l-8 3-4 2-6-1-12 6h-2l2 4-6 1v2l-5 2-2-1-4-1 18-10 23-11 35-13z" fill="#728734"/>
<path transform="translate(62,406)" d="m0 0 8 1 34 7 25 6 12 2v11h-1v-10h-19l-6-3-10-1-4-2h-5v-2h-12l-6-2h-9l-3 3h-2v13h3l3 4-9-1-1-5z" fill="#586E16"/>
<path transform="translate(754,218)" d="m0 0h11l6 3-2 4-12 11-4 3-4-2-8-8 1-3 9-4z" fill="#596814"/>
<path transform="translate(298,726)" d="m0 0h18l10 4 7 5-2 1-9-5h-18l-7 2v2l-5 3-8 15-5 13-3 5-4 10-2 6h-1v-8l4-11 10-21 7-14 5-5z" fill="#586E16"/>
<path transform="translate(808,558)" d="m0 0 2 1v7l-1 2-6 1-3-1-2 5-3 3-6 1-6-2-1 5-2 3v-8l3-12 2-4 12 2 11 1z" fill="#596814"/>
<path transform="translate(103,615)" d="m0 0h4l1 2 2-1v3l4 1 2 14 1 4 2 2v4l10-1 4-3 6-3h2l-1 3-12 7-6 4h-4l-12-20-4-8v-7z" fill="#4F5712"/>
<path transform="translate(718,672)" d="m0 0 5 1 3 6v6l-3 5-4 2-8-1-5-6v-6l5-6z" fill="#4F5712"/>
<path transform="translate(852,501)" d="m0 0h1v9l-3 21-2 12-1 10-5 15-3 8-4 16-2 1-2 9-3 5-3 9-3 6-1-4 1-6 9-23 9-27 6-25z" fill="#586F16"/>
<path transform="translate(348,742)" d="m0 0 7 1 19 5 15 5v1l-7 1-2-1-14-2-5-3-9-1-3 3-2 1-1 10-3 6-2 9-6 23-2 12-4 4 2-11 13-49 1-8z" fill="#586E16"/>
<path transform="translate(182,673)" d="m0 0h8l4 5v9l-4 5h-10l-6-5v-6l4-4z" fill="#4F5712"/>
<path transform="translate(754,489)" d="m0 0 15 1 60 8 4 1-1 3-10-1-3-2-20 1-7-2v-2l-22-1-4 1-11-1-1 19h-2l1-18z" fill="#586E16"/>
<path transform="translate(514,850)" d="m0 0 4 1h-3l1 4-17 3-21 2h-41l-3-1v-2l35-1 10-2 22-2z" fill="#586F16"/>
<path transform="translate(755,522)" d="m0 0h20l15 3 14 4 10 3 1 2-10-1-20-4-20-2-5-1-5 3h-2l-1 4h-2v-2l-3 3 2 1v4l-5 1-1-5 7-10z" fill="#587016"/>
<path transform="translate(712,166)" d="m0 0 4 1 5 6 3 2-1 2-4-2-9 1h-3l-1 3-8 6-1 2h-3l-2 4h-2l-2 4-6 4-1 4h-2v2h-2v2l-5 3-1 5h-6v2l-5 1 1-4 10-10 11-9 3-3 3-1 7-8 4-2 11-12z" fill="#586714"/>
<path transform="translate(481,771)" d="m0 0 4 2 1 2 4 50-5-1-2-9-3-27v-16z" fill="#F9F91A"/>
<path transform="translate(396,817)" d="m0 0 3 1v2l7 2 6 4-2 3 8 7 4 1h14l4-6h4v-3h2l2-5h2l-1 6-6 7-9 4h-13l-12-3-9-6-4-5z" fill="#505812"/>
<path transform="translate(571,837)" d="m0 0 7 1-4 4-16 4-14 4-18 4h-10l-1-3 4-2 37-8z" fill="#62781F"/>
<path transform="translate(591,738)" d="m0 0h4l16 33 5 12v5l-4-2-6-10-14-29z" fill="#F9F91B"/>
<path transform="translate(594,721)" d="m0 0h13l8 3 6 9 1 4-4-4-2-3v-3l-5-1-1 1h-6l-3-1-15 5-13 9h-2l-3 12h-1v-8l4-8 7-7 6-4z" fill="#587016"/>
<path transform="translate(588,476)" d="m0 0h2l1 12 2 2-4 1h-22-3-65l1-2 32-1 2-9h1v9h53z" fill="#E5E99E"/>
<path transform="translate(233,128)" d="m0 0 5 2-1 2-4 2-3 2h-3l-1 3h-2l-1 8 4 5 2 2 5 10 4 5 2 6 6 11-1 2-11-16-17-26-2-5 10-7z" fill="#515912"/>
<path transform="translate(314,742)" d="m0 0 3 2-1 5-12 29-6 12-4 2-2-2 1-5 3-7 2-1 1-4 3-5v-3l3-3 2-8 3-6 3-2z" fill="#F8F829"/>
<path transform="translate(84,264)" d="m0 0h3l-2 6-9 19-9 23-9 28-7 29-2 11h-1v-9l2-12 2-6 2-10 2-5 2-9 7-21 3-6 3-9 7-17z" fill="#505912"/>
<path transform="translate(805,248)" d="m0 0 4 2 12 24 5 14 4 11 8 24 5 18v5l-2-4-6-20-10-27-11-25-9-17z" fill="#4F5712"/>
<path transform="translate(80,559)" d="m0 0 2 3 3 3 3 1 1 5h-2l2 6 4 4 3 9h-2l4 5 7 2-3 2-6 2h-4l-9-24-3-11z" fill="#4E5612"/>
<path transform="translate(167,488)" d="m0 0 2 3 3 13 2 12 2 5 2 10 2 6 3 8 5 12 3 8 4 5 3 7 3 9 2 5-1 3-12-23-8-19-8-24-4-16-3-17z" fill="#515B12"/>
<path transform="translate(808,356)" d="m0 0 4 1 1 3-2 2-8 1-3 1-16 3-1 1-17 3-4 1-2-1 1-4 3-2h3l16-4h8l2-2 7-1 1-1z" fill="#F3F44A"/>
<path transform="translate(538,744)" d="m0 0h15l7 2 5 6-1 3-3-5-4-2-2 5-8-6-9 2-1 2-10 2-9 6-3 3-2 9 1 8-2-3-1-3v-7l3-9 8-7h5l-1-3z" fill="#587016"/>
<path transform="translate(729,263)" d="m0 0 3 3 2 8-1 3 1 5-4 2h-5l-1-3-4 1v-2l-2-1-1-8 5-5 4-2v2h2z" fill="#49640C"/>
<path transform="translate(411,757)" d="m0 0h23l10 3 7 6-1 2-4-4-10-1-10-4-10 3-10 4-2 1 1 2-2 10-3 1 1 7-2 3v-18l2-8 6-3 1-3z" fill="#586E16"/>
<path transform="translate(574,82)" d="m0 0 7 1 13 4-1 8-3 8h-1v-10h2l-1-2h-5l-5-2-1 2-6 5-2 6-2 11-4 2-1-1v-11h1v10h2l2-18 4-12z" fill="#596914"/>
<path transform="translate(514,809)" d="m0 0h1v13l-4 7-7 6-10 4-7 1-12-2-9-4-5-5-3-6v-5l1 2 5 1 2 4v2h2l2 5 8 4h16l6-3h3l2-4h2v-2h2l2-4 2-3z" fill="#505A12"/>
<path transform="translate(83,440)" d="m0 0 9 1-4 3-8 1-6 2-8 1 1 7 2 2-2 2-6 1-1 9h-1v-23l1-4 7-1h9l1 1z" fill="#5D751B"/>
<path transform="translate(818,565)" d="m0 0h1v6l-6 10-5 4-6 2-16-2-5-1 1-6 1-3 6 1 2 1 1-2 4-1 2-1 1 4-6 2h-2v5h12v-2h2v-3l8-7 3-3z" fill="#505912"/>
<path transform="translate(122,493)" d="m0 0h7l1 4-6 2-15 2-9 3-15 2h-6l-1-3 11-3 2-1 20-2v-2l5-1z" fill="#F4F542"/>
<path transform="translate(282,173)" d="m0 0 3 1 6 11-14 10-14 9h-5v-4l10-4h2l1-3 6-4 1-4 3-6z" fill="#4E5712"/>
<path transform="translate(638,773)" d="m0 0 2 3-1 7-5 8-8 7-8 4-7 2h-11l-8-4-7-8-1-4 6 2 4 4 2 5 6 2 12-1 8-5 7-3 2-1 5-10z" fill="#505812"/>
<path transform="translate(116,269)" d="m0 0 14 8 27 14 9 1 1 3-2 2 2 1-4 2-4-4-8-3-7-3-6-2-6-3-2-4-8-2v-2l-3-1-3-4z" fill="#586C15"/>
<path transform="translate(693,216)" d="m0 0 2 1-12 12-8 7-5-1-12-12v-2h4v-2l5 1 5 6 4 2v-2l8-3z" fill="#525A14"/>
<path transform="translate(763,448)" d="m0 0h73l1 1v10h-1v-9l-7 1-43 2-12-1h-16v19h-1v-20l2-2z" fill="#586E16"/>
<path transform="translate(419,368)" d="m0 0h52l16 1 2 2h-82l1-2z" fill="#E9EC9F"/>
<path transform="translate(713,288)" d="m0 0 5 2 3 3 3 5 4 4 1 5h2v2l3 1v2h8v1l-10 1-8-4-4-4v-2h-2l-5-8-1-7z" fill="#515913"/>
<path transform="translate(111,331)" d="m0 0 5 2-1 3h-22l-7-1h-2l-1 5-3 1-1 7 1 4 3 2v2l2 1-9-2-4-3 2-10 4-9h34z" fill="#596814"/>
<path transform="translate(542,72)" d="m0 0 8 1 12 4 2 2v24h-1l-2-18v-4l-12-1-5 1-2 5-3 4h-2l2-10z" fill="#596914"/>
<path transform="translate(759,411)" d="m0 0 8 1 2 6h-3v6l14 1 8 1v1l-25 2h-6v-14z" fill="#505912"/>
<path transform="translate(772,624)" d="m0 0 4 2 2 4v7l3-1h2l2-4h5l-2 6-5 9-4-1-9-5-1-5 4-5v-5z" fill="#4E5611"/>
<path transform="translate(295,826)" d="m0 0 6 1 15 6 22 7 25 6 7 3v1l-8 1-5-2-10-2-15-5-4-2-7-2-13-5-5-2-8-4z" fill="#596C15"/>
<path transform="translate(248,696)" d="m0 0h14l12 6 4 5-4-2-6-2h-2v-2l-5-1-3 1h-6l-9 5-2 5-5 4h-2l-1 4v-6l5-9 7-7z" fill="#586E16"/>
<path transform="translate(147,206)" d="m0 0 4 1 7 6-3 1-3-1-1 2-3 2-1 5-2 1 1 3h-3l-7-1-1 2h-2l-1-3 9-11z" fill="#596814"/>
<path transform="translate(67,507)" d="m0 0 2 1v3l2 1 5 5 4 5 1 4 6 3 7 1v1h-15l-8-6-5-6-2-5v-6z" fill="#505812"/>
<path transform="translate(473,757)" d="m0 0h24l8 4v3l-4-3-12-2h-6l-15 6h-2v2h-2l-1 3-4 2-2 13v23h-1l-1-25 1-14 9-7 3-1 2-3z" fill="#587016"/>
<path transform="translate(806,472)" d="m0 0 2 1-1 1-1 14h-13l-3-1v-14l2 1v3l7-1 5-1z" fill="#4E5611"/>
<path transform="translate(798,332)" d="m0 0h15l2 2-19 3-20 5h-7l-6 1 1-2h2l1-3 23-5z" fill="#586F16"/>
<path transform="translate(545,129)" d="m0 0 1 2-5 15-2 7-11-3-8-2 1-5 1-2h2l1-2 8 1 1 4 4 1 6-15z" fill="#4F5712"/>
<path transform="translate(317,744)" d="m0 0 2 1-1 8-5 12-4 9-4 8-3 9-1 2h-2l-1 3-5-1-2-4 1-3 2 3 4-2 10-23z" fill="#586F16"/>
<path transform="translate(127,497)" d="m0 0 4 2-10 3-9 2-2-1-1 2-2 2-15 1-8 2h-6l-2-1v-7l4-1-1 4 11-1 13-2 6-2 15-2z" fill="#70842C"/>
<path transform="translate(463,611)" d="m0 0 4 1 1 8 14 1 2 6-3 1-6-2h-8l-3 2-4-1 1-13z" fill="#3B4610"/>
<path transform="translate(415,612)" d="m0 0 5 1v23l-4 1-4-2v-18z" fill="#4C640E"/>
<path transform="translate(594,66)" d="m0 0 6 1 17 7 16 8 17 9 10 4 3 3 4 1 2 5-5-2-10-6-11-6-16-8-10-3-6-3-1-2-15-6z" fill="#3D480E"/>
<path transform="translate(302,463)" d="m0 0h12v2l-2 1v22l26 1-2 3-1 16h-1l-2-16-35-1v-3h11l1-23-7-1z" fill="#E3E798"/>
<path transform="translate(155,552)" d="m0 0 5 1-5 6-3-1-2-2-2 5-4 2-5-1-2-1-1 2-3 4-5 1-6-1 2-4-1-5 2-1 1 4 14-4 9-3zm-8 5m-2 1m-2 1m-3 1 1 2 1-2z" fill="#697F24"/>
<path transform="translate(622,578)" d="m0 0 2 1-9 3-66-1-25-1v-1z" fill="#587117"/>
<path transform="translate(358,513)" d="m0 0h31l-4 2h-18v28h-3v-28h-53v-1z" fill="#E0E48F"/>
<path transform="translate(762,241)" d="m0 0h12l5 3 2 4-6-2-4 1h-7l-9 4-2-1-7 7h-2l2-6 8-7z" fill="#596814"/>
<path transform="translate(110,219)" d="m0 0v3l-1 6-9 14-12 22h-3l1-4 5-11h2v-3l-1-2 3-3h2v-5l3-5 5-5v-2h2l1-4z" fill="#404B0F"/>
<path transform="translate(465,634)" d="m0 0h2l1 2v23l-5 1-2-2v-21l1-2z" fill="#374010"/>
<path transform="translate(43,403)" d="m0 0h1v74l1 11v10l-2-3-1-3-1-17v-46l1-19z" fill="#525D13"/>
<path transform="translate(327,37)" d="m0 0 2 1-1 2h3l-1 2-6 1h-7v3l-9 2-2 2h-1l-2 1h-6v2l-6 1v-2l-4 1v-2l27-10z" fill="#768A34"/>
<path transform="translate(110,468)" d="m0 0h16l6 1v1l-16 1-6 1-2 1-4-1v2l-5-1v2l-4-1v2h-9l-1 2-3-1v3l-10 2v-4l11-4z" fill="#778933"/>
<path transform="translate(144,385)" d="m0 0h1v10l-2 12-2 1-35-7v-1l20 1 3 2h5l5-7 4-10z" fill="#505A12"/>
<path transform="translate(190,161)" d="m0 0 4 1 1 5-7 2v2l-4 3h-2v2l-3 3v7l-7-1-5 3-1-4 11-9 7-8z" fill="#586F16"/>
<path transform="translate(335,80)" d="m0 0 3 1 1 5-3-2-4 3h-3v2h-10l-9 4-2 3-8-1-1 2v-6l1-1 12-1 3-3 9-3z" fill="#586F16"/>
<path transform="translate(138,183)" d="m0 0 2 1-2 4-13 17-13 18-1 2h-2l1-4 2-5 4-8 5-5 6-7 7-9z" fill="#3C450F"/>
<path transform="translate(271,781)" d="m0 0 1 2h2v2h2l2 4 3 4v2h3l3 5 6 4 8 3-4 1-13-5-8-6-6-7v-7z" fill="#505812"/>
<path transform="translate(733,576)" d="m0 0 5 2 5 1 23 12 22 12 8 4-4 1-16-8-10-6-12-5v-2l-11-3-5-3-5-2z" fill="#586E16"/>
<path transform="translate(754,617)" d="m0 0 3 2 8-1v2l-3 1-4 8-2 2-4-1-8-4v-3z" fill="#4D5711"/>
<path transform="translate(727,604)" d="m0 0h8l-8 15-5-2-8-5 1-3 8-1z" fill="#4F5911"/>
<path transform="translate(522,287)" d="m0 0 3 1-1 43-1 1h-29l-1-4 1 2 28-1z" fill="#414C12"/>
<path transform="translate(369,764)" d="m0 0 5 1 1 13-4 7-4-2-3-2v-8l3-1zm3 12-1 3h2z" fill="#5A7118"/>
<path transform="translate(88,301)" d="m0 0 7 1 12 4 1 3-5-1h-8l-2 1-3-1v3h-3l-1 9 5 2v2l-5-1-4-3 3-11z" fill="#596A14"/>
<path transform="translate(511,638)" d="m0 0 5 1v21h-5l-2-3v-14z" fill="#363D10"/>
<path transform="translate(108,376)" d="m0 0 11 1 7 2 19 2 1 1v8l-2-4-2 1-10-3-16-3-1-1-7-1z" fill="#586E16"/>
<path transform="translate(685,192)" d="m0 0 3 1-5 5-2 3v2h-2v2h-2v2l-5 3-1 5h-6v2l-5 1 1-4 10-10 11-9z" fill="#61781E"/>
<path transform="translate(246,95)" d="m0 0v3l-18 11-16 11-17 13-5 4-3-1 5-5 7-4 4-4 5-3h2l1-3 6-4h2v-2l7-4 9-6 5-3z" fill="#3C4510"/>
<path transform="translate(120,248)" d="m0 0 2 1v2l-4 1-1 4-4 4-2 6-2 1-1 6-2-1-3 2v5l2 4 2 1-1 5-2 2-4-7v-9l2-7 4-1 1-4 3-3 3-5h2l2-4z" fill="#596814"/>
<path transform="translate(179,601)" d="m0 0 4 1 3 6-1 4-20 13-4 1 2-4 5-3h2v-2l5-3 3-7z" fill="#495314"/>
<path transform="translate(789,268)" d="m0 0 1 2h2v12l-4 6-5 4-8 1-1-4 6-4h6z" fill="#3D4510"/>
<path transform="translate(835,579)" d="m0 0 2 4-2 10h-2l-2 9-3 5-3 9-3 6-1-4 1-6 9-23z" fill="#596B15"/>
<path transform="translate(665,129)" d="m0 0 5 1 9 7-2 1v3l-6-1-1 4-1-2h-5l-5 3 2-4 3-5 2-2z" fill="#596814"/>
<path transform="translate(327,101)" d="m0 0 2 4 3 5 9-2h5l5 14v2l-8 1 1-6 1-4v-5l-8 2 1 2-3 1-8-3v-5l-2-5z" fill="#4F5A12"/>
<path transform="translate(236,76)" d="m0 0h2v2l2 1-4 2v2l-3 2h-4l-1 3-7 1v2l-4 2-2 2v-2l-4-1 15-10z" fill="#7A8E3A"/>
<path transform="translate(52,546)" d="m0 0 1 3h2l8 28 5 13v5h-2l-7-20-3-8-2-7-2-8z" fill="#404A0F"/>
<path transform="translate(451,96)" d="m0 0 5 1v1h-5l1 10 3 3-1 11-3 5-3-1v-17l1-11z" fill="#F7F72D"/>
<path transform="translate(835,450)" d="m0 0h1v39l-1 1h-13l-2-1-1-5 1-11 2 1 1 10h7l2-4v8h2z" fill="#515B12"/>
<path transform="translate(125,170)" d="m0 0h2l-2 4-12 16-5 5-4 5-5 2 2-4 13-17 5-6z" fill="#798D39"/>
<path transform="translate(132,613)" d="m0 0h4v3l5-1-1 2-6 2-13 7 1 2h-3l-2-2-2-1-1 2 1-4 3-4 6-1z" fill="#576A13"/>
<path transform="translate(497,463)" d="m0 0h1l1 23 1 4-1 22 14 1v1h-14l-1 23h-1z" fill="#61781F"/>
<path transform="translate(298,69)" d="m0 0m-2 1h2l-1 3-23 10-19 10-4 2h-3v-2l7-4 24-12h5v-2l3-2 7-2z" fill="#404B0F"/>
<path transform="translate(819,424)" d="m0 0h2l1 7h6l4-1 1 5 3 1v-5h1v6l-1 1-7 1h-9z" fill="#515B12"/>
<path transform="translate(62,406)" d="m0 0h5v2l-2 1 13 2v2h-9l-3 3h-2v13h3l3 4-9-1-1-5z" fill="#596914"/>
<path transform="translate(639,114)" d="m0 0 8 1 1 5-6 9h-2v2l-5-2-1-2 4-2 1-9-2-1z" fill="#4F5812"/>
<path transform="translate(282,652)" d="m0 0 4 2 15 11 17 11 27 14-3 1-19-9-15-9-17-12-9-7z" fill="#586F16"/>
<path transform="translate(333,499)" d="m0 0h1l1 9 1 4h18l4 2-47 1h-16v-2l38-1z" fill="#8C9D3E"/>
<path transform="translate(384,816)" d="m0 0 1 3-4 12-4 1-18-5 1-4h3l6 4h5l5-5h2l1-4h2z" fill="#4B5412"/>
<path transform="translate(747,227)" d="m0 0 11 1 3 2-2 4-6 5-4-2-5-5v-3z" fill="#505812"/>
<path transform="translate(561,489)" d="m0 0h8l-2 1 1 21 8 1 1 2h-27l1-2 12-1 1-21z" fill="#D5DB8D"/>
<path transform="translate(759,368)" d="m0 0 1 3 10-2 12-1v2l2 1h-2l-1 2-15 4-5-2-2-3z" fill="#657C21"/>
<path transform="translate(536,90)" d="m0 0h3l1 7-3 3-2 10-3 9h-2l-1 2-2-1 3-11z" fill="#596B15"/>
<path transform="translate(833,450)" d="m0 0h2v38h-4l1-37z" fill="#3D480E"/>
<path transform="translate(523,811)" d="m0 0 9 4 4 5v3l16 2v2h-13l-9-4-5-6z" fill="#515A12"/>
<path transform="translate(808,558)" d="m0 0 2 1v7l-1 2h-5l-4-2h-2v-2h-13l-2 7h-1v-6l3-6 12 2 11 1z" fill="#587016"/>
<path transform="translate(547,51)" d="m0 0 18 4 8 3 4 1 8 3 5 2-4 1-16-4-23-7z" fill="#45500F"/>
<path transform="translate(469,21)" d="m0 0h18l23 3-4 2-1 1h-11l-3-2-22-2z" fill="#5F771E"/>
<path transform="translate(180,270)" d="m0 0 3 4 1 4v10l-5 12-8 12-4 4-3-1 4-4 6-11 5-7 3-9-1-8z" fill="#505B12"/>
<path transform="translate(510,133)" d="m0 0h2l-1 9-1 3-12-1-5-2 3-7h5l1 2h-2v2h7l2-2z" fill="#4E5711"/>
<path transform="translate(488,128)" d="m0 0 11 6-3 2-1 5 1 2-9-1-2-3 2-10z" fill="#596814"/>
<path transform="translate(126,244)" d="m0 0h6v2l-8 2-1 2-2-1-1 1-8 7-2 5-3 1 1 3-3 3-2-1 2-6 7-10 5-4 1-2z" fill="#587016"/>
<path transform="translate(221,732)" d="m0 0 6 1 9 6-2 1-10-6-2 8h-4l-1 4h-2l-2 9h-1v-8l6-12z" fill="#596A14"/>
<path transform="translate(818,565)" d="m0 0h1v6l-6 10-5 4h-6l1-3h2v-3l8-7 3-3z" fill="#4C5411"/>
<path transform="translate(739,281)" d="m0 0 2 1-3 6-4 6-4 1-3-2v-3l-2-1v-3zm-7 10-1 2 3-1z" fill="#6A8028"/>
<path transform="translate(240,744)" d="m0 0h3l1 2v7l-3 4 1 2-2 3h-2v-2l-5-1v-5l7-6z" fill="#F6F732"/>
<path transform="translate(59,446)" d="m0 0h5l2 2 1 7 2 2-2 2-6 1-1 9h-1z" fill="#596914"/>
<path transform="translate(244,749)" d="m0 0 3 3-1 6-2 2-2 6h-4l-6-2-1-1 1-9 2 2v3l4 1v2l3-3v-3z" fill="#586F16"/>
<path transform="translate(161,259)" d="m0 0 7 1 8 5-4 1-7-1h-3v2h-2l-1 4-1 3h-2l-1 3h-1l1-7z" fill="#596A14"/>
<path transform="translate(700,217)" d="m0 0 4 2-2 9h-3l-2 3-3-1 2-3h-2l-2 4-8 7-2-2 17-17zm1 3-2 4 3-2z" fill="#6D822A"/>
<path transform="translate(233,128)" d="m0 0 5 2-1 2-4 2-3 2h-3l-1 3h-2l-2 5h-3l-2 2-2-5 10-7z" fill="#587016"/>
<path transform="translate(64,458)" d="m0 0 4 1v6l13 2v1l-21 1v-9z" fill="#505912"/>
<path transform="translate(808,356)" d="m0 0 4 1 1 3-2 2-8 1-5 1-8-1 3-4 7-1 1-1z" fill="#F5F63A"/>
<path transform="translate(167,125)" d="m0 0 2 1-39 39v-3l15-16 11-11 8-7z" fill="#E9ECA1"/>
<path transform="translate(197,101)" d="m0 0 2 1-4 4-1 3-5 5-3 1v2l-8 2-6 7-2-1 2-4 11-9 13-10z" fill="#748934"/>
<path transform="translate(253,206)" d="m0 0 4 2-16 15-5 2-2-6 6-2h2l3-4h3v-2z" fill="#515B12"/>
<path transform="translate(231,633)" d="m0 0 7 6v2h2v2l4 2 8 5v2h2l3 5 3 6-4-2-19-19-6-7z" fill="#525C12"/>
<path transform="translate(513,611)" d="m0 0 3 1v15l-3 1-3-2-1-11z" fill="#455018"/>
<path transform="translate(194,189)" d="m0 0 6 3 10 9 5 5v3l-4-1-8-7-6-7v-2l-3-1z" fill="#F8F827"/>
<path transform="translate(573,83)" d="m0 0 2 3-2 3 3-1 1 4-5 6-3 15-4 2-1-1v-11h1v10h2l2-18z" fill="#587016"/>
<path transform="translate(825,356)" d="m0 0 2 4v14l-5 8-5 3h-3l1-4 1-2 6-3 2-9z" fill="#404A0F"/>
<path transform="translate(98,202)" d="m0 0 1 3-3 9-3 5-8 7-3 2 2-5z" fill="#7A8E3E"/>
<path transform="translate(305,726)" d="m0 0h11l10 4 7 5-2 1-9-5h-19z" fill="#596914"/>
<path transform="translate(604,162)" d="m0 0 5 4 8 4 2 2v3h-2l-1 3v-4l-5-2-4 2-4-1z" fill="#596914"/>
<path transform="translate(129,591)" d="m0 0 3 1-2 3-7 3h-3l-10 7-5 3-2 2v-3l8-7 5-2v-3z" fill="#6C7F27"/>
<path transform="translate(588,476)" d="m0 0h2l1 12 2 2-4 1h-22l2-1v-2h19z" fill="#E9EC9F"/>
<path transform="translate(88,437)" d="m0 0h11l15 4 1 3-13-1-7-2-7-3z" fill="#587117"/>
<path transform="translate(425,130)" d="m0 0 4 2v2l6-1 3 2v2h12v2h7v1l-13 1-10-2-9-7z" fill="#515C12"/>
<path transform="translate(440,614)" d="m0 0h4v42h-2l-1-37z" fill="#393F10"/>
<path transform="translate(331,813)" d="m0 0 1 2h3l4 4 9 1 4-2v7l-9-2-15-4v-3h2z" fill="#4A5311"/>
<path transform="translate(113,603)" d="m0 0 2 1-5 6 2 9h-4l-1-4-4 1-2 4-1-7 2-4 5-1z" fill="#596A15"/>
<path transform="translate(673,174)" d="m0 0h3l1 4-2 6-4 5-5-2 1-6 3-1 2-4z" fill="#3D480E"/>
<path transform="translate(779,335)" d="m0 0 8 1-1 2h-2v2l-8 2h-7l-6 1 1-2h2l1-3z" fill="#82942F"/>
<path transform="translate(135,224)" d="m0 0h6l5 3 3 11-4-2-10-8-1-3z" fill="#515A12"/>
<path transform="translate(58,332)" d="m0 0h1l-1 8-7 29-2 11h-1v-9l2-12 2-6 2-10 3-10z" fill="#515B12"/>
<path transform="translate(454,111)" d="m0 0 2 1 2 10v6l-4 4-6-2 1-4 3-1 1-3z" fill="#5F771D"/>
<path transform="translate(268,59)" d="m0 0 3 1-16 8h-2l2 4-6 1v2l-5 2-2-1-4-1 18-10z" fill="#A9B670"/>
<path transform="translate(525,848)" d="m0 0h14l-4 4-9 2h-10l-1-3 4-2z" fill="#6D832B"/>
<path transform="translate(139,637)" d="m0 0h2l-1 3-12 7-6 4h-4v-5l2-2 9-1 4-3z" fill="#3B440F"/>
<path transform="translate(67,407)" d="m0 0 12 2 20 4v1l-15 1-10-4-11-1z" fill="#586E16"/>
<path transform="translate(768,556)" d="m0 0 1 2h2v10l-3 11-3 1-3-3 3-2 2-4v-8l-3 2v-5z" fill="#474F11"/>
<path transform="translate(185,137)" d="m0 0 2 1v2l-11 9-13 12-4 1 1-3h2v-2h2l2-4h2v-2l11-8h2v-2h2z" fill="#424D0F"/>
<path transform="translate(766,338)" d="m0 0m-3 1h3v2h4v2l-11 3-7 4-4 7h-2l1-5 4-6 4-1-2-1z" fill="#5B7219"/>
<path transform="translate(279,171)" d="m0 0 4 1-1 7-2 2-8-1v2h-2l-5-8 1-2 2 4 6 2 2-5z" fill="#5A6C16"/>
<path transform="translate(360,144)" d="m0 0 2 2 2 7-6 3-10 3h-5l-1-2h7v-2h2v-2h2v-2l3-1 5 1zm-19 14m-2 1 2 1z" fill="#505912"/>
<path transform="translate(556,841)" d="m0 0 2 1-10 4-1 3-12 2 1-2h-10l3-2z" fill="#5A6F17"/>
<path transform="translate(723,680)" d="m0 0 2 1v6l-4 4-7 1-5-3v-4l10 1 3-3z" fill="#3C4410"/>
<path transform="translate(418,133)" d="m0 0 2 3v6l-7 2h-13v-2l2-1 10-1 3-2z" fill="#4F5812"/>
<path transform="translate(626,701)" d="m0 0h5l-3 2v4l-8 4-4 7-4-4v-3l6-4 5-2z" fill="#586D15"/>
<path transform="translate(203,594)" d="m0 0h2l7 11 8 11 6 7 2 4-1 3-10-13-14-21z" fill="#535E13"/>
<path transform="translate(754,407)" d="m0 0h13l1 4-6 1h-3l-1 3-1 13h-1l-2-16z" fill="#596814"/>
<path transform="translate(149,358)" d="m0 0h2v9l-4 10-7-1v-3l6-4 2-10z" fill="#404A0F"/>
<path transform="translate(148,253)" d="m0 0h2l-1 6-7 14h-3l3-8 1-4-2-1 3-5h4z" fill="#585F17"/>
<path transform="translate(584,788)" d="m0 0 6 2 4 4 2 5 4 2v2l-5-1-8-7-3-5z" fill="#515A12"/>
<path transform="translate(465,762)" d="m0 0m-1 1m-1 1m-2 1 3 1-1 4-4 2-2 13v23h-1l-1-25 1-14z" fill="#586F16"/>
<path transform="translate(594,66)" d="m0 0 6 1 17 7 8 4v2h-6l-8-4-1-2-15-6z" fill="#414D0F"/>
<path transform="translate(399,602)" d="m0 0h7l-8 8-2 6v20l1 6-3-2-1-27z" fill="#394210"/>
<path transform="translate(66,386)" d="m0 0 5 2 5 1 1 3 10 1v3l-9-1-13-3z" fill="#505912"/>
<path transform="translate(295,826)" d="m0 0 6 1 15 6 16 5v2l-10-1-8-4-7-3-9-3z" fill="#596914"/>
<path transform="translate(93,472)" d="m0 0h4v2h-2v2h-9l-1 2-3-1v3l-10 2v-4l11-4z" fill="#6C8129"/>
<path transform="translate(754,218)" d="m0 0h11l4 2v1l-22 5-3-1 7-3z" fill="#587117"/>
<path transform="translate(327,37)" d="m0 0 2 1-1 2h3l-1 2-6 1h-7v3l-7 1 1-2-2-2z" fill="#869848"/>
<path transform="translate(722,595)" d="m0 0 1 3-1 2h5l2 4-4 2-2 3-7 1 2-5 1-4z" fill="#596814"/>
<path transform="translate(729,260)" d="m0 0h3l5 13 3 6-6 2-2-5 1-3-3-9-3-1z" fill="#586218"/>
<path transform="translate(708,171)" d="m0 0 2 3v2h-3l-1 3-8 6-1 2h-3l-2 4h-2l-2 4-2-1 6-8 4-3 7-6z" fill="#586C15"/>
<path transform="translate(182,673)" d="m0 0h8l-3 1-2 5-5 3-2 3h-2l-2 2v-6l4-4z" fill="#596A14"/>
<path transform="translate(418,645)" d="m0 0h2v13l-1 2h-6v-11l4 2z" fill="#3C4610"/>
<path transform="translate(803,432)" d="m0 0 2 3v2h2v3h-16l1-4 5-2 4 1z" fill="#4C5511"/>
<path transform="translate(129,347)" d="m0 0h14v1l-19 1v2h8l15 4 3 2-8-1-3-1h-11l-2-2-4-1 1-4z" fill="#586E16"/>
<path transform="translate(762,241)" d="m0 0m-3 1 5 1-2 2-3 1-2 4-4 1-1-1-5 7h-3l2-6 8-7z" fill="#73862D"/>
<path transform="translate(111,331)" d="m0 0 5 2-1 3h-22l-2-1h-12l-2 5-2-1 3-6h34z" fill="#587016"/>
<path transform="translate(828,301)" d="m0 0 4 2 1 6 3 9 3 7 2 9 2 7v5l-2-4-6-20-7-19z" fill="#525D12"/>
<path transform="translate(399,65)" d="m0 0h6l1 1v6h-1l-1-5-8 1-4 4h-6v6h-1l-1-9 3-2z" fill="#586E16"/>
<path transform="translate(750,365)" d="m0 0 5 2 2 6 2 2v5l-4-2-4-5-2 1v-8z" fill="#5A6814"/>
<path transform="translate(651,188)" d="m0 0v3l-1 5 5 1 6 7-2 3-2-5-1-1-7 1-4 1-1-4 4-2-1-4z" fill="#596914"/>
<path transform="translate(397,806)" d="m0 0h11l10 2v1l-10 3-5-1-7-1z" fill="#5E751C"/>
<path transform="translate(796,610)" d="m0 0 3 1v6l-8 15-4 1 4-9 3-5z" fill="#434D0F"/>
<path transform="translate(201,260)" d="m0 0h2l-1 4-8 9-4-1-1-2 5-5z" fill="#383F10"/>
<path transform="translate(319,154)" d="m0 0 3 1 3 4-1 2h14l-4 3-11 2-4-10z" fill="#4F5812"/>
<path transform="translate(519,67)" d="m0 0h3v12l-4 23h-1v-15l3-14-2-1z" fill="#4F5712"/>
<path transform="translate(761,590)" d="m0 0 5 1 22 12 8 4-4 1-16-8-10-6-5-2z" fill="#596914"/>
<path transform="translate(728,257)" d="m0 0 3 1v2l-3 3v3h-4l-5 3-1 2-5-1 2-4 10-4v-3z" fill="#5E731B"/>
<path transform="translate(665,215)" d="m0 0h4v2h3l1 7h-3l-4-4-4-1v2l-5 1 1-4 2-2 5 1z" fill="#596814"/>
<path transform="translate(191,685)" d="m0 0 1 3-2 4h-10l-3-2v-3l12-1z" fill="#39410F"/>
<path transform="translate(138,427)" d="m0 0h1v33l-4-1 1-4 1-26z" fill="#3E490E"/>
<path transform="translate(665,131)" d="m0 0 2 4-4 3-3 5-1 4-5 3h-3l7-11z" fill="#71852C"/>
<path transform="translate(126,381)" d="m0 0h19l1 1v8l-2-4-2 1-10-3-6-2z" fill="#596B15"/>
<path transform="translate(621,131)" d="m0 0 1 3-1 3 9 3 2 2-1 7-2 2 1-6-5 3-2-1 1-6-4-3z" fill="#5A6719"/>
<path transform="translate(369,764)" d="m0 0 4 1-1 10-5 4-1-1v-6z" fill="#F7F731"/>
<path transform="translate(772,624)" d="m0 0 4 2 2 4v5l-4 3h-3l1 4-3-2 1-5 3-4v-5z" fill="#596A14"/>
<path transform="translate(754,548)" d="m0 0 2 3 14 3 2 2v8h-1v-6l-3-1-8 1v-3l-5-1z" fill="#586D16"/>
<path transform="translate(144,492)" d="m0 0h1l1 12-3 10-5 6-6 3-2-1 5-3 3-3 5-11 1-6z" fill="#525E13"/>
<path transform="translate(174,178)" d="m0 0h5v8l-7-1-5 3-1-4z" fill="#596814"/>
<path transform="translate(346,32)" d="m0 0 3 1-4 2-2 4h-11l-1-3z" fill="#7B8E3B"/>
<path transform="translate(605,722)" d="m0 0h6l6 4 5 9-1 2-5-7v-3l-5-1-1 1h-6l-2-4z" fill="#596B15"/>
<path transform="translate(830,508)" d="m0 0h1v14l-1 2h-8v-3l4-2 3-10z" fill="#3C4510"/>
<path transform="translate(448,823)" d="m0 0h2l-1 6-6 7-6 3-2-1 5-7h4v-3h2z" fill="#4C5512"/>
<path transform="translate(162,561)" d="m0 0 2 2 4 13-12 4-3-1 8-5 2-7z" fill="#505A12"/>
<path transform="translate(327,101)" d="m0 0 2 4 3 5 11-2v3l-6 1 1 2-3 1-8-3v-5l-2-5z" fill="#596B15"/>
<path transform="translate(417,810)" d="m0 0h3v13l6 3-1-3h3v4l-6 2-1-2-4-1-1-1 1-11z" fill="#596A16"/>
<path transform="translate(719,196)" d="m0 0 3 1v5l-4 2v2l-8 2v-4l6-5z" fill="#F3F44A"/>
<path transform="translate(770,732)" d="m0 0v3l-12 13-13 13-2-1 13-13 2-3h2l2-4z" fill="#353B10"/>
<path transform="translate(852,501)" d="m0 0h1v9l-3 21-2 12-2-3 2-13z" fill="#586C15"/>
<path transform="translate(213,116)" d="m0 0 2 2-19 14-6 5-3-1 5-5 7-4 4-4 5-3h2l1-3z" fill="#3F4910"/>
<path transform="translate(582,701)" d="m0 0 4 1-23 11-9 3-1-2 21-9z" fill="#525B12"/>
<path transform="translate(548,745)" d="m0 0h10l6 5 1 5-4-5-4-2-2 5-8-6z" fill="#596814"/>
<path transform="translate(811,356)" d="m0 0h2l2 3-1 5-8 3-4-1 1-4 8-1 1-2z" fill="#697F1D"/>
<path transform="translate(455,75)" d="m0 0h1l1 13 12 1h6l2 2h-21l-2-3v-11z" fill="#596B15"/>
<path transform="translate(638,773)" d="m0 0 2 3-1 7-5 8-7 6v-3l4-3 5-10z" fill="#505912"/>
<path transform="translate(750,726)" d="m0 0 2 1-3 4-7 8-7 6-2 2 1-4 3-3 4-7 5-1 2-4h2z" fill="#596914"/>
<path transform="translate(655,681)" d="m0 0h3l-2 4-1 3-11 5-2-1-1 3-1-4 8-4z" fill="#586E16"/>
<path transform="translate(110,564)" d="m0 0 2 1v2l-4 2v2l-8 3-2 1-1-5 9-4z" fill="#A8B43D"/>
<path transform="translate(140,553)" d="m0 0 2 1-2 4-10 3h-4l-1-4 6-1z" fill="#F5F63F"/>
<path transform="translate(336,83)" d="m0 0 2 1v2h2v9h-4l-1-6-3-1 2-4z" fill="#4B5411"/>
<path transform="translate(282,652)" d="m0 0 4 2 15 11 8 5v2l-6-2-13-10-8-6z" fill="#586D15"/>
<path transform="translate(588,515)" d="m0 0h3v21l-2 4-1-7z" fill="#E9EC9C"/>
<path transform="translate(745,256)" d="m0 0 2 1-2 9-1 7-2 6h-1v-14l3-8z" fill="#586D15"/>
<path transform="translate(693,736)" d="m0 0 4 2 4 7-2 4-5-1v-7z" fill="#3F4910"/>
<path transform="translate(758,460)" d="m0 0 2 3 3 1 2 4 7 2v1h-14z" fill="#4C5311"/>
<path transform="translate(213,241)" d="m0 0h7l-2 4-5 5-3-1v-7z" fill="#3A4210"/>
<path transform="translate(536,90)" d="m0 0h3l1 7-3 3-4 8h-2l3-12z" fill="#586E16"/>
<path transform="translate(173,226)" d="m0 0 6 4 14 12 1 2-5-2-5-3v-2l-4-2-7-6z" fill="#596714"/>
<path transform="translate(365,792)" d="m0 0h2l-1 18h-2l-2 12-2 1 1-9 4-18z" fill="#596B15"/>
<path transform="translate(301,784)" d="m0 0 2 2-2 7h-2l-1 3-5-1-2-4 1-3 2 3 4-2z" fill="#5B7216"/>
<path transform="translate(127,497)" d="m0 0 4 2-10 3-9 2-2-1-1 2 1-5 14-2z" fill="#81943D"/>
<path transform="translate(628,145)" d="m0 0h2l-1 8-2 2-5-1-1-5z" fill="#404B11"/>
<path transform="translate(410,670)" d="m0 0h17l-3 3-2 1h-8l-5-2z" fill="#5F771E"/>
<path transform="translate(747,610)" d="m0 0h2l5 6v2l-8 5-1-4 2-4z" fill="#596A14"/>
<path transform="translate(833,468)" d="m0 0 2 1v19h-4z" fill="#333A0F"/>
<path transform="translate(491,105)" d="m0 0 3 3-1 7-3 14-2-1 1-11z" fill="#586E16"/>
<path transform="translate(825,397)" d="m0 0h8l1 1v12h-1l-1-11-9 4-3-1 1-3z" fill="#596914"/>
<path transform="translate(773,264)" d="m0 0 3 3-7 5-1 3h-3l-2 2 1-7 5-3h2v-2z" fill="#F7F72D"/>
<path transform="translate(590,536)" d="m0 0h1v6l20-1 1 3h-16l-11-1 3-1v-2h2z" fill="#627A21"/>
<path transform="translate(693,156)" d="m0 0 3 1-3 5-3 3h-3l-2-4 2-3z" fill="#3C450F"/>
<path transform="translate(550,156)" d="m0 0 12 2 5 1 3-3h2l-2 7-6-1-14-5z" fill="#535F13"/>
<path transform="translate(285,717)" d="m0 0 2 2v10l-5 8h-2l1-4 3-8z" fill="#515A12"/>
<path transform="translate(132,613)" d="m0 0h3v3l-11 6-4 2-1-5 5-1z" fill="#F5F63D"/>
<path transform="translate(144,525)" d="m0 0h3l-1 3-10 2-1 2-5 2-2-1-1 2h-2l1-3 6-3 9-3z" fill="#849640"/>
<path transform="translate(806,472)" d="m0 0 2 1-1 1-1 14h-13v-1h11l-1-3 1-2-2-1 1-5z" fill="#596A14"/>
<path transform="translate(567,368)" d="m0 0h17v2l-2 1h-15l-3-2z" fill="#D8DD8F"/>
<path transform="translate(161,326)" d="m0 0 2 1-1 6-5 13-1 1h-9v-1l7-1 3-7z" fill="#545F13"/>
<path transform="translate(780,285)" d="m0 0 6 1-2 3-3 1 2 2-8 1-1-4z" fill="#404B0E"/>
<path transform="translate(729,587)" d="m0 0 1 4-2 9h-6l1-5 2-2v-2h2z" fill="#587117"/>
<path transform="translate(498,509)" d="m0 0 1 3 14 1v1h-14l-1 23h-1v-24z" fill="#5A7018"/>
<path transform="translate(833,418)" d="m0 0 2 4 1 14-4-1v-14z" fill="#38400E"/>
<path transform="translate(736,282)" d="m0 0h3l-1 4-4 3-4 1-3-2v-2z" fill="#F6F734"/>
<path transform="translate(355,137)" d="m0 0 4 1 1 6-4-4v3l-7-1-3 1v2h-4l1-4 10-3z" fill="#697B25"/>
<path transform="translate(267,61)" d="m0 0 3 1-3 3-8 4h-2v2l-4-1v-2z" fill="#566F15"/>
<path transform="translate(654,768)" d="m0 0 7 1 1 4-4 3h-3l-2-7z" fill="#3C440F"/>
<path transform="translate(576,512)" d="m0 0h24l-2 2-7 1-2 1-2-1-10-1z" fill="#83953F"/>
<path transform="translate(626,105)" d="m0 0 5 1 14 8-2 1h-5v-2h-3v-2l-9-2v-3z" fill="#596914"/>
<path transform="translate(298,69)" d="m0 0m-2 1h2l-1 3-18 8h-2l2-4h5v-2l3-2 7-2z" fill="#414E0F"/>
<path transform="translate(729,609)" d="m0 0h1l-1 7-2 3-5-2-1-4h3v-2l4-1z" fill="#424C0F"/>
<path transform="translate(159,270)" d="m0 0 1 4-2 7h-3v2l2 1-4-1-1-1 1-7 2 1 1-2h2z" fill="#5C6D14"/>
<path transform="translate(564,816)" d="m0 0 4 1-9 7-6 1 2-5 4-2h5z" fill="#616A21"/>
<path transform="translate(90,414)" d="m0 0h14l7 2v2l-6 1-4-2h-5v-2h-6z" fill="#596B15"/>
<path transform="translate(155,291)" d="m0 0 11 1 1 3-2 2 2 1-4 2-4-4-5-2z" fill="#61771E"/>
<path transform="translate(180,270)" d="m0 0 3 4 1 4v10l-4 10-3-1 2-4 3-9-1-8z" fill="#556013"/>
<path transform="translate(116,269)" d="m0 0 10 6v3l4 1v2l-8-2v-2l-3-1-3-4z" fill="#586F16"/>
<path transform="translate(226,231)" d="m0 0 3 1-2 4-7 6-4-2 6-5 1-2h3z" fill="#4D5511"/>
<path transform="translate(170,594)" d="m0 0 2 1-1 2-3 2-4 4-6 1-4 1 4-4z" fill="#7D8E39"/>
<path transform="translate(155,552)" d="m0 0 5 1-5 6-3-1-2-2-1 2h-3l1-3z" fill="#738831"/>
<path transform="translate(121,533)" d="m0 0h4l-1 3-4 2-3 9-1-4-4-1 3-1 2-5z" fill="#5E741C"/>
<path transform="translate(692,148)" d="m0 0 4 2 3 3-1 4-3 2v-2l-4-1z" fill="#515B12"/>
<path transform="translate(548,716)" d="m0 0h5l-2 2-17 6h-5l1-2 13-4z" fill="#525D13"/>
<path transform="translate(718,672)" d="m0 0 3 1-6 2-2 5h-6l-1 2 1-4 4-5z" fill="#586D15"/>
<path transform="translate(715,609)" d="m0 0h8l2 2-3 3v2l-6-2-2-4z" fill="#4F5712"/>
<path transform="translate(790,473)" d="m0 0 2 1v3l5-1-3 7-2 1-2 3z" fill="#596914"/>
<path transform="translate(169,124)" d="m0 0 2 1-3 5h-2l-2 4-7 7-3-1 14-14z" fill="#5B7319"/>
<path transform="translate(232,754)" d="m0 0 2 2 1 4 7 5-1 2-9-3-1-1z" fill="#596714"/>
<path transform="translate(418,614)" d="m0 0h1v23l-6-1 1-3 3-3v-13z" fill="#363D10"/>
<path transform="translate(52,546)" d="m0 0 1 3h2l4 14-1 3-1-5-3-1-2-8z" fill="#475210"/>
<path transform="translate(299,91)" d="m0 0h13l-4 5-8-1-1 2z" fill="#596814"/>
<path transform="translate(421,776)" d="m0 0 2 4 5 5 10 7 2 2-4-1-13-7-2-5z" fill="#596A14"/>
<path transform="translate(561,776)" d="m0 0h3l1 4h-8v2h-10v-1h5v-2z" fill="#7C8F38"/>
<path transform="translate(483,757)" d="m0 0h14l8 4v3l-4-3-18-3z" fill="#596914"/>
<path transform="translate(239,217)" d="m0 0 4 2-2 4-5 2-2-6z" fill="#3C450F"/>
<path transform="translate(674,180)" d="m0 0h2l-1 4-4 5-4-1 1-5z" fill="#424813"/>
<path transform="translate(478,116)" d="m0 0h1v19l-2 2h-4-3v-2l7-1v-9z" fill="#535E13"/>
<path transform="translate(478,75)" d="m0 0 2 4v12h-3l-1-7z" fill="#525C12"/>
<path transform="translate(175,614)" d="m0 0m-1 1m-1 1 1 3-11 7h-2l2-4 5-3h2v-2z" fill="#525D1C"/>
<path transform="translate(174,592)" d="m0 0 4 2 3 5v2l-4-1-2-4-2 3h-5l4-3v-3z" fill="#596817"/>
<path transform="translate(874,488)" d="m0 0h2v10l-1 6h-2l-1-10z" fill="#384010"/>
<path transform="translate(88,437)" d="m0 0h11l6 2v2h-10l-7-3z" fill="#94A44F"/>
<path transform="translate(188,108)" d="m0 0 2 1-10 9-7 6-1 2-2-1 2-4 11-9z" fill="#B7C173"/>
<path transform="translate(261,697)" d="m0 0 6 1 9 6 2 3-4-2-6-2h-2v-2l-5-2z" fill="#596914"/>
<path transform="translate(274,224)" d="m0 0 2 1-16 15-2-1 9-10z" fill="#505912"/>
<path transform="translate(190,205)" d="m0 0h2v2l6 3 3 12h-2l-2-5-4-8-3-2z" fill="#4F5612"/>
<path transform="translate(110,188)" d="m0 0 2 1-4 6-4 5-5 2 2-4 5-6z" fill="#849642"/>
<path transform="translate(261,714)" d="m0 0 6 1 2 1-1 4-2 4-2 1-1 3-2-2 1-4 3-3-1-3z" fill="#587016"/>
<path transform="translate(97,541)" d="m0 0h6l-4 3-7 2-1 2h-5l4-4z" fill="#667B23"/>
<path transform="translate(138,183)" d="m0 0 2 1-2 4-5 5-4 2 2-5 5-6z" fill="#3B430F"/>
<path transform="translate(179,601)" d="m0 0 4 1 3 6-1 4h-1l-1-5-3-1-1 6h-2z" fill="#505912"/>
<path transform="translate(758,294)" d="m0 0h1v7l-6 6-3-1 1-3 5-5z" fill="#465212"/>
<path transform="translate(394,759)" d="m0 0 2 2 1 6v10l-2 5-1-4 1-6-2-11z" fill="#546314"/>
<path transform="translate(231,633)" d="m0 0 7 6v2h2v2l4 2 2 2 1 4-7-6-9-10z" fill="#596814"/>
<path transform="translate(75,349)" d="m0 0h4l1 3 3 2v2l2 1-9-2-2-5z" fill="#515B12"/>
<path transform="translate(652,248)" d="m0 0 7 6 10 11-1 2-9-9-7-8z" fill="#596814"/>
<path transform="translate(303,94)" d="m0 0 2 2-1 3v10l-2-2-2-7v-5z" fill="#505912"/>
<path transform="translate(498,72)" d="m0 0h1l-1 13-4 5 2-15z" fill="#596B15"/>
<path transform="translate(648,713)" d="m0 0 5 2 2-1 2 5 4 5-4-1-5-4v-2h-2z" fill="#586D15"/>
<path transform="translate(69,481)" d="m0 0h10l-1 2-6 2v2l-6-1 2-4z" fill="#596B15"/>
<path transform="translate(62,424)" d="m0 0 2 3v2h3l3 4-9-1-1-5z" fill="#505A12"/>
<path transform="translate(808,356)" d="m0 0 4 1 1 3-2 2-7-2-4-2 1-1z" fill="#EBED8D"/>
<path transform="translate(88,301)" d="m0 0 7 1v3h-2v2h-5l-2 1z" fill="#587016"/>
<path transform="translate(455,135)" d="m0 0 14 2v1h9v2h-13l-10-2z" fill="#535F13"/>
<path transform="translate(310,744)" d="m0 0 3 1-6 11-3 8-1-3 3-10z" fill="#687322"/>
<path transform="translate(139,637)" d="m0 0h2l-1 3-13 7v-3l6-4z" fill="#445110"/>
<path transform="translate(62,577)" d="m0 0 2 2 4 11v5h-2l-4-11z" fill="#485310"/>
<path transform="translate(763,241)" d="m0 0h11v1l-7 1-1 2h-2l-1 3-6 1 3-4 3-1z" fill="#5C721A"/>
<path transform="translate(627,184)" d="m0 0 3 1-3 5-4 1-1 4-2-4 4-6z" fill="#596B15"/>
<path transform="translate(209,93)" d="m0 0 2 1-2 4-6 4-4-2z" fill="#879843"/>
<path transform="translate(361,822)" d="m0 0 8 5v2l-10-2 1-4z" fill="#4E5812"/>
<path transform="translate(536,824)" d="m0 0 16 1v2h-13l-3-1z" fill="#535E13"/>
<path transform="translate(316,801)" d="m0 0 3 1-4 4-7 3h-6v-1l6-2z" fill="#5A661B"/>
<path transform="translate(599,801)" d="m0 0h14l-2 3h-11z" fill="#424C0F"/>
<path transform="translate(798,529)" d="m0 0 11 1 6 3-4 1-14-3z" fill="#596B15"/>
<path transform="translate(751,346)" d="m0 0h7l-3 2-4 4-3 5h-2l1-5z" fill="#596914"/>
<path transform="translate(386,142)" d="m0 0 2 3v3l-12 3-5-1v-1l12-2 1-3h2z" fill="#525D13"/>
<path transform="translate(520,81)" d="m0 0 1 4-3 17h-1v-15z" fill="#535F13"/>
<path transform="translate(265,749)" d="m0 0 2 3v9l-3 6-2-2 2-5z" fill="#4A5310"/>
<path transform="translate(86,312)" d="m0 0 1 4-1 4 5 2v2l-5-1-4-3 2-5z" fill="#576614"/>
<path transform="translate(617,100)" d="m0 0 7 2 4 4-4 1-3-2-2-1-5-1v-2z" fill="#586C15"/>
<path transform="translate(292,49)" d="m0 0h7l-2 4-6 1v-2l-4 1v-2z" fill="#899B4C"/>
<path transform="translate(513,47)" d="m0 0h19l3 3-4 1-18-3z" fill="#536013"/>
<path transform="translate(571,837)" d="m0 0 7 1-4 4-7 1v-3l4-1z" fill="#768A2F"/>
<path transform="translate(768,556)" d="m0 0 1 2h2v6h-2v-2l-3 1-2 2v-5z" fill="#46580D"/>
<path transform="translate(105,469)" d="m0 0h2v2l3 1-2 1-4-1v2l-5-1v2h-2l1-4z" fill="#8B9C47"/>
<path transform="translate(139,382)" d="m0 0h7v8l-2-4-2 1-5-2z" fill="#596814"/>
<path transform="translate(825,356)" d="m0 0 2 4v10l-3 3-1-2z" fill="#3A440E"/>
<path transform="translate(102,281)" d="m0 0 5 2-1 7h-3l-2-3v-5z" fill="#505912"/>
<path transform="translate(201,260)" d="m0 0h2l-1 4-3 3v-2l-4 3-4-1z" fill="#414C0F"/>
<path transform="translate(93,251)" d="m0 0v3l-5 10h-3l1-4 4-6z" fill="#465110"/>
<path transform="translate(675,230)" d="m0 0h4l-2 4-2 2-5-1 2-4z" fill="#414B0F"/>
<path transform="translate(514,809)" d="m0 0h1v13l-3 6-3-1 2-4 2-3z" fill="#546013"/>
<path transform="translate(277,818)" d="m0 0 5 1 13 6v1l-7-1-11-6z" fill="#596A14"/>
<path transform="translate(548,806)" d="m0 0 6 4 1 2 2-2v3l-3 1-1 2-4-5z" fill="#5D711A"/>
<path transform="translate(451,768)" d="m0 0 2 4v9h-4z" fill="#525D13"/>
<path transform="translate(605,722)" d="m0 0h6l-1 5h-6l-2-4z" fill="#596914"/>
<path transform="translate(796,610)" d="m0 0 3 1v6l-3 4-1-7z" fill="#404B0F"/>
<path transform="translate(89,548)" d="m0 0 2 3-5 2-5 6-1-4 5-5z" fill="#5D6F19"/>
<path transform="translate(126,276)" d="m0 0 6 2 7 4-1 3-8-4v-2l-4-1z" fill="#596A14"/>
<path transform="translate(519,26)" d="m0 0 11 1v4l-8-1z" fill="#657C23"/>
<path transform="translate(419,837)" d="m0 0 16 1-1 2h-13l-2-1z" fill="#535E13"/>
<path transform="translate(378,750)" d="m0 0 9 2 2 2-7 1-2-1v-2h-7v-1z" fill="#596A14"/>
<path transform="translate(664,692)" d="m0 0 4 4 7 10v2l-3-1-7-11z" fill="#535D13"/>
<path transform="translate(825,609)" d="m0 0 2 1-2 6-3 6-1-4 1-6z" fill="#596A14"/>
<path transform="translate(717,602)" d="m0 0 2 3-2 4-4 3-1-4z" fill="#586D15"/>
<path transform="translate(835,579)" d="m0 0 2 4-3 8h-3l3-10z" fill="#596B15"/>
<path transform="translate(361,513)" d="m0 0h7l-2 1 1 2v8h-2l-2-9z" fill="#C7CF64"/>
<path transform="translate(262,198)" d="m0 0 3 2-2 4h-5v-4z" fill="#3A430E"/>
<path transform="translate(406,72)" d="m0 0 2 4 1 12-3-3-1-7z" fill="#535E13"/>
<path transform="translate(350,818)" d="m0 0h2v7l-6-1-1-3z" fill="#3D4710"/>
<path transform="translate(770,732)" d="m0 0v3l-10 11-2-2h2l2-4z" fill="#3D4610"/>
<path transform="translate(758,621)" d="m0 0h2l-1 7-2 2-4-1 2-2 1-4h2z" fill="#3B4310"/>
<path transform="translate(236,602)" d="m0 0 5 5 7 9v2l-4-2-7-10z" fill="#586E16"/>
<path transform="translate(167,488)" d="m0 0 2 3 2 8v5l-2 1-2-10z" fill="#535F13"/>
<path transform="translate(713,270)" d="m0 0 3 3v2l-6 1v8h-1v-9z" fill="#587016"/>
<path transform="translate(156,267)" d="m0 0h4l-1 4-1 3h-2l-1 3h-1l1-7z" fill="#82943E"/>
<path transform="translate(205,252)" d="m0 0 3 2-1 4-4 4v-2l-4 2 1-3 4-1z" fill="#525B12"/>
<path transform="translate(715,199)" d="m0 0 2 2-3 4 4 1-8 2v-4z" fill="#EFF140"/>
<path transform="translate(199,127)" d="m0 0 2 1-11 9-3-1 5-5z" fill="#414B10"/>
<path transform="translate(454,111)" d="m0 0 2 1 1 10-3 4z" fill="#586E16"/>
<path transform="translate(666,766)" d="m0 0 5 1-5 4-4 2-1-5z" fill="#515912"/>
<path transform="translate(656,682)" d="m0 0 4 2 4 6v2l-3-1-2-3-4-1z" fill="#515B12"/>
<path transform="translate(161,259)" d="m0 0 4 1-2 2-1 5-5 1 2-6z" fill="#677A23"/>
<path transform="translate(741,198)" d="m0 0 2 4v7l-4 5-1-3 2-3z" fill="#545F13"/>
<path transform="translate(341,108)" d="m0 0h2v3l-6 1 1 2-3 1-3-1 1-3z" fill="#768A24"/>
<path transform="translate(327,37)" d="m0 0 2 1-1 2h3l-1 2-5 1-3-1v-2h2v-2z" fill="#738834"/>
<path transform="translate(494,873)" d="m0 0h10v2l-14 1v-2z" fill="#3A4210"/>
<path transform="translate(336,818)" d="m0 0 10 2v3l-10-2-6-1v-1z" fill="#525D13"/>
<path transform="translate(135,613)" d="m0 0 1 3 5-1-1 2-6 2-5 2-2-2 6-3h2z" fill="#657B23"/>
<path transform="translate(73,393)" d="m0 0h14v3l-9-1-5-1z" fill="#525E13"/>
<path transform="translate(692,226)" d="m0 0m-1 1m-1 1 1 3-5 5-3 2v-3z" fill="#62771F"/>
<path transform="translate(678,753)" d="m0 0h8v4l-7-1z" fill="#3E470F"/>
<path transform="translate(256,715)" d="m0 0 3 1-3 9h-2l-1-5z" fill="#424C0F"/>
<path transform="translate(220,618)" d="m0 0 4 2 4 7-1 3-7-9z" fill="#515C12"/>
<path transform="translate(733,576)" d="m0 0 5 2 5 1 1 3-6-1-5-2z" fill="#596A14"/>
<path transform="translate(152,540)" d="m0 0h2l1 6-1 2-5 1z" fill="#495210"/>
<path transform="translate(830,508)" d="m0 0h1v14l-2-4h-2l2-9z" fill="#414D0F"/>
<path transform="translate(823,498)" d="m0 0 10 1-1 3-10-1z" fill="#586C15"/>
<path transform="translate(417,440)" d="m0 0v3h-2l-2 4-5 5-2-1 8-9z" fill="#788C35"/>
<path transform="translate(178,296)" d="m0 0 1 4-3 5h-3l1-5z" fill="#4B5311"/>
<path transform="translate(223,139)" d="m0 0 1 2-3 3h-2l-2 2-2-5z" fill="#596814"/>
<path transform="translate(545,129)" d="m0 0 1 2-4 13-2-1 1-6z" fill="#546214"/>
<path transform="translate(526,120)" d="m0 0 3 3-3 1 1 5-2 2-2 5-1-4z" fill="#587016"/>
<path transform="translate(592,89)" d="m0 0h1v6l-3 8h-1v-10h2z" fill="#515A12"/>
<path transform="translate(539,80)" d="m0 0h3l-2 9-3 1z" fill="#596C15"/>
<path transform="translate(638,773)" d="m0 0 2 3-1 7-2 2-1-4z" fill="#515B12"/>
<path transform="translate(838,568)" d="m0 0h2l-1 11-3 3-1-4z" fill="#586D15"/>
<path transform="translate(110,219)" d="m0 0v3l-1 6-2 1-2-2v-3h2l1-4z" fill="#3F4A0E"/>
<path transform="translate(356,99)" d="m0 0h2l1 2v13h-1l-2-11z" fill="#545F13"/>
<path transform="translate(536,92)" d="m0 0m-1 1h1v10l-2 2-1 3h-2l3-12z" fill="#587117"/>
<path transform="translate(275,79)" d="m0 0h2l-1 3-6 3-4-1 5-3z" fill="#3D460F"/>
<path transform="translate(289,802)" d="m0 0 12 5-4 1-11-4z" fill="#525C12"/>
<path transform="translate(692,748)" d="m0 0 5 1-5 4-5 2-1-2 5-3z" fill="#4E5711"/>
<path transform="translate(302,463)" d="m0 0h12v2l-4 1-1 2v-3l-7-1z" fill="#7F923B"/>
<path transform="translate(789,426)" d="m0 0h5l-3 13h-1z" fill="#596814"/>
<path transform="translate(84,410)" d="m0 0 15 3v1l-12 1-3-3z" fill="#587117"/>
<path transform="translate(67,407)" d="m0 0 7 1v3l-11-1z" fill="#587117"/>
<path transform="translate(729,260)" d="m0 0h3l2 5-1 4-4-5-2-1z" fill="#515B12"/>
<path transform="translate(142,247)" d="m0 0 6 2 3 2v5l-4-5h-5v-3z" fill="#596B15"/>
<path transform="translate(166,153)" d="m0 0m-1 1 2 1-2 4-3 3h-3l1-3h2v-2h2z" fill="#3E460F"/>
</svg>
