<?xml version="1.0" encoding="UTF-8"?>
<svg version="1.1" viewBox="0 0 900 900" width="1280" height="1280" xmlns="http://www.w3.org/2000/svg">
<path transform="translate(491,91)" d="m0 0h12l23 3 32 8 24 8 21 9 21 10 18 10 24 16 13 10 13 11 12 11 7 6v2l4 2v2l4 2v2l3 1 7 8 9 10 11 14 10 14 10 15 11 21 13 29 7 20 6 19 6 25 6 36 1 15v44l-1 17-4 28-6 27-6 20-8 23-5 10-5 12-14 27-6 9-2 4h-2l-2 4-4 6-6 7-1 3-2 1-3 6-4 5-3 3-6 9-14 14-5 6-8 7-11 10-14 11-12 9-15 10-21 12-16 8-22 10-34 12-23 6-16 3-34 5-12 1h-27l-30-2-23-3-26-5-31-9-19-7-33-15-26-15-15-10-16-12-10-8-10-9-13-12-14-15-12-14-12-17-7-10-10-16-9-16-11-23-10-26-6-19-6-24-5-25-3-26-1-13v-32l3-32 5-29 8-30 10-28 13-30 8-17 8-11 11-16 10-14 10-11 9-11 9-10 11-11 8-7 14-12 15-11 20-13 22-12 6-2-3 3-18 10-17 11-21 16-14 11-10 9-12 12-7 8-8 10-11 14-12 17-11 17-9 16-10 19-10 23-10 31-5 21-4 25-3 29v40l4 35 7 33 6 20 8 22 11 26 12 23 13 21 12 17 11 13 9 11 26 26 11 9 19 14 13 9-4-4-11-8-15-14-11-9-21-21-18-22-14-19-12-19-13-24-11-23-9-24-7-24-8-43-3-27v-32l1-18 4-27 5-26 7-26 10-27 11-26 3-8 7 3 25 15 16 9 4 1 2-5 3-5-1-4-25-14-14-9-4-5 3-9 9-15 10-13 10-11 8-11 14-12 8-7 13-12 9-7 18-12 19-12 22-12 17-8 32-12 25-7 25-5 37-4h49l8 1 1 1 23 2 24 5 22 6 23 8 25 11 14 7 18 11 19 13 14 10 14 11 12 11 24 24 9 11 13 17 11 17 3 6v2l-28 15-19 12 2 4 4 3 7-1 18-11 16-8 9-2 4 6 17 40 9 27 7 28 5 26 1 12v60l-2 22-4 24-8 30-9 25-12 28-9 17-13 20-8 12-9 12-9 11-9 10-3 4h-2l-2 4-4 4h-2l-1 3-8 7-13 12-14 11-14 10-18 11-17 10-21 10-25 10-29 9-31 7-30 4h-18l-1-1-2-16-1-39-1-3h-14v58l-1 1-26-1-29-3v2l21 3 13 2 14 1h30l23-2 29-4 28-6 27-8 21-8 18-8 19-10 19-12 18-13 12-9 13-12 7-7h2l1-3 8-7 11-11 7-8 14-18 12-18 10-16 11-21 10-23 12-35 6-24 5-26 2-15 1-14v-48l-2-23-6-33-7-25-7-20-8-20-18-35-12-20-13-18-10-13-14-15-25-25-8-7-13-10-14-10-25-15-27-14-19-8-34-11-28-7-32-5zm5 157-24 4-24 8-25 12-16 10-13 10-10 9-12 12-11 15-6 9-8 14-7 14-8 24-4 17-2 19v27l2 20 6 24 8 20 8 16 9 15 7 9 9 10 7 8 7 7 11 9 14 10 18 10 17 8 19 6 17 4 15 1h31l21-2 17-4 22-8 19-9 17-11 13-10 12-11 9-9 13-17 10-16 11-23 7-21 5-27 1-9v-29l-5-30-5-16-6-16-11-21-11-16-13-15-14-14-11-9-11-8-17-10-21-9-15-5-25-5-7-1zm167 480m-1 1-4 3 1 2 4-3zm-5 5m-401 17m7 4m1 1 4 4 8 5 2-1-6-5-5-3zm14 9m80 32v2l3-1z" fill="#06090A"/>
<path transform="translate(762,282)" d="m0 0 4 1 6 12 15 36 8 24 7 28 5 26 1 12v60l-2 22-4 24-8 30-9 25-12 28-9 17-13 20-8 12-9 12-9 11-9 10-3 4h-2l-2 4-4 4h-2l-1 3-8 7-13 12-14 11-14 10-18 11-17 10-21 10-25 10-29 9-31 7-30 4h-18l-1-1-2-16-1-39-1-4 1-34 32-3 29-6 30-10 11-5 17-8h2v-2l10-5 15-10 11-8 14-12 13-12 7-8 11-13 14-20 12-21 6-13 6-15 7-22 5-21 3-17 1-10v-49l-4-27-7-26-7-20-12-26 1-4 22-12 5-4 8-2 18-11 16-8zm-99 446m-1 1-4 3 1 2 4-3z" fill="#F1DED4"/>
<path transform="translate(138,279)" d="m0 0 7 3 25 15 16 9 4 1 2-5 4-7 16 8 14 8v4l-8 14-10 21-7 19-5 19-2 10-2 9-3 26v34l3 24 5 24 6 21 9 21 8 17 12 20 7 10 8 11 9 10 11 12 16 15 13 10 15 10 10 6 20 11 22 9 19 6 21 5 14 2 22 2 2 1v88l-1 1h-11l-37-5-17-3-16-4-14-4-9-3-16-6-12-5-6-2-10-5-12-7-1-2-8-3v-2l-5-1-8-6-7-4-13-9-1 2-6-3-7-7-11-9-21-21-18-22-14-19-12-19-13-24-11-23-9-24-7-24-8-43-3-27v-32l1-18 4-27 5-26 7-26 10-27 11-26z" fill="#09994A"/>
<path transform="translate(430,96)" d="m0 0h49l8 1 1 1 23 2 24 5 22 6 23 8 25 11 14 7 18 11 19 13 14 10 14 11 12 11 24 24 9 11 13 17 11 17 1 4-9 3-8 5h-2l-1 3-9 4-6 2v2h-3v2l-12 6-15 9-6 2v2l-5 3-3-1-3-5v-2h-2l-7-11-8-9-5-6-9-11-15-14-5-3-4-4-2-1v-2l-4-2-21-14-3-1v-2l-6-2-21-11-24-9-26-7-23-4-20-2h-30l-26 3-24 5-23 7-20 8-16 8-16 9-17 12-3 1-1 3-4 1v2l-6 4-27 27-7 8-11 15-6 9-6-1-12-6v-2l-6-2-18-11-11-6-10-6-8-4v-2l-5 1-3-4 3-9 9-15 10-13 10-11 8-11 14-12 8-7 13-12 9-7 18-12 19-12 22-12 17-8 32-12 25-7 25-5z" fill="#05ACB3"/>
<path transform="translate(234,318)" d="m0 0 6 1 24 14 35 20 23 13 6 3v7l-4 14-2 9-3 21-1 14v14l4 30 3 13 5 15 4 11 4 7 2 5 9 17 13 18 16 17 10 10 13 10 16 10 15 8 8 4 1 1 1 30v46l-1 4h-15l-22-3-21-5-32-11-16-8-11-6-12-7-10-7-11-8-13-12-17-17-9-11-2-3v-3l-4-2-4-6v-3l-4-2-6-11-12-23-4-8-8-23-5-17-3-13-3-25-1-24 4-37 4-20 5-17 7-20 8-16 9-17z" fill="#099A4A"/>
<path transform="translate(536,264)" d="m0 0 11 1 17 4 1 33 4 4 18 10 2 3-5-1-8-5-12-6v21l10-3 7-1h12l6 2 2-8 6-9 6-4 11-1 10 3 6 5 4 8 1 4v7l-4 10-8 7 2 4 10 12 9 17 5 14 2 18 1 5 8-2v3l-16 26 1 5h5l4-2 6 1 10 5 6 7 2 4v14l-3 7-8 7-8 3-10-1-6-3-4 12-8 15-11 13-12 12-16 9-12 6h-2v-3l11-7 12-11 10-14 6-13 1-6h-12l-14-2-15-8 2 14v21l-3 13-5 12-4 6-1 4 6 8 2 5v12l-5 9-4 4-11 3-12-1v9l-5 2-15 1h-11l-1-1 1-15 2-17h-21l-9-2-12-3-15-7-11-7-8-8 3-1 10 6 14 5 11 2 14 1 6-2 11-1 6-3 1-2 1-54h33v31l3-3 8-16 3-8 2-12-9 3h-6l3-3 6-2 7-3v-12l-1-10 4 2 6 11 1 1h7v-7l-4-11-1-5v-9l3-17 2-8 1-9 2-2 5 9 4 23v14l-4 14 9-5 3-3 2-8 8-15 1-3-7-10-14-14-21-13v-4l23 3 10 3 15 8 10 8 4 4 5-1 5-3h2v-10l-4-14-8-16-11-14-10-7-15-8-16-5h-25l-1 1-1 7-1 1-24 1-11 7-3 3-4-2-4-5-15-9-6-4h-6l-8 4-16 6-1 2-1 11v27l-5-4-6-10-3-8-3-18-5-5-11-2v-2l9-4 5-3 8-21-2-3-4-1-18 12-7 8-8 13-5 11-3 10-1 7v19l2 10 5 13 7 13 8 10 15 11 9 5 7 3v3l-2 1h-8l-19-4-12-5-12-7-12-11-9-12-1-6h-16l-9-4-5-4-4-7v-17l5-8 8-5h15l7 3 1-6 12-23 8-10 8-9 11-8 12-7 8-3-1-4-14-23 2-4 3-2h6l11 7h1l1-7 6-8 11-7h9l12 6 3 3h3l1-2h2l2 16h20l10-1 3-13 1-13zm-9 42-10 1-16 8-8 7-7 11-2 3 1 4 8 8 20 12 6 5 4-1 8-11 1-2 1-24v-20zm-50 34-1 3 5-1-1-2zm176 92 1 4 1-3zm-24 36-15 5-10 7-6 5v2h10l13 3 5 2h5l1-1v-22z" fill="#504E4E"/>
<path transform="translate(436,195)" d="m0 0h34l28 3 23 5 24 8 26 12 16 9 22 15 13 11 5 3 7 8 9 11 1 3-5-1v-2h-3l-5-5-15-9-15-8-23-9-21-5-16-3h-47l-26 5-20 6-16 7-19 10-10 7-5 2v2l-11 8-13 12-12 13-3 5h-2l-2 5-7 10-10 18-7 16-6-2-11-6-16-9-27-16-23-13-10-5-1-4h2l2-5 8-12 10-12 4-5 18-18 5-4h2l1-3 11-8h2v-2l8-6 7-4 7-5 12-6 13-6 23-9 21-6 22-4z" fill="#04ACB3"/>
<path transform="translate(434)" d="m0 0h39l17 3 21 2 26 5 30 7 24 7 28 10 29 13 19 10 22 13 22 15 12 9 14 11 10 9 4 3v2l4 2 32 32 18 22 13 18 9 13 9 15 13 23 11 22 10 25 12 36 6 25 6 29 6 47v49l-3 18-3 22-8 40-10 35-10 27-11 24-10 20-13 22-14 21-11 15-13 16-7 8-12 13-21 21-8 7-9 8-17 13-18 13-11 7-20 12-24 13-24 11-29 11-27 8-26 6-27 5-24 3-29 2h-21l-36-3-35-5-23-5-27-7-29-10-19-8-36-18-23-14-12-8-17-12-14-11-11-9-10-9-8-7-16-16-9-11-9-10-13-17-11-15-11-17-12-20-14-27-12-28-8-22-10-37-7-36-3-22-2-33v-19l2-32 3-27 5-27 9-35 12-35 10-23 10-21 12-21 13-20 11-16 13-17 9-10 9-11 6-7h2l2-4 8-8 8-7 14-12 12-10 16-12 16-11 19-12 18-10 26-13 30-12 27-9 26-7 36-7 17-2 24-3zm-4 7-36 3-22 3-25 5-26 7-24 8-20 8-18 8-19 10-20 11-17 11-14 10-12 9-11 9-15 13-13 12-11 11-7 8-8 10-12 14-8 11-13 19-13 21-13 24-11 23-10 26-8 25-8 32-4 22-4 34-1 17v36l3 34 4 29 6 28 8 28 9 25 11 26 16 31 13 22 11 16 12 16 11 13 11 12 7 8 19 19 11 9 9 9 17 13 18 13 17 11 16 9 23 12 25 11 20 8 30 9 28 7 23 4 30 3 15 1h39l30-2 35-5 27-6 36-11 24-9 23-10 20-10 20-12 14-9 17-12 16-13 11-9 15-14 27-27 9-11 12-15 13-18 10-15 11-19 13-25 12-28 10-27 9-32 7-36 3-24 1-23v-44l-1-21-5-35-6-29-9-31-11-30-12-27-13-25-12-19-13-19-13-17-14-17-42-42-14-11-16-13-24-16-26-15-28-14-32-13-27-9-31-8-27-5-21-2-26-2z" fill="#71696A"/>
<path transform="translate(491,91)" d="m0 0h12l23 3 32 8 24 8 21 9 21 10 18 10 24 16 13 10 13 11 12 11 7 6v2l4 2v2l4 2v2l3 1 7 8 9 10 11 14 10 14 10 15 11 21 13 29 7 20 6 19 6 25 6 36 1 15v44l-1 17-4 28-6 27-6 20-8 23-5 10-5 12-14 27-6 9-2 4h-2l-2 4-4 6-6 7-1 3-2 1-3 6-4 5-3 3-6 9-14 14-5 6-8 7-11 10-14 11-12 9-15 10-21 12-16 8-22 10-34 12-23 6-16 3-34 5-12 1h-27l-30-2-23-3-26-5-31-9-19-7-33-15-26-15-15-10-16-12-10-8-10-9-13-12-14-15-12-14-12-17-7-10-10-16-9-16-11-23-10-26-6-19-6-24-5-25-3-26-1-13v-32l3-32 5-29 8-30 10-28 13-30 8-17 8-11 11-16 10-14 10-11 9-11 9-10 11-11 8-7 14-12 15-11 20-13 22-12 6-2-3 3-18 10-17 11-21 16-14 11-10 9-12 12-7 8-8 10-11 14-12 17-11 17-9 16-10 19-10 23-10 31-5 21-4 25-3 29v40l4 35 7 33 6 20 8 22 11 26 12 23 13 21 12 17 11 13 9 11 26 26 11 9 19 14 13 9-4-4-11-8-5-6 4 2 11 8 23 15 12 7 16 8 18 8 24 9 28 8 24 5 2 2h-7v2l21 3 13 2 14 1h30l23-2 29-4 28-6 27-8 21-8 18-8 19-10 19-12 18-13 12-9 13-12 7-7h2l1-3 8-7 11-11 7-8 14-18 12-18 10-16 11-21 10-23 12-35 6-24 5-26 2-15 1-14v-48l-2-23-6-33-7-25-7-20-8-20-18-35-12-20-13-18-10-13-14-15-25-25-8-7-13-10-14-10-25-15-27-14-19-8-34-11-28-7-32-5zm-235 660m7 4m1 1 4 4 8 5 2-1-6-5-5-3zm14 9m80 32v2l3-1z" fill="#696666"/>
<path transform="translate(693,532)" d="m0 0 1 4-9 20-8 17-10 16-12 17-13 15-11 12-11 10-11 9-17 12-15 9-17 9-23 9-23 7-28 5-13 1h-13v-74l22 5 16 2h37l21-3 20-5 12-4 12-5 19-10 15-10 10-8 11-9 10-10 9-11 10-14 8-14z" fill="#F1DFD5"/>
<path transform="translate(593,419)" d="m0 0 3 3 3 6 4 23v14l-4 14 9-5 3-3 2-8 8-15h3l5 13 1 7-9 4-9 3-8 6-5 4-1 2 10-1 13 3 10 3-1 8-2 5h-12l-14-2-15-8 2 14v21l-3 13-5 12-4 6-1 4 6 8 2 5v12l-5 9-4 4-11 3-12-1v9l-5 2-15 1h-11l-1-1 1-15 2-17h-21l-9-2-12-3-15-7-11-7-8-8 3-1 10 6 14 5 11 2 14 1 6-2 11-1 6-3 1-2 1-54h33v31l3-3 8-16 3-8 2-12-9 3h-6l3-3 6-2 7-3v-12l-1-10 4 2 6 11 1 1h7v-7l-4-11-1-5v-9l3-17 2-8 1-9z" fill="#05313D"/>
<path transform="translate(491,91)" d="m0 0h12l23 3 32 8 24 8 21 9 21 10 18 10 24 16 13 10 13 11 12 11 7 6v2l4 2v2l4 2v2l3 1 7 8 9 10 11 14 10 14 10 15 11 21 13 29 7 20 6 19 6 25 6 36 1 15v44l-1 17-4 28-6 27-6 20-8 23-5 10-5 12-14 27-6 9-2 4h-2l-2 4-4 6-6 7-1 3-2 1-3 6-4 5-3 3-6 9-14 14-5 6-8 7-11 10-14 11-12 9-15 10-21 12-16 8-22 10-34 12-23 6-16 3-34 5-12 1h-27l-30-2-17-2v-2l-4-1h73l23-2 29-4 28-6 27-8 21-8 18-8 19-10 19-12 18-13 12-9 13-12 7-7h2l1-3 8-7 11-11 7-8 14-18 12-18 10-16 11-21 10-23 12-35 6-24 5-26 2-15 1-14v-48l-2-23-6-33-7-25-7-20-8-20-18-35-12-20-13-18-10-13-14-15-25-25-8-7-13-10-14-10-25-15-27-14-19-8-34-11-28-7-32-5z" fill="#676465"/>
<path transform="translate(433,284)" d="m0 0h6l9 6 4 4 4 8 6 6-1 4-5 4-3 7-7-2-18 12-7 8-8 13-5 11-3 10-1 7v19l2 10 5 13 7 13 8 10 15 11 9 5 7 3v3l-2 1h-8l-19-4-12-5-12-7-12-11-9-12-1-6h-16l-9-4-5-4-4-7v-17l5-8 8-5h15l7 3 1-6 12-23 8-10 8-9 11-8 12-7 8-3-1-4-14-23 2-4z" fill="#0188B7"/>
<path transform="translate(536,264)" d="m0 0 11 1 17 4 1 33 1 3-11-1-11-2h-9l-4 2-13 1-5 3-6 1-6 2v2l-9 5-4 5-5 3-1 2h-2l-1 4-2 1-1 3-2 1-2 6-1 2h-2l-2 5-4 11 2 1-1 2-1 11v27l-5-4-6-10-3-8-3-18-5-5-11-2v-2l9-4 5-3 8-21 3-9 6-5-1-4-7-8-1-5-3-1 1-2h1l1-7 6-8 11-7h9l12 6 3 3h3l1-2h2l2 16h20l10-1 3-13 1-13z" fill="#DEA9AC"/>
<path transform="translate(379,436)" d="m0 0h2v10l4 23 5 12 9 14 7 8 14 10 14 6 12 3 21 1 12-3 13-4 17-10 3-2h4l-1 5-10 14-5 5-8 7-11 7-11 5-14 4h-13l-5-2-4 10-8 9-9 3-13-2-8-6-4-8-1-10 3-9 9-9-2-4-8-9-9-16-7-19-2-16 1-18 2-8z" fill="#AE765A"/>
<path transform="translate(580,404)" d="m0 0 23 3 10 3 15 8 10 8 6 5 4 8 5 5 2 6h5l4-2 6 1 10 5 6 7 2 4v14l-3 7-8 7-8 3-10-1-6-3-4 12-8 15-11 13-12 12-16 9-12 6h-2v-3l11-7 12-11 10-14 6-13 4-20v-22l-9-24-7-10-14-14-21-13z" fill="#CBF92D"/>
<path transform="translate(437,185)" d="m0 0h30l20 2-2 1v2l-4 1-1 3 10 2v1l-20-1h-34l-21 2-26 5-17 5-26 10-5 3-5 2-15 8-8 6-7 4-4 2v2l-9 6-10 9-8 7-12 12-9 11-9 12-6 10h-2l1 3 19 10 24 14 26 15 19 11 3 2-4 1-12-6-16-9-23-13-15-9-16-9-5-3-5 1-8 16-5 9-6 16-5 13-7 28-4 32-5-3-1-2-2 3-1-1 1-14 2-16 2-6 3-15 6-20 9-21 8-16 6-9-1-3-24-13-6-4-24-14-16-10 1-3 3 1v2l4 1 21 12 24 14 4 2v2l4 1 10 5h4l10-15 10-13 33-33 4-1v-2l4-2 5-5 21-14 23-12 8-4 16-6 23-7 24-5z" fill="#020A09"/>
<path transform="translate(434)" d="m0 0h39l17 3 21 2 26 5 30 7 24 7 28 10 29 13 19 10 22 13 22 15 12 9 14 11 10 9 4 3v2l4 2 32 32 18 22 13 18 9 13 9 15 13 23 11 22 10 25 12 36 6 25 6 29 6 47v49l-3 18-3 22-5 25-3-2 1-10 4-27 1-9 1-23v-44l-1-21-5-35-6-29-9-31-11-30-12-27-13-25-12-19-13-19-13-17-14-17-41-41-14-11-16-13-24-16-26-15-28-14-32-13-27-9-31-8-27-5-21-2-26-2h-41l-36 3h-7v-2l-20 3h-7v-1l32-6 30-3z" fill="#6F6B6C"/>
<path transform="translate(529,373)" d="m0 0h12l20 2 2 3-2 18-1 31-1 17-1 51-1 1h-31l-2-1 1-11 2-19 1-91z" fill="#018638"/>
<path transform="translate(802,403)" d="m0 0 4 3 1 3 1 12v60l-2 22-4 24-8 30-9 25-12 28-9 17-13 20-8 12-9 12-9 11-9 10-3 4h-2l-2 4-4 4h-2l-1 3-8 7-13 12-14 11-14 10-18 11-17 10-21 10-25 10-29 9-31 7-30 4h-18l-1-5 1-1 38-4 32-6 25-7 25-9 20-9 16-8 14-8 21-14 3-1 1-3 5-2 11-10 11-9 13-12 15-15 9-11 11-13 7-11 10-15 10-16 8-16 9-21 6-15 7-22 7-28 4-31 1-10 2-63-3-5z" fill="#141314"/>
<path transform="translate(888,536)" d="m0 0m-1 1h1v10l-6 25-8 26-11 28-14 29-11 20-13 21-10 14-8 11-13 16-7 8-12 13-21 21-8 7-9 8-17 13-18 13-11 7-20 12-24 13-24 11-29 11-27 8-26 6-27 5-24 3-29 2h-21l-36-3-35-5-23-5-27-7-15-5-1-2 17 4 6 2 9 2 3-1 24 6 23 4 30 3 15 1h39l30-2 35-5 27-6 36-11 24-9 23-10 20-10 20-12 14-9 17-12 16-13 11-9 15-14 26-26 9-11 12-15 13-18 10-15 11-19 13-25 12-28 10-27 9-32 3-14h2z" fill="#545253"/>
<path transform="translate(285,129)" d="m0 0 2 1-24 14-14 9-21 16-14 11-10 9-12 12-7 8-8 10-11 14-12 17-11 17-9 16-10 19-10 23-10 31-5 21-4 25-3 29v40l4 35 7 33 6 20 8 22 11 26 12 23 13 21 12 17 6 7v2l-4-2-1 2-4-1-12-17-7-11-10-17-8-16-10-21-10-28-8-29-6-30-3-26-1-13v-32l3-32 5-29 8-30 10-28 13-30 8-17 8-11 11-16 10-14 10-11 9-11 9-10 11-11 8-7 14-12 15-11 20-13 22-12z" fill="#616161"/>
<path transform="translate(535,301)" d="m0 0h12l20 4 20 11 2 3-5-1-8-5-12-6-1 21-11 6-16 12h-3v-39l-16 1-16 8-7 6-7 11-2 3 1 4 7 7 20 12 6 5 4-1 6-8h2v4l5-1 14-5 12-3 3-2h23l5 2v2h-28l-1 1-1 7-1 1-24 1-11 7-3 3-4-2-4-5-15-9-6-4h-6l-8 4-14 5h-4l1-7 5-9h2l3-9h2l1-4 2-1 1-3h2l2-4 6-4 4-4 5-3h2v-2l9-4 5-1 3-2 13-1zm-58 39-1 3 5-1-1-2z" fill="#018536"/>
<path transform="translate(437,185)" d="m0 0h30l20 2-2 1v2l-4 1-1 3 10 2v1l-20-1h-34l-21 2-26 5-17 5-26 10-5 3-5 2-15 8-8 6-7 4-4 2v2l-9 6-5 3v-7l-1-4 4-2 5-5 21-14 23-12 8-4 16-6 23-7 24-5z" fill="#010D0B"/>
<path transform="translate(593,419)" d="m0 0 3 3 3 6 4 23v14l-4 14 9-5 3-3 2-8 8-15h3l5 13 1 7-9 4-9 3-8 6-5 4-1 2 10-1 13 3 10 3-1 8-2 5h-12l-14-2-13-7h-5v-5l5-4h2v-7l-4-11-1-5v-9l3-17 2-8 1-9z" fill="#037C31"/>
<path transform="translate(234,318)" d="m0 0 6 1 24 14 35 20 23 13 6 3v7l-3 9-5-2-23-12-27-16-13-8-17-9-7-5-6-2 6-12z" fill="#626162"/>
<path transform="translate(689,725)" d="m0 0 2 1v3l-9 8-1 3-13 10-15 10-15 9-18 10-20 9-20 8-33 11-21 5-42 6-12 1h-27l-30-2-17-2v-2l-4-1h73l23-2 29-4 28-6 27-8 21-8 18-8 19-10 19-12 18-13 12-9z" fill="#545252"/>
<path transform="translate(491,91)" d="m0 0h12l23 3 32 8 24 8 21 9 21 10 18 10 24 16 13 10 13 11 12 11 7 6v2l4 2v2l4 2v2l3 1 7 8 9 10 11 14 10 14 10 15 11 21 13 29 7 20 6 19 6 25 3 16v9l-1 8-2-1-6-36-6-24-8-24-10-24-17-33-12-20-13-18-10-13-14-15-25-25-8-7-13-10-14-10-25-15-27-14-19-8-34-11-28-7-32-5z" fill="#5F5C5C"/>
<path transform="translate(848,293)" d="m0 0h3l3 8-1 5-14 8-5 3h-2l1 2h9l17-2 4 11-5 3-37 12-7 1-2-4 1-4 21-6v-1l-11 1-13 2-2-5v-5l14-8 3-3-18 6-4-4 1-5 36-12z" fill="#0A090B"/>
<path transform="translate(385,8)" d="m0 0h8v1h-6v2l-21 4-27 6-25 7-28 10-23 10-16 8-22 12-19 12-16 11-13 10-11 9-15 13-13 12-10 10-7 8-8 10-12 14-8 11-13 19-13 21-13 24-9 19-4 1 1-5 12-25 12-21 13-20 11-16 13-17 9-10 9-11 6-7h2l2-4 8-8 8-7 14-12 12-10 16-12 16-11 19-12 18-10 26-13 30-12 27-9 26-7 29-4z" fill="#646465"/>
<path transform="translate(524,508)" d="m0 0h33v32l-12 12-14 9-8 3z" fill="#007C2D"/>
<path transform="translate(444,626)" d="m0 0 9 1 7 3v74h8v1h-24l-1-2v-75z" fill="#636263"/>
<path transform="translate(680,89)" d="m0 0 4 1 4 4-2 10-6 15v3l10-9 8-8 5-1 8 5-6 8-7 11-6 8-9 13-5-1v-4l7-11 6-8 1-3-10 8-11 11-6-2-1-4 4-7 6-14v-4l-9 13-6 9-5-1-2-3 8-11 18-26z" fill="#0A090B"/>
<path transform="translate(870,381)" d="m0 0h5l1 7-2 3-7 4-15 10-1 2 21-3h5l2 3-1 5-18 3-27 3h-5l-1-2v-7l18-11 6-4 1-2-22 3h-5l-1-1v-7l19-3 21-2z" fill="#0B0A0C"/>
<path transform="translate(91,485)" d="m0 0 2 1 5 30 6 27 11 33 10 24 12 25 14 23 11 16 8 10 1 3-4-2-1 2-4-1-12-17-7-11-10-17-8-16-10-21-10-28-8-29-6-30-2-15v-6z" fill="#6D6869"/>
<path transform="translate(505,25)" d="m0 0 5 1 4 9 6 18 2 2 4-24 1-2h5l2 3-7 47-4 1-5-2-2-3-3-12-4-13-2 6-3 19-5 1-3-2 1-10 5-32 2-6z" fill="#0A0A0B"/>
<path transform="translate(840,475)" d="m0 0h18l10 3 7 6 3 6v7l-3 8-7 6-10 2h-8l-14-3-8-7-3-7v-7l4-8 7-5zm7 8-7 1-5 6 1 7 7 6 3 1h16l6-5v-8l-4-5-4-2z" fill="#0A0A0B"/>
<path transform="translate(802,221)" d="m0 0 9 1 6 4 6 9v7l-6 9-5-1-2-5 2-5-1-6-3-3h-8l-8 3-7 6-2 4v7l5 5 6-1-1-5-1-3 1-3 4-1 5 3 5 8v4l-15 9h-6l-8-6-5-8-1-8 5-10 7-7 13-6z" fill="#0B0A0C"/>
<path transform="translate(471,22)" d="m0 0 8 1 6 4 4 6 2 6v16l-4 11-5 6-5 2h-11l-7-4-4-6-2-6v-17l4-10 6-7zm-1 9-6 5-3 9v8l3 9 5 3 7-1 4-4 2-5v-15l-4-7-4-2z" fill="#080809"/>
<path transform="translate(223,91)" d="m0 0h6l6 5 4 6 1 5-2 5-1 2 9 4 12 7-2 4-4 2-5-1-10-6-10-3 3 9 6 10v3l-6 2-7-9-10-15-7-11-3-5 2-4 13-8zm-1 9-7 5 1 7 4 4 5-2 5-3 1-7-4-4z" fill="#0A090B"/>
<path transform="translate(96,719)" d="m0 0h3l7 9 12 14 15 16 15 15 11 9 9 9 17 13 18 13 17 11 16 9 23 12 25 11 20 8 30 9 3 3-11-2-13-4-10-2-10-3-22-9-36-18-23-14-12-8-17-12-14-11-11-9-10-9-8-7-16-16-9-11-9-10-9-12z" fill="#575556"/>
<path transform="translate(77,252)" d="m0 0h9l8 5 3 4 1 6h25l-4 8-1 1h-23l-1 6 16 8 1 3-2 4-6-1-25-12-14-7 1-7 8-15zm4 8-6 8v5l7 4 4-1 3-5 1-7-4-4z" fill="#0B0A0C"/>
<path transform="translate(54,498)" d="m0 0h17l6 4 3 4 3 9 1 5v7l-16 3-26 4h-8l-2-7v-16l3-5 8-5zm7 8-13 2-6 3-2 5v6l1 2h12l16-3 4-2-1-10-5-3z" fill="#09080A"/>
<path transform="translate(292,54)" d="m0 0h8l7 4 6 9 5 13v13l-3 5-11 6-7 3-4-1-5-11-12-30 1-5 8-4zm2 9-6 2-1 3 6 17 4 9 2 2 5-1 6-7-1-8-4-10-5-6z" fill="#080709"/>
<path transform="translate(863,341)" d="m0 0h3l4 15 2 14-9 1-3-12-2-7-7 1-1 4 2 8v7l-4 2h-4l-5-17-9 1-2 2 4 16v3l-9 2-2-5-5-22v-2l16-4z" fill="#0A090B"/>
<path transform="translate(109,200)" d="m0 0 7 1 8 5 3 5v9h22l3 2-4 6-4 1h-23l2 4 9 7 4 3-1 5-3 1-12-7-28-19 1-4 10-14zm2 9-8 10 2 4 9 4 6-8v-6l-5-4z" fill="#0A090B"/>
<path transform="translate(831,256)" d="m0 0 4 1 10 23v3l-8 2-8-16h-5l-3 2 1 5 5 12-3 3-4 1-3-3-6-12-5 1-5 2 1 5 6 14-5 5-4-1-11-24 2-4 33-15z" fill="#09080A"/>
<path transform="translate(55,444)" d="m0 0h13l8 6 1 3v12l-3 5-5 4-2 1h-7l-1-4 8-8v-8l-3-2h-5l-3 7-3 8-5 5-4 2h-9l-5-3-4-5-1-2v-10l4-6 5-3h6l1 6-6 7v5l1 3 6-2 6-16z" fill="#080809"/>
<path transform="translate(58,287)" d="m0 0 7 2-1 8-4 10v4h9l6-15h6l2 2-2 9-2 5 1 5 5 2h5l6-18 6 1 2 1-1 8-7 20-2 1-18-7-20-7-9-3 7-20z" fill="#0A090B"/>
<path transform="translate(753,148)" d="m0 0 4 2 2 2-1 4-8 20-1 7 8-7 12-11 4 1 1 5-10 8-15 14-10 10-3-1-3-5 2-5 5-12 4-12-5 3-9 9-6 5-5-1-1-4 9-9h2v-2l11-9 6-6h2v-2z" fill="#0A090B"/>
<path transform="translate(41,364)" d="m0 0h6l2 1v5l-8 6-1 5 3 3 5-2 6-10 6-5h11l10 5 3 7-2 10-3 6-9 3h-7l-1-3 3-5 7-4 1-7-4-3-4 1-6 9-5 6-3 1h-9l-7-3-3-4v-13l3-5z" fill="#09090A"/>
<path transform="translate(261,68)" d="m0 0h5l2 4v3l-15 8h-2l3 8 6-1 10-5 4 1 2 3-1 4-14 7 1 5 3 6 6-2 11-5 5 1 1 6-21 11-5 2-3-5-11-20-8-16 1-5z" fill="#09080A"/>
<path transform="translate(784,628)" d="m0 0 5 2 13 8 19 11 7 4-5 9-9 16-6-2-2-3 8-14-1-5-4-2-4 1-7 13-2 1-6-4 2-6 6-10-3-3-8-4-2 5-6 10-1 1-8-1 1-5 10-18z" fill="#0B0A0B"/>
<path transform="translate(273,184)" d="m0 0h7l5 4v3h-6l-3-1-4 1 1 6h18l5 5 2 3-1 8-8 6h-6l-5-3-1 1 4 4-4-1 2 4v4l-5-1v-2l-3-1v-3l-3-1-11-14-2-3v-6l5 1 6 2v-10z" fill="#03A09D"/>
<path transform="translate(341,36)" d="m0 0h5l3 9 6 21 1 4v11l-2 4-6 4-3 1h-10l-7-6-5-13-7-23 1-4 7-1 6 18 5 16 1 2 6 1 5-1-1-11-8-27 1-4z" fill="#09090A"/>
<path transform="translate(75,403)" d="m0 0 5 1-1 6-9 3-2 1-1 5v9l9 5v7l-3 1-44-17-2-2 1-7 5-3 28-6zm-24 13-7 2 2 4 5 2h5l1-7-1-1z" fill="#0A090B"/>
<path transform="translate(303,871)" d="m0 0 17 4 6 2 9 2 3-1 24 6 23 4 30 3 15 1h39l30-2 37-5 6 1-1 2-27 5-24 3-29 2h-21l-36-3-35-5-23-5-27-7-15-5z" fill="#706B6B"/>
<path transform="translate(178,122)" d="m0 0 3 1 2 19 1 3 21 8 8 4v3l-6 4-5-2-18-8 1 9 8 10-1 6-3 1-5-5-1-3h-2l-7-8-7-7-7-8-4-5 1-4 5-1 11 12 3 1-3-19-1-4z" fill="#0A0A0B"/>
<path transform="translate(788,188)" d="m0 0 4 1 3 4-2 5-11 16-10 14-6 8-4-1-2-3 1-4 4-5-2-5-6-8-11 2-4-4 1-3 12-4 30-11zm-10 12-10 5-1 4 3 3h4l6-9v-3z" fill="#0A090B"/>
<path transform="translate(489,326)" d="m0 0 2 1-6 9 1 4 7 7 20 12 6 5 4-1 6-8h2v4l5-1 14-5 12-3 3-2h23l5 2v2h-28l-1 1-1 7-1 1-24 1-11 7-3 3-4-2-4-5-15-9-6-4h-6l-8 4-11 4h-2l-2-5 5-8 6-11 10-9zm-12 14-1 3 5-1-1-2z" fill="#037530"/>
<path transform="translate(434)" d="m0 0h39l17 3 21 2 16 3v2l9 1-1 2-17-1-21-2-26-2h-41l-36 3h-7v-2l-20 3h-7v-1l32-6 30-3z" fill="#676465"/>
<path transform="translate(318,806)" d="m0 0h8l8 4 5 10v5l-3 2-10-12h-8l-5 5-4 7-1 4v10l3 5 2 1h10l2-7-5-2-1-7 9 1 7 3-1 6-4 10-4 4-3 1h-8l-8-3-5-5-2-4v-15l4-10 6-8z" fill="#0C0B0D"/>
<path transform="translate(744,432)" d="m0 0h12l8 4 4 5v10l-5 6-6 3h-15l-6-3-5-6v-9l4-6z" fill="#141315"/>
<path transform="translate(234,732)" d="m0 0 4 2 11 8 23 15 12 7 16 8 18 8 24 9 28 8 24 5 2 2h-7v2l3 1-8-1-20-4-25-7-21-8-21-9-25-14-21-13-12-9-1-2 4 2 12 8-4-4-11-8zm22 19m7 4m1 1 4 4 8 5 2-1-6-5-5-3zm14 9m80 32v2l3-1z" fill="#F7EEED"/>
<path transform="translate(375,28)" d="m0 0 9 1 6 5 2 5-1 4-5 1-4-4-7-1-3 2-2 5 1 11 3 10 5 4 6-1 2-3 2-7 2-1 5 2v9l-3 6-8 4h-8l-8-4-5-8-3-10v-16l5-10z" fill="#0A090B"/>
<path transform="translate(536,264)" d="m0 0 11 1 17 4v31l-4-1-11-5-14-3-2-2 1-11 1-13z" fill="#03863A"/>
<path transform="translate(689,725)" d="m0 0 2 1v3l-9 8-1 3-13 10-15 10-15 9-18 10-20 9-20 8-26 9-12 2h-5l4-1v-2l10-3v-2l29-9 29-12 23-12 19-12 18-13 12-9z" fill="#595757"/>
<path transform="translate(238,732)" d="m0 0 5 2 12 9 5 3 8 5 3 1 1 2 8 3 1 2 11 6 10 5 10 4 8 3 19 7 17 5 17 4 8 2 32 5 23 3 1 3-2 1h-17l-20-2-9-3-27-6-29-9-27-11-19-10-12-6-17-11-19-13z" fill="#1A1A1B"/>
<path transform="translate(143,157)" d="m0 0 8 1 5 4v3l-2 1h-9l-5 4 1 6 5 1 13-6h7l6 3 6 7 1 2-1 9-6 7-3 2-7 1-8-2-2-2 1-5 1-1h5l1 1h6l4-4v-6l-4-3-6 1-8 4-9 1-6-4-4-5-1-2v-8l7-8z" fill="#0A090B"/>
<path transform="translate(807,598)" d="m0 0 11 1 14 7 7 7 3 7-1 9-4 6-8 3h-8l-1-2v-6l9-2 3-3v-6l-5-5-7-4-5-2h-9l-4 2-1 5 5 6-1 6-5 1-5-5-3-4v-10l5-8z" fill="#09080A"/>
<path transform="translate(568,702)" d="m0 0 5 1 7 15 6 15v3l-8 3-5 2-7-1-7-8-4-10v-12l5-4z" fill="#121113"/>
<path transform="translate(657,638)" d="m0 0 4 1 5 6 8 7 10 10-2 4-5 5-5 4-6 1-6-5-1-6-7-1-6-5-1-7 4-6z" fill="#131214"/>
<path transform="translate(535,582)" d="m0 0h3l5 12 6 9 4 2-1 9-5 2-15 1h-11l-1-1 1-15 2-17z" fill="#047B30"/>
<path transform="translate(111,631)" d="m0 0h10l7 6 3 8-3 9-7 8-5 4-11 5-11 1-7-3-5-6-2-6 1-6 4-6 6-1 1 1v7l-1 6 2 4 2 1h7l11-6 6-5 1-2v-7l-1-2-11-2-3-2 2-4z" fill="#09080A"/>
<path transform="translate(527,9)" d="m0 0 10 1 30 7 24 7 28 10 29 13 19 10 22 13 9 6-2 1-6-3 1 2-5-2-25-14-17-9-28-12-21-8-26-8-24-6-21-4v-1h11l-8-2z" fill="#5D7171"/>
<path transform="translate(178,555)" d="m0 0h10l5 5 4 9v3l-16 8-14 6-4-2-4-8v-8l6-7 10-5z" fill="#020E0A"/>
<path transform="translate(277,786)" d="m0 0 5 2 18 9v6l-4 1-14-7-4 1-2 5v4l14 6 1 4-2 3-6-1-12-5-5 10v2l16 8 1 4-2 3-5-1-19-9-1-4 11-22 8-17z" fill="#0B0A0C"/>
<path transform="translate(445,131)" d="m0 0h13l5 2 1 2v13l-1 2h-2l1 7 5 9v2h-6l-3-4-5-10-5-2v15l-1 1h-6l-2-7-1-1-9-2-1-1v-6l13-1 1-18z" fill="#021A15"/>
<path transform="translate(243,209)" d="m0 0 8 1 4 2v2l4 2v2l3 1 3 5 1 4v8l-7 8-5 2-5-6-5-5-7-8-5-4-1-4 4-5z" fill="#011813"/>
<path transform="translate(528,375)" d="m0 0h1l1 51 1 2 1 11 2 1h-2v3h2l1 2v12l-2 1-1 7h2l1 9v5 3l-1 7h4l1-2 2-1-1-2 3-2 10-1 3 3 1 2v10h-31l-2-1 1-11 2-19z" fill="#057431"/>
<path transform="translate(728,126)" d="m0 0 5 1 2 2-1 4-7 17-6 13-5 12-4 1-3-3 1-4 2-5-1-4-8-7-6 1-5 2-5-1 1-4 19-12zm-8 12-10 7 1 5 5 3h2l6-13-1-2z" fill="#0B0A0C"/>
<path transform="translate(816,548)" d="m0 0 8 1 32 10 8 3-1 8-6 18-6-1-3-3 3-9 1-8-9-1-2 5-1 7-3 2-7-3 1-6 1-10-17-5-2-1 2-5z" fill="#0A090B"/>
<path transform="translate(823,516)" d="m0 0h7l32 7 9 2 1 1-1 11-3 14-5 1-4-2 1-11 1-6-9-2-4 14-7-1-1-1v-7l2-8-7-1-13-3-1-4z" fill="#0A090B"/>
<path transform="translate(433,284)" d="m0 0h6l9 6 4 4 4 8 6 6-1 4-5 4-3 7-7-2-18 12-7 8-2 3h-2v-4l5-5 8-9 5-1 2-5 6-3-1-4-14-23 2-4z" fill="#057D39"/>
<path transform="translate(731,464)" d="m0 0 13 1 20 2 4 1v6l-3 3-15 2-4-1v3l9 2 10 4v7l-1 1-16-1-20-2v-5l3-1 15 1 5 1v-2l-14-2-8-3v-5l1-1 18-2h-3l-3-2-11-2-1-2z" fill="#131314"/>
<path transform="translate(727,497)" d="m0 0 9 1 27 6-2 9-23 1 10 4 10 5 1 4-2 3h-7l-28-6-1-5h8l13 3h3l-13-5-8-4v-6l3-1h19l-20-4z" fill="#141315"/>
<path transform="translate(393,825)" d="m0 0 26 3 1 1-1 8-12 14-9 11-3 5 19 1 2 1v7l-18-1-12-2-1-1 1-7 11-14 10-13 1-3-14-2-2-2v-5z" fill="#0D0C0E"/>
<path transform="translate(364,820)" d="m0 0h7l2 20 2 31-2 1-5-2v-12l-11-2h-5l-6 8-6-1 2-6 15-26 6-10zm1 12-5 6-4 7v3l7 2h4l-1-18z" fill="#0C0B0D"/>
<path transform="translate(594,56)" d="m0 0h5l1 1 2 25h2l8-17 4-2 2 1-1 5-13 34-3 1-5-4-1-21-1-3-5 10-3 9-4 1-2-1 1-7 10-24z" fill="#0C0C0D"/>
<path transform="translate(271,667)" d="m0 0 5 1-2 5-6 8-1 2h-2l-2 5 8-6 7-8 5-1 2 2-1 4-6 13v3l9-12 2-4 5 2-2 5-10 14-5 6h-2l-1 4-5-1-2-2 1-7 7-14-4 2-11 11h-5l-3-3 1-4 10-15z" fill="#020F0B"/>
<path transform="translate(431,829)" d="m0 0h15l7 2 5 6 1 3v7l-3 7-6 5-5 1h-9v9l-1 9-2 1-4-2 1-47zm7 7-1 1-1 11 1 4h11l4-4-1-9-7-3z" fill="#0F0F10"/>
<path transform="translate(227,331)" d="m0 0 6 1 9 6 24 13 14 9 13 8 11 6 19 10 1 1-1 12-2 6-3 31v14l2 17v8h-1l-3-23v-22l1-11v-25l-3-6-5-4-17-10-10-2-5-5-11-5-5-3-7-8-11-6-5-4-6-2h-6l-2 1 2-6z" fill="#0F8C48"/>
<path transform="translate(525,821)" d="m0 0h8l5 3 4 5v5l-5 1-5-5-4-1-6 3-2 6 1 11 4 10 4 4h6l4-4 3-8 5 1 1 5-3 8-6 5-2 1h-9l-6-4-6-8-3-9-1-10 2-9 4-6z" fill="#0A0A0C"/>
<path transform="translate(888,536)" d="m0 0m-1 1h1v10l-6 25-8 26-11 28-14 29-11 20-13 21-8 11-3 1 2-7 9-13 12-20 16-32 10-23 10-27 9-32 3-14h2z" fill="#606B6C"/>
<path transform="translate(870,421)" d="m0 0h8l2 3v24l-1 5h-6l-3-4 1-7-19 1h-24v-9l41-2v-10z" fill="#0F0E10"/>
<path transform="translate(628,70)" d="m0 0 5 1 11 7 3 5-1 9-4 10-6 8-3 3-7 1-11-4-6-4 2-1 3-9 8-16 5-9zm2 9-10 19v6l4 3h5l7-8 4-8v-6l-5-5z" fill="#0B0B0C"/>
<path transform="translate(437,185)" d="m0 0h30l20 2-2 1v2l-4 1-1 3 10 2v1l-20-1h-34l-21 2h-6l2-3 5-1 2-7z" fill="#012013"/>
<path transform="translate(89,558)" d="m0 0 4 1 1 7-16 5-6 3-16 16-5 2-3-5 1-4 11-10v-3l-17-3-3-3v-5l18 2 13 2z" fill="#0B0A0C"/>
<path transform="translate(555,520)" d="m0 0h1l1 20-12 12-14 9-8 3 3-9 1-5 2-3 1-7 2-1v-2l6 1 2-7 8-8 6-1z" fill="#018637"/>
<path transform="translate(591,485)" d="m0 0 3 1h14l13 3 10 3-1 8-2 5h-12l-14-2-13-7h-5v-5l5-4h2z" fill="#027E32"/>
<path transform="translate(406,134)" d="m0 0h10l4 4 1 3v8l-4 5 8 11v4l-5-1-8-9v-2l-7-1 2 12v4h-5l-2-7-3-28z" fill="#020708"/>
<path transform="translate(569,48)" d="m0 0h5l2 6v37l-1 1h-5l-2-2v-10h-12l-4 5h-5l-1-4 6-8 10-16zm-3 14-4 8 2 2h5v-10z" fill="#0F0E10"/>
<path transform="translate(689,73)" d="m0 0 5 2 10 5 18 13 16 13 8 7 5 4v2l4 2 32 32 9 11 8 10 3 8 2 3-4-2-11-14-11-13-40-40-14-11-16-13-22-15z" fill="#54696A"/>
<path transform="translate(407,24)" d="m0 0h23l1 1v5l-3 2-8 2 3 40-1 1h-7l-1-1-3-39h-10l-2-2v-8z" fill="#0D0C0D"/>
<path transform="translate(102,590)" d="m0 0 4 4-1 5-21 8-15 6 2 5 1 5-5 5h-2l-7-15-5-13 1-4h7l3 5 1 3 10-3z" fill="#0A090B"/>
<path transform="translate(45,323)" d="m0 0 7 1v12l21 6 15 4 2 1-1 6-1 2-9-2-27-7-3-1-3 9-4 1-5-2 4-18z" fill="#0B0A0C"/>
<path transform="translate(20,558)" d="m0 0 2 3 7 25 9 25 11 26 16 31 13 22 11 16 9 12-2 4-12-16-13-20-12-20-14-27-12-28-8-22-6-21v-3h2z" fill="#586061"/>
<path transform="translate(285,129)" d="m0 0 2 1-24 14-14 9-21 16-14 11-10 9-12 12-7 8-8 10-11 14-12 17-7 10-5 2 2-6 16-23 9-11 9-10 9-11 15-15 8-7 14-12 15-11 20-13 22-12z" fill="#313030"/>
<path transform="translate(491,91)" d="m0 0h12l23 3 32 8 24 8 21 9 21 10 18 10 24 16 13 10 13 11 1 2-5-1-10-9-12-9-18-12-19-11-25-13-19-8-34-11-28-7-32-5z" fill="#556466"/>
<path transform="translate(445,713)" d="m0 0 15 1v34l-16 1v-35z" fill="#616061"/>
<path transform="translate(709,555)" d="m0 0 5 1 17 8 8 4 5 2-2 4-1 1-10 1h-13l1 2 18 7-2 5-6-2-27-12-1-4 2-2h22l2 1v-3l-5-2-14-7z" fill="#131213"/>
<path transform="translate(629,784)" d="m0 0 3 1 1 31 7 15-1 5-5-1-8-16-12-10-9-7-2-2v-3l7-1 12 10 2 1 1-19z" fill="#0F0E0F"/>
<path transform="translate(636,657)" d="m0 0h5l4 8 8 18 2 9-6 2-21-14-9-5 1-4 5-1 6 3 7-6-1-5z" fill="#131214"/>
<path transform="translate(150,503)" d="m0 0h6l5 5 3 7h13l1 4-16 4-11 3h-9l-3-9v-6l5-6z" fill="#020D09"/>
<path transform="translate(196,295)" d="m0 0 16 8 14 8v4l-6 10-5-3-9-4-12-8-4-3 2-5z" fill="#626262"/>
<path transform="translate(605,172)" d="m0 0 4 1v16l-1 8h3l2-5 6-10 4-1 1 4-3 5h-2l-2 7h-2l-2 7-4 5h-2l-2 5-4-2-1-3 1-3 2-18-3 3-8 13-3 1-2-1 2-6 7-11z" fill="#011913"/>
<path transform="translate(385,8)" d="m0 0h8v1h-6v2l-21 4-27 6-25 7-28 10-23 10-16 8-9 5-4-1 19-10 8-4 3-3 26-11 22-8 35-10 9-2 24-3z" fill="#373233"/>
<path transform="translate(198,575)" d="m0 0h2l1 6-3 4h-2l5 9v2l10-1v4l-7 2-23 6-7-1-1-4 9-10 5-5z" fill="#020808"/>
<path transform="translate(592,690)" d="m0 0h4l15 28 1 5-9 4-10 4-2-5 4-3 8-4-2-6-4 1-6 3-5-1 1-5 7-4h3l-3-8-2-1-11 6h-4v-5l5-4z" fill="#141315"/>
<path transform="translate(593,802)" d="m0 0h4l2 5-4 3-6 3 9 25 4 11-1 3-3 1-4-4-10-27-2-6-12 1-2-5 8-4z" fill="#0C0B0D"/>
<path transform="translate(130,677)" d="m0 0 8 1 5 3 3 6v6l-4 6-7 4-6-1-7-6-2-4v-5l5-7z" fill="#09080A"/>
<path transform="translate(768,677)" d="m0 0 7 1 8 7 1 7-6 8-4 2h-7l-6-4-3-6 1-8 5-5z" fill="#080709"/>
<path transform="translate(543,146)" d="m0 0h5l-1 5-7 21-1 5 11 2 3 5h2l10-27 2-3h4l-1 7-10 27-4 1-6-3-17-5-1-5 10-29z" fill="#011D13"/>
<path transform="translate(249,647)" d="m0 0 4 1-1 6-1 5 4 2 2 2 11-1v4l-22 13-6 4-5-1-1-5 11-23z" fill="#020C06"/>
<path transform="translate(178,523)" d="m0 0h2v5l-5 5 2 9 1 1 8 1 1 4-1 1h-37l-2-3 5-5 11-8z" fill="#020C08"/>
<path transform="translate(610,678)" d="m0 0h8l6 4v4l-12-1-3 2v7l8-1 7-2 6 3 4 6v7l-5 5-2 1h-8l-5-3 1-4h13l-2-6-16 1-6-5-1-2v-10z" fill="#141315"/>
<path transform="translate(802,403)" d="m0 0 4 3 1 3 1 12v60l-2 22-4 24-2 4v-9l-3 1 4-27 2-20 2-63-3-5z" fill="#222122"/>
<path transform="translate(296,170)" d="m0 0h5l17 17 8 7v3h-5l-2-3h-6l-5 3h-2l1 4v7l-4-1-4-13-4-18z" fill="#01120F"/>
<path transform="translate(475,132)" d="m0 0 14 1 6 1v5l-4 1-11-1-2 8 14 1v6h-14v9l13 1 1 5-1 1h-11l-8-2-1-1v-13l3-21z" fill="#01271B"/>
<path transform="translate(246,768)" d="m0 0 4 1 1 3-10 17-8 12-1 1v5l10 6 3 3v5l-3 1-13-7-8-6 1-5 10-15 9-15z" fill="#0A090B"/>
<path transform="translate(804,175)" d="m0 0 5 5 13 19 7 10 15 26 12 23 10 22 3 10h-2l-3-9 3 10-1 3-11-27-12-25-10-18-26-39v-2l-3-5z" fill="#727374"/>
<path transform="translate(507,136)" d="m0 0 8 1 5 3 1 9-4-1-4-4-7-1 1 6 6 3 5 5 2 3v6l-1 2h-2l-2 4-3 3-8-1-6-4-2-5v-5l6 1 3 6h6l2-1 1-5-5-2-8-7-1-6 3-6z" fill="#01160F"/>
<path transform="translate(383,138)" d="m0 0h6v5l-7 2h-6l1 9 6-1 2-1h7v6l-13 3 1 9 16-2v5l-10 3h-10l-5-18-2-10v-7z" fill="#011610"/>
<path transform="translate(124,611)" d="m0 0 6 1 10 18 13 21 12 17 6 7v2l-4-2-1 2-4-1-12-17-7-11-10-17-8-16z" fill="#585556"/>
<path transform="translate(135,411)" d="m0 0 5 1 1 14 6 1 2-13 5-1 1 1-1 13h9l1-2 1-10 3-3h3v12l-2 9-1 1-30-2-4-1v-12z" fill="#020607"/>
<path transform="translate(579,160)" d="m0 0 7 1 10 6-1 5-6-2-4-2h-4l-3 7 6 2 6 3-1 4-7-1-9-3-1 10 9 3 3 2v5l-7-1-13-7 1-5 11-23z" fill="#011711"/>
<path transform="translate(328,155)" d="m0 0 5 1 5 5v3l-6-1-5-1-3 1 1 5 7 1 9 1 4 5 1 2v9l-5 5-2 1h-9l-5-4-1-5 6 1 2 1h9l-2-8-14-1-4-2-3-6 1-8 3-3z" fill="#01180F"/>
<path transform="translate(805,579)" d="m0 0 7 1 37 14 4 2-1 7-3 1-41-15-4-2v-7z" fill="#0B0A0B"/>
<path transform="translate(745,408)" d="m0 0h9l5 2 1 2v6l-5 6 3 4h-2l1 4-18 1 2-3v-2l2-1v-3l-8-4v-6l6-5z" fill="#F1DDD4"/>
<path transform="translate(214,826)" d="m0 0 4 1 18 10 23 12 25 11 20 8 30 9 3 3-11-2-13-4-10-2-10-3-22-9-36-18-16-10z" fill="#575555"/>
<path transform="translate(218,611)" d="m0 0 5 2 10 13-1 4-13 10-11 8-5-1-6-7-4-5 1-4 4 1 8 9 5-2-1-6-5-7 1-3 4 1 7 7 5-1 2-1v-5l-7-9z" fill="#020E0A"/>
<path transform="translate(720,531)" d="m0 0h8l19 6 7 3v4l-8-1-17-5-6-1-1 8 5 3 10 4 12 4-1 5-6-1-19-7-6-4-3-3 1-7z" fill="#151516"/>
<path transform="translate(748,402)" d="m0 0 10 1 6 4 3 6-1 7-5 5-5 1-2-3 5-5v-8l-5-1h-9l-7 3-2 2v6l8 4-1 4-8-1-5-5-2-3 1-7 5-6 7-3z" fill="#141415"/>
<path transform="translate(657,398)" d="m0 0h2l3 20 8-2v3l-16 26-7-6-3-5v-3l8-5h2v-10l-1-3v-7l2-6 2 4zm-4 34 1 4 1-3z" fill="#183128"/>
<path transform="translate(437,23)" d="m0 0h8l1 1 1 29v20h-7l-1-1-1-8-1-24z" fill="#0B0A0C"/>
<path transform="translate(70,480)" d="m0 0h7l2 2v6l-2 1-31 3-17 1-1-1v-8l29-2z" fill="#0A0A0B"/>
<path transform="translate(273,184)" d="m0 0h7l5 4v3h-6l-3-1-4 1 1 6h18l5 5 2 3-1 8-8 6h-6l-6-4-1-3h15v-8l-16 1-4-2-4-5v-8l4-5z" fill="#020F0D"/>
<path transform="translate(43,268)" d="m0 0h1l-1 7-10 26-8 25-8 32-6 33-2 1-1-9 5-27 9-35 12-35 6-14 2-1z" fill="#454445"/>
<path transform="translate(394,812)" d="m0 0h43l20 1 2 1 40 1v1l-27 3h-27l-30-2-17-2v-2z" fill="#646263"/>
<path transform="translate(112,612)" d="m0 0 3 1 1 6-19 10-17 8-3 2h-7l-2-6 15-7 16-8z" fill="#0B0A0C"/>
<path transform="translate(303,871)" d="m0 0 17 4 6 2 9 2 3-1 24 6 23 4 51 5v1l-32 1-35-5-23-5-27-7-15-5z" fill="#676162"/>
<path transform="translate(565,348)" d="m0 0h23l5 2v2h-28l-1 1-1 7-1 1-24 1-11 7-3 3-4-2 1-4 8-11h2v4l5-1 14-5 12-3z" fill="#076D32"/>
<path transform="translate(105,166)" d="m0 0 2 1-5 6-2-1zm-6 7 2 1-1 5-10 13-10 15-13 21-13 24-9 19-4 1 1-5 12-25 12-21 13-20 11-16z" fill="#5D6465"/>
<path transform="translate(644,849)" d="m0 0h5v2l-26 12-29 11-27 8-20 5-11-1 3-2 25-6 30-9 25-9z" fill="#4E4E4E"/>
<path transform="translate(330,704)" d="m0 0h8l6 5 1 2v12l-5 12-5 4-2 1h-10l-5-5-1-2v-7h4l6 8 6-1 4-6 2-12v-3h-8l-6 1-1-4z" fill="#020607"/>
<path transform="translate(581,167)" d="m0 0 7 1 5 3h2l1-4h2l1 5-2 2-2-1-1 4-1 1v6l-4 3-1 8h-2l2 7-1 2 4 2-5-1-1-3-5-1 4-1-1-5-9-4-2-1 1-10 7 1 4 2h5v-3l-11-5 1-5z" fill="#03A09F"/>
<path transform="translate(238,732)" d="m0 0 5 2 12 9 5 3 8 5 3 1 1 2 8 3 1 2 11 6 10 5 10 4 8 3 19 7 5 1v5l-11-3-27-11-19-10-12-6-17-11-19-13z" fill="#141415"/>
<path transform="translate(707,298)" d="m0 0 8 6-5 5-10 6-13 7-2 3-3-6-2-3v-3l19-11z" fill="#626162"/>
<path transform="translate(558,218)" d="m0 0 5 1 24 13 22 15 13 11 5 3 7 8 9 11 1 3-5-1v-2h-3l-5-5-15-9-3-3 4-2-1-5-4-2-4-4-7-6-6-3-3-2v-2l-6-2-6-4-12-6-5-3-3-1v-2z" fill="#03A09E"/>
<path transform="translate(120,182)" d="m0 0 4 2 16 13 13 10 5 4 1 3-4 4h-2v-2l-4-2-15-12-13-10-5-5z" fill="#0A0A0B"/>
<path transform="translate(411,188)" d="m0 0h7l-1 6-7 3-2 2-22 5-7 1-2-4v-2l-4-2 27-7z" fill="#010E0B"/>
<path transform="translate(132,438)" d="m0 0 16 3 15 4 6 3 1 4-5 3-15 4-12 3h-5v-5l23-6 2-1-9-3-16-4z" fill="#020D0A"/>
<path transform="translate(611,777)" d="m0 0 2 1-1 1 2 2-14 7-20 8-26 9-12 2h-5l4-1v-2l10-3v-2l29-9 29-12z" fill="#464646"/>
<path transform="translate(693,532)" d="m0 0 1 4-9 20-8 17-10 16-2 1-2-12-9 9-2-1 13-13 9-11 10-14 8-14z" fill="#FAF7F6"/>
<path transform="translate(746,438)" d="m0 0h7l8 3 2 2v6l-5 4-10 2-8-2-3-2-1-8 6-4z" fill="#EFDBD2"/>
<path transform="translate(471,828)" d="m0 0h6l1 2 2 41v6l-7 1-1-9-2-40z" fill="#111113"/>
<path transform="translate(731,464)" d="m0 0 13 1 20 2 4 1v6l-3 3-15 2-8-2-12-1v-1l18-2h-3l-3-2-11-2-1-2z" fill="#1C1B1D"/>
<path transform="translate(863,279)" d="m0 0 2 2 2 9 3 1 12 36 6 25 3 22v6l-1-3h-2l-6-31-9-32-6-17-3-12z" fill="#323233"/>
<path transform="translate(556,814)" d="m0 0h3l7 24 5 18v6l-5 1-2-2-10-37-1-8z" fill="#0C0C0D"/>
<path transform="translate(323,175)" d="m0 0 16 1 2 3v6l-2 1h-7l-8-3 1 5 4 2 1 1 8 1v1l-7 1-3 1v3l-7 1-4-2-2 1-1 2-8 1v-4l7-4h6l2 3 5 1-3-5-10-9 3-1 5 2z" fill="#03A09C"/>
<path transform="translate(433,284)" d="m0 0h6l9 6 4 4v2l-5-1h-2v2l2 2-2 14-5-3-12-20 2-4z" fill="#027C30"/>
<path transform="translate(527,9)" d="m0 0 10 1 30 7 24 7 9 3-2 2 5 3-3 1-24-8-31-8-21-4v-1h11l-8-2z" fill="#817A78"/>
<path transform="translate(535,582)" d="m0 0h3l5 12 1 6h-12l-6 2-4-1 1-17z" fill="#028638"/>
<path transform="translate(674,616)" d="m0 0 5 1 9 6 24 6-1 3-6 1-12-2 7 14-1 3-5-1-7-13-2-5-11-9-1-3z" fill="#131214"/>
<path transform="translate(622,447)" d="m0 0 3 3 5 14-1 5-15 5-9 6v-4l6-5 2-8 8-15z" fill="#047A33"/>
<path transform="translate(441,715)" d="m0 0 3 2 1 36v54l-1 1h-9l1-5 4-1z" fill="#02171B"/>
<path transform="translate(689,595)" d="m0 0 6 2 2 1v2l4 1 10 6 3 2 4-1 3-4h4l-1 7-9 14-3 1-3-4 2-4v-5l-6-2-12-8-5-3z" fill="#101011"/>
<path transform="translate(91,485)" d="m0 0 2 1 5 30 6 27 4 13-1 3-1-3h-4l-6-24-5-25-2-15v-6z" fill="#656061"/>
<path transform="translate(814,704)" d="m0 0 2 3-2 4-7 10-13 16-7 8-12 13-16 16-3-1 6-8 21-21 9-11 12-15z" fill="#4C7476"/>
<path transform="translate(244,215)" d="m0 0 6 1 7 6 4 7-1 6-5 4h-2l-9-11-5-5v-5z" fill="#04ACB2"/>
<path transform="translate(472,134)" d="m0 0h2l-1 12-1 8v13l2 2h-14l-2-2 1-3 2 3 6 1-7-13 1-5h2l1-15 7 1z" fill="#04AAB0"/>
<path transform="translate(179,560)" d="m0 0h7l3 5v5l-16 8-6 1-2-4v-6l6-5z" fill="#099648"/>
<path transform="translate(418,187)" d="m0 0 26 1 4 1-1 2-2 2 27 1 18 2v1l-20-1h-34l-21 2h-6l2-3 5-1z" fill="#012015"/>
<path transform="translate(246,320)" d="m0 0 5 2 27 15 17 10 13 8 8 4 10 6 3 2-4 1-12-6-16-9-23-13-15-9-11-7z" fill="#011C13"/>
<path transform="translate(241,637)" d="m0 0 3 1v5l-10 9-8 7h-2l1 4 2 3v5l-4-1-6-7-7-6 1-4h5l1 2 5-1 8-7 9-9z" fill="#020B06"/>
<path transform="translate(135,479)" d="m0 0 5 1 1 6 21-3h10v5l-21 3-10 1 1 7-1 2-5-1-1-4z" fill="#020E0B"/>
<path transform="translate(628,188)" d="m0 0 4 1 5 3 7 5v2l3 1 1 4h-6l-3-2h-3l-4 7h-2l-2 6-8 9-4-1 2-5 13-19-1-5-2-1z" fill="#011D15"/>
<path transform="translate(691,178)" d="m0 0 5 1 8 8 7 6v2l4 2v2l4 2v2l3 1 7 8 9 10 11 14 3 4v2h-2l-1 1-4-4-14-19-15-16-25-25z" fill="#5F6364"/>
<path transform="translate(568,709)" d="m0 0 3 2 5 13 2 4-1 5-7 2-5-4-4-9-1-7 5-5z" fill="#F1DDD4"/>
<path transform="translate(304,690)" d="m0 0 6 1 13 7-1 5-8 15-5 8-2 4-4-1 1-7 10-18 1-3-10-6z" fill="#020D09"/>
<path transform="translate(359,144)" d="m0 0h4v5l-3 2h-4l7 23 1 8h-4l-6-16-3-12h-9l-2-3 10-4z" fill="#011E15"/>
<path transform="translate(234,732)" d="m0 0 4 2 11 8 23 15 12 7 10 5-2 4-6-1-24-14-18-12-6-5h3l13 9-4-4-11-8zm22 19m7 4m1 1 4 4 8 5 2-1-6-5-5-3z" fill="#F5E9E7"/>
<path transform="translate(434)" d="m0 0h39l17 3 21 2 11 2v1l-17-1-13-1-33-1-1-1h-33l3-3z" fill="#CCA5A5"/>
<path transform="translate(748,240)" d="m0 0h2v2l4 1 10 14 6 10 4 10 7 16v3h2v3h-3l-15-29-12-20-4-6z" fill="#65605F"/>
<path transform="translate(297,185)" d="m0 0 2 4 5 20-7 4v-8l-4-5v-2h-20l-2-5 3-3 4-1 7 2 1-3 2 4-2 1-2-1v2h10l1-8z" fill="#039F9A"/>
<path transform="translate(770,269)" d="m0 0 3 3 8 17 7 15 7 17 5 14 2 5v7l-3-3v-2h-2l-8-23-8-18v-2h2v-3h-2l-5-12-6-13z" fill="#4F4D4D"/>
<path transform="translate(516,305)" d="m0 0h10l-3 2-8 2-16 8-6 7-1 2-6 3-9 8-10 20v4h-4l1-7 5-9h2l3-9h2l1-4 2-1 1-3h2l2-4 6-4 4-4 5-3h2v-2l9-4 5-1z" fill="#121A19"/>
<path transform="translate(91,416)" d="m0 0h1v55l1 15h-4l-2-18v-32l1-13 2-5z" fill="#575555"/>
<path transform="translate(153,116)" d="m0 0h3l-2 4-17 16-9 9-7 8-8 10-11 13-2-3h2l4-8 9-11 11-12 1-2h2l2-4 8-8 8-7z" fill="#625E5D"/>
<path transform="translate(296,176)" d="m0 0 1 3 6-1 5 5 3 2-1 5-3 2 3 4-4 1 1 4v7l-4-1-4-13-3-12z" fill="#011A11"/>
<path transform="translate(401,135)" d="m0 0 5 1v2l8 1 2 2-1 8-4 2h-8l-3-1v7h-1l-2-20z" fill="#021413"/>
<path transform="translate(309,25)" d="m0 0 2 1v3l-27 10-21 9-16 8-9 5-4-1 19-10 8-4 3-3 26-11z" fill="#373738"/>
<path transform="translate(648,502)" d="m0 0 1 2-8 15-11 13-12 12-16 9-12 6h-2v-3l9-6 10-4 1-2h6l1-3 11-9 9-10 6-10 2-1 2-7z" fill="#2E3431"/>
<path transform="translate(57,658)" d="m0 0 5 4 11 20 16 24 9 12-2 4-12-16-13-20-12-20-2-4z" fill="#6B6363"/>
<path transform="translate(142,259)" d="m0 0 2 2h3l-6 10-7 12-10 19-2 4h-3l1-5 11-25 7-12z" fill="#353433"/>
<path transform="translate(442,88)" d="m0 0h16l21 1 8 1v1h-55l-23 2-27 4-30 7-2-1 8-3 25-6 20-3 17-2z" fill="#398689"/>
<path transform="translate(626,131)" d="m0 0 5 2 14 8 21 14 13 10 13 11 1 2-5-1-10-9-12-9-18-12-19-11-3-2z" fill="#24684F"/>
<path transform="translate(697,580)" d="m0 0 7 2 10 6 12 6v2l4 1-2 4h-3l-21-11-8-5z" fill="#151415"/>
<path transform="translate(285,129)" d="m0 0 2 1-24 14-14 9-21 16-13 10-3-2 11-9 13-10 15-10 17-10z" fill="#425254"/>
<path transform="translate(803,476)" d="m0 0h1v8h2l1 11-4 28-2 8h-1v-9l-3 1 4-27z" fill="#3E3939"/>
<path transform="translate(758,769)" d="m0 0v3l-1 4-13 12-12 10-19 14-4-2 11-8 16-13 10-9 8-7z" fill="#5D6263"/>
<path transform="translate(649,755)" d="m0 0 2 1-4 6v2l-22 12-10 5-5-1 5-5 22-12z" fill="#555353"/>
<path transform="translate(769,141)" d="m0 0 7 1 11 11 9 11 8 10 3 8 2 3-4-2-11-14-11-13-14-14z" fill="#4B8A8D"/>
<path transform="translate(534,885)" d="m0 0 8 1-1 2-27 5-14 2-15-1-1-2 15-2z" fill="#888B8B"/>
<path transform="translate(644,849)" d="m0 0h5v2l-26 12-26 10h-6l3-4 25-9z" fill="#353737"/>
<path transform="translate(531,142)" d="m0 0 5 1-2 9-5 19-2 7-5-1 2-13 6-21z" fill="#012215"/>
<path transform="translate(557,351)" d="m0 0 4 1-9 5-10 3h-4v2l-11 7-3 3-4-2 1-4 8-11h2v4l5-1 14-5z" fill="#262727"/>
<path transform="translate(182,305)" d="m0 0 9 2 15 10 9 4 4 2-1 6-1 2h-2v2h-2l-4-9-9-4-6-5-3-1v-3l-5-2z" fill="#128F4D"/>
<path transform="translate(571,155)" d="m0 0 1 4 1 2 2 1v-3l4-1 5 1v1l-6 2-8 16-5 11-1-3-3-1 3-11z" fill="#039F9D"/>
<path transform="translate(297,685)" d="m0 0 4 1-1 7-6 11-9 13-5-1 1-4 12-19z" fill="#020C07"/>
<path transform="translate(888,536)" d="m0 0m-1 1h1v10l-6 25h-2l-3 11-4 12-4 11h-2l2-9 8-24 7-28 1-5h2z" fill="#1D1C1D"/>
<path transform="translate(158,466)" d="m0 0h12l1 4-5 2-32 1-1-4 6-2z" fill="#020303"/>
<path transform="translate(297,683)" d="m0 0 5 2 4 4-2 1 2 6h-2l-3-3-1-3v-4l-3-1-2 6-11 18-5-1v-6l9-11 4-5 4-2z" fill="#089344"/>
<path transform="translate(621,181)" d="m0 0 3 1-1 4-2 4h-2l-2 7h-2l-2 7-4 5h-2l-2 5-4-2-1-3 2-4 3 2 1-3 2-2-1-1v-7l1 3h3l2-5 6-10z" fill="#011A14"/>
<path transform="translate(10,507)" d="m0 0 2 3 5 30 3 14 1 11-3-1-8-36-1-6v-10z" fill="#4E4B4B"/>
<path transform="translate(804,175)" d="m0 0 5 5 13 19 7 10 6 10v2l-3-1-2-2-4-5-15-22-4-6v-2l-3-5z" fill="#616969"/>
<path transform="translate(255,198)" d="m0 0 4 1 11 13 8 11 1 5-5-1v-2l-3-1v-3l-3-1-11-14-2-3z" fill="#012014"/>
<path transform="translate(383,138)" d="m0 0h6v5l-7 2h-6l1 9 2 2h-4l-1 2h-3l-2-10v-7z" fill="#012016"/>
<path transform="translate(254,207)" d="m0 0h3v2l4 1 8 10 2 1 1 3 2 1v4h-3l-1 2-2-1-1 6h-1l-2-12-3-5-6-5v-2l-4-1 1-3z" fill="#03A09D"/>
<path transform="translate(577,791)" d="m0 0 3 1-3 3h-3l1 3-21 7-12 2h-5l4-1v-2l10-3v-2z" fill="#373737"/>
<path transform="translate(249,647)" d="m0 0 4 1-1 6-1 5 4 2 2 2 11-1v4l-8 5h-6l-1-6-3-1v-2h-2l-1-11z" fill="#020405"/>
<path transform="translate(124,611)" d="m0 0 6 1 10 18 4 7v2l-7-1-8-14-5-11z" fill="#555757"/>
<path transform="translate(6,459)" d="m0 0h1l4 42-1 11-2 4-3-22v-25z" fill="#5B5B5B"/>
<path transform="translate(535,301)" d="m0 0h12l20 4 20 11 2 3-5-1-8-5-9-5h-6l-5-2-21-1-4 2h-8v-1l-5-1v-1l13-1z" fill="#5F5F5F"/>
<path transform="translate(165,227)" d="m0 0h5l-6 9-13 18-4 6-5 2 2-6 16-23z" fill="#383334"/>
<path transform="translate(198,575)" d="m0 0h2v3l-8 7-4 4 1 3 5 1 1 5-6 2h-12l-2 1 2-4 6-7 8-7z" fill="#020B05"/>
<path transform="translate(135,411)" d="m0 0 5 1 1 14 7 2h2 3v3l-4 1h-11l-4-1v-12z" fill="#020E0A"/>
<path transform="translate(472,153)" d="m0 0 4 1v9l15 1 1 5-1 1h-11l-8-2-1-1v-13z" fill="#012616"/>
<path transform="translate(284,861)" d="m0 0 5 1 15 6 30 9 3 3-11-2-13-4-10-2-10-3-10-4 2-1z" fill="#5B5756"/>
<path transform="translate(893,496)" d="m0 0 3 4-1 11-6 31-3-2 1-10 5-32z" fill="#626061"/>
<path transform="translate(556,268)" d="m0 0 8 1v17l-2 4-1-4-2-1-2-4h-2l-1-4v-8z" fill="#007C2E"/>
<path transform="translate(442,132)" d="m0 0h1v28l-1 7h5v1h-6l-2-7-1-1-9-2-1-1v-6l13-1z" fill="#039E97"/>
<path transform="translate(179,800)" d="m0 0 9 6 15 11 12 8 1 3 3 2-2 1-17-11-17-12-4-4z" fill="#5C5E5E"/>
<path transform="translate(317,726)" d="m0 0h4l6 8 6-1 5-1 3 1-4 5-4 2h-10l-5-5-1-2z" fill="#020A08"/>
<path transform="translate(96,371)" d="m0 0h1l1 12-5 35h-2l-2 4v-10l4-26z" fill="#666465"/>
<path transform="translate(238,732)" d="m0 0 5 2 12 9 5 3 8 5 3 1 1 2 8 3 1 4-2 1-15-9-24-16-2-2z" fill="#181E1D"/>
<path transform="translate(37,618)" d="m0 0 2 1 4 8 3 3 12 25 3 5-1 2-2-3-2 2-13-26-6-14z" fill="#867D7C"/>
<path transform="translate(422,2)" d="m0 0h2l-1 3-14 1h-15v2h20v1l-20 2h-7v-2l-20 3h-7v-1l32-6z" fill="#968E8D"/>
<path transform="translate(863,279)" d="m0 0 2 2 2 9 3 1 10 30-2 3h-2l-9-27-3-12z" fill="#242323"/>
<path transform="translate(880,572)" d="m0 0 1 3-7 23-5 13-3 3-5 12h-2l-1 6-3 6-1-4 11-26 2-3 2 1 1-6 5-13 4-13z" fill="#706969"/>
<path transform="translate(387,158)" d="m0 0h5l-1 2 2 6 3 1-4 2-5 1h-7l-2-9z" fill="#04A1A0"/>
<path transform="translate(359,144)" d="m0 0h4v5l-3 2h-4l-1 5h-4v-2h-9l-2-3 10-4z" fill="#011912"/>
<path transform="translate(509,142)" d="m0 0 6 2 3 4 3 1v-5l2 2v6l-3 4 1 4h-2l-3-4v-2l-10-5v-6z" fill="#039F9B"/>
<path transform="translate(243,209)" d="m0 0 8 1 4 2v2l4 2v2l3 1 2 5-3 2-1 3-6-9-6-4v-2h-5l-1-3z" fill="#011913"/>
<path transform="translate(273,184)" d="m0 0h7l5 4v3h-6l-3-1-4 1 1 6 7 1v1h-8l-2-1v2h-2l-1-2v-8l4-5z" fill="#021815"/>
<path transform="translate(138,638)" d="m0 0h7l9 14v5l-3 3-7-10-6-10z" fill="#616061"/>
<path transform="translate(135,479)" d="m0 0 5 1 4 12h-3l1 7-1 2-5-1-1-4z" fill="#020304"/>
<path transform="translate(62,228)" d="m0 0 1 3-6 13-2 6-10 21-4 1 1-5 12-25z" fill="#556F71"/>
<path transform="translate(441,186)" d="m0 0h22l-1 2h-5v3l5 2v1h-20l5-4 1-1-22-1v-1z" fill="#020103"/>
<path transform="translate(480,138)" d="m0 0 15 1-2 13-1-4-14-1 1-8z" fill="#04A1A0"/>
<path transform="translate(296,203)" d="m0 0 2 2-1 8-8 6h-6l-6-4-1-3h15l1-6 3 1z" fill="#021915"/>
<path transform="translate(200,700)" d="m0 0 5 1 22 22 5 3 3 4-4-1-6-4-14-12-11-11z" fill="#22774A"/>
<path transform="translate(444,626)" d="m0 0 1 4v44h1v26h-2l-1 3v-75z" fill="#525050"/>
<path transform="translate(211,653)" d="m0 0h5l1 2 6 3 2 5 2 3v5l-4-1-6-7-7-6z" fill="#020506"/>
<path transform="translate(17,350)" d="m0 0 1 4-4 20-3 17-2 1-1-9 5-27 2-4z" fill="#434142"/>
<path transform="translate(155,267)" d="m0 0 4 1v2l4 1 21 12 10 6-4 2-26-15-9-6z" fill="#101F1E"/>
<path transform="translate(583,111)" d="m0 0 11 4 24 11 8 5-1 3-19-10-21-9-6-2z" fill="#446E6C"/>
<path transform="translate(385,8)" d="m0 0h8v1h-6v2l-21 4-14 3h-5l2-2-2-2 9-2 24-3z" fill="#3E393A"/>
<path transform="translate(655,425)" d="m0 0 2 4-3 5h1l-1 7-1 1 2 2h-3l-7-8-1-5 8-5z" fill="#435849"/>
<path transform="translate(195,572)" d="m0 0h3l-1 5-12 13h-2l-2 4-4 3 1-4 7-8v-7z" fill="#0F8F4A"/>
<path transform="translate(707,298)" d="m0 0 8 6-4 4h-3v-2h-9l-11 6-3-1 5-4 12-7z" fill="#504E4E"/>
<path transform="translate(150,413)" d="m0 0 5 1-1 13 3 1-1 3 3 2h-8l-2-2 3-2h-2l-2 1v-2l-2-1 3-13z" fill="#020E0B"/>
<path transform="translate(273,686)" d="m0 0h2l-3 9-4 8h-2l-1 4-3-3v-3l-7-1v-1l6-2 8-7z" fill="#0F8D48"/>
<path transform="translate(770,269)" d="m0 0 3 3 8 17 7 15 2 4-1 3v2 3h2v6l-2-3-8-18v-2h2v-3h-2l-5-12-6-13z" fill="#9E908D"/>
<path transform="translate(509,510)" d="m0 0 3 1-2 5-6 8-5 5-7 6-7 5-3-1 4-4 10-8 9-11h2z" fill="#444343"/>
<path transform="translate(748,240)" d="m0 0h2v2l4 1 10 14 2 3-1 6-1-2-4-2-9-15z" fill="#444140"/>
<path transform="translate(751,119)" d="m0 0 4 2 20 20-1 2-6-2-16-16 1-3z" fill="#303333"/>
<path transform="translate(475,132)" d="m0 0 14 1 6 1v5l-4 1-11-1-3 1v-3h-2z" fill="#012A19"/>
<path transform="translate(327,161)" d="m0 0 5 1 6 2 1-3 2 7 2 4-5-2h-11l-4-3 1-5z" fill="#04A1A0"/>
<path transform="translate(20,558)" d="m0 0 2 3 7 25 1 5-1 1v6l-2-3-8-27v-3h2z" fill="#677878"/>
<path transform="translate(184,549)" d="m0 0h4v5l-16 4-5 2 1-8 2-2z" fill="#149352"/>
<path transform="translate(505,156)" d="m0 0 9 5v5l-3 2h-6l-3-4v-3l-6-1 1-2h5z" fill="#04A2A2"/>
<path transform="translate(489,326)" d="m0 0 2 1-6 9 1 4 2 3-1 1h-12l-1-2 3-6 10-9zm-12 14-1 3 5-1-1-2z" fill="#136E3A"/>
<path transform="translate(448,137)" d="m0 0h10l2 2v7l-1 1h-10l-1-1z" fill="#03A09E"/>
<path transform="translate(441,318)" d="m0 0h3l1 3-11 8-8 6-7 9h-2v-4l5-5 8-9 5-1 2-5z" fill="#0D4546"/>
<path transform="translate(125,145)" d="m0 0h2l-2 4-8 9-9 11-6 7-2-3h2l4-8 9-11 4-5 5-3z" fill="#595758"/>
<path transform="translate(657,646)" d="m0 0 5 2 2 2v5l-5 4h-5l-2-2v-5z" fill="#F2E0D7"/>
<path transform="translate(627,262)" d="m0 0 4 2 16 16 6 9 1 4-5-2-6-5-1-3v-3l-9-11z" fill="#016133"/>
<path transform="translate(269,756)" d="m0 0 14 7 11 6-2 4-6-1-10-6v-3l-7-5z" fill="#F9F3F2"/>
<path transform="translate(150,508)" d="m0 0 4 1 2 2 1 8-3 1h-8l-1-7z" fill="#028236"/>
<path transform="translate(478,153)" d="m0 0 14 1-3 3h-2l-1 3h-2v3h7v1h-13l-1-1v-9z" fill="#04A1A0"/>
<path transform="translate(385,152)" d="m0 0h7v6l-9 2h-7v2h-4l1-5z" fill="#011410"/>
<path transform="translate(405,140)" d="m0 0h10l1 1-1 8-3 1h-7l-1-1v-8z" fill="#03A09F"/>
<path transform="translate(378,144)" d="m0 0h9l1 7 4-1v2l-9 2-6 1-1-1v-9z" fill="#03A09E"/>
<path transform="translate(507,136)" d="m0 0 8 1 5 3 1 9-4-1-4-4-6-1 1-3-6 3 2-4z" fill="#012014"/>
<path transform="translate(324,183)" d="m0 0 6 1 2 1h8v3l5-4v3l-4 4-2 1h-9l-5-4z" fill="#011913"/>
<path transform="translate(472,134)" d="m0 0h2l-1 12-1 8h-1l-2-7h-5v-12l7 1z" fill="#039F9B"/>
<path transform="translate(78,691)" d="m0 0 4 5 12 17 4 6-2 3-12-16-8-12v-2z" fill="#5F6C6D"/>
<path transform="translate(830,680)" d="m0 0 3 1-2 5-10 16-4 5-3 1 2-7 9-13z" fill="#5F6869"/>
<path transform="translate(565,188)" d="m0 0 1 2h8l10 5v5l-7-1-13-7z" fill="#011D13"/>
<path transform="translate(285,188)" d="m0 0 3 3-2 2-2-1v2l5 1v1l-9 2h-7l-2-5 3-3 4-1 7 2z" fill="#04A1A0"/>
<path transform="translate(483,5)" d="m0 0 22 1 22 2v2l9 1-1 2-12-1-6-2-14-2-26-1v-1z" fill="#020303"/>
<path transform="translate(687,468)" d="m0 0h1v11l-3 7-8 7-8 3-10-1 1-2 15-2 8-8 1-3h2v-11z" fill="#4D4A45"/>
<path transform="translate(449,132)" d="m0 0h13l2 3v13l-6 2 1-4 1-2v-6l-1-1-9-1z" fill="#01110B"/>
<path transform="translate(91,485)" d="m0 0 2 1 3 20v6l-2-2-2 2-3-20v-6z" fill="#5C6364"/>
<path transform="translate(609,173)" d="m0 0 3 2 3 11-1 6-3 5h-3z" fill="#04A1A0"/>
<path transform="translate(467,6)" d="m0 0 36 1 17 3 3 2-19-1-15-2-18-1z" fill="#867979"/>
<path transform="translate(192,290)" d="m0 0 6 1 14 8v2l4 1 6 3-1 3-5-2-20-11-4-3z" fill="#01150F"/>
<path transform="translate(394,812)" d="m0 0h43l9 1v1l-14 1h-22l-16-2z" fill="#545252"/>
<path transform="translate(113,587)" d="m0 0 5 5 6 10 4 5 2 5-7-1-8-17z" fill="#767070"/>
<path transform="translate(8,385)" d="m0 0h1l1 6 1 4-3 28h-1l-2-8 2-25z" fill="#7E7575"/>
<path transform="translate(414,152)" d="m0 0 5 5 6 8v4l-5-1-8-9v-2l-2-1z" fill="#011811"/>
<path transform="translate(142,259)" d="m0 0 2 2h3l-6 10-5 9-2-3-3 1 2-6z" fill="#4C4949"/>
<path transform="translate(274,252)" d="m0 0 3 1-27 27-1-3 5-6h2l2-4 14-14z" fill="#03A09D"/>
<path transform="translate(303,871)" d="m0 0 17 4 6 2 9 2 3-1 4 2-1 1 10 3 1 2-18-4-21-6-10-4z" fill="#ADA4A2"/>
<path transform="translate(669,657)" d="m0 0 4 2 3 3-2 4-4 4-6-2 1-7z" fill="#F0DCD3"/>
<path transform="translate(118,305)" d="m0 0 3 1-1 5-12 30-1-3 1-6 3-10z" fill="#414C4C"/>
<path transform="translate(558,218)" d="m0 0 5 1 24 13 16 11 1 2-6-2-6-4v-2l-6-2-6-4-12-6-5-3-3-1v-2z" fill="#04A1A0"/>
<path transform="translate(671,60)" d="m0 0 11 6 16 10-2 1-6-3 1 2-5-2-18-10 3-1 3 1-3-2z" fill="#5D7979"/>
<path transform="translate(443,347)" d="m0 0h2l2 9-1 3-9-3-7-1v-2l9-4z" fill="#0C483C"/>
<path transform="translate(152,461)" d="m0 0h5v2l13 2v1l-12 1h-18l5-5z" fill="#018135"/>
<path transform="translate(543,146)" d="m0 0h5l-1 5-2 6h-2l-1 4-4 4-1-4 5-14z" fill="#011712"/>
<path transform="translate(406,134)" d="m0 0h10l4 4 1 3v8l-3-4-2 1-2-6-8-2-1-3z" fill="#01120E"/>
<path transform="translate(547,800)" d="m0 0 4 1-12 4-24 5h-8l-1-2 28-5z" fill="#6B6768"/>
<path transform="translate(105,166)" d="m0 0 2 1-5 6-2-1zm-6 7 2 1-1 5-11 14-4 1 2-5z" fill="#454343"/>
<path transform="translate(854,263)" d="m0 0h2l2 4 4 4 7 17v2h-2l-3-9 3 10-1 3-11-27z" fill="#606565"/>
<path transform="translate(888,536)" d="m0 0m-1 1h1v10l-5 21-3-3 1-7 4-18h2z" fill="#3F3D3D"/>
<path transform="translate(211,178)" d="m0 0h3l-1 3-8 7-13 13-5 3 1-4 14-14 8-7z" fill="#333433"/>
<path transform="translate(679,832)" d="m0 0 2 1-17 10-13 7-5-1 4-3 19-10 5-1z" fill="#625E5F"/>
<path transform="translate(539,804)" d="m0 0h2l1 2 8-1-3 2-21 5h-7l1-4z" fill="#5D5959"/>
<path transform="translate(770,628)" d="m0 0v3l-4 8h-2l-1 5-6 8h-2l-2 7h-2l-2 4-2 1 2-5 9-14 8-13z" fill="#565555"/>
<path transform="translate(194,631)" d="m0 0 4 1 7 8v3l2 2-1 3-4-2-9-11z" fill="#020304"/>
<path transform="translate(888,356)" d="m0 0 2 4 4 21-1 15-2-2-2-11v-6l1-3-2-13z" fill="#626B6B"/>
<path transform="translate(535,304)" d="m0 0 21 1 8 3v8h-1v-6l-21-2h-9z" fill="#005225"/>
<path transform="translate(139,467)" d="m0 0h11l7 2v1l-20 3-4-1 1-4z" fill="#02110E"/>
<path transform="translate(565,348)" d="m0 0h23l5 2v2h-31l1-3z" fill="#040806"/>
<path transform="translate(292,239)" d="m0 0h2v4l3 1 4-1 1 2-9 6-5 3v-7l-1-4 4-2z" fill="#021710"/>
<path transform="translate(752,425)" d="m0 0 6 2-2 1 1 4-18 1 2-3v-2h4v-2z" fill="#FBFAF9"/>
<path transform="translate(246,320)" d="m0 0 5 2 23 13-3 2-5-2-17-10z" fill="#011F15"/>
<path transform="translate(379,436)" d="m0 0h2v10l1 7-1 4h-4-1v-12l2-8z" fill="#736968"/>
<path transform="translate(601,188)" d="m0 0h2l-1 18-2 3-2-6v-2h-4l2-5z" fill="#04A1A0"/>
<path transform="translate(304,690)" d="m0 0 6 1 11 6-3 3-1 2-12-7z" fill="#020709"/>
<path transform="translate(635,193)" d="m0 0 4 1 5 3v2l3 1 1 4h-6l-3-2v-2h-4l-2-3v-3z" fill="#010E0B"/>
<path transform="translate(520,161)" d="m0 0 2 1 2 3-1 13-4-1-6-3 4-6h2z" fill="#03A09E"/>
<path transform="translate(409,5)" d="m0 0h14l9 1-2 2h-36v-2z" fill="#303130"/>
<path transform="translate(814,704)" d="m0 0 2 3-2 4-7 10-4 5-4-2 11-14z" fill="#606F71"/>
<path transform="translate(803,476)" d="m0 0h1v8h2l1 11-1 8-4-2h-1z" fill="#2B2C2C"/>
<path transform="translate(260,45)" d="m0 0 2 1-19 10-8 4 1 2-17 10v-3l9-5-1-2 29-15z" fill="#7D7776"/>
<path transform="translate(497,809)" d="m0 0h9l1 3-23 2-17-1v-1l23-2z" fill="#6C6869"/>
<path transform="translate(797,368)" d="m0 0 2 2 6 28-1 4-2-2-2-12-3-8z" fill="#5E5A5A"/>
<path transform="translate(734,103)" d="m0 0 8 6 9 8 3 6h-4l-10-10-4-6-3-2z" fill="#467578"/>
<path transform="translate(5,415)" d="m0 0 2 3 1 5-1 20-3 1v-22z" fill="#4C4C4C"/>
<path transform="translate(666,156)" d="m0 0 7 4 13 11 7 6-4 1-7-7-16-12z" fill="#206049"/>
<path transform="translate(398,808)" d="m0 0 12 1 13 2v1l-8 1h-11l-10-1-1-2z" fill="#656263"/>
<path transform="translate(139,412)" d="m0 0h1l1 14 7 2h2 3v3l-9 1v-1l-6-1-1-7-1-4h3z" fill="#020103"/>
<path transform="translate(657,398)" d="m0 0h2l1 15-5 4-2-4v-7l2-6 2 4z" fill="#313535"/>
<path transform="translate(516,305)" d="m0 0h10l-3 2-8 2-16 8-3 2-2-3 5-3h2v-2l9-4 5-1z" fill="#413F40"/>
<path transform="translate(442,788)" d="m0 0h2l1 19-1 1h-9l1-5 4-1z" fill="#0E0D0F"/>
<path transform="translate(285,675)" d="m0 0 1 2 3 1-2 6-8 11-2 1 1-6z" fill="#0A8640"/>
<path transform="translate(157,241)" d="m0 0h2l-2 5-10 14-5 2 2-6 5-7 5-5z" fill="#3B3C3D"/>
<path transform="translate(565,21)" d="m0 0h8l18 6 6-1 3 2-2 1 5 3-3 1-24-8-11-3z" fill="#7C7F7F"/>
<path transform="translate(319,411)" d="m0 0h1l1 5 1 3-1 9-1 1-1 26h-1l-1-7v-14z" fill="#021717"/>
<path transform="translate(43,268)" d="m0 0h1l-1 7-7 18-2-1-2 4-1-2 9-22 2-1z" fill="#4F4D4D"/>
<path transform="translate(867,611)" d="m0 0 1 3-11 25-3 6-2-2 1-7 2 1 4-11h2l1-5z" fill="#6A6A6C"/>
<path transform="translate(219,617)" d="m0 0 4 4 2 3v5l-4 3-4-1v-4h-2v-2l2-1 2-5z" fill="#008334"/>
<path transform="translate(772,755)" d="m0 0 2 4-15 15-3-1 6-8z" fill="#7A7071"/>
<path transform="translate(582,575)" d="m0 0 2 3v12l-5 9-4 4-7 1 1-3 7-3 5-10z" fill="#0A090B"/>
<path transform="translate(595,188)" d="m0 0 3 3v3l-6 10-3 1-2-1 2-6z" fill="#012217"/>
<path transform="translate(494,581)" d="m0 0 37 1v2h-29l-7-1z" fill="#1A1B1D"/>
<path transform="translate(168,412)" d="m0 0h3v12l-2 2-5 1 1-12z" fill="#020D0A"/>
<path transform="translate(672,635)" d="m0 0h5l2 2-1 4-5 4-5-1 1-5z" fill="#161617"/>
<path transform="translate(261,619)" d="m0 0 4 2 21 21 13 10v2l-4-2-13-11-21-21z" fill="#006B32"/>
<path transform="translate(200,577)" d="m0 0 1 4-3 4h-2l-1 7-3-1-3 1v-2l-2-1 11-11z" fill="#020305"/>
<path transform="translate(34,291)" d="m0 0 1 4-8 24-2-1 2-12 4-10z" fill="#29292A"/>
<path transform="translate(177,599)" d="m0 0 10 1-2 1-1 5-8 1-3-3 1-3z" fill="#020305"/>
<path transform="translate(885,348)" d="m0 0 1 4h2l3 22v6l-1-3h-2l-3-17z" fill="#27292A"/>
<path transform="translate(591,870)" d="m0 0 2 1-1 1 2 2-16 5h-3v-2l-4-1z" fill="#545B5B"/>
<path transform="translate(323,780)" d="m0 0 8 1 13 4v5l-11-3-6-3-1-2z" fill="#0E1111"/>
<path transform="translate(317,726)" d="m0 0h4l6 9-3 3-1 2-5-5-1-2z" fill="#020F0B"/>
<path transform="translate(557,351)" d="m0 0 4 1-9 5-15 4-1-3 14-5z" fill="#020907"/>
<path transform="translate(563,286)" d="m0 0h1v14l-4-1-11-5-6-1v-1h8l5 2h2l3-1z" fill="#277B52"/>
<path transform="translate(515,801)" d="m0 0h7l-4 2-26 4-15 1v-2l16-2 18-2z" fill="#776E6E"/>
<path transform="translate(153,654)" d="m0 0 3 1 7 11-1 3h-3l-4-5-3-2z" fill="#4F5654"/>
<path transform="translate(13,538)" d="m0 0 2 4v3h3l3 17v3l-3-1-5-21z" fill="#353C3C"/>
<path transform="translate(607,187)" d="m0 0h1v14 3h-2l-1 6-3-6 2-14h2z" fill="#020A05"/>
<path transform="translate(265,854)" d="m0 0 7 1 12 5 1 4-7-1-8-4v-2l-5-2z" fill="#323130"/>
<path transform="translate(285,129)" d="m0 0 2 1-24 14-10 6-2-2 17-10z" fill="#6C8383"/>
<path transform="translate(567,19)" d="m0 0h7l20 6 1 3-6-1-21-6z" fill="#4F5957"/>
<path transform="translate(339,880)" d="m0 0 11 1 18 5v1h-14l-8-4-7-2z" fill="#252F2F"/>
<path transform="translate(726,797)" d="m0 0 3 1-2 4-14 10-4-2 11-8z" fill="#595858"/>
<path transform="translate(497,276)" d="m0 0h2l1 17-4-1-3-13 3-1z" fill="#086437"/>
<path transform="translate(506,139)" d="m0 0 3 1-2 3v10h-2l-1 2-3-3-1-6 1-3z" fill="#01190F"/>
<path transform="translate(506,809)" d="m0 0h16l-4 4-5 1h-16l2-2 7-1z" fill="#423F40"/>
<path transform="translate(271,700)" d="m0 0h6v6h-2l-1 4-5-1-2-2 1-3z" fill="#020405"/>
<path transform="translate(204,605)" d="m0 0 3 1 2 4v6l-5-1-4-4v-4z" fill="#020D0A"/>
<path transform="translate(608,544)" d="m0 0 4 1-7 4h-2l1 3-14 7h-2v-3l9-6 10-4z" fill="#69615A"/>
<path transform="translate(794,165)" d="m0 0 4 1 6 8 3 8 2 3-4-2-11-14z" fill="#373635"/>
<path transform="translate(226,63)" d="m0 0 4 1-11 6-5 5-6 4-4-1 4-4z" fill="#323030"/>
<path transform="translate(457,304)" d="m0 0 5 4-1 4-5 4-3 7-6-2 4-2h2l-1-4 3-2z" fill="#356B4A"/>
<path transform="translate(313,193)" d="m0 0h6l4 4v2l-6-2-2 1-1 2-8 1v-4z" fill="#039F9A"/>
<path transform="translate(866,607)" d="m0 0h1l-1 7-5 12h-2l-1 6-3 6-1-4 11-26z" fill="#322C2D"/>
<path transform="translate(597,476)" d="m0 0h2v3l6-2-1 4-5 4-1 2-5-1v-5h3z" fill="#0A8D51"/>
<path transform="translate(668,297)" d="m0 0 4 2 3 2 4-1 4 4v2l-5 3-3-1-3-5v-2h-2z" fill="#039C90"/>
<path transform="translate(830,217)" d="m0 0 3 3 3 1 7 12v4h-3l-10-18z" fill="#4C5555"/>
<path transform="translate(328,155)" d="m0 0 5 1 5 5v3l-6-1-5-1-3-1 4-1-3-4z" fill="#012717"/>
<path transform="translate(322,21)" d="m0 0h9v2l-17 5h-5l3-4z" fill="#282425"/>
<path transform="translate(189,592)" d="m0 0 5 1 1 5-6 2h-6l2-5z" fill="#017230"/>
<path transform="translate(533,312)" d="m0 0 2 4 1 4-1 6v9l1 7 4 1-5 3h-2z" fill="#007C2D"/>
<path transform="translate(740,226)" d="m0 0 5 5 7 9v2h-2l-1 1-4-4-6-8z" fill="#577D7F"/>
<path transform="translate(356,167)" d="m0 0 4 1 3 6 1 8h-4l-4-10z" fill="#011911"/>
<path transform="translate(262,45)" d="m0 0h3v2l-16 8-11 6-4-1 19-10z" fill="#201F1F"/>
<path transform="translate(812,389)" d="m0 0h2l1 6v9l-1 8-2-1-1-8v-11z" fill="#545353"/>
<path transform="translate(528,163)" d="m0 0h1v8l-2 7-5-1 1-8 2-3h2z" fill="#012217"/>
<path transform="translate(133,628)" d="m0 0 2 2 4-2 5 9v2l-7-1-4-7z" fill="#4C4B4B"/>
<path transform="translate(772,278)" d="m0 0 3 1 6 14v3h2v3h-3l-6-11z" fill="#222"/>
<path transform="translate(874,305)" d="m0 0 2 3 4 14-2 2h-2l-4-13v-3h2z" fill="#31302F"/>
<path transform="translate(301,179)" d="m0 0 4 2 6 4-1 5-5 2-4-11z" fill="#039F9A"/>
<path transform="translate(428,152)" d="m0 0h10l1 5-1 1h-9l-1-1z" fill="#02100E"/>
<path transform="translate(556,799)" d="m0 0 4 2-3 3-15 3h-5l4-1v-2l11-4v2l3-1z" fill="#3D3A3B"/>
<path transform="translate(103,553)" d="m0 0 1 3h2l2 3 1 8 4 10v2h-2l-3-10h-2l-3-9z" fill="#4E4B4B"/>
<path transform="translate(891,520)" d="m0 0h1v8l-3 14-3-2 1-10 2-7h2z" fill="#565252"/>
<path transform="translate(802,403)" d="m0 0 4 3 1 3v22l-2 2v-20l-3-5z" fill="#232223"/>
<path transform="translate(271,185)" d="m0 0 2 1-1 7 1 4 7 1v1h-8l-2-1v2h-2l-1-2v-8z" fill="#012218"/>
<path transform="translate(468,159)" d="m0 0 3 1 1 7 2 2h-14l-2-2 1-3 2 3 6 1-2-5 1-3z" fill="#04A1A0"/>
<path transform="translate(491,91)" d="m0 0h12l23 3v2h-9l-26-4z" fill="#4A7577"/>
<path transform="translate(310,775)" d="m0 0 9 1 7 3 1 5-9-3-10-4z" fill="#151A1B"/>
<path transform="translate(400,159)" d="m0 0 3 1 1 3 2-4 1 13h-5l-2-7z" fill="#011F15"/>
<path transform="translate(526,95)" d="m0 0 8 1 12 3 1 3-7-1-17-4z" fill="#60696A"/>
<path transform="translate(603,33)" d="m0 0 7 1 7 2 7 4 11 4v2l-5-1-27-11z" fill="#928E8F"/>
<path transform="translate(215,714)" d="m0 0 5 2 7 7 5 3 3 4-4-1-6-4-10-9z" fill="#202727"/>
<path transform="translate(198,376)" d="m0 0 3 2v10h-2l-1 5h-2l-1-5z" fill="#020F0C"/>
<path transform="translate(376,160)" d="m0 0 3 1 1 9-3 3h-2l-2-11h3z" fill="#012313"/>
<path transform="translate(689,73)" d="m0 0 5 2 10 5 2 5-5-1-10-7z" fill="#354243"/>
<path transform="translate(798,342)" d="m0 0 3 3 2-1 3 12-2 6-2-4-4-13z" fill="#6E6869"/>
<path transform="translate(134,276)" d="m0 0h1v6l-4 6-6 3 2-6 3-7z" fill="#4F4D4D"/>
<path transform="translate(405,156)" d="m0 0 7 1 4 5-1 2-6-1-2 5h-1z" fill="#04A1A0"/>
<path transform="translate(228,834)" d="m0 0 6 2 19 10v2l-9-3-14-8z" fill="#242525"/>
<path transform="translate(247,664)" d="m0 0 5 1-1 5-6 4h-3l2-6z" fill="#0A7A39"/>
<path transform="translate(271,335)" d="m0 0 7 2 8 5 1 4-6-2-10-6z" fill="#02100E"/>
<path transform="translate(86,193)" d="m0 0 3 1-10 14-3 1 1-5 7-10z" fill="#3D4747"/>
<path transform="translate(596,28)" d="m0 0h7l13 5-1 3-12-3-5-3z" fill="#3C4444"/>
<path transform="translate(823,206)" d="m0 0 5 2 7 11v2l-3-1-2-2-4-5-3-4z" fill="#616D6D"/>
<path transform="translate(580,176)" d="m0 0 4 1 6 3-1 4-7-1-5-2 3-3z" fill="#011F14"/>
<path transform="translate(751,119)" d="m0 0 4 2 6 6 2 5-1 3-10-10 1-3z" fill="#435759"/>
<path transform="translate(96,719)" d="m0 0h3l7 9 3 4-1 3-6-5-5-7z" fill="#403E3F"/>
<path transform="translate(525,361)" d="m0 0h2l1 7-4 4-4-2 1-4z" fill="#0D100F"/>
<path transform="translate(19,334)" d="m0 0h2l-2 16h-2l-1 5h-1v-8z" fill="#3C3939"/>
<path transform="translate(422,2)" d="m0 0h2l-1 3-14 1-22 1v-1l17-2z" fill="#C1A5A5"/>
<path transform="translate(644,849)" d="m0 0h5v2l-15 7-4-1 3-3z" fill="#1F1F20"/>
<path transform="translate(330,704)" d="m0 0h8l2 2h-3v3l-2-1v-3l-4 1-2 4 2 2-6 1-1-4z" fill="#020E0B"/>
<path transform="translate(253,692)" d="m0 0h7l2 2-2 5h-5l-3-3z" fill="#020404"/>
<path transform="translate(165,538)" d="m0 0 5 1 1 4-1 1h-12l5-5z" fill="#057437"/>
<path transform="translate(151,447)" d="m0 0 7 2 1 2-10 3h-4l-1-4 5-1 2 1z" fill="#037733"/>
<path transform="translate(564,305)" d="m0 0 5 1 18 10 2 3-5-1-8-5-12-6z" fill="#6A6465"/>
<path transform="translate(138,279)" d="m0 0 7 3 4 4h-10l-4 2z" fill="#169768"/>
<path transform="translate(254,848)" d="m0 0 5 1 9 4v3l2 2-5-1-11-6z" fill="#4D4B4B"/>
<path transform="translate(267,751)" d="m0 0 4 1 1 2 8 3 1 4-2 1-12-7z" fill="#12231F"/>
<path transform="translate(640,674)" d="m0 0 4 2 1 5h2l-1 4-9-6 2-4z" fill="#EDD8CF"/>
<path transform="translate(263,662)" d="m0 0h5v4l-8 5-2-1 2-2-3-4z" fill="#020B06"/>
<path transform="translate(161,571)" d="m0 0 5 4 1 3 2 2-2 1-1 3h-3l-3-6z" fill="#020304"/>
<path transform="translate(435,550)" d="m0 0h1l-1 8-9 10h-3l2-4 7-6 1-7z" fill="#0B0C0C"/>
<path transform="translate(227,331)" d="m0 0 6 1 6 4-1 2-12-1-2 1 2-6z" fill="#0C8B43"/>
<path transform="translate(799,520)" d="m0 0 2 3-1 11-5 1 1-10z" fill="#0A0A0B"/>
<path transform="translate(560,174)" d="m0 0h3l-1 9-2 5-2-4h-2l2-9z" fill="#012315"/>
<path transform="translate(365,885)" d="m0 0 8 1 6 1-3 1v2l3 1-10-1-10-2v-1l6-1z" fill="#747575"/>
<path transform="translate(311,872)" d="m0 0 10 1 13 4 3 3-11-2-13-4z" fill="#232C2C"/>
<path transform="translate(691,823)" d="m0 0 2 1zm-2 1 2 1-5 5-9 4-6 3 1-3z" fill="#464445"/>
<path transform="translate(590,789)" d="m0 0h3v2l-16 6h-3v-2l5-3 5-2z" fill="#313231"/>
<path transform="translate(342,722)" d="m0 0h2l-1 6-2 4-3 1-3-1 2-5 1-3z" fill="#020404"/>
<path transform="translate(271,675)" d="m0 0 3 2v3h-2l-2 4-6 5-2-1 3-5h2l2-5z" fill="#027130"/>
<path transform="translate(748,471)" d="m0 0 4 1 4 2-4 2h-5l-3 2-2-1-12-1v-1l18-2z" fill="#615F60"/>
<path transform="translate(108,332)" d="m0 0 1 4-2 10-2 7-3-1 2-10z" fill="#758887"/>
<path transform="translate(627,262)" d="m0 0 4 2 16 16 3 5-1 2-7-9-5-4-7-8z" fill="#024639"/>
<path transform="translate(677,489)" d="m0 0h3v2l-7 4-10 1-4-2 1-1 15-2z" fill="#2D2A2A"/>
<path transform="translate(469,345)" d="m0 0 2 4-4 6 1 5-5 1 1-7z" fill="#26302B"/>
<path transform="translate(705,82)" d="m0 0 5 2 7 6v2l-7-2-6-4z" fill="#4C4E4E"/>
<path transform="translate(275,38)" d="m0 0 4 2-4 3-10 4v-2l-3-1z" fill="#5A5A5A"/>
<path transform="translate(642,331)" d="m0 0h2l-1 6-4 6-3 3h-3l2-4 4-5 2-5z" fill="#0D0E0E"/>
<path transform="translate(259,227)" d="m0 0 2 2-1 6-5 4h-2l-6-7 1-2 5 5 4-2z" fill="#03A0A0"/>
<path transform="translate(567,154)" d="m0 0h4l-1 7-2 4-4-2 1-6z" fill="#011710"/>
<path transform="translate(375,144)" d="m0 0 3 1h-2l1 9 2 2h-4l-1 2h-3l-1-9 2-1 2 4z" fill="#012E1B"/>
<path transform="translate(125,145)" d="m0 0h2l-2 4-14 13v-3l8-10 5-3z" fill="#2D2A2B"/>
<path transform="translate(369,141)" d="m0 0 5 1 1 2v9l-6-5z" fill="#020C0A"/>
<path transform="translate(356,12)" d="m0 0h7l-3 1v3l-8 2h-5l2-2-2-2z" fill="#514D4C"/>
<path transform="translate(527,9)" d="m0 0 10 1 14 3v1l-11 1-6-1 1-2-8-2z" fill="#525A5A"/>
<path transform="translate(518,8)" d="m0 0h9v2l9 1-1 2-12-1-6-2z" fill="#222121"/>
<path transform="translate(564,795)" d="m0 0 3 1-3 3h-2l1 3-5 1v-3l-2-1-1 3h-3l-1-3z" fill="#5D5B5C"/>
<path transform="translate(86,705)" d="m0 0 4 2 8 11-2 4-7-9z" fill="#605C5C"/>
<path transform="translate(883,334)" d="m0 0 2 4 2 9v5l-3 3-2-9v-6l1-1z" fill="#4B4B4C"/>
<path transform="translate(804,175)" d="m0 0 5 5 9 13h-3l-4-4v-3l-3 1-1-4-3-5z" fill="#8F9392"/>
<path transform="translate(534,885)" d="m0 0 8 1-1 2-9 2h-4v-2h-7v-1z" fill="#86908E"/>
<path transform="translate(279,703)" d="m0 0 1 4 3 1-2 5h-2l-1 3-3-7v-3z" fill="#139150"/>
<path transform="translate(53,647)" d="m0 0 3 4 5 9-1 2-2-3-2 2-4-8v-5z" fill="#817B7C"/>
<path transform="translate(875,583)" d="m0 0 1 4-6 15-1 4h-2l2-9 5-13z" fill="#111112"/>
<path transform="translate(198,575)" d="m0 0h2v3l-8 7-4 4-2-1zm-13 14m-2 1 2 1-2 1zm-1 2m-1 1m-1 1m-1 1m-1 1m-1 1m-1 1v3z" fill="#020E0D"/>
<path transform="translate(447,556)" d="m0 0 4 1 7 4 3 5 1 2-4-1-8-7z" fill="#100F11"/>
<path transform="translate(443,347)" d="m0 0h2l2 9-1 3-5-2-1-3h2l-1-6z" fill="#2A7C5D"/>
<path transform="translate(825,689)" d="m0 0 2 1-8 12-2 5-3 1 2-7 8-11z" fill="#4E4C4D"/>
<path transform="translate(172,520)" d="m0 0 5 1 1 3-9 5-2-2h2l2-5h-5v-1z" fill="#028135"/>
<path transform="translate(810,374)" d="m0 0h1l2 10-1 8-1 5h-1l-1-12 1-4-1-5z" fill="#6A6566"/>
<path transform="translate(17,350)" d="m0 0 1 4-3 13-3-3 1-8 2-4z" fill="#615F60"/>
<path transform="translate(418,161)" d="m0 0 5 1 2 3v4l-5-1-4-4v-2z" fill="#012715"/>
<path transform="translate(203,77)" d="m0 0 2 1 1 2-12 8h-2l1-4z" fill="#4F5354"/>
<path transform="translate(514,888)" d="m0 0h14v2l-2 1h-18v-2z" fill="#363D3E"/>
<path transform="translate(603,866)" d="m0 0 2 1v3l-8 3h-6l3-4z" fill="#3F4646"/>
<path transform="translate(115,585)" d="m0 0 5 5 6 12-1 4-7-13-4-5z" fill="#4C4B4B"/>
<path transform="translate(648,502)" d="m0 0 1 2-8 15h-3l2-6 3-2 2-7z" fill="#464643"/>
<path transform="translate(91,416)" d="m0 0h1v15l-3 2-1-1v-9l2-5z" fill="#565455"/>
<path transform="translate(273,219)" d="m0 0h2l4 5v4l-5-1v-2l-3-1-1-4z" fill="#011B12"/>
<path transform="translate(296,176)" d="m0 0 1 3 6-1-2 1 2 5-1 3v-2h-2l-2 4-2-7z" fill="#013120"/>
<path transform="translate(340,715)" d="m0 0h5v8l-6 1z" fill="#020F0A"/>
<path transform="translate(135,479)" d="m0 0 5 1 1 4-2 2h-3v10h-1z" fill="#020E0B"/>
<path transform="translate(480,328)" d="m0 0h2l-2 6-4 5-4 8h-2l3-10 3-1 1-4 2-1z" fill="#171616"/>
<path transform="translate(843,235)" d="m0 0 4 5 2 4-1 4h-2l-5-9v-2h2z" fill="#657273"/>
<path transform="translate(543,157)" d="m0 0 1 4-4 11-2-1v-2h-3l1-5 4-1z" fill="#011E14"/>
<path transform="translate(205,820)" d="m0 0 4 1 6 4 1 3 3 2-2 1-12-8z" fill="#5C5A5A"/>
<path transform="translate(611,777)" d="m0 0 2 1-1 1 2 2-7 4h-2l-2-2-3-1z" fill="#515050"/>
<path transform="translate(254,743)" d="m0 0 5 2 8 6-1 3-11-7-2-3z" fill="#161A18"/>
<path transform="translate(637,519)" d="m0 0h2l-1 4-9 10-3-1 9-10z" fill="#232424"/>
<path transform="translate(734,504)" d="m0 0 12 1 4 2h-23l4-2z" fill="#EDD1CA"/>
<path transform="translate(625,366)" d="m0 0 5 2 9 9 4 8-3-1-9-12-6-5z" fill="#1B1C1C"/>
<path transform="translate(286,343)" d="m0 0 5 2 7 4 1 4-5-2-7-4z" fill="#011811"/>
<path transform="translate(179,281)" d="m0 0 5 2 10 6-4 2-9-5z" fill="#0C3830"/>
<path transform="translate(628,186)" d="m0 0 7 3-3 1-4-2v5l4 2-1 6-3-1-1-3v-10z" fill="#03A09E"/>
<path transform="translate(347,148)" d="m0 0 2 1 1 2 2 2-1 3v-2h-9l-2-3z" fill="#022D23"/>
<path transform="translate(179,800)" d="m0 0 9 6 2 4-6-1-5-5z" fill="#5A5758"/>
<path transform="translate(297,768)" d="m0 0 15 6-2 2-6-1-7-4z" fill="#0D0F0F"/>
<path transform="translate(127,617)" d="m0 0 3 1 4 7v2h2l1-2v4l-2 2-4-4-4-8z" fill="#6C6A6A"/>
<path transform="translate(20,558)" d="m0 0 2 3 2 8v6h-3l-2-10h2z" fill="#5E6565"/>
<path transform="translate(379,436)" d="m0 0h2v7l-2 5v2h-3l1-11z" fill="#6E6361"/>
<path transform="translate(655,425)" d="m0 0 2 4-3 4v4h-2l-1-4-2-1v-4z" fill="#555757"/>
<path transform="translate(142,419)" d="m0 0 5 1v7h-6v-7z" fill="#148F4E"/>
<path transform="translate(587,348)" d="m0 0 6 2v2l-20-1v-2z" fill="#040305"/>
<path transform="translate(197,191)" d="m0 0h2l-1 4-10 9-1-3z" fill="#2C2D2D"/>
<path transform="translate(449,132)" d="m0 0h11v5l-10-1z" fill="#020604"/>
<path transform="translate(666,57)" d="m0 0 5 3v2l5 2 3 3-6-2-10-4 1-3z" fill="#2A2B2A"/>
<path transform="translate(305,721)" d="m0 0 5 1-2 7-4 1-1-1 1-7z" fill="#020607"/>
<path transform="translate(297,683)" d="m0 0 5 2 4 4-2 1 2 6h-2l-3-3-1-3v-4l-3-1-1 2z" fill="#007632"/>
<path transform="translate(804,484)" d="m0 0h2l1 11-1 8-2-2z" fill="#A69594"/>
<path transform="translate(142,461)" d="m0 0h3l-2 4-3 2h-6v-3z" fill="#169554"/>
<path transform="translate(647,429)" d="m0 0h3l1 5-1 5-5-3-1-5z" fill="#1E2722"/>
<path transform="translate(427,330)" d="m0 0 3 1-9 10-2 3h-2v-4l5-5z" fill="#06332E"/>
<path transform="translate(778,150)" d="m0 0 4 1v2h2v2h2v2h2v2l4 2 1 4-4-2-9-10z" fill="#535353"/>
<path transform="translate(481,148)" d="m0 0h7l3 1v4l-10-1z" fill="#020103"/>
<path transform="translate(725,97)" d="m0 0 4 2 5 4v2l5 5 2 3-4-2-5-4-6-8z" fill="#1F1F1E"/>
<path transform="translate(108,559)" d="m0 0 2 3 4 11v4h-2l-5-13z" fill="#5F5D5E"/>
<path transform="translate(102,545)" d="m0 0h2l4 11-1 3-1-3h-4l-1-7z" fill="#7C7E7D"/>
<path transform="translate(657,398)" d="m0 0h2v8l-2 5h-3-1l1-10 2-1 1 4z" fill="#050707"/>
<path transform="translate(461,386)" d="m0 0h1l1 16-4-3-1-5z" fill="#7E665B"/>
<path transform="translate(246,320)" d="m0 0 5 2 9 5-1 3-5-2-6-4z" fill="#021D16"/>
<path transform="translate(205,194)" d="m0 0m-1 1m-1 1m-1 1m-2 1 2 1-14 14v-3l6-7z" fill="#7CCFD1"/>
<path transform="translate(628,856)" d="m0 0 3 1 1 2-9 4-3-1-1-2z" fill="#494B4C"/>
<path transform="translate(241,637)" d="m0 0 3 1v5l-6 2-2-3z" fill="#020F0D"/>
<path transform="translate(189,599)" d="m0 0 3 1v2h5l-4 2-9 2 1-5z" fill="#020F0B"/>
<path transform="translate(446,548)" d="m0 0h9l4 2-3 1h-13l-2-2z" fill="#595758"/>
<path transform="translate(10,371)" d="m0 0h1v10h1l-1 10-2 1-1-9z" fill="#3D3F40"/>
<path transform="translate(510,358)" d="m0 0 6 3 3 3 3 2-3 3-5-5-7-4z" fill="#29685F"/>
<path transform="translate(477,336)" d="m0 0h3v4l5 2-1 2h-9l-1-2zm0 4-1 3 5-1-1-2z" fill="#1A9D8C"/>
<path transform="translate(243,209)" d="m0 0 8 1-1 5-7-1-1-3z" fill="#01190C"/>
<path transform="translate(250,149)" d="m0 0 3 1-12 9h-3l1-3z" fill="#3B4848"/>
<path transform="translate(582,575)" d="m0 0 2 3v12l-2 4-2-1z" fill="#131314"/>
<path transform="translate(517,203)" d="m0 0 7 1 18 6-4 1-6-2-14-4z" fill="#04A1A0"/>
<path transform="translate(579,194)" d="m0 0 5 1v5l-7-1-2-1v-2h4z" fill="#011F15"/>
<path transform="translate(401,135)" d="m0 0 5 1v2l8 1v1l-10 1-2-2-3-1-2 2 1-4z" fill="#01301A"/>
<path transform="translate(335,878)" d="m0 0 7 1-1 2 10 3 1 2-16-4z" fill="#7F7A79"/>
<path transform="translate(567,877)" d="m0 0h8l-1 3-3 1h-8l1-3z" fill="#3F3B3B"/>
<path transform="translate(284,861)" d="m0 0 5 1 7 3-3 1h-2l2 2-5-1-5-2 2-1z" fill="#6C7777"/>
<path transform="translate(795,324)" d="m0 0 3 4 4 12-1 3-1-4h-2l-3-10z" fill="#7D7373"/>
<path transform="translate(240,231)" d="m0 0 6 5 5 5 5 6-4-1-5-5-7-8z" fill="#039D93"/>
<path transform="translate(62,228)" d="m0 0 1 3-6 12-4 4 1-5z" fill="#249EA3"/>
<path transform="translate(679,168)" d="m0 0 5 1 9 8-4 1-7-7z" fill="#15938C"/>
<path transform="translate(309,25)" d="m0 0 2 1v3l-9 3-4-1 3-1v-2z" fill="#323839"/>
<path transform="translate(70,681)" d="m0 0 4 2 4 7v2l-4-1-4-7z" fill="#575657"/>
<path transform="translate(237,676)" d="m0 0 4 2 1 3-2 2-5-1-1-4z" fill="#020305"/>
<path transform="translate(268,662)" d="m0 0 3 1v2l4 2-5 2-4 4-1-6 3-2z" fill="#09863F"/>
<path transform="translate(208,634)" d="m0 0 4 1-1 5-5 2-1-5h2z" fill="#118846"/>
<path transform="translate(651,488)" d="m0 0 4 1v2l-2 1-3 10h-1v-11z" fill="#363231"/>
<path transform="translate(601,444)" d="m0 0h1l1 7v14l-2-2-1-12z" fill="#068C45"/>
<path transform="translate(531,142)" d="m0 0 5 1-2 9h-2v-4l-2-1z" fill="#011B12"/>
<path transform="translate(169,466)" d="m0 0 2 1-1 4-4 1h-7l4-2-1-2z" fill="#041716"/>
<path transform="translate(319,411)" d="m0 0h1l1 5 1 3-1 7-3 2z" fill="#02191A"/>
<path transform="translate(118,305)" d="m0 0 3 1-1 5-3 7-2-1 1-7z" fill="#79716F"/>
<path transform="translate(870,298)" d="m0 0 3 1 1 9h-3l-2-5z" fill="#272526"/>
<path transform="translate(47,260)" d="m0 0h2l-3 9-2 2-3 1 1-5 3-5h2z" fill="#616767"/>
<path transform="translate(157,241)" d="m0 0h2l-2 5-5 7-3-2v-2l5-5z" fill="#181E1E"/>
<path transform="translate(748,240)" d="m0 0h2v2l4 1 4 5-1 2-6-3z" fill="#4C5354"/>
<path transform="translate(380,195)" d="m0 0 4 1-4 1 2 8-3-1-2-3v-2l-4-2z" fill="#012217"/>
<path transform="translate(607,187)" d="m0 0h1v7l-2 5-3 2 1-11h2z" fill="#020103"/>
<path transform="translate(594,26)" d="m0 0 6 1-2 2 5 3-3 1-11-4v-1l5-1z" fill="#949393"/>
<path transform="translate(689,725)" d="m0 0 2 1v3l-5 4-4-1 5-5z" fill="#585656"/>
<path transform="translate(64,671)" d="m0 0h3l5 10h-2l-1 2-4-7z" fill="#635D5E"/>
<path transform="translate(135,411)" d="m0 0h4v8l-5 2z" fill="#020B08"/>
<path transform="translate(794,330)" d="m0 0 3 3 1 6h2l2 4-1 4-2-5h-2l-3-9z" fill="#343233"/>
<path transform="translate(441,318)" d="m0 0h3l1 3-6 4-3-4z" fill="#14593A"/>
<path transform="translate(402,143)" d="m0 0h1v6l8 1v1h-8l-3-1v7h-1v-8z" fill="#012B1C"/>
<path transform="translate(154,663)" d="m0 0 5 4v2h3l1-3 3 3v2l-4 1h-3l-5-7z" fill="#636566"/>
<path transform="translate(595,552)" d="m0 0h4l-1 3-8 4h-2v-3z" fill="#323332"/>
<path transform="translate(13,530)" d="m0 0h2l2 10v5h-2l-2-7z" fill="#232929"/>
<path transform="translate(96,371)" d="m0 0h1l1 12-1 5-3-3 1-10z" fill="#837A7A"/>
<path transform="translate(43,268)" d="m0 0h1l-1 7-4 8-1-3 2-8 2-1z" fill="#2D3031"/>
<path transform="translate(241,216)" d="m0 0 3 1-1 7v3l-4-4v-5z" fill="#039C92"/>
<path transform="translate(602,205)" d="m0 0 5 4-2 5-4-2-1-3z" fill="#01190D"/>
<path transform="translate(105,166)" d="m0 0 2 1-5 6-2-1zm-6 7 2 1-1 5-5 1 2-4z" fill="#828B8E"/>
<path transform="translate(614,126)" d="m0 0 6 1 6 4-1 3-11-6z" fill="#258171"/>
<path transform="translate(578,22)" d="m0 0 13 2 3 1 1 3-6-1-11-3z" fill="#182122"/>
<path transform="translate(281,766)" d="m0 0 6 2 4 2-1 3-6-2-5-4z" fill="#F1DCD4"/>
<path transform="translate(144,519)" d="m0 0 4 2-1 4-5 1-1-5z" fill="#020406"/>
<path transform="translate(451,464)" d="m0 0 5 1 1 4-2 1h-7l3-1z" fill="#16858A"/>
<path transform="translate(545,338)" d="m0 0 2 1-4 5h-2l-1 3-5 2 1-4z" fill="#646364"/>
<path transform="translate(435,320)" d="m0 0 2 1v2h-2v2l-5 2-2 3h-2l2-4 5-5z" fill="#069EA0"/>
<path transform="translate(136,268)" d="m0 0v3l-1 2 4 1-3 6-2-3-3 1 2-6z" fill="#AFB0AF"/>
<path transform="translate(312,223)" d="m0 0 3 1-13 9-2-1 4-2 2-4z" fill="#04A1A0"/>
<path transform="translate(276,212)" d="m0 0 9 2 1 2-5 2-5-4z" fill="#01140F"/>
<path transform="translate(595,188)" d="m0 0 3 3v3l-3 4-3-3 2-5z" fill="#012B1B"/>
<path transform="translate(324,183)" d="m0 0 6 1 2 2-4 4-4-4z" fill="#011F16"/>
<path transform="translate(799,169)" d="m0 0 5 5 3 8 2 3-4-2-4-5-1-5z" fill="#4E4C4C"/>
<path transform="translate(539,155)" d="m0 0h3v6l-4 4-1-4z" fill="#01180E"/>
<path transform="translate(616,34)" d="m0 0 5 1 12 5-3 1-7-2-6-2z" fill="#59615F"/>
<path transform="translate(519,806)" d="m0 0 2 1-1 2-5 1h-8l-1-2z" fill="#6F696A"/>
<path transform="translate(577,791)" d="m0 0 3 1-3 3h-3l1 3h-3l-1-2-3-2z" fill="#5D5C5D"/>
<path transform="translate(279,673)" d="m0 0 5 1 1 4-3 3-3-5z" fill="#020507"/>
<path transform="translate(275,671)" d="m0 0h4l-1 4-2 3-3-1v-4z" fill="#13924F"/>
<path transform="translate(770,628)" d="m0 0v3l-4 8-5 3 2-5 5-8z" fill="#575555"/>
<path transform="translate(860,622)" d="m0 0 2 1-1 3h-2l-1 6-3 6-1-4z" fill="#212222"/>
<path transform="translate(867,611)" d="m0 0 1 3-6 14h-1l1-7z" fill="#7D7273"/>
<path transform="translate(13,538)" d="m0 0 2 4v3h3l-1 11-2-4-2-9z" fill="#667171"/>
<path transform="translate(133,457)" d="m0 0h7l1 4-8 1z" fill="#020504"/>
<path transform="translate(192,290)" d="m0 0 6 1 5 4-6 1-5-4z" fill="#092019"/>
<path transform="translate(496,160)" d="m0 0 6 1v5h-5l-1-1z" fill="#012519"/>
<path transform="translate(626,131)" d="m0 0 5 2 5 3-1 3-9-5z" fill="#206F54"/>
<path transform="translate(697,819)" d="m0 0 4 1-11 8v-3l5-5z" fill="#585657"/>
<path transform="translate(422,565)" d="m0 0 2 1v3l-9 2-5-1v-2h12z" fill="#585757"/>
<path transform="translate(614,543)" d="m0 0h2l-1 3-9 5h-3v-2l6-3z" fill="#161817"/>
<path transform="translate(94,385)" d="m0 0 2 1v9l-2 4-1-5v-8z" fill="#585657"/>
<path transform="translate(493,279)" d="m0 0h3l2 11 2-4v7l-4-1z" fill="#636263"/>
<path transform="translate(263,224)" d="m0 0h2v11l-1-3h-2l-2-7z" fill="#02110C"/>
<path transform="translate(75,207)" d="m0 0 4 2-4 6-6 3 2-5z" fill="#7C7E7D"/>
<path transform="translate(418,139)" d="m0 0 3 2v8l-3-4-2 1-1-6z" fill="#021F1C"/>
<path transform="translate(734,103)" d="m0 0 8 6 2 4-4-1-4-5-3-2z" fill="#909D9B"/>
<path transform="translate(477,2)" d="m0 0 13 1 1 2h-13z" fill="#EDD1CA"/>
<path transform="translate(200,700)" d="m0 0 4 2 7 8-1 2-10-10z" fill="#1A8B63"/>
<path transform="translate(37,618)" d="m0 0 2 1 5 11v5l-2-3-5-11z" fill="#989897"/>
<path transform="translate(888,536)" d="m0 0m-1 1h1v10l-3 3v-10h2z" fill="#1B1A1B"/>
<path transform="translate(509,510)" d="m0 0 3 1-2 5-3 5h-2l1-5z" fill="#0D0D0E"/>
<path transform="translate(88,468)" d="m0 0h1v12l4 2-1 4h-3l-1-5z" fill="#686566"/>
<path transform="translate(165,413)" d="m0 0 1 2-1 10-2 3h-7l4-2 3-3 1-9z" fill="#097E3B"/>
<path transform="translate(809,372)" d="m0 0 1 4 1 7-1 2h-2l-1-5v-7z" fill="#565454"/>
<path transform="translate(792,353)" d="m0 0h2l3 9-1 4-1-2h-2v-7z" fill="#656061"/>
<path transform="translate(788,309)" d="m0 0 1 2h2l3 7v3h-2l-1-5h-2l-2-6z" fill="#232121"/>
<path transform="translate(124,297)" d="m0 0 1 3-3 6h-3l1-5 1-3z" fill="#312C2D"/>
<path transform="translate(190,201)" d="m0 0v3l-6 5-4 1 6-8h3z" fill="#4D4B4A"/>
<path transform="translate(566,184)" d="m0 0h4l2 6-4 1-3-3z" fill="#02130E"/>
<path transform="translate(621,181)" d="m0 0 3 1-1 4-3 2-3-1 2-5z" fill="#012213"/>
<path transform="translate(558,173)" d="m0 0 1 2-3 9h-4l1-4 3-3z" fill="#04A1A0"/>
<path transform="translate(339,150)" d="m0 0 2 1 1 2 9 1 1 4-5-1-7-3z" fill="#04A1A0"/>
<path transform="translate(769,141)" d="m0 0 7 1 2 3v2l-1 3-8-8z" fill="#3C787C"/>
<path transform="translate(593,785)" d="m0 0m-3 1 3 1-5 4h-8l2-2z" fill="#626161"/>
<path transform="translate(194,631)" d="m0 0 4 1 4 5-5-1-4-1z" fill="#020D0C"/>
<path transform="translate(185,585)" d="m0 0 2 1-2 4h-2l-2 4-4 3 1-4z" fill="#0F8D47"/>
<path transform="translate(490,532)" d="m0 0h3l-1 3-7 5-3-1 4-4z" fill="#0E0D0F"/>
<path transform="translate(568,497)" d="m0 0 2 1 1 2-7 3h-6l3-3 6-2z" fill="#164F47"/>
<path transform="translate(89,468)" d="m0 0 3 3v12l-3-3z" fill="#565555"/>
<path transform="translate(656,419)" d="m0 0 3 2v7h-3l-2-1v-3h2z" fill="#050406"/>
<path transform="translate(559,388)" d="m0 0 2 1v7l-1 4h-2v-10z" fill="#028236"/>
<path transform="translate(529,373)" d="m0 0h12v2l-11 1-2-2z" fill="#14996B"/>
<path transform="translate(474,133)" d="m0 0 1 4h2v3h2l-1 6h-2l-2-7z" fill="#012A1B"/>
<path transform="translate(547,100)" d="m0 0 11 2 1 2h-8l-4-1z" fill="#4C5553"/>
<path transform="translate(298,29)" d="m0 0 3 1-2 1 1 2-5 2-3-1-2-2z" fill="#5C5252"/>
<path transform="translate(376,888)" d="m0 0h9l5 1v1h-7l-1 2-6-2z" fill="#202221"/>
<path transform="translate(171,795)" d="m0 0 5 2 4 5v2l-5-2-3-5z" fill="#1C1E1E"/>
<path transform="translate(138,432)" d="m0 0h2v4h-2l1 3h-5l2-6z" fill="#13924F"/>
<path transform="translate(802,403)" d="m0 0 4 3 1 9-2-2-3-5z" fill="#5F5E5F"/>
<path transform="translate(461,364)" d="m0 0h2v11l-2 2-1-7z" fill="#4C4C4C"/>
<path transform="translate(778,288)" d="m0 0 2 2 1 6h2v3h-3l-3-6z" fill="#312F2F"/>
<path transform="translate(279,212)" d="m0 0 8 1 2 6h-6l2-4-6-2z" fill="#022824"/>
<path transform="translate(628,188)" d="m0 0 4 1 3 2-4 4-3-2z" fill="#021D1B"/>
<path transform="translate(344,179)" d="m0 0 2 1-1 5h-2l-1 3h-2l1-4z" fill="#020504"/>
<path transform="translate(472,153)" d="m0 0 4 1 1 11h-2v-7l-3 1z" fill="#020203"/>
<path transform="translate(657,150)" d="m0 0 5 2 4 3-1 3-9-6z" fill="#2A5350"/>
<path transform="translate(473,139)" d="m0 0h2l1 5-3 9h-1z" fill="#01241B"/>
<path transform="translate(623,38)" d="m0 0 10 3 4 4-9-3-5-2z" fill="#0B0C0C"/>
<path transform="translate(316,23)" d="m0 0h2v4l-9 1 3-4z" fill="#232222"/>
<path transform="translate(234,732)" d="m0 0 4 2 8 6 1 3-4-2-8-7z" fill="#F2EAE9"/>
<path transform="translate(333,705)" d="m0 0h2l1 5-9 1 4-5z" fill="#020103"/>
<path transform="translate(835,673)" d="m0 0h2l-1 5-3 4-2-4z" fill="#586A6C"/>
<path transform="translate(212,646)" d="m0 0 1 3v2l2 1-6 2-1-5z" fill="#11934F"/>
<path transform="translate(28,590)" d="m0 0 3 1 2 12-2-1-2-4z" fill="#3E3A3A"/>
<path transform="translate(102,540)" d="m0 0 2 3-1 8-1-2h-2v-7z" fill="#4D4C4C"/>
<path transform="translate(693,532)" d="m0 0 1 4-3 7-4 2 2-6z" fill="#F2E0DF"/>
<path transform="translate(813,497)" d="m0 0 1 3-3 11h-1v-8l2-5z" fill="#585757"/>
<path transform="translate(658,433)" d="m0 0 1 4-4 6-3-1 1-2z" fill="#0B0D0D"/>
<path transform="translate(894,393)" d="m0 0 2 3v8l-3 2z" fill="#494948"/>
<path transform="translate(241,307)" d="m0 0 1 4v6l-5-2v-3h2z" fill="#039F9B"/>
<path transform="translate(536,264)" d="m0 0 8 1-1 2-4 2h-3z" fill="#117535"/>
<path transform="translate(142,259)" d="m0 0 2 2h3l-4 4h-4v3h-2l2-5z" fill="#969191"/>
<path transform="translate(562,168)" d="m0 0 2 1v8l-5-2 2-6z" fill="#011B11"/>
<path transform="translate(322,157)" d="m0 0 2 1-3 4v4l-2 3-1-1 1-8z" fill="#012C16"/>
<path transform="translate(484,134)" d="m0 0 10 1v3l-9-1z" fill="#020103"/>
<path transform="translate(635,45)" d="m0 0h6l4 2v2h-6l-4-2z" fill="#3D4343"/>
<path transform="translate(644,849)" d="m0 0h5v2l-8 3-3-2z" fill="#2F3130"/>
<path transform="translate(652,845)" d="m0 0h4l-1 3-6 2-3-2z" fill="#544C4C"/>
<path transform="translate(763,640)" d="m0 0 1 2-4 6-4 2 2-5z" fill="#555353"/>
<path transform="translate(205,595)" d="m0 0h6v4l-4 1z" fill="#020F0C"/>
<path transform="translate(555,523)" d="m0 0h1l1 17-3 1z" fill="#33825C"/>
<path transform="translate(384,471)" d="m0 0 3 3 3 8h-2v-2l-4-2-1-6z" fill="#676160"/>
<path transform="translate(382,458)" d="m0 0h1v9h-3l-1-2h2l-2-5z" fill="#5B5A5A"/>
<path transform="translate(756,440)" d="m0 0 5 1 1 5h-5z" fill="#F9F4F4"/>
<path transform="translate(192,410)" d="m0 0h3l-1 7-3 1v-7z" fill="#020404"/>
<path transform="translate(608,356)" d="m0 0 5 1 7 5-2 1-10-5z" fill="#1A191A"/>
<path transform="translate(501,312)" d="m0 0h3v2l-8 5-2-3z" fill="#312D2B"/>
<path transform="translate(28,307)" d="m0 0h1l-1 9-2 3-1-3 1-7z" fill="#201F20"/>
<path transform="translate(250,294)" d="m0 0 1 2-3 6h-2l-2 4-2 1 2-5z" fill="#04A1A0"/>
<path transform="translate(650,274)" d="m0 0h2v2l4 2 5 7-1 2-6-8-4-4z" fill="#028E79"/>
<path transform="translate(165,227)" d="m0 0h5l-3 3-6 5-2-1z" fill="#686363"/>
<path transform="translate(94,180)" d="m0 0v3l-2 4h-2l-1 4-4 3 2-5z" fill="#768385"/>
<path transform="translate(405,159)" d="m0 0h1l1 13h-5l2-4z" fill="#014521"/>
<path transform="translate(134,135)" d="m0 0 1 3-7 7h-2l2-4z" fill="#504F50"/>
<path transform="translate(642,48)" d="m0 0 7 1v3l4 2-6-1-6-3z" fill="#608080"/>
<path transform="translate(287,128)" d="m0 0 2 1z" fill="#F2DFD5"/>
<path transform="translate(289,127)" d="m0 0 2 1z" fill="#F2DFD5"/>
<path transform="translate(342,105)" d="m0 0 2 1z" fill="#05ADB4"/>
<path transform="translate(346,104)" d="m0 0 2 1z" fill="#05ADB4"/>
<path transform="translate(292,126)" d="m0 0" fill="#05ADB4"/>
<path transform="translate(308,118)" d="m0 0" fill="#05ADB4"/>
<path transform="translate(318,114)" d="m0 0" fill="#05ADB4"/>
<path transform="translate(339,106)" d="m0 0" fill="#05ADB4"/>
</svg>
