<?xml version="1.0" encoding="UTF-8"?>
<svg version="1.1" viewBox="0 0 1792 1800" width="1280" height="1280" xmlns="http://www.w3.org/2000/svg">
<path transform="translate(561,222)" d="m0 0h379l1 1v167l-1 106-1 1h-215l-60 1v284l1 13 3 1 91 1h182v298h247l34-1 2-1 1-294 1-1 22-1h249v447l-188 1-24 1-1 5-1 58-1 95-5 2-77 1h-871l-6-1-2-9-1-72v-941l1-1 15-1 201-2 1-94 1-63z" fill="#1D7A45"/>
<path transform="translate(537,380)" d="m0 0h1l1 42v252l1 569 13 1h724l8 1-1 6-1 58-1 95-5 2-77 1h-871l-6-1-2-9-1-72v-941l1-1 15-1z" fill="#FCE92B"/>
<path transform="translate(118,25)" d="m0 0h1518l10 2 12 7 6 5 8 10 7 14 1 5 1 17 1 127v1456l-1 50-2 13-6 15-4 6-8 7-21 10-4 1-176 1-1085 1h-244l-13-1-17-7-10-6-9-9-7-14-3-11-1-71v-1443l1-137 2-10 8-15 7-9 7-7 9-5zm8 13-15 1-9 3-5 4-4 8-1 6-1 407v896l1 377 4 7 6 3 7 1 631 1h900l10-2 6-5 2-7 1-14v-306l1-1093v-265l-2-9-6-9-8-3-12-1z" fill="#1F1921"/>
<path transform="translate(1372,222)" d="m0 0h125l1 29-1 162v83l-1 1h-269l-1-1-1-59v-214z" fill="#1D7A45"/>
<path transform="translate(118,25)" d="m0 0h1518l10 2 12 7 6 5 8 10 7 14 1 5 1 17 1 127v1456h-1l-1-317-1 29-1 58-1 63v36l-1 108-1 54-1 3-5 1-3-3-1-12v-13l-1-12v-52l-1-29-3-7-1 58h-1v-215l1-1093v-268l2 2v11h2l1 72 1 232 1 3 1-64v-245l-2-16-1-3 1-2-7-10-12-6-12-3-1512-1z" fill="#232C29"/>
<path transform="translate(1680,1332)" d="m0 0h1v386l-2 13-6 15-4 6-8 7-21 10-4 1-176 1-1085 1h-244l-13-1-17-7-10-6-9-9-7-14-2-6v-23l8-3 3-9 1-7 1-26 1-17 2-6 2-1 1 98 3 9 4 4 10 2 631 1h900l10-2 5-4 2-7 1-14 1-155 2 3 1 7 2 3 1 39v43l1 18v9l1 9v2h7l1-70 1-97v-42l1-62 1-59 1-27z" fill="#151A1B"/>
<path transform="translate(109,26)" d="m0 0 1525 1 15 4 10 6 7 10-1 3 2 10 1 8v255l-1 54-2 1-1-4-1-237v-67h-2l-1-11-5-12-5-5-6-2-12-1-1517-1-3-6-3-4z" fill="#040807"/>
<path transform="translate(545,1754)" d="m0 0h1052l29 1 3 2v3l-8 1 2 2 7 2v3l-6 1h-729l-3-1-5 1-2-1h-113l-9 1h-61l-4-1-10 1-11-1-7 1-1-1-10 1v-2l-8 2-2-1h-13l-5 1-5-1h-22l-6-1h-16l-4-2-1 1-10-1-4 1-8-1h-11l-5-1-15-2-7-3v-3-1h5 2z" fill="#020203"/>
<path transform="translate(118,25)" d="m0 0h1518l10 2 12 7 6 5 8 10 7 14 1 5v30l-1 41v47l1 24v164l-1 103-1 14-2-1-1-133-1-35-1-48-1 11-1 5 1 2-1 10v16l-1 21v41l-1 87v58l-1 6 1 2 1 81 1 3-1 6v21l1 8v10l-1 3 1 4 1 8-1 9v42l-1 35v19l-1 10-4-2v-8l-1-9v-15l-1-42v-19l-1-5v-36l1-5-2-1 1-4v-202l1-5v-38l-1-38-1-10v-183l1-27v-73h1l1 72 1 232 1 3 1-64v-245l-2-16-1-3 1-2-7-10-12-6-12-3-1512-1z" fill="#173125"/>
<path transform="translate(1659,57)" d="m0 0 2 2 1 11 1 75-1 25v188l1 5 1 44v33l-1 5v204 2 44l1 2v30l1 35v14l1 10 1 5 2 1v-36l1-40v-36l1-4-1-10-1-2 1-7v-8l-1-7v-22l1-4-1-6-1-77-1-6 1-2v-58l1-107v-21l1-31v-12l1-5v-4-8l1-10 1-3h1l1 56 1 377v194l-1 23v104l-1 5h-2l-1-7-1-2v-4l1-7-1-17v-15l1-3-1-6v-27l-1-17v-15l-2-4-1 1v17l-1 44-1 14v43l-1 7v20 3l-1 4v16l-1 7-1 71h-1z" fill="#292833"/>
<path transform="translate(1667,900)" d="m0 0 2 1 1 10v17l1 14v26l1 4-1 1v23l1 11-1 4 1 2-1 4 1 1 1 8-1 6v9l-1 5 1 14-1 17v10l1 5h-2l1 7-1 22 1 5-1 3 1 6v36l1 2-1 10v232l-1 22v47l1 28 1 4-2 6v54l1 17 2 4 2-6h1v54l-1 54-1 3-5 1-3-3-1-12v-13l-1-12v-52l-1-29-3-7-1 58h-1v-215l1-270 1-76 1-5v-14l1-3v-3-23l1-9v-43l1-15 1-47v-8z" fill="#252125"/>
<path transform="translate(542,1107)" d="m0 0h1l1 38-1 45v28h2v10l2 7 2 1 18 1h413l4 1 24-1 5 1h9l3 1 6-1 7 2h13l15 1 3 1h62l1-1 13-1 23 1h33l5-1h14v-2h16 2l12-1h55l4 1 2-1h31l4-1 2 1 3-1h131l10 1 2-27 2 3 1 31-188 1h-761l-8-1-1-1v-107h1l1-23z" fill="#146138"/>
<path transform="translate(1680,1332)" d="m0 0h1v386l-2 13-6 15-4 6-8 7-21 10-4 1h-27v-1l21-1v-3l-9-2v-3l8-1-3-3-40-1-426-1 1-2 479-1 10-2 5-4 2-7 1-14 1-155 2 3 1 7 2 3 1 39v43l1 18v9l1 9v2h7l1-70 1-97v-42l1-62 1-59 1-27z" fill="#131418"/>
<path transform="translate(1151,1508)" d="m0 0h15l10 2 10 5 8 8 5 11 2 9 1 21-2 16-4 9-6 8-8 6-8 3-6 1h-20l-8-2-6-4-5-5-7-11-5-13-2-16 3-16 5-11 4-6 11-11 7-3zm8 16-10 4-6 8-5 11-1 5v11l4 13 6 12 3 3 3 1h9l10-5 6-7 3-9 1-8v-13l-3-12-5-8-7-5z" fill="#101787"/>
<path transform="translate(359,1509)" d="m0 0h15l21 2 2 3v17l-2 1-12-3-15-1-9 2-9 6-4 6-2 7v15l4 13 6 9 7 4 4 1h10l5-5v-8l-3-7-8-10-1-3v-10l5-1 10 3h15l1 2 1 20v20l-2 9-3 3-5 1-14 1h-14l-17-2-9-4-6-7-7-14-1-3-1-19 1-17 5-10 14-15 6-4z" fill="#101887"/>
<path transform="translate(71,210)" d="m0 0h1l1 358 1 4 1 8-1 1 1 8h-2l2 3v8l-1 4 1 4-1 3v7l1 1v9l-1 4 1 4-1 3 1 5-1 3 1 7-1 6 1 5h-2l2 5-1 5 1 5v3 10h-2l1 4h2v74l1 14-1 9 1 49v309l-1 59v86l1 12v28l-1 6 1 6v24l1 5-1 7-3-3-1-6 1-6h-2v104h-1z" fill="#262227"/>
<path transform="translate(1662,70)" d="m0 0h1l1 72 1 232 1 3 1-58h2v-205h3l2 8 1 22 1 23-1 155h-1l-1-48-1 11-1 5 1 2-1 10v16l-1 21v41l-1 87v58l-1 6 1 2 1 81 1 3-1 6v21l1 8v10l-1 3 1 4 1 8-1 9v42l-1 35v19l-1 10-4-2v-8l-1-9v-15l-1-42v-19l-1-5v-36l1-5-2-1 1-4v-202l1-5v-38l-1-38-1-10v-183l1-27z" fill="#252125"/>
<path transform="translate(1094,1510)" d="m0 0 7 1 1 1-1 13-1 35v16l1 27-8 1h-10l-1-38-20 1-9 1-2 6-1 23-1 7h-19l-1-1-1-90 2-2h20l1 5v22l1 7 1 1 11 1 14-2 3-1 1-2v-27l1-4z" fill="#101688"/>
<path transform="translate(441,1510)" d="m0 0h19l5 2 5 20 8 21 10 40 2 4v6l-1 1h-16l-4-6-6-18h-27l-2 16-1 7-2 1h-12l-5-2v-12l7-24 7-28 8-25zm8 21-4 15-4 16v4l6 1h11l3-2-1-9-4-14-3-10z" fill="#101786"/>
<path transform="translate(507,1511)" d="m0 0h58l7 2-1 5-8 16-10 18-13 20-12 17-1 2 25-3h14l4 3 3 11-1 1-18 1h-48l-4-4v-8l4-9 13-21 10-15 10-13 2-6h-34l-2-2v-12z" fill="#101887"/>
<path transform="translate(1491,1511)" d="m0 0h28l2 3 4 20 8 29 5 22 5 14-1 5-3 1h-10l-3-3-5-15-3-5-25-4h-4l-2 23-3 3-3 1h-8l-5-2-2-3 1-9 8-22 9-35 6-22zm14 20-4 8-4 18-1 8 5 2 6 1h8l-1-10-5-22-3-5z" fill="#0D1171"/>
<path transform="translate(253,1511)" d="m0 0h52l2 1 1 8v10l-13-2h-19l-1 4v14l23 2 7 2 1 4v11l-1 1-24 2-6 1-1 5v10l1 5 5 1h17l10-1 2 2v9l-3 3-13 1h-34l-5-1-1-2-1-89z" fill="#101787"/>
<path transform="translate(605,1509)" d="m0 0h15l13 2 7 8 5 12 1 5v10l-3 12-5 7-7 3-10 2-17 1 2 22v8l-2 2-14 1-5-1-1-17v-70l3-6zm1 17-3 3v15l2 11 1 1h8l8-3 5-3 2-5-1-9-4-6-5-4z" fill="#101887"/>
<path transform="translate(1240,1509)" d="m0 0h21l6 3 5 6 1 3v8l-7 1-10-3h-13l-5 2-4 5v6l2 2 9 2 14 8 10 8 4 10v13l-4 12-4 6-6 3-11 2h-20l-9-3-5-5-1-4v-8l4-1 9 4 4 1h14l6-4 2-4v-7l-5-5-16-8-10-6-5-8-1-4v-13l3-8 7-8 6-4z" fill="#101787"/>
<path transform="translate(762,1509)" d="m0 0h22l4 2 3 9v9l-3 2-13-3h-9l-10 5-6 7-3 7-1 6v16l4 11 3 4v2l14 3h23l1 3v9l-2 4-5 2h-24l-13-3-8-4-8-9-7-14-2-9v-18l4-13 9-14 9-9 5-3z" fill="#101887"/>
<path transform="translate(1302,1509)" d="m0 0h28l9 3 7 7 4 8 2 10v11l-2 9-4 6-5 4-16 4h-18l-1 33-6 1-7-2-1-1-1-8v-73l2-7 6-4zm10 15-5 2-1 2v14l2 11 4 4 10-1 6-3 4-4v-10l-3-8-5-5-6-2z" fill="#101788"/>
<path transform="translate(841,1510)" d="m0 0h57l5 1 1 2v12l-6 3-14 2-2 74-7 1h-15l-1-16v-48l-1-9-6-2-13-3-1-7 2-9z" fill="#101886"/>
<path transform="translate(916,1510)" d="m0 0h17l4 2 5 15 6 12 3 4 4-2 4-5 6-19 2-5 10-2 9 1 1 5-8 16-15 31-2 14-1 12v14l-2 2h-17l-1-2-1-35-4-9-8-15-9-19-4-6v-8z" fill="#101787"/>
<path transform="translate(1402,1511)" d="m0 0h63l2 1-1 9-2 5-2 1-19 1v72l-1 3h-20l-1-1-1-70-2-5h-7l-9 2h-5l1-10 3-7z" fill="#101787"/>
<path transform="translate(1672,1026)" d="m0 0h2l1 7 1 55v133l-1 146v227l-1 5-3-4-1-6-1-13v-54l2-6-1-2 1-1h-1l-1-31v-54l1-18v-233l1-5-1-5v-35l-1-4 1-5-1-3 1-21v-7l1-1-1-9v-11l1-15-1-11 1-9v-7z" fill="#2A2934"/>
<path transform="translate(184,1511)" d="m0 0h22l2 78h10l7-1h12l3 6 1 8-2 1-11 1h-43l-1-1-1-91z" fill="#101787"/>
<path transform="translate(1558,1511)" d="m0 0h21l1 74 1 3 10 1 20-2 2 1v14l-2 2h-27l-25-1-2-3v-88z" fill="#101787"/>
<path transform="translate(1494,1210)" d="m0 0 2 3 1 31-188 1h-32l-147-1 2-3 13-1 23 1h33l5-1h14v-2h16 2l12-1h55l4 1 2-1h31l4-1 2 1 3-1h131l10 1z" fill="#12693A"/>
<path transform="translate(105,27)" d="m0 0 5 1 5 7v3h11v1l-15 1-9 3-5 5-3 6-1 6-2 84-2-3-4-13-2-4-5-1-5-4-1-3v-43l2-10 8-15 7-9 7-7z" fill="#131417"/>
<path transform="translate(1030,1511)" d="m0 0h20l1 5v22l1 7 4 3v3l2 11-6 1-1 4-4 1-1 22-2 5-1 1-8 1-5-1-1-11-1-72z" fill="#101688"/>
<path transform="translate(666,1511)" d="m0 0h16l-1 11v25l1 35v20l-2 1-17 1-1-1v-48l-1-21v-17l3-5z" fill="#101887"/>
<path transform="translate(806,1511)" d="m0 0h14l2 3 2 19v47l-1 24-15 1-2-1-1-12-1-46v-19l1-15z" fill="#101886"/>
<path transform="translate(1369,1511)" d="m0 0h12l3 3 2 50v38l-3 2-7 1h-8l-1-1v-91z" fill="#0D1270"/>
<path transform="translate(1667,532)" d="m0 0 2 1 1 81 1 3-1 6v21l1 8v10l-1 3 1 4 1 8-1 9v42l-1 35v19l-1 10-4-2v-8l-1-9v-15l-1-42v-19l-1-5v-36l1-5-2-1 1-4v-51l1-62h1l1 49 1-1z" fill="#262226"/>
<path transform="translate(71,210)" d="m0 0h1l1 358 1 4 1 8-1 1 1 8h-2l2 3v8l-1 4 1 4-1 3v7l1 1v9l-1 4 1 4-1 3 1 5-1 3 1 7-1 6 1 5h-2l2 5-1 5 1 5v3 10h-2l2 4v24h-2l2 7-1 3-1 9v4l-1 546h-1z" fill="#204336"/>
<path transform="translate(1659,1359)" d="m0 0 2 4v6h2l2 27v57l1 20-1 8 1 22v80l-3-1-3-7-1 58h-1v-215z" fill="#1D2525"/>
<path transform="translate(1240,1509)" d="m0 0h21l6 3 5 6 1 3v8l-7 1-10-3h-13l-5 2-4 5-1 6-7 3 1 13-4 1-5-5-3-8v-13l3-8 7-8 6-4z" fill="#0D1071"/>
<path transform="translate(1662,70)" d="m0 0h1l1 72 1 232 1 3 1-54h1v135l-1 67-2 4-1-11v-35l-1-44v-38l-1-38-1-10v-183l1-27z" fill="#161419"/>
<path transform="translate(902,223)" d="m0 0h38v18l-3-1v2h-2l-1 4-9 6-4-4-7-2-1-2-3-2-5-2v-2l-4-2-2-2-1-3 4-2z" fill="#12683A"/>
<path transform="translate(1078,1545)" d="m0 0 3 2v16l-1 2-27 3-2 6-1 23-1 7h-19l-1-1v-18h1v11l3-1 3 1 7-1 2-5 1-19 1-3 4-2 1-4h6l-2-5-2-9 6-1z" fill="#0D146E"/>
<path transform="translate(184,1511)" d="m0 0h22v9l-5 2-5-4h-6l1 3-1 4-1 34v36l2 2 18 3h10l9 3v1h-43l-1-1-1-91z" fill="#0E166E"/>
<path transform="translate(1345,1532)" d="m0 0h5l2 5v11l-2 9-4 6-5 4-16 4-14-1-2-9 2-2 1-2 13-3 6-4v2l7 1 3-5 2-7 1-8z" fill="#0D1170"/>
<path transform="translate(1659,57)" d="m0 0 2 2 1 11 1 75-1 25v188l1 6-1 3v13h-2v94h-1z" fill="#233C36"/>
<path transform="translate(1604,25)" d="m0 0h32l10 2 2 2-14-1-662-1v-1z" fill="#161419"/>
<path transform="translate(1680,85)" d="m0 0h1l1 127v185l-1 6h-1l-1-199-1-26v-49l1-31z" fill="#243D37"/>
<path transform="translate(72,439)" d="m0 0 2 1 1 4-1 4 1 7-1 4 1 5-1 4 1 15 1 8v30l1 50-1 6 1 30v35l-1 26-3-1v-2h2l-2-5 1-9-1-5 1-5-1-4 1-4-1-4 1-4 1-6-2-1v-9l1-4-1-4 1-4v-5-4l-1-8v-4-6l-1-2z" fill="#262226"/>
<path transform="translate(1398,35)" d="m0 0h241l7 2h5v2l4 1 4 6 3 6 1 16-2 2-1-11-5-12-5-5-6-2-12-1-62-1-190-1v-1z" fill="#141619"/>
<path transform="translate(1680,1332)" d="m0 0h1v161l-3 11-1 30h-1v-41l1-62 1-59 1-27z" fill="#1F1821"/>
<path transform="translate(552,1588)" d="m0 0h14l4 3 3 11-1 1-18 1h-37v-1l29-1-3-1-1-2-12-2-3-1 2-5z" fill="#0E186C"/>
<path transform="translate(903,798)" d="m0 0h36l1 2v12l-4 2-12 1-4-1-8-4-7-2-4-4 1-5z" fill="#12683A"/>
<path transform="translate(1491,1531)" d="m0 0 2 2 1 5-2 8v12l1 3 3 1 1 3 3 2 2 5 4 7-17-1-1 5-2-4h-2l-3-4 1-11 2-10 3-12 3-9z" fill="#101788"/>
<path transform="translate(153,1768)" d="m0 0h70l23 1 5 1 124 1v1h-244v-1l17-1z" fill="#1B412F"/>
<path transform="translate(977,1510)" d="m0 0 9 1 1 5-8 16-4 2-3-1v-5l-5 2-2 5-3 5h-2l-1 4h-2v2h-2v-5l4-5 6-19 2-5z" fill="#0D1070"/>
<path transform="translate(419,1576)" d="m0 0 1 2h3v2h7l4 1 1 3-2 19-2 1h-12l-5-2v-12l4-13z" fill="#0D1270"/>
<path transform="translate(1664,1583)" d="m0 0 2 1 1 27v20l1 17 1 26 2 9h2l2-4v20l-1 3-5 1-3-3-1-12v-13l-1-12v-52l-1-25z" fill="#1F1821"/>
<path transform="translate(476,1552)" d="m0 0 2 1 10 40 2 4v6l-1 1h-16l-4-6 4-3 4 1 2-1-1-11 1-3-3-4-4-15 1-5z" fill="#0D1171"/>
<path transform="translate(1243,1513)" d="m0 0h7l7 3 3 5 4 3v2l4 2v1l-8-1-4-1h-13l-5 2-4 4-7-2-1-6h2v-4l5-4z" fill="#101787"/>
<path transform="translate(305,1589)" d="m0 0 4 2v9l-3 3-13 1h-34v-1h14v-2h2l1-5 4-4 3-1z" fill="#0E1A6C"/>
<path transform="translate(1663,440)" d="m0 0h1l1 44v40l1 1 1-67h1l1 53v14l-1 7-1 50-2 2-1-2-1-49-1-50v-39z" fill="#1F1821"/>
<path transform="translate(1097,1571)" d="m0 0h2l1 5 1 27-8 1h-10v-17l5 2 4-1 3-15h2z" fill="#0D1370"/>
<path transform="translate(542,1107)" d="m0 0h1l1 38-1 45v21l-2 13-2 2v-90h1l1-23z" fill="#136A3B"/>
<path transform="translate(335,1521)" d="m0 0 2 1-1 2 2 1-6 14-2 7-2 10-1 9-3 12-2-1-1-19 1-17 5-10z" fill="#0D1170"/>
<path transform="translate(666,1511)" d="m0 0h14l-4 4-1-1h-6l-1 40-2 4-4-3-1-21v-17l3-5z" fill="#0D146F"/>
<path transform="translate(1200,1543)" d="m0 0h1l1 21-2 16-4 9-2 3h-2l-1-9 2-4v-12l1-11 2-11z" fill="#0D1370"/>
<path transform="translate(772,1767)" d="m0 0h114l2 3h-119z" fill="#111115"/>
<path transform="translate(1669,114)" d="m0 0h3l2 8 1 22 1 23v16l-2 4-1-16-2-4v-2h2v-2l-4 1z" fill="#1F1821"/>
<path transform="translate(1680,85)" d="m0 0h1v157h-1l-1-38-1-26v-49l1-31z" fill="#241F24"/>
<path transform="translate(1214,1585)" d="m0 0 5 1 11 4h17l-2 5-8 4-6 1-6-1h-8l-2 1-2-6v-8z" fill="#0D1270"/>
<path transform="translate(881,1573)" d="m0 0h1v31l-7 1h-9l-4-2v-5l4-1v-2l6-1h2l1-5 2-7z" fill="#0D1171"/>
<path transform="translate(1379,1542)" d="m0 0h1v37l-1 18-2 3h-2l-2-3v-14l2-20 1-14z" fill="#101689"/>
<path transform="translate(1675,357)" d="m0 0h1l1 131 1-11h1v36l-1 10-3 1z" fill="#231E24"/>
<path transform="translate(1680,1332)" d="m0 0h1v140h-1l-1-15v-30l-1-1v-54l1-27z" fill="#1B161D"/>
<path transform="translate(640,1525)" d="m0 0 3 1 3 10v10l-3 12-5 7-4 2-4-1 2-6 2-1 2-4h2l1-27h2z" fill="#0D146F"/>
<path transform="translate(1141,1510)" d="m0 0 2 2-3 6-1 3h-3l-1 4-5 5-4 8-4 14-6-2 2-10 5-11 4-6 11-11z" fill="#0D1170"/>
<path transform="translate(1604,25)" d="m0 0h32l10 2 2 2-14-1-206-1v-1z" fill="#1C181E"/>
<path transform="translate(447,1510)" d="m0 0h13l5 2 6 24-4-2v-4l-4-2-1-3h-3l-2-4h-2l-1-2h-2l-3-3-4-1v-2h-2v-2z" fill="#0D1270"/>
<path transform="translate(1030,1511)" d="m0 0h20l1 5v26l-1-2h-2v-11l-3-6v-4h-12l-3 3-1 5h-1v-14z" fill="#0E186E"/>
<path transform="translate(1094,1510)" d="m0 0 7 1 1 1-1 13-2 6-4-1-2-6-2-5-4-1v3l-4-1v9h-1v-14l1-4z" fill="#0E166D"/>
<path transform="translate(749,1511)" d="m0 0 3 1-3 5-6 5-8 10-5 11-2 1 1 3-1 4-1 14-2 1-1-6 1-3-1-5 2-3-1-2 1-2h-2l3-9 5-9 9-10z" fill="#0D1370"/>
<path transform="translate(460,1565)" d="m0 0 2 1-1 12-1 1h-13l-4-3-1-10h16z" fill="#0D1070"/>
<path transform="translate(841,1510)" d="m0 0h9l7 1-2 7-5 1-2-1v11l-9-2-1-7 2-9z" fill="#0D126F"/>
<path transform="translate(1441,1569)" d="m0 0h1l1 29-1 5h-8l1-21 2-10z" fill="#0D136F"/>
<path transform="translate(1261,1554)" d="m0 0 8 6 4 10v13l-4 12-4 6-3 1-1-5 3-6 2-5 3-12-1-5-7-13z" fill="#0E1570"/>
<path transform="translate(1402,1511)" d="m0 0h30v1l-20 3-3 9-10 3-2-1 2-10z" fill="#0D1070"/>
<path transform="translate(1292,1575)" d="m0 0 3 4 1 12 4 2 4-1 2-1v13l-6 1-7-2-1-1-1-13z" fill="#0D126F"/>
<path transform="translate(294,1548)" d="m0 0 10 1 2 5v11l-1 1h-9l-1-5-3-2 1-10z" fill="#0D1271"/>
<path transform="translate(1525,1576)" d="m0 0h2l3 5 2 9h2l-1 5-1 3h-3l-2 4-2-2-4-13-2-5 4-5z" fill="#101787"/>
<path transform="translate(1659,57)" d="m0 0 2 2 1 11 1 75-1 24h-1l-1-21z" fill="#19422F"/>
<path transform="translate(1259,1242)" d="m0 0h28l5 1 17 1v1h-32l-104-1v-1z" fill="#1E7B46"/>
<path transform="translate(806,1511)" d="m0 0h14l2 3 1 9-3 2-6-2-4-2-1-6-4 2v-5z" fill="#0D0F71"/>
<path transform="translate(1558,1511)" d="m0 0h6v13l-2 24-2-3-1-11-1-1-1-21z" fill="#0D126F"/>
<path transform="translate(589,1585)" d="m0 0 2 4 3 8 2 1v2l4-1 2 4-12 1-5-1v-16h3z" fill="#0D126F"/>
<path transform="translate(1680,85)" d="m0 0h1v63l-1 3h-2v-22l1-31z" fill="#202E2C"/>
<path transform="translate(1604,25)" d="m0 0h32l10 2 2 2-14-1-71-1v-1z" fill="#25292E"/>
<path transform="translate(665,1590)" d="m0 0 2 1 2 6h7l3 1 1 5-17 1-1-1v-12l2 3z" fill="#0F1F6D"/>
<path transform="translate(1663,440)" d="m0 0h1l1 44v36l-1 12h-1l-1-49v-39z" fill="#252025"/>
<path transform="translate(585,1522)" d="m0 0 5 3v10l-1 2h-4v49h-1v-52z" fill="#143D5D"/>
<path transform="translate(1124,1585)" d="m0 0 8 4 4 6 3 3v2h2v4l-5-1-5-4-8-12z" fill="#0D1171"/>
<path transform="translate(303,1511)" d="m0 0 4 1 1 8v10l-5-2-2-8v-5h-2l-1-3z" fill="#0E186C"/>
<path transform="translate(1669,288)" d="m0 0 3 4-1 10v16l-2 39h-1l-1-38h2z" fill="#221D23"/>
<path transform="translate(1297,1511)" d="m0 0 5 1-5 9-4 12h-2v-12l2-7z" fill="#0D1272"/>
<path transform="translate(1678,477)" d="m0 0h1v36l-1 10-2 1v-34l1-2z" fill="#1F1821"/>
<path transform="translate(941,1574)" d="m0 0h1v17h2v-2h2l1 3v11l-1 2h-4l-1-2z" fill="#112A65"/>
<path transform="translate(777,1589)" d="m0 0h13l1 3v9h-1v-6l-8 1-4-1v-2h-6v-2z" fill="#0F1D6D"/>
<path transform="translate(1481,799)" d="m0 0 6 2-1 9-7-2-1-3-1 2h-5v-2l-2-1 8-4z" fill="#12683A"/>
<path transform="translate(809,1589)" d="m0 0 2 1 4 10-2 2v2l2 1h-7l-2-1v-11z" fill="#0E166F"/>
<path transform="translate(1650,37)" d="m0 0 1 2 4 1 4 6 3 6 1 16-2 2-1-11-5-12-5-5-3-2v-2z" fill="#131819"/>
<path transform="translate(390,1550)" d="m0 0h8l1 2v7l-1 5-6-5v-3l-2-1-1-3z" fill="#0E186E"/>
<path transform="translate(1453,1511)" d="m0 0h12l2 1v6l-2 2-6-1-3-5v-2z" fill="#0D1171"/>
<path transform="translate(959,1583)" d="m0 0 2 2v18l-2 2h-5l2-2v-9l2-10z" fill="#0F1C6B"/>
<path transform="translate(932,486)" d="m0 0h3 1 3v9l-1 1h-6l-2-7z" fill="#12683A"/>
<path transform="translate(517,1565)" d="m0 0 2 1-1 8h-2l-2 5-3 4h-4l2-5z" fill="#0E1570"/>
<path transform="translate(1661,124)" d="m0 0h1l1 21-1 24h-1l-1-25z" fill="#262226"/>
<path transform="translate(1175,1583)" d="m0 0 1 4-2 4-6 3v-2h-3v-2l8-5z" fill="#0E196C"/>
<path transform="translate(724,1545)" d="m0 0h2l1 4-2 4 1 5-3 5h-1v-13z" fill="#101B84"/>
<path transform="translate(75,669)" d="m0 0h1v27l-2 1-1-4h2l-1-10v-3l-1-8z" fill="#262226"/>
<path transform="translate(360,1590)" d="m0 0 10 6-1 3h-5l-5-6z" fill="#0D0F70"/>
<path transform="translate(1636,28)" d="m0 0h8l8 2 8 6-2 1-12-6-10-2z" fill="#131C1B"/>
<path transform="translate(961,1567)" d="m0 0 2 1-2 12-2 1-2-1 2-10h2z" fill="#0E186E"/>
<path transform="translate(72,760)" d="m0 0 4 1v7l-4 4z" fill="#27242A"/>
<path transform="translate(387,1510)" d="m0 0 8 1 2 3-1 4-6-3z" fill="#0E1F67"/>
<path transform="translate(80,1477)" d="m0 0h2l1 7-1 9-2-1z" fill="#262226"/>
<path transform="translate(727,1549)" d="m0 0 1 2-1 14-2 1-1-6 1-3-1-5z" fill="#0D0D72"/>
<path transform="translate(1425,1588)" d="m0 0 2 1v13h-2l-2-8z" fill="#0D0D72"/>
<path transform="translate(1680,166)" d="m0 0h1v8l-1 5-2-1v-10z" fill="#221D23"/>
<path transform="translate(906,1512)" d="m0 0 4 1 4 6-4 1z" fill="#143871"/>
<path transform="translate(84,17)" d="m0 0 8 1v1h-8z" fill="#FEFEFE"/>
</svg>
