<?xml version="1.0" encoding="UTF-8"?>
<svg version="1.1" viewBox="0 0 1180 1208" width="1280" height="1280" xmlns="http://www.w3.org/2000/svg">
<path transform="translate(345,506)" d="m0 0 4 1 18 8 9 6 1 5-14-8-15-8 1 8 16 8 12 5 1 43 7 8 8 11 5 4 6 11 2 3 1 101-1 1h-16l3 6 1 7 8-6 1-3 4-4h5l7 8 13 13 3 2 1-15h-6l1-4 4-3 1-31 1-3 5-3 2-2 6 4 2 4v10l8-7 7-7 4-5 5 1 4 6 8 8 11 14 2-4 5 1 5 6v3l6-4 5-5 5-1 3 1 1 4 5 5 14 18 3 3v2h-7l-1 25 11-4 15-6 16-1 10 2 4 2v-12h1l1 8-1 4 9-2h7v-2l-7-2-3-3 1-5h3v-3l-4-1-1-6-3 2-9 2-1-3 1-4-2-5 5-1 11-13 4-3 2-8-2 1-2 4-4-1-3-2 3-1 2 1-3-3-4-1-1-2-5-2 1-2 20-3v-2l-5-5 1-3 8 1 15 9h3l3-6 2-1v6l8-3 9-1-1 4-3 3v2l7 1 9 4 5 1 1-4h5l1 2 1-1-2-4-1-8h2l3 7v3l2-1 3-10 6-7 4-1 2 3-2 4v4l16-7h6v4l-6 4h4l-1 4-3 1 1 2h2v4l-6 2v3l11 3 5 2 6 1-3 2-9 3v2l5-2 1-1h7l3 1-4-6-2-1 2-2 8 1 5 4 2-5h2l1 5 5-1 8-6 2-2-1-9 2-3-4 1v2h-5l5 4 2 2h-6l-7-7 1-4-5-3-5 1 2-4 7-3 3-1h11v-2l-4 1-2-4h3l2 1-2-5-5-2v-2h10l9 4 6 5-3-11h3l4 5 1 6 2 1 1-7 4 1 4 2 2-4 6-5 9-2 4 1v2l-4 2 1 3v3l-4 1-2 3h8l15 4 4 4-1 1-7 1-6 3 1 6-4 1-5-6h-3l4 4-1 3-4 1 9 11 5 8v3l-5-1-3-3-2 3-5-1-1-8h-2v7l-4-2-4-6-4-1-3-12v-5h-2v23l-2 23-4 15-2 7 6 2 1 4-3 9 6 5 10 5 2 2 15 4 24 8 6 5-1 7-4 2-10 1 3 2-1 5-3 1-3 3-2-1-1 2-6-1v-2h-3v3l-12 1-3-1-1 4-3-3v2l-6-1-19-4-1-1-16-3-27-3-1 4h-2v-5l-4-2v-2l10 1 14 1 6 1v2h13l1-3 5-1h-27l-33-3v-5l-9-1h-11l-7 1-1 3-3-1 4 4 2 1v2h-2l-2 4-6 1v2l8-2 1-1h6l2 2 11 4 2 1v7l-4-1v2h-2v2l5-1v4l2 1-11 1-3 1h-5l-5-1v-2h-2l-1 3-2-2h-12l-3-3 3-7h2v-2h-3v-2l-4-2-2-8 5 1 3-3-63-1-1 2-11-6h-6l2 2 5 1 2 1-1 2-6-1-1 4v16l4 1v-7l-3-1v-11h2l3 8v2h3v-12l2-1 3 2 2 12h2l-1 7 4-1v2l8-1 14 1-2-5-8-6v-2l16-1 9 7 3 1 1-3 1 4-1 2h-2v2l-2 1v5h-53l-100-2-51-2h-13l-9 1-3 2-11 1-6-2-5 2h-5l1 2 11-1 2 1-1 5-3 1-4-1 1 6 1 1v11l-2 2-4 1v2l8 1v-11l1-10 4-2 1-7 3 1v6l-1 2v20l4 1h8l2-6v-6l4-6 3-1 1 5-2 6-4 9h4l4-21-6-1-1-5 6-2h9l6-1v3l-4 3-6 24-1 2 5-1 1-15 2-6 3-6 5-4 11-1 3 5 5-1 1-3h3l1 7 4 2 2 5v3l2-3 2 1v6l-3 4 2 6-4 2-2-2-3 1 9 4 4-1-1-11-1-4h2v-12l4-4h4v14l5-1v2h5l-1-2-5-2-1-6 2-1v4l5 1-1-5h-3l1-3 6 1 1 3 3 1 3 5 3 3v14l-3 4v2l4 1v-7l3-16-4-1-10-11v-3h17l3 5 3-2-1 8 7-2 6 2 2 1v3h8l3-3 2 1-2 4h-2l-3 9-2 3 6 2-2-2 1-7 4-6 7 6 1 6-3 3h-2l5 6-1 2-2-1-1 4 28 2 7 2-1-2v-9l12 1h2l-1-6 8 1-5-4-1-4h-4l-1 2-1 10-8-2-1-9 1-7h2l2-5 10-4 2-1h9l8 6 1 9-4 1-15-4v-4l5-1h6l-1-1h-8l-5 2-8 3-1 2 11 1 13 3 4 1 1 2 6-1v-2h-2v-2l2-1-3-6v-2l6 2 2 4-3 5-2 7-5 2-7 6 4 1 5-2v-3h2l-1 6-2 2-13-1v-2l-2-1h2l-1-2h-5l-1 4-6-2-1 8h20l12 3 9 2-1-11-7-2-1-6 4-5 4-1 1-2-4 1v-5l3-3 1-4 4 2 6 6 9 2 4 1-1-3-2 2-8-4-2-4-4-1-3-2v-3l5-2 2 1-1-6h2v3h3v2h2l5 5 8 5 1 7 5 2h10l1-6 8 1-2-1 1-5 3-3h6v-6h5l1 5-6 4-4 6-1 33-1 2 15 1 3 1 12 1h10l1-7h-10l-2-2 1-4h8l1 2-1 2h2v-6l-3-8 3-1h2l2-3-9-2-9-1v-2h14l5 1 3-7v-2l-1-4-4-1v8l-2 1-4-4-5-10v-3l-2-1 6 1 1 4 4 1v-2l9 2 3 5-1 7 7-1-4-5-1-5-3-3v-3l6 1 4 4h3l2 3 5-3 4 2 3 1 8-1v5h2l-1 2-2-1 1 4h-4l2 3-1 4-2-3-10 1 1 3-1 1v13l-3 2-6-1 2-4h5v-3l-5 1-3-1-2 5-5 1-2-1v-3l-4 1v2l4 1 1 5-5 5 1 2 3 1v4h-11l-32-2-33-4-27-1-31-4-22-3-41-4-24-4-44-3-32-3-15-2-14-1-6-1h-13l-18-2-15-1-8-3 1-5 2-1 1 5 4-1v-6l-1-2-3 2-1-5 6-5h2l2-4 6-2 1-5-14-1-4-1 1-4 13-6 4 1v5h33l4-1h23l28 2h11v-2h2v2l8 2v-6l-7 2 2-4 7-9-3 1h-30l-16-1 1-3 10 1 6-1h27l8 1 1-2 5 1 1-1h-89l-38 1-49-1-30-1v-2h16v-278l4-5zm3 18-1 5 2 7 20 9 5 1 1-2v-7l-7-4-18-9zm-1 16v9l1 2 17 7 9 4v-10l-5-3-16-8zm0 14v7l1 4 22 9h1v-7l2-1-24-12zm0 16 1 9 14 7 5 2h3l1-7-19-10zm1 15v10l19 9h3v-9l-21-10zm0 15-1 4 1 7 16 7 6 2v-10l-16-8zm0 16-1 5 1 6 19 9h3v-10l-16-8zm42 0m-1 1m-1 1m-5 5-2 3v5l2-3 1-5zm-36 9 1 10 10 5 9 4h3v-9l-4-3-16-7zm0 15 1 11 11 5 9 4h2v-10l-15-8-5-2zm47 0m0 3-2 6 3-3zm-3 6m-1 1m-1 1v3zm-42 5 1 10 5 3 15 6h2v-9l-5-3-14-7zm37 2m-1 1 1 2zm423 1m-424 1-1 2v9l2 2v-13zm-34 9-1 3 1 9 5 3 15 6h2v-10l-5-3-16-8zm123 2 1 2 2-1zm-25 1m-63 1m61 0m315 0m-314 1 1 4zm314 1m-283 1m-87 4m1 1 3 7 1-4-2-3zm228 0m96-1-4 1v2h5l1-3zm3 1m75 2-5 9-1 3-3 1 1 4 2 1v2l-6 3-2 3-3 1 1-4-4 1 4 9 3 8-6-2-3-3v2l-6-2-2-4-3 1-6 31-1 4 2 4 10 1 5 6 4-1 7-4-1-5-1-1v-7l6-4 2-2 6-21 1-8v-26zm-444 3-1 3 1 9 13 6 9 3v-10l-4-3zm287 2-1 24 1 13 3 6 4 1 1-1v-6l-2-6h12v-3l-4-1v-4h3l-2-9-2 2 1 3-8-6-3-6-1-6zm-4 3-5 8-6 3-8 1-7 1-2 3 2 3 12 2-1 3h3v4l-6 2v2l9 3 1-4h5l1 3 4-2v-32zm25 0-3 2 2 5 3 3 5-2 3-3 2-1v-2l-6 1h-5l1-3zm17 0v2h2v-2zm-280 1v5h1v-5zm298 2 1 5 2 3 1 7-1 10v2h-2l-1-5-2 1v7l-4 2v1h5l1-3 6 4 8 1 3-1 1-5-5-3 1-3 3-1-2-5-10-10-3-7zm4 0 4 5 2 5 9 8 6 3 4-1 6-2 2 4 3 1v3l-6 2 3 6 22 22h2l4-21 2-20-3 2-3 7-5 4-8 2h-5l2-1 2-5 4-4v-3l-9-4-1-3h-5l-3-3h-3l-1 2-16-2-6-7zm-303 3 1 2zm325 0 1 2 4-1zm-100 2 1 2zm-235 1-5 5-5 4v2l-10-3-10-5-4-1-1 7 2 7 16 7h1v-8l6 1 2 4 3 4h3l1-15 2-6 2 3 1 6 2-1 1-8h-2v-2zm291 2-2 4v2l-4 4h-2l-2-2h-3l-1 2-2 1 9 9h5v-3l1 3 6-2 2-6-5-6-1-6zm55 1m-345 2 1 2zm298 1 1 2zm59 0m2 1m0 3m-90 1m-207 1v19l1 1h14l-4-3-1-15 10 2v-3l-9-1zm246 3m-343 5v11l6 4 8 2-1-11-9-5zm116-1-7 1v2l3 2 5-1zm63 3-3 2v15h5v-17zm3 0v1h5v-1zm8 1-7 1v8l4 2 1 2-5 1 1 3h6l1-3v-14zm179 1-1 3-8 1v3h2l-5 5-2 6-4-4-1-2-9 2 1-6-5 1-1 5-3-1-4-4-1 5 1 8 3 2 34-1 2-7v7l12 5 17 6 3-1 1-4-8-10-8-7-9-8zm-353 3 2 4v8l5 1-1-9 1-2zm101 1-5 2v1h5zm197 3-3 7-5 3 3 3h3l3 3 9 1v-3l-7-6-1-7zm-314 5v11l12 6 1 2h2l-1-12-8-5zm165 2m-122 1-2 1v11l1 3 3 1h16l-2 13 1 4 2 5h24v-9l1 5v4h13l1-8 1-4-10-9-8-8-3-2-4 1-4 5-3 1-3-7-3 2-1 4-3 1-1-13-5-1 1 2v12h-3l1-13-3-1h-3v13h-2v-13zm124 2 1 3v-3zm-1 2 1 3zm3 1m-104 1m105 0 1 3 2-1zm-3 2m1 1m5 0v3h-8l-3-2-1 3 1 2 5-1v2h-8l-9 3-2 1v10l-8 1-11 2-18 1v1h24l12-3 16-6 17-8v-4l-4-3h-2zm-173 4v12l8 4 7 3v-14l-13-5zm183 2m-39 6m-5 3-1 2h3v-2zm-139 6v10l9 4h7l1-8-7-3zm0 15v7l2 1 4-2-1-5zm236 5 1 3 2-3zm-36 4-2 4 4-1v2l8 1 1-3-7-3zm36 0 2 2v-2zm13 0m85 0 1 2 2-2zm114 1 1 2h3v-2zm5 0v1l9 1 2-2zm13 0m-291 1 2 4 11 8 3 3 4-1 9 1-1-3 6 3 2-3-6-4h-2l-1-3-9-1-1-4-1 5-6-3-4-1v-1zm7 0v1l7 1 2-2zm30 0v2l8 1v-2zm258 0-2 5h-7l1 3h-3l1 5 2-1v-2l4 1h7l4-4h2l-1-4-4 1-3-1v-2h9l1 2v-3zm13 0 2 2 3-2zm-289 1m256 3v2l2 1v2l-3 3h3l3-1 1-3-1-3zm-214 1 2 4v-4zm221 0m31-1-4 1 1 2 4-1zm-156 2m99 0m3 0 1 2 2-1zm55 0 1 2zm-50 1 4 2 2-2zm-89 1m134 1m-315 1m68 3v5h1v-5zm19 0m99 0m-98 1 1 4zm85 0m14 0m-5 1 1 2 1-2zm6 0m-166 2-1 1v5l1-2 3-1-1-3zm158 1m-306 1m194 0 1 2zm-18 1m139 2-1 3h2zm-15 1 3 2v-2zm6 2m-296 4m57 1-3 5-5 4-2 5v6h2l3-9 7-6v-5zm64 1 5 6 2 6 2-2v-7l-2-2zm-128 1-4 7-1 14 4 1v-10l2-10 4-1zm47 0-1 4h3v-4zm23 3-4 6-6 8v2l3-1 3-5 6-5 2-1v-4zm14 1-6 3-1 1-1 13h2l1-9 2 5v4l-5 3 1 4h8v-13l-1-4 1-7zm186 5-1 4 2-1zm-151 1m24 1-1 1v6h3l1-6zm-139 1v3h2l-1-3zm146 0-4 6v10l4 1 6-1 3-8v-4h-2l-4 7-4 2 1-7 5-5zm-79 1-6 10-4 3-1-7h-3v6l4 3h7l4-11 1-3zm52 0 2 11 2-1-1-7-1-3zm-14 2-2 3v9l-1 4 1 1 19 1-1-8-4 3h-7l-4-2v-11zm150 1-1 6 2-2zm137 0m-8 0-8 2v2l5 1h11v-4zm-219 3v6l5 2-2-6-1-2zm-28 1-1 3 1 12 6 1 15 1 4 1v-6l-21-1v-5-3zm-26 1v3h3v-3zm190 0 2 3 1-3zm74 0 1 2zm-112 1 1 2zm38 2-9 6 1 5 2 3v5l6-1 1-4-7-5 1-1h5l1-1v-7zm-69 2-3 2v2l5-2 2-2zm17 0-1 5 2 4h3l1-6-3-3zm22-1-8 1v24l6 1 23 1 10 1v-7l-11-2-17-1 5-1 6 1 1-5-7-2 1-2 5-1v-5l-9-1 1 7-6-1-1-3 2-5zm3 1m90 0 1 3 6-1-2-2zm14 0m-7 2v4h6v-2h3v-2zm-9 1-5 2v2h7zm16 2m-14 2-1 7 7-2 1-5z" fill="#0509F1"/>
<path transform="translate(621,305)" d="m0 0 4 1 3 5 5 2 5-1 5-2 2 8 9 2 7 7 7 11 7 8 9 5 9 2 4 5 4 8 1 6 9-2 2-10 4-6 1-14 5-4 11-7 6 1 16 4 11 2 2 2 2 13v5h-2v3h2l1 7-6 5-10 4-3 3-2-3-1-2-5 8-4 7v3l4 2-2 16-4 7-7 2 1 9-6 3 1 5 4 3 5-1 3-2h3l1 4-4 8 2 6 6 5 1 4-5 3 1 4 3 5v13l-2 7-1 6v10l-7 2 1 3v8l-3 7v7l3 9v9l-5 4 1 6 1 2v6l-4 5-11 7-7 5-1 2v6l6 8 2 7v4l-11 3h-2l2 4 5 4-1 10-5 5-3-1-2 7-4 1-13-1h-2l-2 4-13-2-3-2-9-1-9-5-9-8-7-8-8-14-4-10-2-6-2 1-3 5-4-1-2-4-1-8-7-2-10-5-5-5-3-10-4-6-5-13-4-10-1-19v-22l-2-11-4-8 1-4 3-5 3-3h2l-2-7 3-1 5 1-1-11 7 1 13 5 4 4-1-5h-5l-5-7 1-6 5 1 2 2v3l5-1 1 4-2 2 7 6v2l5 3v2l4 1 1-5 7 1-1-2v-9l5-3 7-2h9l5-1 3 8 4-2 3-3 7-1 5-10v-6l4-5 3-7v-9l-5-13v-2l-8-1-6 3-3 1-6 1-11 4h-14l-8-6-5-7h-8l-4 2-5-1-3-2-1 11-1 7h-2v5l2 2-6 2-3 5-4 4v6l-3 5h-9l-3 8-4 1 3 3v2l-5 1-2-1v-3h-2l-1 4-9 6-10-2-7-6-1-2h-2v7l-9 11-3 3h-6l-4-4-4-5 1-4 1-3-5-1-1-3-9-6-4-4 2 8 6 1 1 4-6 4-6-1-1-2-1-9-3-6-2-8 5-1 3-3-7-2-8 5-2 3 1 8 1 5h-2l-1 10h-2l-4-5v-2l-4-2-5-4-21-7-4-4-7-10-11-11-7-3h-2l-2 6h-4l-10-11-9-11-9-9 2-4 8-5 16-8 8-3 15-2 3-2 5 1 1 2 7 2h17l3 5 5-1 1-1h10l4-5 17-1h11l13 2 3 5 3 8v2h9l5 6 4-2 11-12 30-15 9-3h7l13 2 4-2 4-7 2-8 1-9 4-10 6-9z" fill="#01720C"/>
<path transform="translate(791,128)" d="m0 0 6 2 23 13 11 6 14 9 15 10 17 12 16 12 16 13 3 2v2l4 2 10 9 8 7 28 28 9 11 9 10 10 13 13 18 12 19 16 28 12 25 6 15 10 27 5 17 7 32 4 23 4 28 1 17v68l-4 33-5 30-6 26-8 28-12 31-12 26-12 23-12 20-9 14-14 19-11 14-9 11-11 13-8 8-7 8-19 19-8 7-12 11-13 10-15 11-27 18-21 12-23 12-23 11-19 7-12 5-10 4-7 2-7 3-25 7-21 6-35 9-28 5-6 1h-8l5 5 17 10 14 10 11 9 4 3v2l4 2 7 8 9 11 9 14 9 19 6 19 5 23v3h-11l-4-8-7-25-7-24-7-14-11-14-13-13-17-13-21-12-17-8-7-1-19 9-15 10-14 12-11 13-10 15-8 14-10 21-14 32-2 6h-8l2-16 4-19 8-18 8-15 10-14 9-10 7-8 14-13 17-13 18-12v-1l-37-6-23-5-19-5-30-8-33-11-13-5-11-4-24-10-23-11-18-10-13-8-16-10-17-12-12-9-13-11-20-18-8-7-7-8-10-10-7-8-12-14-8-10-16-21-10-15-15-25-14-26-11-24-11-28-11-37-6-27-6-35-2-28v-44l1-47 4-15 3-24 3-10 2 1v2h2l-3-4 1-12 4-8 1-7 3-7h4l-1 11-3 8-3-1 2 4-1 10-4 10v1l-1 12-4 25-1 16-1 49 1 33 2 22 7 40 8 34 12 36 7 17 12 27 12 23 14 23 8 11 12 17 10 13 9 11 9 10 7 8 15 15 8 7 13 13 8 6v2l4 2 14 11 18 13 23 15 19 11 16 9 28 13 29 12 36 12 23 6 24 5 31 5 21 2 23 1h21l22-1 24-3 42-9 25-7 11-4 9-3 22-8 11-5 7-3 18-8 16-8 17-9 24-15 16-11 19-14 13-11 10-8 12-11 13-12 13-13 7-8 11-13 11-14 14-19 12-18 11-18 6-12 10-19 11-25 10-28 9-32 8-39 4-34 2-33v-35l-1-20-5-39-6-31-7-26-8-24-10-25-16-33-9-15-12-19-10-14-12-16-13-16-15-16-23-23-8-7-14-14-11-9-15-12-32-24-29-20-24-16z" fill="#0D11F0"/>
<path transform="translate(345,506)" d="m0 0 4 1 18 8 9 6 1 5-14-8-15-8 1 8 16 8 12 5 1 43 7 8 8 11 5 4 6 11 2 3 1 101-1 1h-12l-7-2v-2l-5-1-2 4-7 5-1 2-8-1-12-6-3-1-1 6 1 9-1 1v12l1 4h-2v12l5 1-1 4h-3l1 14-1 1-1 12 7 1 4 4-1 3h-2l-1 2-2-4h-5l-1 10h-37v-2h16v-278l4-5zm3 18-1 5 2 7 20 9 5 1 1-2v-7l-7-4-18-9zm-1 16v9l1 2 17 7 9 4v-10l-5-3-16-8zm0 14v7l1 4 22 9h1v-7l2-1-24-12zm0 16 1 9 14 7 5 2h3l1-7-19-10zm1 15v10l19 9h3v-9l-21-10zm0 15-1 4 1 7 16 7 6 2v-10l-16-8zm0 16-1 5 1 6 19 9h3v-10l-16-8zm42 0m-1 1m-1 1m-5 5-2 3v5l2-3 1-5zm-36 9 1 10 10 5 9 4h3v-9l-4-3-16-7zm0 15 1 11 11 5 9 4h2v-10l-15-8-5-2zm47 0m0 3-2 6 3-3zm-3 6m-1 1m-1 1v3zm-42 5 1 10 5 3 15 6h2v-9l-5-3-14-7zm37 2m-1 1 1 2zm-1 2-1 2v9l2 2v-13zm-34 9-1 3 1 9 5 3 15 6h2v-10l-5-3-16-8zm35 4m6 7m1 1 3 7 1-4-2-3zm-42 5-1 3 1 9 13 6 9 3v-10l-4-3zm45 6v5h1v-5zm-1 5 1 2z" fill="#080CF1"/>
<path transform="translate(471,674)" d="m0 0 5 1 4 6 8 8 11 14 2-4 5 1 5 6v3l6-4 5-5 5-1 3 1 1 4 5 5 14 18 3 3v2h-7l-1 25 9-3-5 5-19 8-9 2v2l-4 2h-4v-2l15-7-1-2-5-4-3 2h-7l-2-2v4l5-1v2l-16 3-3 1 1 2v6l-1 2-12 3-7 1 12-1 20-7 3-1v2l-10 5-12 5-6 2-28 2-77 1-10 2h-5v-8l-10-3-5-2-1 9h-1v-12l1-3 5 2 9 4 1-13-6-1-7-3 2-4 6 2 3 2v2h2l-2-12-12-6-1 10h-1v-12h2l-2-4v-12l2-3 9 3 7 3 1-7 6 1 5 6v2h3v-15l3-7 2 2 2 7 1-7 3 2 2 5 1 7 8-6 1-3 4-4h5l7 8 13 13 3 2 1-15h-6l1-4 4-3 1-31 1-3 5-3 2-2 6 4 2 4v10l8-7 7-7zm0 5 1 2 2-1zm-25 1m-2 1m1 1 1 4zm31 2m-93 29 1 2zm62 7v19l1 1h14l-4-3-1-15 10 2v-3l-9-1zm-97 8v11l6 4 8 2-1-11-9-5zm116-1-7 1v2l3 2 5-1zm63 3-3 2v15h5v-17zm3 0v1h5v-1zm8 1-7 1v8l4 2 1 2-5 1 1 3h6l1-3v-14zm-174 4 2 4v8l5 1-1-9 1-2zm101 1-5 2v1h5zm48 10m-122 1-2 1v11l1 3 3 1h16l-2 13 1 4 2 5h24v-9l1 5v4h13l1-8 1-4-10-9-8-8-3-2-4 1-4 5-3 1-3-7-3 2-1 4-3 1-1-13-5-1 1 2v12h-3l1-13-3-1h-3v13h-2v-13zm124 2 1 3v-3zm-1 2 1 3zm3 1m-104 1m105 0 1 3 2-1zm-3 2m1 1m15 6m-39 6m-5 3-1 2h3v-2z" fill="#6E69ED"/>
<path transform="translate(347,792)" d="m0 0h1l1 7 5-1v2l5 1h171l12-1 2 2-1-3 5-1 4 1v2h-4v3h2v2h7l4 8 11 5v6h4v-25l7-5 9-1 2 3v2l6 2 2 1-1 2-6-1-1 4v16l4 1v-7l-3-1v-11h2l3 8v2h3v-12l2-1 3 2 2 12h2l-1 7 4-1v2l8-1 14 1-2-5-8-6v-2l16-1 9 7 3 1 1-3 1 4-1 2h-2v2l-2 1v5h-53l-100-2-51-2h-13l-9 1-3 2-11 1-6-2-5 2h-5l1 2 11-1 2 1-1 5-3 1-4-1 1 6 1 1v11l-2 2-4 1v2l8 1v-11l1-10 4-2 1-7 3 1v6l-1 2v20l4 1h8l2-6v-6l4-6 3-1 1 5-2 6-4 9h4l4-21-6-1-1-5 6-2h9l6-1v3l-4 3-6 24-1 2 5-1 1-15 2-6 3-6 5-4 11-1 3 5 5-1 1-3h3l1 7 4 2 2 5v3l2-3 2 1v6l-3 4 2 6-4 2-2-2-3 1 9 4 4-1-1-11-1-4h2v-12l4-4h4v14l5-1v2h5l-1-2-5-2-1-6 2-1v4l5 1-1-5h-3l1-3 6 1 1 3 3 1 3 5 3 3v14l-3 4v2l4 1v-7l3-16-4-1-10-11v-3h17l3 5 3-2-1 8 7-2 6 2 2 1v3h8l3-3 2 1-2 4h-2l-3 9-2 3 6 2-2-2 1-7 4-6 7 6 1 6-3 3h-2l5 6-1 2-2-1-1 4 28 2 7 2-1-2v-9l12 1h2l-1-6 8 1-5-4-1-4h-4l-1 2-1 10-8-2-1-9 1-7h2l2-5 10-4 2-1h9l8 6 1 9-4 1-15-4v-4l5-1h6l-1-1h-8l-5 2-8 3-1 2 11 1 13 3 4 1 1 2 6-1v-2h-2v-2l2-1-3-6v-2l6 2 2 4-3 5-2 7-5 2-7 6 4 1 5-2v-3h2l-1 6-2 2-13-1v-2l-2-1h2l-1-2h-5l-1 4-6-2-1 8h20l12 3 9 2-1-11-7-2-1-6 4-5 4-1 1-2-4 1v-5l3-3 1-4 4 2 6 6 9 2 4 1-1-3-2 2-8-4-2-4-4-1-3-2v-3l5-2 2 1-1-6h2v3h3v2h2l5 5 8 5 1 7 5 2h10l1-6 8 1-2-1 1-5 3-3h6v-6h5l1 5-6 4-4 6-1 33-1 2 15 1 3 1 12 1h10l1-7h-10l-2-2 1-4h8l1 2-1 2h2v-6l-3-8 3-1h2l2-3-9-2-9-1v-2h14l5 1 3-7v-2l-1-4-4-1v8l-2 1-4-4-5-10v-3l-2-1 6 1 1 4 4 1v-2l9 2 3 5-1 7 7-1-4-5-1-5-3-3v-3l6 1 4 4h3l2 3 5-3 4 2 3 1 8-1v5h2l-1 2-2-1 1 4h-4l2 3-1 4-2-3-10 1 1 3-1 1v13l-3 2-6-1 2-4h5v-3l-5 1-3-1-2 5-5 1-2-1v-3l-4 1v2l4 1 1 5-5 5 1 2 3 1v4h-11l-32-2-33-4-27-1-31-4-22-3-41-4-24-4-44-3-32-3-15-2-14-1-6-1h-13l-18-2-15-1-8-3 1-5 2-1 1 5 4-1v-6l-1-2-3 2-1-5 6-5h2l2-4 6-2 1-5-14-1-4-1 1-4 13-6 4 1v5h33l4-1h23l28 2h11v-2h2v2l8 2v-6l-7 2 2-4 7-9-3 1h-30l-16-1 1-3 10 1 6-1h27l8 1 1-2 5 1 1-1h-89l-38 1-49-1v-1h7v-10zm237 5 1 3 2-3zm0 4 2 2v-2zm13 0m-74 2 2 4 11 8 3 3 4-1 9 1-1-3 6 3 2-3-6-4h-2l-1-3-9-1-1-4-1 5-6-3-4-1v-1zm7 0v1l7 1 2-2zm12 1m42 4 2 4v-4zm-67 5m68 3v5h1v-5zm19 0m1 1 1 4zm-66 3-1 1v5l1-2 3-1-1-3zm-148 2m194 0 1 2zm-18 1m-166 9m57 1-3 5-5 4-2 5v6h2l3-9 7-6v-5zm64 1 5 6 2 6 2-2v-7l-2-2zm-128 1-4 7-1 14 4 1v-10l2-10 4-1zm47 0-1 4h3v-4zm23 3-4 6-6 8v2l3-1 3-5 6-5 2-1v-4zm14 1-6 3-1 1-1 13h2l1-9 2 5v4l-5 3 1 4h8v-13l-1-4 1-7zm186 5-1 4 2-1zm-151 1m24 1-1 1v6h3l1-6zm-139 1v3h2l-1-3zm146 0-4 6v10l4 1 6-1 3-8v-4h-2l-4 7-4 2 1-7 5-5zm-79 1-6 10-4 3-1-7h-3v6l4 3h7l4-11 1-3zm52 0 2 11 2-1-1-7-1-3zm-14 2-2 3v9l-1 4 1 1 19 1-1-8-4 3h-7l-4-2v-11zm150 1-1 6 2-2zm137 0m-8 0-8 2v2l5 1h11v-4zm-219 3v6l5 2-2-6-1-2zm-28 1-1 3 1 12 6 1 15 1 4 1v-6l-21-1v-5-3zm-26 1v3h3v-3zm190 0 2 3 1-3zm74 0 1 2zm-112 1 1 2zm38 2-9 6 1 5 2 3v5l6-1 1-4-7-5 1-1h5l1-1v-7zm-69 2-3 2v2l5-2 2-2zm17 0-1 5 2 4h3l1-6-3-3zm22-1-8 1v24l6 1 23 1 10 1v-7l-11-2-17-1 5-1 6 1 1-5-7-2 1-2 5-1v-5l-9-1 1 7-6-1-1-3 2-5zm3 1m90 0 1 3 6-1-2-2zm14 0m-7 2v4h6v-2h3v-2zm-9 1-5 2v2h7zm16 2m-14 2-1 7 7-2 1-5z" fill="#5258D6"/>
<path transform="translate(454,519)" d="m0 0h90l1 48v137l-2 1-5-3-6-1v-16h-11l-1 15-9-1-4-2v-12h-12l-1 3-5-2-9-10-3-7-10-1v8l-3 5-10-1-1-5v-149l-9 9 1-5 5-6 3-3zm13 16v17l8 1 3-1v-16l-1-1zm27 0v17h13l1-16-1-1zm26 0v16l1 1h11v-17zm-53 20v14h10l1-1v-12l-1-1zm27 0v14h13v-14zm26 0v13l1 1h10l1-1v-12l-1-1zm-53 16v17h10l1-3v-11l-1-3zm27 1v16h13v-16zm26 0v16h12v-15l-1-1zm-53 19v15h10v-15zm27 1v13l1 1h12v-14zm26 0v13l1 1h10l1-1v-12l-1-1zm-53 18v16h10l1-10-1-6zm28 0-1 1v14l1 1h12v-16zm26 0-1 1v15h11l1-1v-14l-1-1zm-54 19v15l1 1h8l2-1v-14l-1-1zm28 0-1 1v14l2 1h8l3-1v-15zm26 0-1 1v14l9 1 3-1v-14l-1-1zm-54 18v16l1 1h9v-17zm27 0v16l9 1 4-1v-16zm26 0v16l3 1h8l1-1v-16zm-26 21v11l1 1h12v-12zm26 0v11l2 1h9l1-1v-11z" fill="#090DF1"/>
<path transform="translate(821,652)" d="m0 0 4 1v2l-4 2 1 3v3l-4 1-2 3h8l15 4 4 4-1 1-7 1-6 3 1 6-4 1-5-6h-3l4 4-1 3-4 1 9 11 5 8v3l-5-1-3-3-2 3-5-1-1-8h-2v7l-4-2-4-6-4-1-3-12v-5h-2v23l-2 23-4 15h-2l-2 2 2-10 3-10 1-8v-25l-4 8-4 4v3l3 2-1 3-6 3-2 3h-3l1-4-3 2 6 12v4l-6-1-2-2-3 1-5-5-3-1-6 31-2 3v-7l3-14 2-19-5 9-5 4-8 2h-6l1-2h2l1-5 4-4 1-3-9-3-1-3h-5l-3-3-3-1-1 3-16-2-6-7-1 1 3 3 2 5 11 9 6 1 2-2h5l2 3 4 2-1 4-5 2 6 9-3 1-11-8-4 3-5 1-1 2h2l-2 4-3 1-1 6h-3l-3-4v-2l-6 3-4-1 2-6-5 1-1 5-4-1-2-3-1 4 1 8 2 2-1 3h-14l-2-3 3-1h6l-8-8-1-7-1 3-3 4-4 2 6 3v2l2 1h-7l-4-3v-2l-3-1 1-5 5-4-1-3-9 2h-2l2 5-1 4-4-1-8-7-1-3-8 1-3 2h-3l1 6-7-2-3-3 1-5h3v-3l-4-1-1-6-3 2-9 2-1-3 1-4-2-5 5-1 11-13 4-3 2-8-2 1-2 4-4-1-3-2 3-1 2 1-3-3-4-1-1-2-5-2 1-2 20-3v-2l-5-5 1-3 8 1 15 9h3l3-6 2-1v6l8-3 9-1-1 4-3 3v2l7 1 9 4 5 1 1-4h5l1 2 1-1-2-4-1-8h2l3 7v3l2-1 3-10 6-7 4-1 2 3-2 4v4l16-7h6v4l-6 4h4l-1 4-3 1 1 2h2v4l-6 2v3l11 3 5 2 6 1-3 2-9 3v2l5-2 1-1h7l3 1-4-6-2-1 2-2 8 1 5 4 2-5h2l1 5 5-1 8-6 2-2-1-9 2-3-4 1v2h-5l5 4 2 2h-6l-7-7 1-4-5-3-5 1 2-4 7-3 3-1h11v-2l-4 1-2-4h3l2 1-2-5-5-2v-2h10l9 4 6 5-3-11h3l4 5 1 6 2 1 1-7 4 1 4 2 2-4 6-5zm-15 15m-47 14m0 2m-141 6m96-1-4 1v2h5l1-3zm3 1m-82 7-1 24 1 13 3 6 4 1 1-1v-6l-2-6h12v-3l-4-1v-4h3l-2-9-2 2 1 3-8-6-3-6-1-6zm-4 3-5 8-6 3-8 1-7 1-2 3 2 3 12 2-1 3h3v4l-6 2v2l9 3 1-4h5l1 3 4-2v-32zm25 0-3 2 2 5 3 3 5-2 3-3 2-1v-2l-6 1h-5l1-3zm17 0v2h2v-2zm18 3 1 5 2 3 1 7-1 10v2h-2l-1-5-2 1v7l-4 2v1h5l1-3 6 4 8 1 3-1 1-5-5-3 1-3 3-1-2-5-10-10-3-7zm26 3 1 2 4-1zm-100 2 1 2zm56 3-2 4v2l-4 4h-2l-2-2h-3l-1 2-2 1 9 9h5v-3l1 3 6-2 2-6-5-6-1-6zm55 1m-47 3 1 2z" fill="#3236ED"/>
<path transform="translate(791,128)" d="m0 0 6 2 23 13 11 6 14 9 15 10 17 12 16 12 16 13 3 2v2l4 2 10 9 8 7 28 28 9 11 9 10 10 13 13 18 12 19 16 28 12 25 6 15 10 27 5 17 7 32 4 23 4 28 1 17v68l-4 33-5 30-6 26-8 28-12 31-12 26-12 23-12 20-9 14-14 19-11 14-9 11-11 13-8 8-7 8-19 19-8 7-12 11-13 10-15 11-27 18-21 12-23 12-23 11-19 7-12 5-10 4-7 2-7 3-25 7-21 6-35 9-3-1 8-6 4-4 41-9 23-7 14-4 35-14 27-12 16-8 17-9 24-15 16-11 19-14 13-11 10-8 12-11 13-12 13-13 7-8 11-13 11-14 14-19 12-18 11-18 6-12 10-19 11-25 10-28 9-32 8-39 4-34 2-33v-35l-1-20-5-39-6-31-7-26-8-24-10-25-16-33-9-15-12-19-10-14-12-16-13-16-15-16-23-23-8-7-14-14-11-9-15-12-32-24-29-20-24-16z" fill="#1115F0"/>
<path transform="translate(384,122)" d="m0 0h9l-1 4-27 16-14 8-22 15-20 14-19 14-14 11-11 9-10 10 18-8 17-5 14-2h33l12 2 15 6 9 6 2 4-7 8-10 6-12 5-17 4-17 3h-21l-20-4-11-4-10-6-5-6-8 6-27 27-7 8-11 12-15 20-12 17-15 25-12 23-11 24-8 21-3 11-3-1 1-9 15-36 14-28 8-13 13-22 11-16 15-20 8-10 11-13 12-14 9-10 12-13 8-7 16-16 11-9 13-11 16-12 15-10 14-9 26-14z" fill="#060AF1"/>
<path transform="translate(647,1054)" d="m0 0h8l-4 2-8 6-5 3-29 5h-8l5 5 17 10 14 10 11 9 4 3v2l4 2 7 8 9 11 9 14 9 19 6 19 5 23v3h-11l-4-8-7-25-7-24-7-14-11-14-13-13-17-13-21-12-17-8-7-1-19 9-15 10-14 12-11 13-10 15-8 14-10 21-14 32-2 6h-8l2-16 4-19 8-18 8-15 10-14 9-10 7-8 14-13 17-13 18-12v-1l-31-5-1-3v-5h12l35 2h21l22-1z" fill="#0B0FF1"/>
<path transform="translate(266,262)" d="m0 0h21l12 3 12 5 3 3-2 5-8 8-13 10-14 8-14 5-12 3-9 1h-31l-21-3-2-1 1-6 7-9 8-8 10-7 11-6 16-6 15-4z" fill="#060AF1"/>
<path transform="translate(875,72)" d="m0 0 5 1 8 7 7 7 10 14 12 23 5 19 1 7v33l-2 9-3 3-8-4-13-11-10-12-9-16-7-19-3-11-1-7v-14l3-14z" fill="#060AF1"/>
<path transform="translate(73,310)" d="m0 0 5 1 7 8 10 15 7 15 6 19 2 14v27l-4 16-4 11-4 1-14-14-7-11-8-17-5-15-4-20v-17l4-18 6-12z" fill="#060AF1"/>
<path transform="translate(131,215)" d="m0 0 4 2 10 18 6 19 2 14v38l-3 17-7 18-4 6-5-3-7-7-8-13-6-17-2-11-1-11v-21l3-20 6-13 7-11z" fill="#060AF1"/>
<path transform="translate(963,136)" d="m0 0 5 1 7 7 9 15 7 19 3 14 2 15v21l-3 17-8 16-4 4-4-1-9-13-8-15-6-18-5-26v-16l3-15 5-15z" fill="#070AF1"/>
<path transform="translate(205,135)" d="m0 0 4 2 7 21 3 17v18l-3 21-6 20-7 14-9 11-8 7-5-5-3-7-4-20-1-10v-14l4-27 3-12 5-12 7-12 6-7z" fill="#070BF1"/>
<path transform="translate(230,766)" d="m0 0 5 2 8 12 6 16 4 17 1 9v27l-3 16-5 16-5 10-2 2-5-1-8-8-6-9-5-12-5-21v-38l6-18 8-14z" fill="#060AF1"/>
<path transform="translate(989,618)" d="m0 0 6 4 10 10 11 14 8 14 5 11 5 19 2 10v22l-3 16-2 5-5-2-12-9-8-8-9-14-9-17-6-19-2-15 1-16 3-12 4-12z" fill="#060AF1"/>
<path transform="translate(790,161)" d="m0 0h19l16 3 10 3 12 6 7 6-2 4-11 7-20 9-21 5-20 2h-13l-14-1-14-4-11-4-2-4h-2l1-4 7-8 13-9 16-6 20-4z" fill="#070BF1"/>
<path transform="translate(772,1037)" d="m0 0h20l19 3 16 5 12 5 11 7 10 9 5 5 1 5-2 2-23 6-7 1h-25l-26-6-14-5-14-8-10-9-7-7 1-4 4-3 16-4z" fill="#060AF1"/>
<path transform="translate(893,829)" d="m0 0 5 1 3 7 4 19 1 18-2 15-4 18-7 17-6 10-9 10-9 8-3 2h-5l-2-3-3-21v-28l3-18 6-17 7-14 8-11 10-11z" fill="#060AF1"/>
<path transform="translate(378,1037)" d="m0 0h18l26 5 6 3 2 4-4 6-4 5-14 10-10 5-15 5-22 5h-28l-13-4-11-4-7-5 2-4 14-11 16-9 20-7z" fill="#060AF1"/>
<path transform="translate(720,127)" d="m0 0h32l15 3 3 2-1 6-4 6-7 8-10 8-16 8-12 5-13 4-17 2h-12l-17-2-13-5-2-4 7-8 14-11 15-10 11-5 20-6z" fill="#070AF1"/>
<path transform="translate(1155,628)" d="m0 0h2l-1 12-3 13-6 14-8 12-11 12-7 7-13 9-10 5-14 5-13 1h-10l1-8 12-23 8-12 10-13 11-10 18-12 18-8z" fill="#060AF1"/>
<path transform="translate(643,53)" d="m0 0h25l18 2 17 4 15 6 16 10 16 16 7 11v4l-9 2-9 1h-22l-19-3-21-8-14-8-12-11-9-12-5-10v-3z" fill="#070BF1"/>
<path transform="translate(939,766)" d="m0 0 4 1 8 16 4 12 2 11 1 11v16l-2 21-5 17-7 12-10 10-5 1-6-11-6-20-2-11-1-12v-17l3-21 6-15 6-10 4-5 5-5z" fill="#060AF1"/>
<path transform="translate(1097,309)" d="m0 0 4 4 5 14 2 18v11l-2 18-5 17-8 18-9 13-9 10-8 4-4-6-4-21-1-16 2-18 3-16 7-18 7-12 12-14z" fill="#060AF1"/>
<path transform="translate(1127,737)" d="m0 0h10l-1 6-9 17-8 11-9 10-13 10-19 10-16 5-12 3-10 1h-14l1-5 8-16 8-12 11-12 14-11 16-8 13-4 17-4z" fill="#070AF1"/>
<path transform="translate(267,990)" d="m0 0h21l24 3 11 4 9 3 10 5 1 3-7 8-10 7-16 6-17 3h-35l-14-2-13-5-13-9-4-5-1-4 2-3 16-7 13-4 11-2z" fill="#060AF1"/>
<path transform="translate(1039,216)" d="m0 0 4 1 5 8 5 13 4 17 1 19v11l-2 16-4 17-5 12-6 8-6 7-4 1-6-10-4-11-3-8-4-26v-15l4-24 4-11 7-14z" fill="#060AF1"/>
<path transform="translate(359,161)" d="m0 0h14l21 3 17 4 12 5 12 7 10 8 1 5-7 5-19 6-7 1h-39l-20-4-13-4-14-8-7-5-3-5 1-5 16-8z" fill="#060AF1"/>
<path transform="translate(173,921)" d="m0 0h12l17 1 21 5 17 8 11 8 11 11 1 5-18 6-13 2h-32l-15-2-18-6-11-6-10-8-10-12 1-5 21-6z" fill="#060AF1"/>
<path transform="translate(701,956)" d="m0 0h5l1 2-6 18-10 21-10 14-12 12-14 9-17 8-22 6h-6l4-16 8-20 10-16 10-11 12-9 14-8 13-5z" fill="#060AF1"/>
<path transform="translate(830,208)" d="m0 0h31l14 2 9 3 9 2 23 11 5 5-1 5-10 7-12 5-19 4h-24l-28-5-12-5-12-7-8-9-1-4 9-7 11-3 8-3z" fill="#070BF1"/>
<path transform="translate(270,830)" d="m0 0 6 1 13 11 9 12 9 20 4 18 2 12v20l-5 17-7 14-4-1-7-8-10-15-6-12-6-17-4-16-1-7v-21l2-13 4-13z" fill="#060AF1"/>
<path transform="translate(977,463)" d="m0 0h6l15 7 9 5 14 10 10 9 9 10 10 15 7 17 1 5v24l-3 1-22-12-17-12-12-11-8-9-9-14-6-12-5-14-2-14z" fill="#070AF1"/>
<path transform="translate(495,53)" d="m0 0 16 1 20 4 2 1-2 5-9 10-9 9-16 11-16 8-16 5-11 2h-21l-18-3-5-2 1-5 7-9 7-7 13-10 17-10 16-6 14-3z" fill="#070BF1"/>
<path transform="translate(907,324)" d="m0 0h18l26 3 14 4 13 5 15 9 14 13 7 10 7 14v6l-4 1h-10l-18-2-23-6-6-3-7-3-13-8-11-9-9-9-8-11-5-11z" fill="#060AF1"/>
<path transform="translate(644,1065)" d="m0 0h32l18 2 18 5 19 9 13 10 9 9 7 10 5 10-5 2-18 1-20-1-24-6-16-8-11-7-12-11-10-13-5-9z" fill="#0509F1"/>
<path transform="translate(821,652)" d="m0 0 4 1v2l-4 2 1 3v3l-4 1-2 3h8l15 4 4 4-1 1-7 1-6 3 1 6-4 1-5-6h-3l4 4-1 3-4 1 9 11 5 8v3l-5-1-3-3-2 3-5-1-1-8h-2v7l-4-2-4-6-4-1-3-12v-5h-2v23l-2 23-4 15h-2l-2 2 2-10 3-10 1-8v-25l-4 8-4 4v3l3 2-1 3-6 3-2 3h-3l1-4-3 2 6 12v4l-6-1-2-2-3 1-5-5-3-1-6 31-2 3v-7l3-14 2-19-5 9-5 4-8 2h-6l1-2h2l1-5 4-4 1-3-9-3-1-3h-5l-3-3-3-1-1 2-1-4h7v2l5-2 1-1h7l3 1-4-6-2-1 2-2 8 1 5 4 2-5h2l1 5 5-1 8-6 2-2-1-9 2-3-4 1v2h-5l5 4 2 2h-6l-7-7 1-4-5-3-5 1 2-4 7-3 3-1h11v-2l-4 1-2-4h3l2 1-2-5-5-2v-2h10l9 4 6 5-3-11h3l4 5 1 6 2 1 1-7 4 1 4 2 2-4 6-5z" fill="#3538ED"/>
<path transform="translate(466,954)" d="m0 0 9 1 15 6 17 9 12 9 10 9 9 9 10 15 7 15 5 16v3l-9-1-19-5-16-7-12-7-9-7-7-8-8-9-8-15-4-13-2-12z" fill="#060AF1"/>
<path transform="translate(839,883)" d="m0 0h3l2 9v19l-3 25-8 20-8 14-11 13-11 10-14 9-5 1-1-3v-14l2-21 3-17 6-16 9-16 8-10 12-12 14-10z" fill="#070BF1"/>
<path transform="translate(197,695)" d="m0 0 4 2 6 12 4 13 1 7v26l-2 15-6 21-7 14-12 14-5 3-4-1-4-8-5-25v-27l4-23 3-10 5-12 8-11z" fill="#060AF1"/>
<path transform="translate(975,921)" d="m0 0h26l10 2 14 7 6 5-1 4-7 7-13 8-13 6-17 5-20 3h-19l-19-3-15-6v-2h-2l1-5 10-9 16-9 16-7 18-5z" fill="#070BF1"/>
<path transform="translate(972,695)" d="m0 0 4 2 7 9 8 14 7 20 4 26v19l-3 19-5 13-4 6-4-1-9-9-8-13-6-14-4-14-3-17-1-15 3-18 4-11z" fill="#060AF1"/>
<path transform="translate(777,26)" d="m0 0 6 1 17 13 10 9 9 11 9 15 8 20 6 27v11l-1 5-4-1-12-5-11-7-10-9-10-10-10-16-7-15-4-18v-12l3-18z" fill="#060AF1"/>
<path transform="translate(191,463)" d="m0 0h2l1 3-6 28-6 16-12 18-9 9-12 9-17 9-17 6-6 1-2-1 1-11 7-21 11-21 8-10 6-7 14-11 16-9 15-6z" fill="#060AF1"/>
<path transform="translate(331,882)" d="m0 0 5 3 10 9 11 11 12 16 8 15 6 19 2 16v11l-2 16-1 2-6-1-10-6-12-10-11-14-9-16-6-16-4-19v-10l4-19z" fill="#060AF1"/>
<path transform="translate(30,415)" d="m0 0 9 3 12 7 10 9 8 10 8 16 5 13 4 14 2 23v14l-1 5h-6l-12-8-11-9-10-11-8-13-6-12-4-13-3-14v-25z" fill="#060AF1"/>
<path transform="translate(880,989)" d="m0 0h20l21 3 10 3 16 8 9 8-1 5-8 5-16 6-12 3-9 1h-38l-14-3-12-3-17-9-2-4 9-9 9-6 14-5z" fill="#070BF1"/>
<path transform="translate(1053,836)" d="m0 0h19l13 2 8 2-1 5-6 10-5 6h-2l-1 3-12 9-15 8-16 6-16 4-8 1h-21l-16-2-3-1 2-5 11-12 12-12 11-8 12-7 16-6z" fill="#070BF1"/>
<path transform="translate(417,127)" d="m0 0h26l21 4 15 5 14 7 12 9 11 11 3 6-1 5-3 2-15 2h-32l-11-2-19-7-15-8-13-10-7-7-6-10 1-3 12-3z" fill="#060AF1"/>
<path transform="translate(247,324)" d="m0 0h8l5 1-1 7-9 15-11 12-10 9-16 9-18 6-25 5-14 1h-10l-1-3 5-10 8-12 11-12 9-8 17-10 19-6 24-3z" fill="#060AF1"/>
<path transform="translate(873,263)" d="m0 0h36l21 5 14 5 12 7 10 8 7 7 6 9 1 4-12 3-6 1h-34l-20-4-12-4-16-8-11-9-9-10-3-5v-5l8-3z" fill="#060AF1"/>
<path transform="translate(1158,518)" d="m0 0 2 1v9l-3 17-5 18-5 11-6 11-9 11-5 5-10 9-18 11-12 5-4-1 1-16 6-25 8-17 9-13 6-7h2l2-4 11-9 13-8z" fill="#060AF1"/>
<path transform="translate(33,737)" d="m0 0 18 1 16 3 14 4 16 8 10 6 12 11 8 10 8 14 6 13-1 3h-10l-12-1-25-7-19-9-13-10-9-9-9-13-8-15z" fill="#060AF1"/>
<path transform="translate(178,542)" d="m0 0h3v26l-4 21-6 15-9 14-10 11-5 5-8 7-22 12h-4l-1-9 2-17 6-23 6-14 6-10 11-14 11-10 10-7 8-5z" fill="#060AF1"/>
<path transform="translate(106,836)" d="m0 0 20 2 15 4 19 9 14 10 10 10 10 14 1 5-4 2h-33l-17-2-18-6-19-10-13-11-10-11-6-9v-3l14-3z" fill="#060AF1"/>
<path transform="translate(293,73)" d="m0 0 4 1 3 26v11l-3 21-6 18-8 15-8 11-16 16-7 3-3-4-2-10v-34l4-17 5-15 9-17 11-12 8-7z" fill="#0609F1"/>
<path transform="translate(390,927)" d="m0 0 9 1 17 8 11 7 12 11 7 8 8 13 6 14 5 16 4 17v10l-7-1-19-9-11-8-10-9-9-11-9-15-6-14-5-16-4-19z" fill="#060AF1"/>
<path transform="translate(774,927)" d="m0 0h3l1 6-2 16-6 21-8 16-9 13-11 12-10 7-14 7-16 5h-4l2-12 6-21 9-20 8-14 9-11 10-9 11-7 15-7z" fill="#060AF1"/>
<path transform="translate(504,1064)" d="m0 0h9l9 1 1 3-9 16-11 12-12 9-15 8-18 6-17 3h-14l-18-3-6-2 1-5 18-18 13-10 14-8 15-6 17-4z" fill="#060AF1"/>
<path transform="translate(181,618)" d="m0 0h3l3 17 1 17-3 26-4 12-5 11-7 12-9 11-10 11-9 7h-3l-3-13-1-8v-12l1-16 6-23 8-18 9-13 9-10z" fill="#060AF1"/>
<path transform="translate(1137,413)" d="m0 0h4l1 3v17l-3 26-3 12-5 13-9 16-13 14-10 8-12 7-4-1-1-13 2-30 7-22 8-16 8-11 11-11 12-8z" fill="#060AF1"/>
<path transform="translate(209,392)" d="m0 0h12l-1 8-10 21-9 13-12 13-13 10-12 6-14 5-5 1-14 1h-13v-6l8-14 10-14 12-13 7-7 13-9 15-8 12-3 9-3z" fill="#060AF1"/>
<path transform="translate(12,630)" d="m0 0 14 3 16 5 16 8 13 10 8 8 11 15 8 16 7 19 1 6-20-3-20-8-14-9-11-9-11-13-9-16-6-13-4-13v-5z" fill="#060AF1"/>
<path transform="translate(13,519)" d="m0 0 6 2 14 8 13 10 14 14 9 13 6 10 7 18 5 18 1 12-1 1h-6l-13-6-14-8-10-8-6-5-11-14-9-16-3-7-3-14v-26z" fill="#0509F1"/>
<path transform="translate(949,393)" d="m0 0h13l22 5 21 10 13 10 10 10 10 14 9 17 3 9v4l-14-1-16-3-18-7-15-9-11-9-9-11-9-14-9-20z" fill="#060AF1"/>
<path transform="translate(994,542)" d="m0 0 5 2 14 11 13 12 10 12 9 15 6 16 2 10v27l-2 8-5-1-16-13-8-7-12-13-8-11-10-19-4-17-1-9 3-16 3-6z" fill="#060AF1"/>
<path transform="translate(392,26)" d="m0 0h3v25l-2 14-6 17-9 17-9 11-8 9-14 11-14 9-5-1v-18l2-14 5-18 7-16 8-12 11-12 11-10 16-10z" fill="#060AF1"/>
<path transform="translate(791,128)" d="m0 0 6 2 23 13 11 6 14 9 15 10 17 12 16 12 16 13 3 2v2l4 2 10 9 8 7 28 28 9 11 9 10 10 13 13 18 12 19 16 28 12 25 6 15 10 27 5 17 5 22v19l2 7-3 2v-3h-2l1-4-2-1-2-2-5-24-6-22-8-24-10-25-16-33-9-15-12-19-10-14-12-16-13-16-15-16-23-23-8-7-14-14-11-9-15-12-32-24-29-20-24-16z" fill="#0E12F0"/>
<path transform="translate(418,552)" d="m0 0 7 1 19 10 7 5 1 29v74l-4 1-5-1 1-28h-3l-1 27-1 3h-4l2 6-3 1-2-3v-3l-5-1 1 9v10l3 1-3 3v19l-1 2-7 1-1-46v-110l1-7-14 10-6 5-1 26h-2v-27l7-7zm11 13-1 1v13l4 1v-14zm11 6v13h4v-11l-1-2zm-12 15v27l4 1v-27zm13 5-1 1v24l4 1v-25zm-13 28-1 6 1 9h4v-14zm13 3-1 1v12l4 1v-13zm-13 17v28h4v-27z" fill="#3135EE"/>
<path transform="translate(347,792)" d="m0 0h1l1 7 5-1v2l5 1h171l12-1 2 2-1-3 5-1 4 1v2h-4v3h2v2h7l4 8 11 5v6h4v-25l7-5 9-1 2 3v2l6 2 2 1-1 2-6-1-1 4v16l4 1v-7l-3-1v-11h2l3 8v2h3v-12l2-1 3 2 2 12h2l-1 7 4-1v2l8-1 14 1-2-5-8-6v-2l16-1 9 7 3 1 1-3 1 4-1 2h-2v2l-2 1v5h-53l-59-1-36-2-1-6-7 1 2-4 7-9-3 1h-30l-16-1 1-3 10 1 6-1h27l8 1 1-2 5 1 1-1h-89l-38 1-49-1v-1h7v-10zm237 5 1 3 2-3zm0 4 2 2v-2zm13 0m-74 2 2 4 11 8 3 3 4-1 9 1-1-3 6 3 2-3-6-4h-2l-1-3-9-1-1-4-1 5-6-3-4-1v-1zm7 0v1l7 1 2-2zm12 1m42 4 2 4v-4zm-67 5m68 3v5h1v-5zm19 0m1 1 1 4zm-66 3-1 1v5l1-2 3-1-1-3zm46 2 1 2z" fill="#3539ED"/>
<path transform="translate(384,122)" d="m0 0h9l-1 4-27 16-14 8-22 15-20 14-19 14-14 11-11 9-10 10 18-8 4-1-1 3-6 4-7 3-10 6-4 2-2 3-3-3-12 11-22 22-7 8-11 12-15 20-12 17-15 25-12 23-11 24-8 21-3 11-3-1 1-9 15-36 14-28 8-13 13-22 11-16 15-20 8-10 11-13 12-14 9-10 12-13 8-7 16-16 11-9 13-11 16-12 15-10 14-9 26-14z" fill="#0C10F1"/>
<path transform="translate(390,816)" d="m0 0 4 1v5h33l4-1h23l28 2h11v-2h2v2l8 2v-5h1v6h12v1h-17l-51-2h-13l-9 1-3 2-11 1-6-2-5 2h-5l1 2 11-1 2 1-1 5-3 1-4-1 1 6 1 1v11l-2 2-4 1v2l8 1v-11l1-10 4-2 1-7 3 1v6l-1 2v20l4 1h8l2-6v-6l4-6 3-1 1 5-2 6-4 9h4l4-21-6-1-1-5 6-2h9l6-1v3l-4 3-6 24-1 2 5-1 1-15 2-6 3-6 5-4 11-1 3 5 5-1 1-3h3l1 7 4 2 2 5v3l2-3 2 1v6l-3 4 2 6-4 2-2-2-3 1 9 4h2v2l-21-1-23-3-14-1-6-1h-13l-18-2-15-1-8-3 1-5 2-1 1 5 4-1v-6l-1-2-3 2-1-5 6-5h2l2-4 6-2 1-5-14-1-4-1 1-4zm1 6m10 10m57 1-3 5-5 4-2 5v6h2l3-9 7-6v-5zm-64 2-4 7-1 14 4 1v-10l2-10 4-1zm47 0-1 4h3v-4zm23 3-4 6-6 8v2l3-1 3-5 6-5 2-1v-4zm14 1-6 3-1 1-1 13h2l1-9 2 5v4l-5 3 1 4h8v-13l-1-4 1-7zm-80 8v3h2l-1-3zm67 1-6 10-4 3-1-7h-3v6l4 3h7l4-11 1-3z" fill="#5259D5"/>
<path transform="translate(1069,464)" d="m0 0h1l5 29 4 28 1 17v68l-4 33-5 30-6 26-8 28-12 31-9 20-2-4h2l-1-3 2-3-3-4 3-9 6-15 8-25 7-27 7-34 4-34 2-33v-35l-1-20-5-39-1-11 3 3-1 4h2l1 2 1-2-2-9z" fill="#3438ED"/>
<path transform="translate(379,593)" d="m0 0 4 1 11 9 2 2 1 10 1 39 1 57 7-3 1 4-1 1h-12l-7-2v-2l-5-1-2 4-7 5-1 2-8-1-4-3 3-2 2-1 4 2v-9l-6-3 3-3v-3l4 2v-10l2 1v24l3-1 1-38 1-51 1-27zm11 23m-1 1m-1 1m-5 5-2 3v5l2-3 1-5zm11 24m0 3-2 6 3-3zm-3 6m-1 1m-1 1v3zm-5 7m-1 1 1 2zm-1 2-1 2v9l2 2v-13zm1 13m6 7m1 1 3 7 1-4-2-3zm3 11v5h1v-5zm-1 5 1 2z" fill="#3235EE"/>
<path transform="translate(471,674)" d="m0 0 5 1 4 6 8 8 11 14v3h2l1 5h2v3l2 1v4l-1 5-3-1v-2h-2l-1-2-5-1-3-2-1-6-5 1-9 1-6 2-6 3-7-1v-2h-5l-1 3h-4l-1-2-2 2-8 1-2-1 1-3 1-31 1-3 5-3 2-2 6 4 2 4v10l8-7 7-7zm0 5 1 2 2-1zm-25 1m-2 1m1 1 1 4z" fill="#3235EE"/>
<path transform="translate(692,699)" d="m0 0 5 1v4l3 3 2 5 11 9 6 1 2-2h5l2 3 4 2-1 4-5 2 6 9-3 1-11-8-4 3-5 1-1 2h2l-2 4-3 1-1 6h-3l-3-4v-2l-6 3-4-1 2-6-5 1-1 5-4-1-2-3-1 4 1 8 2 2-1 3h-14l-2-3 3-1h6l-8-8-1-7-1 3-3 4-4 2 6 3v2l2 1h-7l-4-3v-2l-3-1 1-5 5-4-1-3-9 2h-2l-2-8v-4h12v-3l-4-1v-4h9l2 4 6 6 5 1-2-3 1-3 2 3v3h2l1-2 3-1 1-7-2-1 2-1 2-4 2-7 3-3v-4zm-1 3 1 5 2 3 1 7-1 10v2h-2l-1-5-2 1v7l-4 2v1h5l1-3 6 4 8 1 3-1 1-5-5-3 1-3 3-1-2-5-10-10-3-7z" fill="#3437ED"/>
<path transform="translate(510,197)" d="m0 0 9 1 5 4 3 6v14l-5 6 2 4 7 7 8 10v2l-7 2-5-1-15-16-3-2h-6l3 19v6l-8 1-2-2-6-31-5-21 1-3 9-3zm-5 11-8 3 1 7 3 6 8-1 8-4 1-4-3-6-1-1z" fill="#D3171E"/>
<path transform="translate(675,201)" d="m0 0 6 1 3 2 4 21 3 13 1 2 3-8 6-21 1-1 7 1 2 1-3 12-11 37-3 6-5-1-4-2-2-8-5-27-2-1-2 9-6 21-4 1-5-3 1-8 13-43z" fill="#D3181F"/>
<path transform="translate(893,675)" d="m0 0 12 4 20 8 21 8 1 4-7 18-6 9-3 2h-12l-8-5-3-4-1-5 1-3-24 4h-6l3-10 5-2 19-2 3-1 3-6-8-4-13-5 1-6zm28 22-4 8-1 7 1 3 4 3h5l6-7 1-9-6-4z" fill="#D2181F"/>
<path transform="translate(256,680)" d="m0 0h11l9 4 7 8 2 5v11l-5 8-7 7-10 5-8 2h-14l-8-4-6-8-1-4v-13l3-6 9-8 15-6zm1 11-14 5-5 5-2 4 1 8 4 6 10 1 9-2 9-6 5-6v-7l-4-6-5-2z" fill="#D3171D"/>
<path transform="translate(918,628)" d="m0 0h10l10 2 12 6 7 8 2 4v12l-4 8-7 6-5 2h-18l-11-4-9-6-5-7-1-4v-9l3-8 5-5 4-3zm4 10-8 3-4 4-1 7 4 7 6 4 10 3h10l6-4 3-3v-9l-5-6-8-4-9-2z" fill="#D2181F"/>
<path transform="translate(246,403)" d="m0 0h17l11 4 11 8 5 8 1 3v10l-4 8-8 7-5 2h-11l-13-4-10-7-5-6-3-6v-11l5-10 5-4zm8 9-7 2-4 5v9l3 5 5 4 8 4 6 2h6l6-4 3-4-1-9-7-8-8-4z" fill="#D4171D"/>
<path transform="translate(558,190)" d="m0 0h12l6 3 5 5 5 9 1 5v19l-3 8-6 7-9 4h-10l-7-3-7-8-3-6-2-10v-8l3-12 4-7 7-5zm2 10-6 4-3 8v13l2 7 5 6 7 2 7-3 4-6 1-12-1-9-4-7-6-3z" fill="#D3181F"/>
<path transform="translate(661,835)" d="m0 0h2v3h3v2h2l5 5 8 5 1 7 5 2h10l1-6 8 1-2-1 1-5 3-3h6v-6h5l1 5-6 4-4 6-1 27-8 3-1-2-11-2-19-1 2-2 5-1 6 1v-4l-7-2 2-3h5l-2-4-6-1 1 4-3 3-5-2-1-3 2-4-6 1-2-1 1 11v7h-6l-1-4-11-4-1-6 4-5 4-1 1-2-4 1v-5l3-3 1-4 4 2 6 6 9 2 4 1-1-3-2 2-8-4-2-4-4-1-3-2v-3l5-2 2 1zm3 9-1 4 2-1zm-11 7-1 6 2-2zm46 5 2 3 1-3zm-38 1 1 2zm38 2-9 6 1 5 2 3v5l6-1 1-4-7-5 1-1h5l1-1v-7zm-52 2-1 5 2 4h3l1-6-3-3z" fill="#5558E0"/>
<path transform="translate(354,266)" d="m0 0 4 1 12 14 13 16 8 10 1 4-6 5-4-2-9-11-3-4-4 1-10 8 3 5 11 13-1 4-6 4-5-5-11-13-7-9-13-16 1-4 4-3 4 1 12 14 5-3 8-6-7-11-5-6 1-4z" fill="#D3171E"/>
<path transform="translate(214,471)" d="m0 0 9 2 1 4-5 22 12 2 1-8 4-15 9 2 1 4-5 20 9 2h5l5-21 1-2 10 1-1 9-7 26-9-1-30-7-17-4 1-11 5-24z" fill="#D2181F"/>
<path transform="translate(906,389)" d="m0 0h10l6 4 4 5 2 5v11l-7 8-5-1-1-1v-7l2-3v-6l-3-4h-7v8l1 7v9l-4 7-6 5-6 2h-8l-7-4-6-9-2-10 4-8 6-6 5 1 2 6-5 7 1 7 2 4 6 1 4-2v-25l4-6z" fill="#D3181F"/>
<path transform="translate(923,533)" d="m0 0 4 1 1 8-7 4h-2l-1 8 3 6 6 1 3-3 6-18 5-5 8-2 10 1 6 5 2 5v14l-5 7-4 3h-7l-2-5 3-5 4-4v-7l-1-2-5-1-3 3-5 16-6 7-3 1h-16l-5-3-4-7-1-5v-8l2-7 6-5z" fill="#D21820"/>
<path transform="translate(399,237)" d="m0 0 4 1 2 4v4l-20 12 4 8v2l7-3 14-8 5 5 1 4-19 11 2 5 3 5v2l10-4 12-7h4l3 5-1 4-16 10-11 7-4-1-13-22-14-23-1-4 13-8z" fill="#D21820"/>
<path transform="translate(953,481)" d="m0 0 3 1 3 11 4 22-2 2-8 1-3-12-2-11-3-1-8 2 1 8 2 8v7l-8 2-3-5-3-17-15 1 5 22v5l-8 2-2-1-3-11-3-18v-6l5-2 45-9z" fill="#D21921"/>
<path transform="translate(923,579)" d="m0 0 5 1 1 5-1 4-8 4-2 4v6l3 4h6l4-5 5-12 5-5 3-1h14l6 4 3 6v13l-4 6-6 5-7 1-3-3v-5l8-5 1-2v-7l-2-3h-5l-9 18-5 5-3 1h-14l-6-4-4-6-1-3v-11l4-8 8-6z" fill="#D2181F"/>
<path transform="translate(927,435)" d="m0 0h9l7 4 4 8 1 4v7l-3 6-5 5-4 1-3-4v-5l3-5-1-9-5-2h-3l-1 21-3 7-7 6-4 1h-12l-6-4-5-10-1-3v-7l4-8 7-5 5 1 2 4-1 4-5 5 1 10 4 3h5l3-4 1-19 2-5 5-5z" fill="#D3181E"/>
<path transform="translate(111,427)" d="m0 0 3 1-1 11-3 8-3-1 2 4-1 10-4 10v1l-1 12-4 25-1 16-1 49 1 41h-2l-2-4-2-1 3 16-1 3h2l-1 10-2 4-2-11-2-28v-44l1-47 4-15 3-24 3-10 2 1v2h2l-3-4 1-12 4-8 1-7 3-7z" fill="#373BED"/>
<path transform="translate(806,264)" d="m0 0h5l5 4-1 8-17 51-5-2-4-4 1-5 1-2v-7l-12-9-5 2-4 4-7-1-4-4 5-5 18-13 14-10zm-4 15-13 9v4l5 4 4-1 5-13z" fill="#D2181F"/>
<path transform="translate(892,349)" d="m0 0 4 2 4 5-2 5-13 17-10 14-10 13-3 1-4-7 1-5 5-6-2-5-6-9v-2l-8 2-6 2-5-6v-3l13-5 16-5 24-7zm-11 13-14 5-1 3 5 7 4-2 9-11v-2z" fill="#D21820"/>
<path transform="translate(347,792)" d="m0 0h1l1 7 5-1v2l5 1h165l1 5 11 8 2 7-2 6h-20l-12-1-1-6-7 1 2-4 7-9-3 1h-30l-16-1 1-3 10 1 6-1h27l8 1 1-2 5 1 1-1h-89l-38 1-49-1v-1h7v-10z" fill="#3539EC"/>
<path transform="translate(615,676)" d="m0 0 4 1 1 4 6 2-2 5h-3v3h2l2 5-1 5 3 2 2-7-2-1 3-3 8 1 4 1-1 7-2 4-2-4-1-4-1 23 1 13 2 5 5 1 2 5-1 4-4-1-8-7-1-3-8 1-3 2h-3l1 6-7-2-3-3 1-5h3v-3l-4-1-1-6-3 2-9 2-1-3 1-4-2-5 5-1 11-13 4-3 2-8-2 1-2 4-4-1-3-2 3-1 2 1-3-3-4-1-1-2-5-2 1-2 20-3v-2l-2-1zm3 13m13 10-5 8-6 3-8 1-7 1-2 3 2 3 12 2-1 3h3v4l-6 2v2l9 3 1-4h5l1 3 4-2v-32zm-14 8 1 2z" fill="#383BED"/>
<path transform="translate(459,211)" d="m0 0 9 1 7 8 3 8v9l-4 6-9 5-7 1 6 19-1 4-7 2-3-5-17-46 1-4 17-7zm1 11-10 2-1 5 4 10 4 1 9-4 2-3-1-6-3-4z" fill="#D2181F"/>
<path transform="translate(216,524)" d="m0 0 4 1 1 2v7l-7 4-1 2v8l4 5 9 2h16l7-4 2-5-4-7-7-4 1-5 2-3 7 1 8 6 3 6v12l-4 6-7 6-10 3h-13l-12-3-9-6-3-4-2-6v-10l3-6 6-5z" fill="#D3171D"/>
<path transform="translate(733,224)" d="m0 0h11l8 4 6 8 1 3v8l-2 2h-6l-3-3-3-9-2-1h-9l-6 5-6 12-1 4v8l4 5h8l7-5 4 1 3 4-2 5-6 5-5 2h-8l-7-3-5-4-3-5-1-4v-11l4-11 5-9 5-6z" fill="#D3171E"/>
<path transform="translate(597,189)" d="m0 0 10 2 2 6 5 33 2 1 3-10 8-21 3-7 10 1-1 6-12 31-8 18-4 2-6-2-5-16-6-34-2-9z" fill="#D21820"/>
<path transform="translate(390,816)" d="m0 0 4 1v5h33l4-1h23l28 2h11v-2h2v2l8 2v-5h1v6h12v1h-17l-51-2h-13l-9 1-3 2-11 1-6-2-5 2h-5l1 2 11-1 2 1-1 5-3 1-4-1 1 6 1 1v11l-2 2-4 1-1 4-15-1-8-3 1-5 2-1 1 5 4-1v-6l-1-2-3 2-1-5 6-5h2l2-4 6-2 1-5-14-1-4-1 1-4zm1 6m10 10m-7 3-4 7-1 14 4 1v-10l2-10 4-1zm4 12v3h2l-1-3z" fill="#545AD7"/>
<path transform="translate(808,999)" d="m0 0h2v4l2 2-26 13-40 16-12 4-4 2-26 8-30 8-31 8-3-1 8-6 4-4 41-9 23-7 14-4 35-14 27-12z" fill="#3538ED"/>
<path transform="translate(269,354)" d="m0 0 6 1 3 3-2 5-7 12 1 5 5 3 4-1 5-7 3-6h3l6 4-2 6-7 11 5 4 13 8 1 4-3 6-5-1-12-8-33-21 1-5 7-11z" fill="#D3181E"/>
<path transform="translate(237,643)" d="m0 0 4 1 3 8 2 9 18-4 5-1 2 3v8l-31 7-20 5h-5l-3-8-4-20v-4l2-1h8l2 6 2 13 1 2 11-3-1-8-1-4v-7z" fill="#D11921"/>
<path transform="translate(201,600)" d="m0 0h11l2 21 13-1-2-19 1-1h9l1 1 1 8v10l16-2h9v10l-48 5h-10z" fill="#D21820"/>
<path transform="translate(425,563)" d="m0 0 6 1 2 1v17l-9-1-1 2 10 1v52l-1 4h-3v27h2l2-4v5l-1 1h-10l1 3-4 2v-98l1-10 5-1zm4 2-1 1v13l4 1v-14zm-1 21v27l4 1v-27zm0 33-1 6 1 9h4v-14z" fill="#3538EE"/>
<path transform="translate(751,800)" d="m0 0h54l1 3h4l-1-2 41 1v1l-10 1 3 2-1 5-3 1-3 3-2-1-1 2-6-1v-2h-3v3l-12 1-3-1-1 4-3-3v2l-6-1-19-4-1-1-16-3-27-3-1 4h-2v-5l-4-2v-2l10 1 14 1 6 1v2h13l1-3 5-1h-27l-11-1v-1zm45 2 1 2h3v-2zm18 0m4 1-2 5h-7l1 3h-3l1 5 2-1v-2l4 1h7l4-4h2l-1-4-4 1-3-1v-2h9l1 2v-3zm13 0 2 2 3-2zm-33 4v2l2 1v2l-3 3h3l3-1 1-3-1-3zm7 1m31-1-4 1 1 2 4-1zm-57 2m3 0 1 2 2-1zm55 0 1 2zm-50 1 4 2 2-2z" fill="#605FE5"/>
<path transform="translate(1034,760)" d="m0 0 4 4-2 4-2 10-13 25-12 20-9 14-14 19-11 14-18 22-1-4 1-2h-2l1-4 11-13 13-17 13-18 12-19 6-10 6-12 10-19 6-13z" fill="#2F33EE"/>
<path transform="translate(687,795)" d="m0 0h4l-1 3-3-1 4 4 2 1v2h-2l-2 4-6 1v2l8-2 1-1h6l2 2 11 4 2 1v7l-4-1v2h-2v2l5-1v4l2 1-11 1-3 1h-5l-5-1v-2h-2l-1 3-2-2h-12l-3-3 3-7h2v-2h-3v-2l-4-2-2-8 5 1 3-3-40-1v-1l47-1 4-2zm-5 6 1 2 2-2zm-2 8m18 2m5 5m-13 1m14 0m-5 1 1 2 1-2zm6 0m-8 3m9 4-1 3h2zm-15 1 3 2v-2z" fill="#3438EE"/>
<path transform="translate(589,794)" d="m0 0 3 1 2 2-6 1v26l-1 4h-47l-4-2 1-9 6-1 8 1-2-3 6 2h3l-3-3-4-2-1-2-9-2-1 2v-5l-1 4h-4l-2-2-5-1-4-3 18-2 2 2-1-3 5-1 4 1v2h-4v3h2v2h7l4 8 11 5v6h4v-25l7-5zm-5 3 1 3 2-3zm0 4 2 2v-2zm-54 2v1l7 1 2-2zm12 1m42 4 2 4v-4zm1 8v5h1v-5zm-46 4-1 1v5l1-2 3-1-1-3zm46 2 1 2z" fill="#363AED"/>
<path transform="translate(390,1016)" d="m0 0 7 1 31 12 30 10 23 6 24 5 31 5-3 1v5l2 1-7 1-23-5-19-5-30-8-33-11-13-5-11-4-10-4 1-3-2-1z" fill="#1619F0"/>
<path transform="translate(738,838)" d="m0 0 6 1 1 4 4 1v-2l9 2 3 5-1 7 7-1-4-5-1-5-3-3v-3l6 1 4 4h3l2 3 5-3 4 2 3 1 8-1v5h2l-1 2-2-1 1 4h-4l2 3-1 4-2-3-10 1 1 3-1 1v13l-3 2-6-1 2-4h5v-3l-5 1-3-1-2 5-5 1-2-1v-7h1v5l4-2h3v-4l-6-1-2-3-5 1 1 3h-3l-2-2 1-2-9-2-9-1v-2h14l5 1 3-7v-2l-1-4-4-1v8l-2 1-4-4-5-10v-3zm52 13m-8 0-8 2v2l5 1h11v-4zm-9 5 1 2zm-11 5 1 3 6-1-2-2zm14 0m-7 2v4h6v-2h3v-2z" fill="#5158D6"/>
<path transform="translate(315,299)" d="m0 0 4 1 4 5-1 4-5 4-1 4 15 14 16 15 2 4-7 6-8-7-8-8-8-7-9-9-4 1-6 7-6-3-2-2 1-4 15-16z" fill="#D3171E"/>
<path transform="translate(485,880)" d="m0 0h16l9 2 5 3 2 4v8l-3 5-3 2 2 5 6 8 1 4h-8l-5-5-8-11-5-1-1 5-1 10-7-1-1-2v-33zm8 7-1 7 2 2 4 1h7l3-2v-5l-2-2z" fill="#CE1C28"/>
<path transform="translate(692,899)" d="m0 0 8 1 11 19 3 5 2-23 7 1 1 2v25l-1 11h-6l-5-3-10-18-2-1v18l-2 2h-5l-1-1-1-7v-26z" fill="#CD1C2A"/>
<path transform="translate(658,895)" d="m0 0h10l8 3 7 8 2 5v13l-5 8-7 4h-13l-7-4-6-9-1-3v-12l5-8 4-4zm2 8-4 4-2 9 3 9 5 3h9l4-4 1-2v-10l-3-6-5-3z" fill="#D11923"/>
<path transform="translate(840,291)" d="m0 0 4 1 4 4-2 4-3 1-2 4-24 24 1 4 13 13-2 5-4 4-8-7-15-15 1-5 10-10 6-7 19-19z" fill="#D3171D"/>
<path transform="translate(573,887)" d="m0 0h8l10 4 6 8 2 5v9l-3 8-5 5-4 2h-13l-8-5-5-7-2-11 3-10 7-7zm0 8-4 4-1 3v7l3 8 4 3 7 1 5-3 3-5v-8l-3-6-5-4z" fill="#D01A24"/>
<path transform="translate(614,892)" d="m0 0h14l8 4 4 6v3h-7l-5-4-3-1h-8l-4 5v11l4 6 4 2h7l4-4v-1l-7-1-1-1v-6h15l2 5v9l-4 5-6 2h-12l-8-4-6-7-2-5v-11l3-7z" fill="#D01A24"/>
<path transform="translate(753,866)" d="m0 0 2 3 5-2 2 1v2h-2v4l-4 1v2l4 1 1 5-5 5 1 2 3 1v4h-11l-32-2-33-4-27-1-31-4-18-3 4-2h19l12 3 9 2-1-10 5 1v4h5v6l29 1 10 2v-6l9-1v6l-1 2 15 1 3 1 12 1h10l1-7h-10l-2-2 1-4h8l1 2-1 2h2v-6l-3-8 3-1h4z" fill="#5259D5"/>
<path transform="translate(412,872)" d="m0 0h11l6 4 4 6v5h-5l-8-7h-8l1 4 13 5 7 5 2 4v8l-5 6-3 1h-12l-7-3-5-6-1-7 3-1 5 3 6 5 7 1h2v-6l-14-5-8-7 1-9 5-5z" fill="#D01A25"/>
<path transform="translate(454,876)" d="m0 0 11 1 6 3 5 6 2 5v15l-3 5-4 4-8 2-10-1-8-5-4-6-1-3v-13l3-7 6-5zm2 7-5 3-3 4v11l5 7 4 2h6l5-3 2-7-1-9-4-6z" fill="#D11921"/>
<path transform="translate(530,884)" d="m0 0h13l7 3 3 6v5l-6-2-7-4h-7v3l18 8 3 4 1 9-4 6-3 2h-13l-8-4-4-7 1-5 6 2 5 5 7 2 3-2v-4l-9-4-8-4-4-5v-8l4-5z" fill="#CE1B28"/>
<path transform="translate(620,839)" d="m0 0h9l8 6 1 9-4 1-15-4v-4l5-1h6l-1-1h-8l-5 2-8 3-1 2 11 1 13 3 4 1 1 2 6-1v-2h-2v-2l2-1-3-6v-2l6 2 2 4-3 5-2 7-5 2-7 6 4 1 5-2v-3h2l-1 6-2 2-13-1v-2l-2-1h2l-1-2h-5l-1 4-5-2v-2l4-1-1-6 8 1-5-4-1-4h-4l-1 2-1 10-8-2-1-9 1-7h2l2-5 10-4zm10 22-3 2v2l5-2 2-2z" fill="#4E54D9"/>
<path transform="translate(821,652)" d="m0 0 4 1v2l-4 2 1 3v3l-4 1-2 3h8v2l-8 2-13 1-7-1-1 1h-11v2l-4-1 1-2h-21v-1h11v-2l-4 1-2-4h3l2 1-2-5-5-2v-2h10l9 4 6 5-3-11h3l4 5 1 6 2 1 1-7 4 1 4 2 2-4 6-5z" fill="#3539ED"/>
<path transform="translate(714,839)" d="m0 0h5l1 5-6 4-4 6-1 27-8 3-1-2-11-2-19-1 2-2 5-1 6 1v-4l-7-2 2-3h5v-6l3-3h11l1-6 8 1-2-1 1-5 3-3h6zm-15 17 2 3 1-3zm0 3-9 6 1 5 2 3v5l6-1 1-4-7-5 1-1h5l1-1v-7z" fill="#585BDF"/>
<path transform="translate(221,244)" d="m0 0 1 4-5 5-4 6 2 1-15 16-12 14-14 19-12 18-12 20-12 23-11 24-8 21-3 11-3-1 1-9 15-36 14-28 8-13 13-22 11-16 15-20 8-10 11-13z" fill="#2A2DEE"/>
<path transform="translate(575,833)" d="m0 0 4 1 1 7 6 2h5l7-2h3v-6l4-1-3 12-2 2h-6l1 4-3 2 3 1 1 3 2 1-1-7 4-3 1 4-1 7h-2l3 5v2h-2l-1 8-2-1 1-3h-10-4v-9l-9 1-2-3 7-1 2-4 3-4 3-1 1-2-5 2-5 7h-3l-2-4-4-4-4-2h2l1-13zm-4 2v6l3 6h2l1 4 2-3v-4l-2-1-1-7zm22 12m2 12-3 7 1 3 4-1 1-6z" fill="#545AD7"/>
<path transform="translate(1063,682)" d="m0 0 2 1-1 6h2l-4 17-6 19-10 27-10 22-2-4h2l-1-3 2-3-3-4 3-9 6-15 8-25 5-18 4 2 1-3 2 1v-3l-3-2v-3h2z" fill="#3438ED"/>
<path transform="translate(249,576)" d="m0 0h10l1 1v9l-2 1-56 1-2-3v-6l1-2z" fill="#CF1A25"/>
<path transform="translate(1071,604)" d="m0 0h4l-1 13 1 3-3 3 2 9v21l-7 34-1 2h-2l-1-3v-3l-1 2h-2l1 3 3 3-1 2h-2l-3 3h-1v-7l8-39 5-41z" fill="#1317F0"/>
<path transform="translate(418,552)" d="m0 0 7 1 19 10 6 5-1 2h-7l-5-2-1 16 11 2-3 3-6-2-1 1-1 17v15l-1 11 1 6-1 4-3-1 1-56h-7l-3-1 1-3 9 2v-17l-8-2v2l-5 1-1-4 1-7-14 10-6 5-1 26h-2v-27l7-7z" fill="#060AF1"/>
<path transform="translate(651,196)" d="m0 0 9 2-1 10-6 31-2 14-1 2-9-1-1-1 1-10 5-27 4-18z" fill="#D11922"/>
<path transform="translate(776,243)" d="m0 0 7 2 1 4-8 14-15 25-5 9-4-1-4-3v-5l17-28 9-15z" fill="#D21820"/>
<path transform="translate(334,451)" d="m0 0 9 1 5 1 2 7 2 22 1 2-7 1-12-2-1-3-1-5h-1v-23z" fill="#FEFEFC"/>
<path transform="translate(880,953)" d="m0 0h3l1 4-4 2-1 5-24 16-14 9-25 14-6 1-1-3 1-3 20-11 22-14 20-14z" fill="#1114F0"/>
<path transform="translate(390,816)" d="m0 0 4 1v5h33l4-1h23l28 2h11v-2h2v2l8 2v-5h1v6h12v1h-17l-51-2h-13l-9 1-3 2-11 1-6-2h-26l-4-1 1-4z" fill="#575CD9"/>
<path transform="translate(498,835)" d="m0 0h4v14l5-1v2h5l-1-2-5-2-1-6 2-1v4l5 1-1-5h-3l1-3 6 1 1 3 3 1 3 5 3 3v14l-4 6-2-4-1-4-3 3h-7l-5-3v-10l-2-1-1-4h-3v4l-3 1v-12zm15 10m4 3 2 11 2-1-1-7-1-3zm-8 8v3h3v-3z" fill="#5259D6"/>
<path transform="translate(565,848)" d="m0 0 7 6 1 6-3 3h-2l5 6-1 2-2-1-1 4 28 2 7 2-1-2v-9l10 1-1 12-8 1-41-4-14-2-6-3v-1h13l4 2v-6l2-5-2-1 1-7zm-2 6v6l5 2-2-6-1-2z" fill="#5158D4"/>
<path transform="translate(723,858)" d="m0 0 9 2 3 3 4 1 2 5 1 6-3 2h-11l-4 4h-8-3l-2-3-1-7 4 2 1 5 3-1v-2h3l-3-3-8-5v-6l6-1v-1zm11 7 1 3zm-1 4m3 0v2h2v-2z" fill="#5259D5"/>
<path transform="translate(433,642)" d="m0 0 2 2v27l-2 4-6-2 1 9v10l3 1-3 3v19l-1 2-7 1v-44l2-3v-2l10-1v-25z" fill="#3134EE"/>
<path transform="translate(630,692)" d="m0 0 8 1 4 1-1 7-2 4-2-4-1-4-1 23 1 13 2 5 5 1 2 5-1 4-4-1-8-7-1-3-8 1-3 2h-3l1 6-7-2-3-3 1-5h4v-4l3 1h5l1-4 6 1 1 2 3-1v-30l1-2h-2l-1 3-2-1 1-5-2-1z" fill="#393CEC"/>
<path transform="translate(473,1044)" d="m0 0 8 1 24 5 31 5-3 1v5l2 1-7 1-23-5-19-5-12-3z" fill="#373AED"/>
<path transform="translate(1034,760)" d="m0 0 4 4-2 4-2 10-13 25-7 12-6 2h-3l2-5 20-38 6-13z" fill="#1014F0"/>
<path transform="translate(542,841)" d="m0 0 7 1 3 2v3h8l3-3 2 1-2 4h-2l-3 9-2 3 5 2 1 2-1 2-7 1-15-2-1-5v-3l-3-3v-2h4v-6l-2-1v-3zm2 6-4 6v10l4 1 6-1 3-8v-4h-2l-4 7-4 2 1-7 5-5z" fill="#565BD8"/>
<path transform="translate(454,557)" d="m0 0h1l1 9v110l11-2-2 6-5 1-6-1-1-5v-113z" fill="#383CE8"/>
<path transform="translate(92,609)" d="m0 0 4 2v3h2l8 49v5l-4 2-4-1-4-20v-11l2-10h-2l-1-11-1-2z" fill="#1114F0"/>
<path transform="translate(808,999)" d="m0 0h2v4l2 2-26 13-20 8-18 7h-2v-2l6-3 2 1 1-3-2-2 21-9 18-8z" fill="#373AED"/>
<path transform="translate(396,649)" d="m0 0h2l1 62 7-3 1 4-1 1h-12l-1-5 1-5v-10l-2-4h-2l-1-3 1-1 1-10v-11h-4l2-4 5-7z" fill="#3135EE"/>
<path transform="translate(511,772)" d="m0 0 1 2-10 5-12 5-6 2-28 2-77 1-10 2h-4v-3l5-1 78-2 1-3 7 2v-2l27-1 12-3z" fill="#2F33EF"/>
<path transform="translate(639,845)" d="m0 0 6 2 2 4-3 5-2 7-5 2-7 6 4 1 5-2v-3h2l-1 6-2 2-13-1v-2l-2-1h2l-1-2h-5l-1 4-5-2v-2l4-1-1-6 8 1-5-4-1-4-4-2 6 1 15 3 1 2 6-1v-2h-2v-2l2-1-3-6zm-9 16-3 2v2l5-2 2-2z" fill="#5A5DDD"/>
<path transform="translate(701,713)" d="m0 0 4 2 8 6 6 1 2-2h5l2 3 4 2-1 4-5 2 6 9-3 1-11-8-4 3-5 1-1-5-1-2-4-2 2-4h3l-6-8z" fill="#3538ED"/>
<path transform="translate(345,506)" d="m0 0 4 1 18 8 9 6 1 5-14-8-15-8 1 8 16 8 12 5v19h-1v-6h-2v-7l-26-13-1 3-3-15-3-3z" fill="#3A3FE8"/>
<path transform="translate(588,798)" d="m0 0h5l2 2 5 1 2 1-1 2-6-1-1 4v16l4 1v-7l-3-1v-11h2l3 8v2l4 1 1 1 1 7 2 2-2 2h-19v-28z" fill="#2F33EE"/>
<path transform="translate(753,866)" d="m0 0 2 3 5-2 2 1v2h-2v4l-4 1v2l4 1 1 5-5 5 1 2 3 1v4h-11v-10h-10l-2-2 1-4h8l1 2-1 2h2v-6l-3-8 3-1h4z" fill="#5058D4"/>
<path transform="translate(796,670)" d="m0 0 10 1 6 2v6l3 2v2h-3v-2l-10 2-2-2v-3h-5l-5 6h-9l-3-2v-6l5-2 1-2 11-1z" fill="#0408F2"/>
<path transform="translate(791,128)" d="m0 0 6 2 23 13 11 6 14 9 6 4-3 3h4l2 5 8 1-1 2 3 3-1 3-11-8-18-13-19-13-24-16z" fill="#1619EF"/>
<path transform="translate(699,810)" d="m0 0 10 3 4 2v7l-4-1v2h-2v2l5-1v4l2 1-11 1-3 1h-5l-5-1v-2h-2l-1 3-2-2h-12v-1h7v-3l9 1 6-3 1-3h-3v-2l-3-1 2-1 6 2-2-7zm4 6m1 1m-5 1 1 2 1-2zm6 0m-8 3m9 4-1 3h2zm-15 1 3 2v-2z" fill="#5758E6"/>
<path transform="translate(751,1025)" d="m0 0h5l-2 4-8 2v3l-12 4-4 2-19 6h-7v-2l-5 2-1 1h-2v-4l20-6 14-4 10-4z" fill="#181BEE"/>
<path transform="translate(520,804)" d="m0 0 4 1 10 7-2 9-5-1-7 2-7-2-2-1v2l-7-2v-7l7 1 2 4 8-2-6-6 1-4z" fill="#070BF1"/>
<path transform="translate(152,337)" d="m0 0 2 3-14 26-10 21-11 28-3 11-3-1 1-9 15-36 14-28 8-13z" fill="#2F33ED"/>
<path transform="translate(104,668)" d="m0 0h3l2 9-1 5h-5l4 11v5l3 1v3 2l2 1-2 3h2v4l5 8 1 5 2 4-4-1v5l-2-3-11-37-5-21v-3h5z" fill="#363AED"/>
<path transform="translate(697,688)" d="m0 0h5l2 2v6l-4 4h-14l1 4-1 3-5 2-4 1-1-5 1-3 2-1 2-5 8-4h2v-2z" fill="#0408F2"/>
<path transform="translate(655,851)" d="m0 0 1 3h3v2h2l1 16v7h-6l-1-4-11-4-1-6 4-5 4-1zm-8 10-1 5 2 4h3l1-6-3-3z" fill="#3236EE"/>
<path transform="translate(503,813)" d="m0 0h1l1 6 6 2v-2l7 2 4-1 4 1 1-2 5 2 1-6 2-2 2 2 1 6-2 6h-20l-12-1-1-6-7 1 2-4z" fill="#3135EE"/>
<path transform="translate(630,683)" d="m0 0 1 3 17 4v3l-3 3h-2l2 7-4 4h-2v-5l1-2v-5l2-1-14-1 1 5-2 6-4-3 1-7-1-3h-2v-3h5l2-4z" fill="#0408F1"/>
<path transform="translate(111,427)" d="m0 0 3 1-1 11-3 8-3-1 2 4-1 10-4 10-3 1v-3h-2l1-5 2 1v2h2l-3-4 1-12 4-8 1-7 3-7z" fill="#373AEC"/>
<path transform="translate(500,845)" d="m0 0h1l1 8v9l-1 4 19 2 2 1v2h-14l-13-1-3-2 2-2-1-11-1-4 5-1v-4z" fill="#4B52D7"/>
<path transform="translate(480,839)" d="m0 0 5 1 2 5v3l2-3 2 1v6l-3 4 2 6-4 2-2-2-5 1-1-1v-12l-1-4z" fill="#5158D4"/>
<path transform="translate(575,833)" d="m0 0 4 1 1 7 6 2h6l-1 4-7 3-5 7h-3l-2-4-4-4-4-2h2l1-13zm-4 2v6l3 6h2l1 4 2-3v-4l-2-1-1-7z" fill="#545AD9"/>
<path transform="translate(412,830)" d="m0 0 3 1v6l-1 2v20l4 1h6l2 3h-11l-17-2v-1h8v-11l1-10 4-2z" fill="#555AD7"/>
<path transform="translate(824,668)" d="m0 0 9 1 9 4v3l-12-1-4 4h-5l-3-2h-5l-2 2v-6l-5-1v-1l15-2z" fill="#3236ED"/>
<path transform="translate(821,652)" d="m0 0 4 1v2l-4 2 1 3v3l-4 1-3 4-7-1-3-2-4 2-2-2 2-2h3l2-4 6-5z" fill="#3538EC"/>
<path transform="translate(700,860)" d="m0 0 3 2h3v-2h2v22l-5 1-2 1-2-6v-5l-6-4v-4l1 2 5-1z" fill="#2F33EE"/>
<path transform="translate(733,818)" d="m0 0h9v2l-5 1-2-1 1 2 8 1h4 5l2-1 1 3 1 1h6l2 3-1 1h-7l-5-2v2l-9-1v2l-8-2-5-1-1-5 3-1zm-1 6-1 2h3v-2z" fill="#6261E6"/>
<path transform="translate(1011,815)" d="m0 0 2 1-12 20-5 6-7-2 7-11 8-12z" fill="#3437ED"/>
<path transform="translate(443,675)" d="m0 0 7 4 1 4-3 1-2 2-2-4v28h-3l-4-2 1-9 4 2v-7l-3-1v-2h-2v7h-1v-15l1-3 5-3z" fill="#615EEE"/>
<path transform="translate(722,635)" d="m0 0 5 1v6l-5 5h-3l-1 7-3 3h-5l-1-1v-11l4-1h2z" fill="#1018E6"/>
<path transform="translate(661,835)" d="m0 0h2v3h3v2h2l8 8-3 8-9-4-2-4-4-1-3-2v-3l5-2 2 1zm3 9-1 4 2-1z" fill="#5258D6"/>
<path transform="translate(542,469)" d="m0 0 7 2 6 3 5 2 1 3-3 4-7-1-14-7 1-4z" fill="#076E20"/>
<path transform="translate(908,936)" d="m0 0 3 2-10 9-13 10-9 6-1-2h2v-2l3-2v-4l-2-1 9-7 2-1h5l6-5z" fill="#3437EE"/>
<path transform="translate(390,816)" d="m0 0 4 1v5l11 1v3l-4 1h-21l-4-1 1-4z" fill="#383BED"/>
<path transform="translate(1069,464)" d="m0 0h1l5 29-1 3-1-1-1 7-3-1-2 3-3-21v-5l3 3-1 4h2l1 2 1-2-2-9z" fill="#373AED"/>
<path transform="translate(761,861)" d="m0 0 2 2 3-1 3 1v4h6v-2h3l1 13-3 2-6-1 2-4h5v-3l-5 1-3-1-2 5-5 1-2-1v-7h1v5l4-2h3v-4l-6-1-1-1z" fill="#575AE1"/>
<path transform="translate(604,802)" d="m0 0 4 2 2 12h2l-1 7 4-1 1 3v4h-17v-1l6-1v-3-7l-2-6v-8z" fill="#3B3EEA"/>
<path transform="translate(360,806)" d="m0 0h8l2 1-1 5-1 3 4-1v-8l15 1-2 1-1 2-9 3-5 5-7-1v-3l-9-3 1-3 3-1 1 1z" fill="#575CDA"/>
<path transform="translate(509,836)" d="m0 0 6 1 1 3 3 1 3 5 3 3v14l-4 6-2-4-1-6 2-1-1-10h-5l-3-9h-3z" fill="#575BDC"/>
<path transform="translate(620,839)" d="m0 0h9l8 6 1 9-4 1-15-4v-4l5-1h6l-7-2 3-3-6-1z" fill="#5157D8"/>
<path transform="translate(511,772)" d="m0 0 1 2-10 5-12 5-5 1-31 1 4-1 1-3 24-1 12-3z" fill="#5B5EDD"/>
<path transform="translate(738,838)" d="m0 0 6 1 1 4 4 1v-2l9 2 3 5-1 6h-3l-2-5v-2l-4-1v8l-2 1-4-4-5-10v-3z" fill="#5259D5"/>
<path transform="translate(776,27)" d="m0 0 2 1 1 7v17l-1 12h-2l-1 4-2-11v-12z" fill="#3033EE"/>
<path transform="translate(593,799)" d="m0 0 7 2 2 1-1 2-6-1-1 4v16l4 1v-7l-3-1v-11h2l3 8v2l3 1h-4v9l1 2h-9v-21z" fill="#4748ED"/>
<path transform="translate(457,805)" d="m0 0 10 1 6-1h27l7 1-2 4v-2l-3 1h-30l-16-1z" fill="#605FE5"/>
<path transform="translate(690,816)" d="m0 0 9 2 1 3-3 4 1 1 6 2-1-3 3 1-1 2h2v-3l5-1v4l2 1-11 1-3 1h-5l-5-1v-2h-2l-1 3-2-2h-12v-1h7v-3l9 1 6-3 1-3h-3v-2l-3-1zm7 5m-6 5 3 2v-2z" fill="#6665E6"/>
<path transform="translate(767,701)" d="m0 0 4 1-3 10-4 1-10 2h-5l1-4 4-2h4l1-3z" fill="#0408F2"/>
<path transform="translate(1059,380)" d="m0 0 1 4h2v10l1 14v10l4 17-3-3-3-12-3-19z" fill="#3B3DED"/>
<path transform="translate(275,214)" d="m0 0h2l-1 3-6 4-7 3-10 6-4 2-2 3-2-3v-3l5-4 1-2 6-1 16-7z" fill="#3539ED"/>
<path transform="translate(751,1025)" d="m0 0h5l-2 4-8 2v3l-12 4-4-1 1-5z" fill="#171BEF"/>
<path transform="translate(390,1016)" d="m0 0 7 1 13 5-1 3h2v2l2 1-3 1-11-4-10-4 1-3-2-1z" fill="#1B1FEF"/>
<path transform="translate(751,800)" d="m0 0h54v1l-12 2h-42l-11-1v-1z" fill="#3437EE"/>
<path transform="translate(544,798)" d="m0 0 8 1v2h-4v3h2v2h5v1l-8 2-6-2-1 2v-5l-1 4h-4l-2-2-5-1-4-3 18-2 2 2-1-3zm-14 5v1l7 1 2-2z" fill="#4B4BEC"/>
<path transform="translate(678,868)" d="m0 0h5l2 6 8 2 1-3 1 4h4l1-3v7l-16-1-14-1 2-2 5-1 6 1v-4l-7-2z" fill="#555AD7"/>
<path transform="translate(535,853)" d="m0 0h5l1 8-1 2h10v-2l10 1 2 3-1 2-7 1-15-2-1-5v-3l-3-3z" fill="#575CD9"/>
<path transform="translate(541,820)" d="m0 0 2 1v4l7 1 12-2 2 1v-5l5 2v3l4 2v1h-33l-4-2 1-5 2 3 2-1z" fill="#6161E6"/>
<path transform="translate(177,298)" d="m0 0h1v6l-11 15-12 19-2 1 1-5 10-17 11-16z" fill="#282BED"/>
<path transform="translate(729,802)" d="m0 0 10 1 14 1 6 1v2l5 1v1h-10l-18-2-1 4h-2v-5l-4-2z" fill="#615FEA"/>
<path transform="translate(345,506)" d="m0 0 4 1 18 8 9 6 1 5-14-8-15-8v8h-1l-1-7-2-4z" fill="#535AD6"/>
<path transform="translate(104,668)" d="m0 0h3l2 9-1 5h-5l1 6-3-3-3-13v-3h5z" fill="#3438ED"/>
<path transform="translate(692,699)" d="m0 0 5 1v4l3 3 2 6h-3l-6-7v-4h-2l2 6-8 1v3h-2l-1 3-1-3 2-5 3-3v-4z" fill="#383CEA"/>
<path transform="translate(418,552)" d="m0 0h2v3l-14 10-6 5-1 26h-2v-27l7-7z" fill="#2429E9"/>
<path transform="translate(916,807)" d="m0 0h2l1 4v18l-1 9h-2l-1 3-1-1v-17z" fill="#393CEE"/>
<path transform="translate(428,838)" d="m0 0 2 1-1 5-2 2-3 9-5 3-3-3 1-5 6-7z" fill="#5259D5"/>
<path transform="translate(395,826)" d="m0 0 9 1-3 2h-5l1 2 11-1 2 1-1 5-3 1-4-1-1 2-7-3-1 2v-3l-2-1h2l1-5-3-1z" fill="#6463E7"/>
<path transform="translate(578,604)" d="m0 0 5 3 2 9 15-7 4 1-16 8-6 4h-3v-9z" fill="#272CE8"/>
<path transform="translate(603,867)" d="m0 0 10 1-1 12-8 1-5-2v-1h5l-1-2z" fill="#4F57D2"/>
<path transform="translate(1049,397)" d="m0 0 2 2 8 22 5 17v5l-2-1-3-5v-7l-2-1-3-14-5-12z" fill="#3B3DED"/>
<path transform="translate(783,802)" d="m0 0h13l1 3-7 1 3 1v2h-5l-2-2-4 2h-10l1-5 9-1z" fill="#4F56D5"/>
<path transform="translate(791,128)" d="m0 0 6 2 23 13 8 4-1 3-3 1-33-22z" fill="#3E42E9"/>
<path transform="translate(786,840)" d="m0 0h7l1 2 7 2 2 4 4-2-1 5-7 3-3-1 2-2-8-9-3 2h-6v-3z" fill="#5A5EDC"/>
<path transform="translate(715,815)" d="m0 0h8l6 2v3l-7 2-3-1-1 5h4l1-3 4 1h-2l-2 4-3 1-6-1z" fill="#615FE9"/>
<path transform="translate(427,829)" d="m0 0 3 1-7 7-2 1-1 7-5 5v-11l1-2v-5l1-1 9-1z" fill="#5F60E0"/>
<path transform="translate(384,122)" d="m0 0h9l-1 4-14 8-4-7z" fill="#3135EE"/>
<path transform="translate(164,830)" d="m0 0 5 2 7 8 5 10 3 3-2 4-12-16-6-10z" fill="#3538ED"/>
<path transform="translate(433,642)" d="m0 0 2 2v27l-2 4-5-2v-2l-3 3-2-1 1-2h-2v-2l10-1v-25z" fill="#0408F2"/>
<path transform="translate(221,244)" d="m0 0 1 4-5 5-4 6 2 1-11 12-1-4-2-1 9-10 9-11z" fill="#383BED"/>
<path transform="translate(630,692)" d="m0 0 8 1 4 1-1 7-2 4-2-4-1-4-2 14h-1v-12h-2l-1 3-2-1 1-5-2-1z" fill="#3235ED"/>
<path transform="translate(390,619)" d="m0 0h2l1 3-1 15-1 3h-2l-5-8 1-5 3-7z" fill="#0408F1"/>
<path transform="translate(382,601)" d="m0 0 5 3 4 5-1 6-4 1v2l-4 2z" fill="#0408F1"/>
<path transform="translate(111,427)" d="m0 0 3 1-1 11-3 8-3-1 1 4h-2l-2-5 2-3 1-7 3-7z" fill="#4446EC"/>
<path transform="translate(772,852)" d="m0 0 4 1h-2v2l16 1 2 3-1 4-2-3-10 1 1 3-2 1v-2h-9v-1l5-1-2-2zm1 4 1 2z" fill="#6C68EB"/>
<path transform="translate(390,662)" d="m0 0 2 2v11l-1 10-3 1-1-7-2-1v-6l4-9z" fill="#0408F1"/>
<path transform="translate(725,839)" d="m0 0 4 1-2 6h-2l-1 4h-2v2h-2l-2 5-5 1-3-3 4-4h2v-3l7-2z" fill="#565BD8"/>
<path transform="translate(685,841)" d="m0 0h2v2l9 2 1 4-4 4-7-1-2-1-1-6z" fill="#5258D9"/>
<path transform="translate(568,1058)" d="m0 0h12l9 1 2 4-1 1-14 1-7-1 1-3 4-1 2 1 2-1-10-1z" fill="#3539EE"/>
<path transform="translate(562,844)" d="m0 0 3 1-2 4h-2l-3 9-2 3h-5l2-13 7-1z" fill="#5359D5"/>
<path transform="translate(588,798)" d="m0 0h5l-1 8-1 19-4-1v-24z" fill="#0509F1"/>
<path transform="translate(714,839)" d="m0 0h5l1 5-6 4-5 8-5-3 1-5 3-3h6z" fill="#555ADB"/>
<path transform="translate(498,835)" d="m0 0h4v14l2 1h-3l-1-4h-3v4l-3 1v-12z" fill="#555BD8"/>
<path transform="translate(314,981)" d="m0 0h6v2l3-1 11 7 10 8 1 2-6-2-13-8-12-7z" fill="#373BEC"/>
<path transform="translate(830,674)" d="m0 0 7 1-3 3-5 2 1 6-4 1-5-6-9-2 1-3 7 1 6 2 1-2z" fill="#565BD9"/>
<path transform="translate(383,641)" d="m0 0 4 2 4 7-2 9-5 1-1-8z" fill="#0408F1"/>
<path transform="translate(961,713)" d="m0 0 3 2h-2l1 6-3 9v3h-2l1 7-2 15h-1l-1-15 3-18z" fill="#3B3EEC"/>
<path transform="translate(794,708)" d="m0 0h1v13l-3 16-2 6h-2l-2 2 2-10 3-10 2-16z" fill="#2B2DEE"/>
<path transform="translate(247,147)" d="m0 0h2l1 24v20l-2-3-1-7z" fill="#363AEC"/>
<path transform="translate(686,861)" d="m0 0 1 2h2l3 7 1 1v5h-5l-5-5v-7z" fill="#363AEB"/>
<path transform="translate(809,801)" d="m0 0 41 1v1l-18 1-2 1v2l-3 1h-3l-4-1-1-3h9l1-1h-11l-1 4v-3h-7z" fill="#6765E7"/>
<path transform="translate(907,211)" d="m0 0 4 2 1 2 4 2v2l4 2 6 7-1 3-5-3-13-13z" fill="#393CEE"/>
<path transform="translate(575,833)" d="m0 0 4 1-2 4-1-2-5-1 2 7 1 4 2 1 1 5-3 1-4-4-4-2h2l1-13z" fill="#595CDE"/>
<path transform="translate(552,754)" d="m0 0 2 1-5 4-19 8-9 2v2l-4 2h-4v-2l15-7 7-2 6-3 2-2z" fill="#2F33EF"/>
<path transform="translate(1083,496)" d="m0 0h1v6h2l1 2v8l-2 16 2 1-4-1-1-13z" fill="#393CED"/>
<path transform="translate(417,822)" d="m0 0 5 1 3 2h-2v3l-11 1-6-2-2-1 1-3z" fill="#575BDB"/>
<path transform="translate(384,688)" d="m0 0 3 1 3 3v11l-3 3h-3z" fill="#0408F2"/>
<path transform="translate(754,822)" d="m0 0 2 3 1 1h6l2 3-1 1h-7l-5-2v2l-8-1v-4l4-2h5z" fill="#6665E6"/>
<path transform="translate(351,629)" d="m0 0 5 1 11 5 3 1 1-2v3h-2l-1 4-16-7z" fill="#1B1FEE"/>
<path transform="translate(90,609)" d="m0 0h1v6h2l2 10-1 3h2l-1 10-2 4-2-11-1-11z" fill="#3B3EEC"/>
<path transform="translate(661,835)" d="m0 0h2v3h3v2h2l1 3-3 3v-2l-4 4-4-1-3-2v-3l5-2 2 1z" fill="#5B5DE1"/>
<path transform="translate(178,542)" d="m0 0h3v26l-1 6-2-2-1-26z" fill="#3135EE"/>
<path transform="translate(644,1065)" d="m0 0h32v1l-8 1-1 1-17 1-3-1-1 3-2-3z" fill="#373BEC"/>
<path transform="translate(840,161)" d="m0 0 11 1-3 3h4l2 5 8 1-1 2 3 3-1 3-11-8-12-9z" fill="#3538EE"/>
<path transform="translate(813,697)" d="m0 0 5 4 6 4-1 2-2 3-5-1-1-8h-2v7l-4-2-1-3 2-1 2 1z" fill="#555AD7"/>
<path transform="translate(552,801)" d="m0 0h15l4 2v6h-6l-7-1 1-4h-5v-2zm8 2v2l8 1v-2z" fill="#3B3EEA"/>
<path transform="translate(431,821)" d="m0 0h23v1h-12v2l6-1-2 2h-11l-9 1-3 1-1-4z" fill="#6161E2"/>
<path transform="translate(565,848)" d="m0 0 7 6 1 6-3 3-4-1h2l-3-6v-2l-4 2 2-6z" fill="#565BD9"/>
<path transform="translate(348,739)" d="m0 0 12 5 4 2v3l-4 1-11-5-1 10h-1v-12h2z" fill="#3C3FEC"/>
<path transform="translate(804,664)" d="m0 0 11 4 1-2 8 1v2l-8 2h-10l-7-3-3-2h7z" fill="#6061E1"/>
<path transform="translate(1071,604)" d="m0 0h4l-1 13 1 3-3 3-3 1v-8z" fill="#0C0FF1"/>
<path transform="translate(603,834)" d="m0 0h2l-3 12-2 2-9-1 1-5 9-1v-6zm-14 13 2 1z" fill="#4B51DB"/>
<path transform="translate(473,1044)" d="m0 0 8 1 6 1 1 5 2 1h-8l-8-2z" fill="#2A2DEE"/>
<path transform="translate(459,839)" d="m0 0 4 1-2 4-6 8-1 2-4-1 1-7z" fill="#5058D4"/>
<path transform="translate(800,801)" d="m0 0h6v2l11 1-1 5-18-2z" fill="#484FDA"/>
<path transform="translate(707,889)" d="m0 0h7l12 2 12 1h11v2h-19l-22-2z" fill="#575ADE"/>
<path transform="translate(799,807)" d="m0 0h8l3 2v2h-3l2 5-1 4-3-3v2l-6-1v-3l4-1v-6z" fill="#6060E5"/>
<path transform="translate(387,664)" d="m0 0 1 3-2 5-1 6 3 1 1 7 1 2-4-2-3-4-1-10 2-6z" fill="#3E41EC"/>
<path transform="translate(704,881)" d="m0 0h5v6l-1 4h-7l-3-3h2v-6z" fill="#4D56D1"/>
<path transform="translate(342,508)" d="m0 0h3l2 3v7l10 4-1 3-4 1-4-2-1 3-3-15-3-3z" fill="#3D41E8"/>
<path transform="translate(109,382)" d="m0 0h1v27l-4 16-2 6h-1l1-10 4-16z" fill="#4548E7"/>
<path transform="translate(614,853)" d="m0 0 6 1 7 1 6 4-3 2-6 1-6-4v-3z" fill="#5157D7"/>
<path transform="translate(618,840)" d="m0 0h9v3l-10 3-2 2h-7l2-4h3v-2z" fill="#4749E8"/>
<path transform="translate(349,724)" d="m0 0 9 3 5 2-1 4-6-1-8-4v11h-1v-12z" fill="#393CEB"/>
<path transform="translate(262,942)" d="m0 0 4 1 8 4 2 3-1 2 5 1 4 7-4-2-10-8-8-7z" fill="#3639EE"/>
<path transform="translate(652,846)" d="m0 0 4 2 8 8-2 3-3-3v-2l-5-1-2 4-4 1v-5l3-3z" fill="#5254E5"/>
<path transform="translate(511,772)" d="m0 0 1 2-10 5-12 5h-7v-3l12-3z" fill="#6A67EA"/>
<path transform="translate(1072,691)" d="m0 0 1 3-5 13-1 2h-2l-2 6-1 2h9v1h-10l1-8z" fill="#3539EC"/>
<path transform="translate(86,494)" d="m0 0h1l1 16v14l-1 5h-6l3-2z" fill="#4649E7"/>
<path transform="translate(433,841)" d="m0 0h2l1 5-2 6-3 4h-2l-2 1 1-9 4-6z" fill="#555AD7"/>
<path transform="translate(606,817)" d="m0 0 2 4 2 1v1l5-1 1 3v4h-17v-1l6-1v-3z" fill="#565ADC"/>
<path transform="translate(508,767)" d="m0 0h10l-3 3-16 4-1-4 1-2z" fill="#7874EE"/>
<path transform="translate(437,568)" d="m0 0 5 1v2h-2v13l5-1v2h-7l-2-1v-14z" fill="#3438EC"/>
<path transform="translate(120,401)" d="m0 0h1v9l-3 9-2 7-3-1 1-9 5-12z" fill="#3F42EB"/>
<path transform="translate(152,337)" d="m0 0 2 3-14 26-1-3 1-5 8-14z" fill="#5F5FE4"/>
<path transform="translate(749,842)" d="m0 0 9 2 3 5-1 6h-3l-2-5v-2l-4-1-1 4-2-7z" fill="#6161E1"/>
<path transform="translate(516,833)" d="m0 0 7 2 5 5v6l-4-1-8-9z" fill="#4C53D9"/>
<path transform="translate(503,820)" d="m0 0h1v6h12v1h-17l-19-1v-1l11-2h2v-2h2v2l8 2z" fill="#6865E7"/>
<path transform="translate(1068,500)" d="m0 0 5 5v8 2l1 3-1 2-4-1-1-8z" fill="#2024EE"/>
<path transform="translate(617,834)" d="m0 0h16v2h6l3 2-1 3-5-2-7-2-9-1-5 2-1 2h-2l-1-4z" fill="#5B5BE6"/>
<path transform="translate(383,831)" d="m0 0h6l-3 5-5 3-5 2-2 2-3-1 5-5z" fill="#555BD8"/>
<path transform="translate(734,860)" d="m0 0h14l6 1v4l3 1h-2l1 3h-3l-2-2 1-2-9-2-9-1z" fill="#6463E4"/>
<path transform="translate(708,838)" d="m0 0h5l-3 3h-3l-2 6-3 2-3-3 1-7z" fill="#5557E1"/>
<path transform="translate(806,800)" d="m0 0h36l4 2h-37-3z" fill="#2F33EE"/>
<path transform="translate(982,852)" d="m0 0h2l-2 4h-2l-1 4-7 9-3 2-3-1 12-15z" fill="#1115EF"/>
<path transform="translate(457,815)" d="m0 0 12 1 25 1 2 2h-20l-16-1-3-1z" fill="#6363E3"/>
<path transform="translate(595,805)" d="m0 0h2l3 8v2l3 1h-4v9l1 2h-9l1-3h6v-7l-3-1z" fill="#585AE4"/>
<path transform="translate(695,800)" d="m0 0 4 1 2 5 12 1 1 4-10-1-6-2v-3h-2v2l-2-1zm1 2v2l2-1z" fill="#5A59EA"/>
<path transform="translate(761,672)" d="m0 0h16v3l-8 2h-6l-3-3z" fill="#0408F2"/>
<path transform="translate(868,94)" d="m0 0 2 3v19l1 5v8l-2-3-2-11v-14z" fill="#4244ED"/>
<path transform="translate(451,632)" d="m0 0h1v31l-3-4-1-8 1-8h2z" fill="#5C5FDD"/>
<path transform="translate(761,861)" d="m0 0 2 2 3-1 3 1v4h6v-2h3v5h-2v-2l-12 1-3-2z" fill="#6061E1"/>
<path transform="translate(590,853)" d="m0 0 5 2 1 4-4 8-3-1v-11z" fill="#5359D8"/>
<path transform="translate(642,836)" d="m0 0h7l1 4 3 1-1 4-3 4-3-5v-4l-4-2z" fill="#5253E6"/>
<path transform="translate(483,831)" d="m0 0 8 1 1 1 3 1-4 8-5-5-4-5z" fill="#5757E7"/>
<path transform="translate(698,853)" d="m0 0 2 4-2 4-7 4h-2v-2h-4l-2 1 2-5h12z" fill="#5F5FE3"/>
<path transform="translate(361,734)" d="m0 0h3l3 5v6l-2 2-4-1z" fill="#6F6AEE"/>
<path transform="translate(12,521)" d="m0 0 2 4 1 13v17l-2-4-1-4z" fill="#393CEB"/>
<path transform="translate(675,848)" d="m0 0 5 1 2 7-3 3v-2h-4l-1-8z" fill="#4C53D7"/>
<path transform="translate(766,882)" d="m0 0 5 1 9 2-1 2h-8l-8 1-1-4z" fill="#4C51DD"/>
<path transform="translate(200,268)" d="m0 0h3v5l-7 8-4-1 4-7z" fill="#1417F0"/>
<path transform="translate(785,864)" d="m0 0 4 1 7 2-4 2-9 1-3-1v-4z" fill="#5157D9"/>
<path transform="translate(700,820)" d="m0 0h6v2l3 1h-2v2l-3 1v2l-6-1-2 1 1-5z" fill="#3134EE"/>
<path transform="translate(713,728)" d="m0 0 5 4-4 4-5 1-1-5-1-3h5z" fill="#373AED"/>
<path transform="translate(442,693)" d="m0 0h1l1 12v5h-3l-4-2 1-9 4 2z" fill="#6F6AEE"/>
<path transform="translate(730,878)" d="m0 0 6 1v5l-10 1-4 1 6-7z" fill="#595DDB"/>
<path transform="translate(584,810)" d="m0 0 4 3v11l-1 4h-14v-1h12v-5l-1-1zm1 6v5h1v-5z" fill="#484DE0"/>
<path transform="translate(721,680)" d="m0 0h2l-1 4-3 1 1 2h2v4l-8 2-4-2 5-1 1-2-2-1 4-4-2-1z" fill="#6160E8"/>
<path transform="translate(372,531)" d="m0 0h5v19h-1v-6h-2v-7l-4-4z" fill="#2F34E5"/>
<path transform="translate(414,812)" d="m0 0h25l5 1v1h-31z" fill="#6F6AEE"/>
<path transform="translate(437,691)" d="m0 0h2l3 3v7h-3l-2 7h-1v-10z" fill="#2F33EF"/>
<path transform="translate(372,806)" d="m0 0 15 1-2 1-1 2-10 2-2-3z" fill="#4C4EE5"/>
<path transform="translate(676,754)" d="m0 0 4 2-1 3h-14l-2-3 3-1h8z" fill="#3639EE"/>
<path transform="translate(110,264)" d="m0 0h1l1 17 2 4-1 5v12h-1l-2-17z" fill="#4649E7"/>
<path transform="translate(200,879)" d="m0 0 5 1 3 4v2l3 1 3 5-1 3-10-11z" fill="#373BED"/>
<path transform="translate(734,870)" d="m0 0 8 1-1 5-7 1h-2v-6z" fill="#494FDD"/>
<path transform="translate(730,848)" d="m0 0 1 2h2l1 6-9 1-2-1v-3l5-3h2z" fill="#5D5FDE"/>
<path transform="translate(396,814)" d="m0 0 12 1 5 2v3l-10-2-7-2z" fill="#494AEA"/>
<path transform="translate(710,871)" d="m0 0 4 2 1 5 3-1v-2h4v2l-2 1 3 2-7 1h-3l-2-3z" fill="#5252EA"/>
<path transform="translate(736,847)" d="m0 0 4 2 4 4-1 3-7-1-1-7z" fill="#5A5EDC"/>
<path transform="translate(348,772)" d="m0 0 5 2 4 2 1 4-5-1-4-1-1 9h-1v-12z" fill="#393DEA"/>
<path transform="translate(716,901)" d="m0 0 7 1 1 2v25h-1l-1-22-2-2h-4z" fill="#6F6AEE"/>
<path transform="translate(850,163)" d="m0 0 4 1 11 7-3 1-6-1-4-4v-2l-4 1-1-2z" fill="#1316F0"/>
<path transform="translate(457,831)" d="m0 0 4 2h-3l-2 5-5 4-2 5h-1v-5l5-8z" fill="#595DDD"/>
<path transform="translate(82,599)" d="m0 0 2 3 3 10 1 12-2 1-4-20z" fill="#3A3DEC"/>
<path transform="translate(753,888)" d="m0 0 1 3 5-1 1 5h-11l1-5h2z" fill="#393EE8"/>
<path transform="translate(433,667)" d="m0 0 2 4-2 4-5-2v-2l-3 3-2-1 1-2h-2v-2l10-1z" fill="#080CF1"/>
<path transform="translate(334,166)" d="m0 0h2l-1 3-12 6-6 2 1-3z" fill="#3A3DEB"/>
<path transform="translate(791,128)" d="m0 0 6 2 16 9-1 2-5-1-16-11z" fill="#6765E7"/>
<path transform="translate(709,824)" d="m0 0h3v4l2 1-11 1-3 1-3-3 1-2 6 2-1-3 3 1-1 2h2v-3z" fill="#6664E8"/>
<path transform="translate(823,809)" d="m0 0 4 1v2l-3 1v3l-12 1-3-2 1-2 11 1z" fill="#6664EA"/>
<path transform="translate(448,730)" d="m0 0 5 1v8h-5l-1-2v-6z" fill="#6F6AEE"/>
<path transform="translate(732,706)" d="m0 0h7v1l-7 2v4h-5l-3-3-3-1-1 2-1-4h7v2l5-2z" fill="#5C5CE5"/>
<path transform="translate(504,1064)" d="m0 0h9l9 1v3l-5-1h-17l-1-2z" fill="#3B3EEE"/>
<path transform="translate(733,863)" d="m0 0h5l3 4v4l-4 1 1-3h-2l-1 2-2-2zm1 2 1 3z" fill="#6061E1"/>
<path transform="translate(653,855)" d="m0 0 2 4 1 4v4h-3v-3l-4-1v-2l-2-1 4-1z" fill="#555AD9"/>
<path transform="translate(661,818)" d="m0 0 4 2v6l-1 1h-5v-7z" fill="#4245E7"/>
<path transform="translate(693,701)" d="m0 0 4 1v2l3 3 2 6h-3l-6-7z" fill="#4143EC"/>
<path transform="translate(664,855)" d="m0 0 7 1-2 5-6 1-2-1v-2h2z" fill="#5157D7"/>
<path transform="translate(402,830)" d="m0 0h6l2 1-1 5-3 1-4-2-1-4z" fill="#595DDB"/>
<path transform="translate(761,807)" d="m0 0 11 1 6 1 1 3h-7l-9-2z" fill="#6061E2"/>
<path transform="translate(363,712)" d="m0 0 8 2v2l2 1-1 2-8-1-4-3 3-2z" fill="#4346E9"/>
<path transform="translate(600,849)" d="m0 0 2 1-1 10h-2l1 3-3-1-1-3h2l-1-7z" fill="#6363E5"/>
<path transform="translate(748,804)" d="m0 0 11 1v2l5 1v1h-10l-6-3z" fill="#4A4EE2"/>
<path transform="translate(733,712)" d="m0 0 9 1 1 5-3 1-8-4z" fill="#5656E8"/>
<path transform="translate(773,668)" d="m0 0h2v2l2-2h5l1 6-3-1 1-2h-21v-1l11-1z" fill="#5359D7"/>
<path transform="translate(466,954)" d="m0 0h1v6h3l1 7-2 7h-1l-2-12z" fill="#3A3DED"/>
<path transform="translate(620,839)" d="m0 0h9l5 5-2 1v3l-3-1v-2l-6-1 3-3-6-1z" fill="#5B5DE0"/>
<path transform="translate(541,820)" d="m0 0 2 1v4l6 1v2h-9l-4-2 1-5 2 3 2-1z" fill="#6665E6"/>
<path transform="translate(831,808)" d="m0 0 6 1 1 5h-3l-2 2-6-1 1-2h3z" fill="#5E5EE7"/>
<path transform="translate(447,722)" d="m0 0h6v6l-5 1-2-2z" fill="#6F6AEE"/>
<path transform="translate(139,361)" d="m0 0 1 2-3 10-4 5h-2l2-6z" fill="#4043E9"/>
<path transform="translate(791,729)" d="m0 0h1v8l-2 6h-2l-2 2 2-10 2-5z" fill="#2125EE"/>
<path transform="translate(388,712)" d="m0 0 3 2 1 4v8l-4-2-1-10z" fill="#5257DA"/>
<path transform="translate(477,592)" d="m0 0h1v15l-3 2h-8v-3h10z" fill="#464AE5"/>
<path transform="translate(738,879)" d="m0 0h8l1 2-1 3-7 1-2-2z" fill="#5156DA"/>
<path transform="translate(676,857)" d="m0 0 9 1-2 5-2 1-5-1z" fill="#5258D9"/>
<path transform="translate(415,839)" d="m0 0h5v6l-5 5z" fill="#575CD9"/>
<path transform="translate(655,806)" d="m0 0h2v6h-8v-5z" fill="#4042EA"/>
<path transform="translate(989,554)" d="m0 0h1l1 23-2 1-2-13z" fill="#3C3FED"/>
<path transform="translate(682,886)" d="m0 0 16 1v2l2 1-16-1z" fill="#5C5FDE"/>
<path transform="translate(597,863)" d="m0 0h4l1 4h-2l-1 8-2-1 1-3-4-1 1-2h2z" fill="#595DDB"/>
<path transform="translate(708,814)" d="m0 0 5 1v7l-4-1-3-3z" fill="#5557E1"/>
<path transform="translate(160,324)" d="m0 0 3 1-8 13-2 1 1-5z" fill="#3135E8"/>
<path transform="translate(903,220)" d="m0 0 14 7 2 3-5-1-11-7z" fill="#3B3EEB"/>
<path transform="translate(646,861)" d="m0 0 1 2 1 6 3 1 1-4v7l-8-2-1-6z" fill="#5E5FE2"/>
<path transform="translate(439,805)" d="m0 0 3 1v1h-38v-1z" fill="#6D68EC"/>
<path transform="translate(800,801)" d="m0 0h6v2l2 2-1 2h-9z" fill="#555BD8"/>
<path transform="translate(687,795)" d="m0 0h4l-1 3-3-1 4 4v2h-8l-2-3 4-2z" fill="#4B4DE9"/>
<path transform="translate(345,506)" d="m0 0 4 1 9 4-3 1-7-2v8h-1l-1-7-2-4z" fill="#6C68EB"/>
<path transform="translate(1044,219)" d="m0 0 3 4 5 12-1 2-4-6-3-7-2-3z" fill="#383BED"/>
<path transform="translate(675,840)" d="m0 0h7l-1 6 2 1-1 2h-2l-5-7z" fill="#4C4DEA"/>
<path transform="translate(382,840)" d="m0 0 2 2-1 7-2-2-3 2-1-5z" fill="#6765E7"/>
<path transform="translate(551,833)" d="m0 0 7 2v1l-6 1v2h-3v-2l-6-1-2-2h8l1 1z" fill="#5D5DE6"/>
<path transform="translate(372,809)" d="m0 0 3 4-5 5-7-1v-3-2l4 1 1 2 4-1z" fill="#6563E8"/>
<path transform="translate(488,805)" d="m0 0h12l7 1-2 4v-2l-16-1z" fill="#5052E6"/>
<path transform="translate(480,782)" d="m0 0 4 1 1 2h-19l1-2z" fill="#4B55CF"/>
<path transform="translate(649,719)" d="m0 0h6l-1 9h-11v-1h10v-3l-4-1z" fill="#5355E6"/>
<path transform="translate(794,693)" d="m0 0 2 3v9l-2 4h-1v-15z" fill="#4549E5"/>
<path transform="translate(907,324)" d="m0 0h18v1l-8 1-1 2-9-1z" fill="#4346E9"/>
<path transform="translate(791,846)" d="m0 0h3v5h2l-1 2-2-1 1 4h-4v-7l-4-2z" fill="#6765E7"/>
<path transform="translate(528,764)" d="m0 0 3 1-8 4h-2v2l-4 2h-4v-2z" fill="#4A4EE2"/>
<path transform="translate(528,731)" d="m0 0 3 1v11l-2 2-1-1z" fill="#5D60DF"/>
<path transform="translate(706,725)" d="m0 0h2l1 2h6l6 3v4l-3-1v-2l-5-2-2 1-5-1z" fill="#0A0EF1"/>
<path transform="translate(961,713)" d="m0 0 3 2h-2l1 6-3 7h-2l1-9z" fill="#3639EE"/>
<path transform="translate(1049,397)" d="m0 0 2 2 5 14v2l-3-1-4-11z" fill="#3B3FE9"/>
<path transform="translate(124,391)" d="m0 0 2 3-1 6-4 8-1-2 2-9z" fill="#2E31ED"/>
<path transform="translate(1015,268)" d="m0 0 2 4v8l-2 11h-1v-15z" fill="#4B4BEC"/>
<path transform="translate(522,858)" d="m0 0 3 4-4 7-2-4-1-6z" fill="#555BD8"/>
<path transform="translate(725,839)" d="m0 0 4 1-2 6h-2l-1 4h-2v2l-2-1 1-4 2-1z" fill="#6765E7"/>
<path transform="translate(714,839)" d="m0 0h5l1 5-6 4v-3z" fill="#6A67E9"/>
<path transform="translate(541,803)" d="m0 0 1 2 6-1h2v2h5v1l-8 2-6-2-1 2z" fill="#605FE9"/>
<path transform="translate(390,705)" d="m0 0h4l-1 7-6-1v-2l-3-1 6-1z" fill="#5556E7"/>
<path transform="translate(636,693)" d="m0 0 6 1-1 7-2 4-2-4-2-6z" fill="#3337EE"/>
<path transform="translate(783,689)" d="m0 0h6l-1 4-3 2h-4l1-5z" fill="#0408F2"/>
<path transform="translate(796,660)" d="m0 0 4 1v4l-4 1v3h-7l4-2h2z" fill="#3839EF"/>
<path transform="translate(218,250)" d="m0 0h3l-1 5-4 4h-3l2-5z" fill="#1316F0"/>
<path transform="translate(760,870)" d="m0 0h1v5l4-2h3l1-3-1 6-2 2-6-1z" fill="#5E5FE1"/>
<path transform="translate(639,845)" d="m0 0 6 2 2 4-5 2-3-6z" fill="#494CE6"/>
<path transform="translate(515,832)" d="m0 0h17v3l-3 1-12-2-2 1z" fill="#6261E8"/>
<path transform="translate(493,821)" d="m0 0h2v2h2l-1 2-2 1h-14v-1l11-2h2z" fill="#6965EC"/>
<path transform="translate(1059,685)" d="m0 0 5 5-1 3h-2l-3 3h-1v-7h2z" fill="#0C10F0"/>
<path transform="translate(600,609)" d="m0 0 4 1-16 8-3-1 4-3z" fill="#6663E8"/>
<path transform="translate(873,78)" d="m0 0h2v7l-2 7h-2l-1-5z" fill="#3538EE"/>
<path transform="translate(699,874)" d="m0 0 1 4v3l-9-1-2-3h10z" fill="#5D5FE0"/>
<path transform="translate(966,872)" d="m0 0h2l-1 4-5 5-4 1 2-5z" fill="#0C10F0"/>
<path transform="translate(473,846)" d="m0 0 2 2 1 8-5 2-1-2h2v-9z" fill="#5F61E0"/>
<path transform="translate(724,816)" d="m0 0 5 1v3l-7 2-3-2v-2z" fill="#6260EB"/>
<path transform="translate(552,801)" d="m0 0h15l1 2-9 1h-5v-2z" fill="#3A3CEE"/>
<path transform="translate(514,801)" d="m0 0h10l-1 3-8 1-4-3z" fill="#373BEB"/>
<path transform="translate(349,789)" d="m0 0h7l2 3-1 3h-2l-1 2-2-4-4-1z" fill="#393CED"/>
<path transform="translate(546,724)" d="m0 0 7 6-1 2-7-1v-6z" fill="#4E55D7"/>
<path transform="translate(687,708)" d="m0 0h5v3h-2v2h-3v2l-3-1 1-5z" fill="#0408F2"/>
<path transform="translate(406,561)" d="m0 0m-2 1h2v3l-6 5-1 7-2-4 1-5z" fill="#1D22EA"/>
<path transform="translate(664,840)" d="m0 0 3 1 1 4-2 1v-2l-4 4h-3l1-4 4-2z" fill="#3A3EE8"/>
<path transform="translate(810,838)" d="m0 0h2l-2 5h-2l-1 2-4-2-1-3z" fill="#5F60E0"/>
<path transform="translate(751,800)" d="m0 0 11 1 2 2h-13l-11-1v-1z" fill="#4E4FE8"/>
<path transform="translate(352,757)" d="m0 0 6 2 1 4-7-1-2-2z" fill="#3B3FEB"/>
<path transform="translate(683,677)" d="m0 0h2l3 7v3h2l-1 2-4-1z" fill="#4243ED"/>
<path transform="translate(470,679)" d="m0 0 6 4-1 3-2 3-7-1v-1h6v-2h-2z" fill="#6B66EE"/>
<path transform="translate(107,413)" d="m0 0h1l-1 9-3 9h-1l1-10z" fill="#3A3EEC"/>
<path transform="translate(221,244)" d="m0 0 1 4-5 5-6 4 2-4z" fill="#3D3FED"/>
<path transform="translate(770,868)" d="m0 0h6v2l2 1-3 2-6-1z" fill="#4E56D1"/>
<path transform="translate(781,857)" d="m0 0h9l2 2-1 4-2-3h-8z" fill="#5158D4"/>
<path transform="translate(613,843)" d="m0 0 4 1-2 4h-7l2-4z" fill="#444BDA"/>
<path transform="translate(618,747)" d="m0 0 1 4h-12v-2z" fill="#4246E6"/>
<path transform="translate(704,701)" d="m0 0h6l1 3h-4l-2 4-1-4-3-1z" fill="#0408F2"/>
<path transform="translate(437,680)" d="m0 0h2v10l-1 1-1 7h-1v-15z" fill="#4E4DEE"/>
<path transform="translate(698,670)" d="m0 0 4 1-2 5-4 2-1-5z" fill="#0A0FEF"/>
<path transform="translate(374,552)" d="m0 0h3v19h-1l-1-9h-1z" fill="#4E56D5"/>
<path transform="translate(152,337)" d="m0 0 2 3-7 12h-1v-5z" fill="#4C51DD"/>
<path transform="translate(639,867)" d="m0 0h2l-1 6-2 2h-6l5-5h2z" fill="#555AD7"/>
<path transform="translate(1064,706)" d="m0 0h2l-1 5-3 6h9v1h-10l1-8z" fill="#5A5EDC"/>
<path transform="translate(820,144)" d="m0 0 6 2 2 2-3 3-5-3-1-3z" fill="#2F32EF"/>
<path transform="translate(678,868)" d="m0 0h5l2 4-1 4-1-3-7-2z" fill="#575AE1"/>
<path transform="translate(786,840)" d="m0 0h7l-2 3h-3l-1 1h-6v-3z" fill="#6564E6"/>
<path transform="translate(552,839)" d="m0 0h6l2 1-2 4-5-1z" fill="#5459DB"/>
<path transform="translate(511,772)" d="m0 0 1 2-10 5-4 1 2-4z" fill="#6463E5"/>
<path transform="translate(213,255)" d="m0 0 1 2-1 2 2 1-2 2-4-1-4 3 2-4z" fill="#3335EF"/>
<path transform="translate(826,148)" d="m0 0 5 1 1 4-1 2-6-3z" fill="#1C20EE"/>
<path transform="translate(298,90)" d="m0 0h1l1 10v11l-2-2-1-7z" fill="#494AEC"/>
<path transform="translate(693,865)" d="m0 0 1 2 6-1-1 6-5-2-2-4z" fill="#6564E5"/>
<path transform="translate(430,854)" d="m0 0 1 4-3 5-5-1 1-2h2l2-4z" fill="#4D56D1"/>
<path transform="translate(381,832)" d="m0 0 2 1-4 5-5 5-3-1 5-5z" fill="#5B5EDD"/>
<path transform="translate(818,829)" d="m0 0h6l-2 4-5 3-3-6 5 2z" fill="#5B59EA"/>
<path transform="translate(470,823)" d="m0 0h12l4 2-9 1-8-1z" fill="#4E55D7"/>
<path transform="translate(358,744)" d="m0 0 6 2v3l-4 1-4-2v-2h2z" fill="#4F57D3"/>
<path transform="translate(433,625)" d="m0 0h1l2 12-1 4-3-1z" fill="#0408F2"/>
<path transform="translate(452,523)" d="m0 0 2 1-7 8-3 3 1-5 5-6z" fill="#383AEC"/>
<path transform="translate(698,1044)" d="m0 0 2 1 4-1 3 1v2l-10 2z" fill="#373AED"/>
<path transform="translate(738,838)" d="m0 0 6 1 2 6h-2l-1 2-3-5v-3z" fill="#6564E5"/>
<path transform="translate(585,835)" d="m0 0h5l-1 5-4 1-1-5z" fill="#4A4EE1"/>
<path transform="translate(839,804)" d="m0 0 4 2-1 5h-4l-1-4z" fill="#5355E3"/>
<path transform="translate(544,798)" d="m0 0 8 1v2h-4l-1 3-4-1v-3z" fill="#3336EE"/>
<path transform="translate(815,666)" d="m0 0 9 1v2l-10 2-1-3h2z" fill="#585CDC"/>
<path transform="translate(1071,509)" d="m0 0 2 1-1 4 2 4-1 2h-3v-10z" fill="#0408F2"/>
<path transform="translate(181,293)" d="m0 0 4 1-6 8h-1v-5z" fill="#2528EC"/>
<path transform="translate(275,214)" d="m0 0h2l-1 3-6 4-4-1 3-3z" fill="#373AEB"/>
<path transform="translate(658,895)" d="m0 0h10l4 2-8 1-9-1z" fill="#6F6AEE"/>
<path transform="translate(656,850)" d="m0 0 4 1 4 5-2 3-3-3v-2h-3z" fill="#5C5DE1"/>
<path transform="translate(673,846)" d="m0 0 3 2-3 8-6-3 4-2z" fill="#6967E9"/>
<path transform="translate(395,826)" d="m0 0 9 1-3 2-7 1v-2l-3-1z" fill="#6363E4"/>
<path transform="translate(751,812)" d="m0 0h9l5 2v1h-13z" fill="#6764EB"/>
<path transform="translate(729,802)" d="m0 0 6 1v8h-2v-5l-4-2z" fill="#5355E6"/>
<path transform="translate(504,747)" d="m0 0 6 2 1 8-3 1-1-5v-3l-3-1z" fill="#FEFEFC"/>
<path transform="translate(655,159)" d="m0 0m-2 1 2 1-5 5v6l-4-2 2-5z" fill="#3537EF"/>
<path transform="translate(726,1037)" d="m0 0h5l-1 3-9 2z" fill="#3134EE"/>
<path transform="translate(392,935)" d="m0 0h2v14h-1l-2-9z" fill="#393CEB"/>
<path transform="translate(535,853)" d="m0 0h5l1 8-2 2v-3l-4-5z" fill="#6463E4"/>
<path transform="translate(502,831)" d="m0 0h8l-2 5-6-1-1-2z" fill="#5A5BE4"/>
<path transform="translate(757,821)" d="m0 0h7l1 3-6 1-3-3z" fill="#6162E2"/>
<path transform="translate(715,815)" d="m0 0h8l1 2-5 2h-4z" fill="#4E52E0"/>
<path transform="translate(457,805)" d="m0 0 14 1v2h-15z" fill="#6966E9"/>
<path transform="translate(357,776)" d="m0 0 5 2v2h3v2l-7-1v-2l-2-1z" fill="#545AD7"/>
<path transform="translate(552,754)" d="m0 0 2 1-5 4-8 1 2-3z" fill="#3F43E6"/>
<path transform="translate(477,622)" d="m0 0h1v5l-4 2h-7l1-2 1-1h8z" fill="#2F32EE"/>
<path transform="translate(387,619)" d="m0 0 2 1-3 7-3 1 1-6z" fill="#4647EE"/>
<path transform="translate(100,463)" d="m0 0 2 1v2h2v-2l2 1-2 5-3 1v-3h-2z" fill="#595AE6"/>
<path transform="translate(840,161)" d="m0 0 11 1-3 3v3l-8-6z" fill="#3A3DEC"/>
<path transform="translate(589,856)" d="m0 0h2l1 11-3-1z" fill="#2D31EF"/>
<path transform="translate(388,842)" d="m0 0h2v11l-3-2v-7z" fill="#6F6AEE"/>
<path transform="translate(460,837)" d="m0 0h8l-6 3-3-2zm-2 2m-2 1 2 1-6 5 2-4z" fill="#6363E4"/>
<path transform="translate(485,834)" d="m0 0 5 1 2 6h-3l-4-5z" fill="#4B50DE"/>
<path transform="translate(612,692)" d="m0 0 1 2-2 4-4-1-3-2 3-1 2 1v-2z" fill="#6865EA"/>
<path transform="translate(760,685)" d="m0 0 6 2 4 4h-6l-4-4z" fill="#5857EB"/>
<path transform="translate(1063,682)" d="m0 0 2 1-1 6h2v2l-5-2-1-4h2z" fill="#3236ED"/>
<path transform="translate(615,676)" d="m0 0 4 1 1 3-1 4h-7v-1l5-1v-2l-2-1z" fill="#6966EB"/>
<path transform="translate(177,298)" d="m0 0h1v6l-4 4-2-1 2-5z" fill="#3031EF"/>
<path transform="translate(637,54)" d="m0 0h3l3 5-2 3-3-3z" fill="#3135EC"/>
<path transform="translate(688,833)" d="m0 0 4 2v2l4 2-5 1-4-2z" fill="#6966EB"/>
<path transform="translate(525,464)" d="m0 0h2l-1 5-3 3h-2l1-4z" fill="#135B60"/>
<path transform="translate(593,658)" d="m0 0 5 3h4v2l-7 1-2-2z" fill="#5857EB"/>
<path transform="translate(733,839)" d="m0 0h4l-2 5-3 2v-6z" fill="#6363E4"/>
<path transform="translate(659,807)" d="m0 0 4 1v5l-3 1z" fill="#4E4FE8"/>
<path transform="translate(632,804)" d="m0 0h4l1 4-7-1-1-2z" fill="#4C4CEE"/>
<path transform="translate(730,620)" d="m0 0 3 1-1 4-4 1 1-5z" fill="#0B5953"/>
<path transform="translate(768,830)" d="m0 0h2v4l-5 1-1-4z" fill="#5D60DF"/>
<path transform="translate(663,815)" d="m0 0 6 1 3 1v2l-6-1z" fill="#4E4FE9"/>
<path transform="translate(684,852)" d="m0 0 4 2-1 3-4-1z" fill="#625FEC"/>
<path transform="translate(773,839)" d="m0 0h4l-1 4-4 1z" fill="#6161E1"/>
<path transform="translate(399,118)" d="m0 0h2l-1 3-6 1 1-3z" fill="#3538E7"/>
<path transform="translate(668,836)" d="m0 0h8l1 2h-10z" fill="#6866E8"/>
<path transform="translate(816,809)" d="m0 0 6 1-1 2-5 1-2-1v-2z" fill="#6A67EA"/>
<path transform="translate(613,804)" d="m0 0h7l1 5-8-4z" fill="#4748EC"/>
<path transform="translate(435,828)" d="m0 0h3v3h-6l-1-2z" fill="#6A67EA"/>
<path transform="translate(561,834)" d="m0 0 4 1-2 3h-3z" fill="#5056D7"/>
<path transform="translate(717,809)" d="m0 0 9 1-4 2-5-2z" fill="#5958EA"/>
<path transform="translate(751,678)" d="m0 0 5 2v3l-3-1-3-3z" fill="#6662EE"/>
<path transform="translate(672,716)" d="m0 0h1l1 6-3 1-1-3z" fill="#6562EE"/>
<path transform="translate(577,869)" d="m0 0h6l-1 3-5-1z" fill="#565BD8"/>
<path transform="translate(729,812)" d="m0 0h6l-1 4-5-2z" fill="#6160E6"/>
<path transform="translate(703,797)" d="m0 0h6l1 2h-7z" fill="#5052E2"/>
<path transform="translate(643,875)" d="m0 0h5l-1 3-4-1z" fill="#575CD9"/>
<path transform="translate(652,836)" d="m0 0 4 1-2 3h-2z" fill="#5558E1"/>
<path transform="translate(722,830)" d="m0 0h2l-1 5-3-2v-2z" fill="#6C68EB"/>
<path transform="translate(611,808)" d="m0 0 4 1-1 3-3-1z" fill="#6664E6"/>
<path transform="translate(388,806)" d="m0 0h5l-1 3h-3z" fill="#4445EE"/>
<path transform="translate(663,876)" d="m0 0h6l1 2h-7z" fill="#6B68EB"/>
<path transform="translate(680,837)" d="m0 0 7 1v2h-5z" fill="#6563EB"/>
<path transform="translate(724,828)" d="m0 0h6v2h-5z" fill="#6564E5"/>
<path transform="translate(784,877)" d="m0 0h6l-1 2-5-1z" fill="#6B67EA"/>
<path transform="translate(734,832)" d="m0 0 2 1-2 4-1-4z" fill="#6B67EA"/>
<path transform="translate(564,446)" d="m0 0h3v3l-4-1z" fill="#376E7C"/>
<path transform="translate(367,855)" d="m0 0 4 2-4 1z" fill="#6B67EA"/>
<path transform="translate(722,802)" d="m0 0 5 1v2l-5-1z" fill="#6765E7"/>
<path transform="translate(753,837)" d="m0 0h5l-1 2-4-1z" fill="#6664E6"/>
<path transform="translate(697,834)" d="m0 0 2 1-1 3-2-1z" fill="#6664E6"/>
<path transform="translate(786,833)" d="m0 0 3 1v2l-4-1z" fill="#6F6AEE"/>
<path transform="translate(707,832)" d="m0 0 4 2-2 1-3-2z" fill="#6F6AEE"/>
<path transform="translate(834,679)" d="m0 0h3l-1 3h-2z" fill="#6F6AEE"/>
<path transform="translate(810,827)" d="m0 0 5 1-4 1z" fill="#6464E5"/>
<path transform="translate(779,826)" d="m0 0 4 1-2 2z" fill="#6967E9"/>
<path transform="translate(768,814)" d="m0 0 4 1-4 1z" fill="#6F6AEE"/>
<path transform="translate(621,803)" d="m0 0 4 1-4 1z" fill="#5F61E0"/>
<path transform="translate(717,736)" d="m0 0 2 1-1 5h-1z" fill="#6F6AEE"/>
<path transform="translate(665,870)" d="m0 0 3 4-3-1z" fill="#494BE9"/>
<path transform="translate(803,828)" d="m0 0 2 2-1 2-2-1z" fill="#6F6AEE"/>
<path transform="translate(792,830)" d="m0 0h5l-3 2z" fill="#6F6AEE"/>
<path transform="translate(798,829)" d="m0 0 4 1h-4z" fill="#6F6AEE"/>
<path transform="translate(789,820)" d="m0 0 4 2h-4z" fill="#6F6AEE"/>
<path transform="translate(743,820)" d="m0 0 3 1-2 2z" fill="#6F6AEE"/>
<path transform="translate(519,761)" d="m0 0 3 1-1 2-2-1z" fill="#6F6AEE"/>
<path transform="translate(593,835)" d="m0 0 1 2-2 2z" fill="#6F6AEE"/>
<path transform="translate(653,824)" d="m0 0 2 1v2h-2z" fill="#6F6AEE"/>
<path transform="translate(716,873)" d="m0 0h2v2h-2z" fill="#6F6AEE"/>
<path transform="translate(693,854)" d="m0 0h2v2h-2z" fill="#6F6AEE"/>
<path transform="translate(491,842)" d="m0 0h2v2h-2z" fill="#6F6AEE"/>
<path transform="translate(797,834)" d="m0 0 2 1-1 2z" fill="#6F6AEE"/>
<path transform="translate(778,831)" d="m0 0 3 2h-3z" fill="#6F6AEE"/>
<path transform="translate(447,806)" d="m0 0 4 1z" fill="#6F6AEE"/>
<path transform="translate(846,804)" d="m0 0 2 1h-3z" fill="#6F6AEE"/>
<path transform="translate(411,761)" d="m0 0h3l-1 2z" fill="#6F6AEE"/>
<path transform="translate(613,714)" d="m0 0h2v2h-2z" fill="#6664E6"/>
<path transform="translate(440,674)" d="m0 0 1 4z" fill="#5F5CEE"/>
<path transform="translate(704,672)" d="m0 0 2 1-1 2z" fill="#6F6AEE"/>
<path transform="translate(796,866)" d="m0 0h2l-1 2z" fill="#575CD9"/>
<path transform="translate(512,831)" d="m0 0 2 1-2 1z" fill="#6F6AEE"/>
<path transform="translate(671,830)" d="m0 0 3 1z" fill="#6F6AEE"/>
<path transform="translate(782,829)" d="m0 0h2l-1 2z" fill="#6F6AEE"/>
<path transform="translate(767,827)" d="m0 0 3 1z" fill="#6F6AEE"/>
<path transform="translate(751,821)" d="m0 0 3 1z" fill="#6363E3"/>
<path transform="translate(616,818)" d="m0 0" fill="#6363E3"/>
<path transform="translate(779,818)" d="m0 0 3 1z" fill="#6F6AEE"/>
<path transform="translate(659,816)" d="m0 0 2 1-2 1z" fill="#6F6AEE"/>
<path transform="translate(453,815)" d="m0 0 3 1z" fill="#6F6AEE"/>
<path transform="translate(843,806)" d="m0 0 2 1-2 1z" fill="#6F6AEE"/>
<path transform="translate(548,753)" d="m0 0 3 1z" fill="#6F6AEE"/>
<path transform="translate(602,734)" d="m0 0" fill="#6F6AEE"/>
<path transform="translate(760,887)" d="m0 0" fill="#6F6AEE"/>
<path transform="translate(649,877)" d="m0 0" fill="#4B55CF"/>
<path transform="translate(743,875)" d="m0 0" fill="#6F6AEE"/>
<path transform="translate(679,874)" d="m0 0" fill="#6F6AEE"/>
<path transform="translate(621,872)" d="m0 0 2 1z" fill="#6F6AEE"/>
<path transform="translate(575,843)" d="m0 0" fill="#6F6AEE"/>
<path transform="translate(743,836)" d="m0 0 2 1z" fill="#6F6AEE"/>
<path transform="translate(779,835)" d="m0 0 2 1z" fill="#6F6AEE"/>
<path transform="translate(499,830)" d="m0 0 2 1z" fill="#6F6AEE"/>
<path transform="translate(789,828)" d="m0 0 2 1z" fill="#6F6AEE"/>
<path transform="translate(405,821)" d="m0 0 2 1z" fill="#6F6AEE"/>
<path transform="translate(652,815)" d="m0 0 2 1z" fill="#6F6AEE"/>
<path transform="translate(620,812)" d="m0 0 2 1z" fill="#6F6AEE"/>
<path transform="translate(536,809)" d="m0 0 2 1z" fill="#6F6AEE"/>
<path transform="translate(452,806)" d="m0 0" fill="#6F6AEE"/>
<path transform="translate(399,807)" d="m0 0 2 1z" fill="#6F6AEE"/>
<path transform="translate(697,797)" d="m0 0 2 1z" fill="#6F6AEE"/>
<path transform="translate(694,797)" d="m0 0 2 1z" fill="#6F6AEE"/>
<path transform="translate(522,764)" d="m0 0 2 1z" fill="#6F6AEE"/>
<path transform="translate(525,762)" d="m0 0" fill="#6F6AEE"/>
<path transform="translate(599,692)" d="m0 0 2 1z" fill="#6F6AEE"/>
<path transform="translate(604,608)" d="m0 0 2 1z" fill="#6F6AEE"/>
<path transform="translate(606,607)" d="m0 0 2 1z" fill="#6F6AEE"/>
<path transform="translate(719,882)" d="m0 0" fill="#6F6AEE"/>
<path transform="translate(638,877)" d="m0 0" fill="#6F6AEE"/>
<path transform="translate(619,872)" d="m0 0" fill="#6F6AEE"/>
<path transform="translate(677,867)" d="m0 0" fill="#6F6AEE"/>
<path transform="translate(379,850)" d="m0 0" fill="#6F6AEE"/>
<path transform="translate(731,847)" d="m0 0" fill="#6F6AEE"/>
<path transform="translate(637,843)" d="m0 0" fill="#6F6AEE"/>
<path transform="translate(748,841)" d="m0 0" fill="#6F6AEE"/>
<path transform="translate(812,837)" d="m0 0" fill="#6F6AEE"/>
<path transform="translate(763,837)" d="m0 0" fill="#6F6AEE"/>
<path transform="translate(746,837)" d="m0 0" fill="#6F6AEE"/>
<path transform="translate(816,836)" d="m0 0" fill="#6F6AEE"/>
<path transform="translate(741,836)" d="m0 0" fill="#6F6AEE"/>
<path transform="translate(717,832)" d="m0 0" fill="#6F6AEE"/>
<path transform="translate(809,831)" d="m0 0" fill="#6F6AEE"/>
<path transform="translate(684,830)" d="m0 0" fill="#6F6AEE"/>
<path transform="translate(675,830)" d="m0 0" fill="#6F6AEE"/>
<path transform="translate(657,829)" d="m0 0" fill="#6F6AEE"/>
<path transform="translate(816,828)" d="m0 0" fill="#6F6AEE"/>
<path transform="translate(778,825)" d="m0 0" fill="#6F6AEE"/>
<path transform="translate(806,824)" d="m0 0" fill="#6F6AEE"/>
<path transform="translate(777,824)" d="m0 0" fill="#6F6AEE"/>
<path transform="translate(776,823)" d="m0 0" fill="#6F6AEE"/>
<path transform="translate(801,822)" d="m0 0" fill="#6F6AEE"/>
<path transform="translate(667,822)" d="m0 0" fill="#6F6AEE"/>
<path transform="translate(795,821)" d="m0 0" fill="#6F6AEE"/>
<path transform="translate(747,821)" d="m0 0" fill="#6F6AEE"/>
<path transform="translate(615,821)" d="m0 0" fill="#6F6AEE"/>
<path transform="translate(497,821)" d="m0 0" fill="#6F6AEE"/>
<path transform="translate(810,820)" d="m0 0" fill="#6F6AEE"/>
<path transform="translate(785,819)" d="m0 0" fill="#6F6AEE"/>
<path transform="translate(614,819)" d="m0 0" fill="#6F6AEE"/>
<path transform="translate(624,810)" d="m0 0" fill="#6F6AEE"/>
<path transform="translate(621,809)" d="m0 0" fill="#6F6AEE"/>
<path transform="translate(616,808)" d="m0 0" fill="#6F6AEE"/>
<path transform="translate(615,807)" d="m0 0" fill="#6F6AEE"/>
<path transform="translate(396,807)" d="m0 0" fill="#6F6AEE"/>
<path transform="translate(531,806)" d="m0 0" fill="#6F6AEE"/>
<path transform="translate(527,805)" d="m0 0" fill="#6F6AEE"/>
<path transform="translate(611,804)" d="m0 0" fill="#6F6AEE"/>
<path transform="translate(627,803)" d="m0 0" fill="#6F6AEE"/>
<path transform="translate(720,802)" d="m0 0" fill="#6F6AEE"/>
<path transform="translate(718,801)" d="m0 0" fill="#6F6AEE"/>
<path transform="translate(700,798)" d="m0 0" fill="#6F6AEE"/>
<path transform="translate(447,774)" d="m0 0" fill="#FEFEFC"/>
<path transform="translate(516,762)" d="m0 0" fill="#6F6AEE"/>
<path transform="translate(695,749)" d="m0 0" fill="#6F6AEE"/>
<path transform="translate(537,742)" d="m0 0" fill="#6F6AEE"/>
<path transform="translate(732,733)" d="m0 0" fill="#6F6AEE"/>
<path transform="translate(601,733)" d="m0 0" fill="#6F6AEE"/>
<path transform="translate(603,694)" d="m0 0" fill="#6F6AEE"/>
<path transform="translate(752,681)" d="m0 0" fill="#6F6AEE"/>
<path transform="translate(747,678)" d="m0 0" fill="#6F6AEE"/>
<path transform="translate(444,674)" d="m0 0" fill="#6F6AEE"/>
<path transform="translate(604,659)" d="m0 0" fill="#6F6AEE"/>
<path transform="translate(560,446)" d="m0 0" fill="#6F6AEE"/>
</svg>
