<?xml version="1.0" encoding="UTF-8"?>
<svg version="1.1" viewBox="0 0 2048 404" width="1280" height="1280" xmlns="http://www.w3.org/2000/svg">
<path transform="translate(0)" d="m0 0h2048v404h-2048z" fill="#FEFDFD"/>
<path transform="translate(1041,165)" d="m0 0h73v11l-2 16-3 44 1 1 4-7 12-19 6-9 21-32 5-5h70l-1 7-4 9-5 14-6 18-3 7-5 16-4 10-4 12-4 10-7 21-1 2h-45l1-8 6-16 5-14 5-12 6-18 4-10 3-9v-5l-9 15-5 9h-2v3h-2l-2 5-4 7h-2l-2 6-4 5-1 3h-2l-1 5h-2l-2 5-6 10h-2l-2 5-5 8-1 3h-2v2l-2 1h-38v-10l3-41 1-20v-19l-2-1-3 11-11 34-3 7-5 16-5 13-2 6-3 4h-44l1-6 6-16 5-13 9-26 9-27 4-10 8-24z" fill="#FD191D"/>
<path transform="translate(654,12)" d="m0 0h67l49 2 36 3 38 5 13 3-2 2-3 1-1 2h-2l2 3v5l13 2 10 2 23 5-4 1-38-6-42-5-29-2h-103l-23 2-28 2-35 4-8 2-21 3-24 5-13 3-31 8-29 9-11 4h-3v2l-15 5-9 4h-3v2l-10 4-22 11h-2v2l-7 3-6 4h-2v2l-6 3-14 10-6 5h-2v2l-4 1-2 4-5 2-1 3-9 7-5-1-11-5-17-4-11-1-2-2 7-8 11-11 8-7 4-1 1-3 4-3h3l1-3 6-2 1-3 6-2v-2l5-3h3v-2l16-8h2v-2l8-4 6-1v-2l15-6 10-5 7-2 6-3 13-4 28-9 20-6 15-4 9-2 23-5 14-2 9-2 33-5 40-4z" fill="#FD1A1E"/>
<path transform="translate(115,161)" d="m0 0h20l22 3 16 6 9 7 6 8 3 8v17l-2 8h-56v-11l-3-7-6-4-3-1h-14l-9 2-9 5-9 8-8 14-4 16 1 10 3 5 5 4 8 2h10l9-2 10-6 11-12h55l-1 5-9 12-7 8-11 9-10 6-14 6-19 5-12 2h-35l-18-3-12-5-9-7-6-7-3-8-1-6v-12l5-19 7-16 8-12 9-10 12-10 15-8 15-5 14-3z" fill="#020101"/>
<path transform="translate(1363,165)" d="m0 0h55l-1 37-1 42h2l11-17 15-22 12-17 8-12 8-11h54l-2 5-10 11-9 11-14 17-7 9-13 16-10 12-11 14-13 16-10 13-3 2h-49l-1-1-3-30-8-89z" fill="#020101"/>
<path transform="translate(1548,192)" d="m0 0h34l16 4 9 6 6 7 3 8v11l-4 16-7 14-8 11-7 7-13 8-15 6-15 3-11 1h-11l-16-2-11-3-10-6-6-8-3-8v-10l4-16 8-16 7-9 7-7 14-9 17-6z" fill="#020101"/>
<path transform="translate(273,167)" d="m0 0h23l12 3 12 6 11 10 8 13 4 12 1 6v16l-3 15-6 16-9 14-11 13-12 10-15 9-13 5-14 3h-24l-13-4-13-8-9-9-7-11-5-13-2-13v-10l4-17 5-10 2-5 4-8 16-16 1 2-1 2h-2v3h-2l-1 4-3 10v7l-1 10 2 6 4 10 5 9v2l14 7h21l14-4 12-6 10-7 10-14 4-7 3-17-1-13-5-13-2-1-3-5-8-6-9-3-9-1z" fill="#FD191D"/>
<path transform="translate(518,194)" d="m0 0h43l4 8 8 26 5 16v2h3l2-9 14-41 2-2h35l-2 9-15 43-13 36-4 8-1 1h-39l-3-3-12-35-5-15h-2l-18 50-2 3h-34l3-11 15-43 9-26 6-16z" fill="#020101"/>
<path transform="translate(381,194)" d="m0 0h42l2 1 14 45 2 7 4-9 15-43 1-1h36l-1 6-7 19-17 48-8 22-2 2h-40l-3-5-9-26-8-23-2-1-3 12-10 28-5 13-2 2h-34l8-24 14-40 11-31z" fill="#020101"/>
<path transform="translate(1242,194)" d="m0 0h101l-2 8-5 13-3 4-63 1-1 9h48l1 4-6 18-2 3-52 1-3 5 1 4 64 1-1 7-4 14-3 5h-104l2-11 5-12 7-22 3-8 4-11 6-18 3-8z" fill="#FD1A1E"/>
<path transform="translate(827,191)" d="m0 0 22 1 15 4 9 6 6 7 3 8v11l-2 6-2 1h-40l-1-1-1-11-4-4-2-1h-14l-10 3-8 7-7 11-3 9v11l5 6 6 2h11l11-4 9-10 3-1h35l5 1-2 6-8 10-7 7-13 8-12 5-19 4h-31l-17-4-9-5-6-7-3-7-1-5 1-13 4-13 8-16 12-13 13-9 15-6 16-3z" fill="#030101"/>
<path transform="translate(1756,191)" d="m0 0h11l17 2 12 4 9 6 6 9 1 3v15l-2 4-2 1h-40l-1-12-4-4-2-1h-12l-10 2-10 7-6 9-4 10-1 11 4 7 6 3h13l10-4 6-5 4-5 2-1h39l2 1-2 5-11 13-5 5-11 7-13 6-18 4-12 1h-11l-16-2-13-4-6-4-7-8-3-9v-12l3-12 6-14 9-13 10-9 14-8 15-5 11-2z" fill="#020101"/>
<path transform="translate(1839,194)" d="m0 0h101l-3 10-5 13-3 2h-63l-2 9h25l27 1-4 11-5 13-51 1-3 4-1 7h65l-1 8-7 17-2 1-102 1 1-7 15-42 15-44z" fill="#030101"/>
<path transform="translate(656,194)" d="m0 0h100l-1 7-5 14-2 3-9 1h-49l-6 1-2 4v4l49 1 1 2-7 21-1 1-51 1-3 4-1 7h65v6l-7 18-2 2h-103l2-9 17-49 10-28 4-10z" fill="#030101"/>
<path transform="translate(270,166)" d="m0 0h28l7 2-4 1-5-1h-23l10 2 8 3 9 7 1 4 3 1 5 13 1 14-3 16-7 11-8 11-15 10-13 5-8 2h-21l-10-5-5-5-8-15-2-9-1-1 1-17 3-10 2-4h2v-3h2v-3l-8 8v-3l6-7 11-9 11-7 10-5 16-5z" fill="#FE7F81"/>
<path transform="translate(654,12)" d="m0 0h67l49 2 36 3 38 5 13 3-2 2-3 1-1 2h-2l2 3v5l13 2 10 2 23 5-4 1-38-6-42-5-29-2h-103l-23 2h-15v-1l22-2 5-1-5-1-36 4-26 4-10 1h-16l-2-8-3-4v-3l5-2v-2l6-2-5-1v-1l40-4z" fill="#FE8082"/>
<path transform="translate(898,194)" d="m0 0h106l-1 6-7 18-1 1-33 1-4 9-11 30-7 20-4 11-2 1h-36l9-27 9-25 6-20h-32l-1-2 7-20z" fill="#020101"/>
<path transform="translate(336,198)" d="m0 0 3 1 4 12 1 6v16l-3 15-6 16-9 14-11 13-12 10-15 9-13 5-14 3h-24l-13-4-13-8-9-9-7-11-4-11v-4h2l5 10 7 3 25 6 9 1h16l11-2 14-5 16-9 7-6h2v-2l8-7 6-9 6-13 6-17 5-12z" fill="#A40D0E"/>
<path transform="translate(1648,193)" d="m0 0 34 1-3 10-16 44-13 38-3 5h-36l2-9 14-39 15-44 2-5z" fill="#020101"/>
<path transform="translate(850,23)" d="m0 0 12 1 26 5 36 9 30 9 26 9 25 11 15 8v2l16 8 23 12 18 12 1 2-5-2-29-15-27-11-43-14-37-10-39-9-16-3v-1l12 1-30-6-13-3-2-8h2l1-3 3-2-5-1z" fill="#FFB9BB"/>
<path transform="translate(261,189)" d="m0 0h8l6 2 8 6 5 10v13l-5 10-4 5-10 7-11 4-8 1-8-3-8-7-4-7-1-7 1-9 3-7h2l1-4 9-8 8-4z" fill="#FFC7C8"/>
<path transform="translate(1008,325)" d="m0 0h18l6 4 3 5v7l-4 13-7 11-7 7-9 5-6 2h-6l-4-4-5-4-3-6-1-5v7l3 7 8 4v1h-6l-6-4-3-6v-8l4-13 7-12 9-8z" fill="#FEFBFB"/>
<path transform="translate(1549,217)" d="m0 0h16l6 4 3 5v11l-4 11-7 10-7 6-11 4h-13l-7-3-4-7v-9l4-12 8-11 7-6z" fill="#FEFCFC"/>
<path transform="translate(330,187)" d="m0 0 5 5 3 6h-2l1 11-5 12-6 17-8 16-7 9-4 4h-2v2l-11 8-10 6-14 6-7 2-8 1h-19l-22-5-15-4-4-5-2-4v-3h-2l-1 2v-8h2v2l4-1 4-4 5 2 2 1v2h2l4 5 9 5 13 4 4 1 13 1 12-3 8-1v-2l13-5 6-4 1-2 5-3 5-4 10-13 7-11 3-12 1-6-1-22 4-2 5-2z" fill="#DF1013"/>
<path transform="translate(931,41)" d="m0 0 10 2 36 12 26 11 17 9v2l16 8 23 12 18 12 1 2-5-2-29-15-27-11-43-14-4-2-3-2-24-7-6-2-3-5-1-9z" fill="#FFC6C7"/>
<path transform="translate(1161,340)" d="m0 0h17l4 7-1 10-5 10-5 6-9 5-3 1h-8l-7-3-2-2v-8l3-11 5-8 6-5z" fill="#FEF9F9"/>
<path transform="translate(261,189)" d="m0 0h8l6 2 8 6 5 10v13l-5 10-4 5-10 7-11 4-8 1-8-3-8-7-4-7-1-7 1-9 3-7h2l1-4 9-8 8-4zm1 6-11 4-10 9-4 10v10l6 8 9 3 9-1 12-6 6-7 3-7v-8l-2-5h-2l-2-4-9-6z" fill="#FFB8BB"/>
<path transform="translate(1127,339)" d="m0 0 3 1 2 7-1 10-5 10-6 7-8 4h-8l-7-4-2-4v-9l7-21 3 1h12z" fill="#FEF5F5"/>
<path transform="translate(1052,339)" d="m0 0h2l1 2 14-1 8-1 3 1 2 8-2 10-5 9-7 8-9 4-9-3-1-5-2-1-1-6h-2l2-9z" fill="#FEF9F9"/>
<path transform="translate(1634,340)" d="m0 0h14l3 2-1 8-3 5-6 23h-5l1-6-14 7h-9l-3-3 1-8 4-6 12-5 15-4 3-4-1-4h-10l-11 4-4 1 2-5z" fill="#0A0101"/>
<path transform="translate(1801,340)" d="m0 0h13l2 4-1 3-13-2-4 1-2 5-5 12-2 10 18-3 5-5 8-20 3-5h5l-6 13-9 27-5 8-9 5h-17l-4-2-2-7 5 2 6 2h12l7-4 4-8 2-7-7 6-7 2h-10l-4-3v-9l4-11 5-8 6-5z" fill="#0A0101"/>
<path transform="translate(1008,325)" d="m0 0h14l-4 2h-2v3l-15 4-7 8-5 10-1 3v10l3 5 4 3h9l7-3 5-4 5-7 3-12 2 1-1 9h2l2-8 3-1-1 6-7 11-7 7-9 5-6 2h-6l-4-4-5-4-3-6-1-5v7l3 7 8 4v1h-6l-6-4-3-6v-8l4-13 7-12 9-8z" fill="#230303"/>
<path transform="translate(2029,157)" d="m0 0 4 2-1 7-3 6-4 15-2 3h-4l1-5 3-10v-5l-5 5-10 12-4 4h-4l-1-17-2-5-2 3-6 18-5 1 2-9 4-12 3-7 2-5h6l1 1 3 22 4-2 9-10h2l2-4z" fill="#0B0101"/>
<path transform="translate(1161,340)" d="m0 0h17l4 7-1 10-5 10-5 6-9 5-3 1h-8l-7-3-2-2v-8l3-11 5-8 6-5zm1 5-6 3-7 8-2 8v8l3 3h10l6-3 6-8 3-7v-9l-2-3z" fill="#0B0101"/>
<path transform="translate(1052,339)" d="m0 0h2l1 2 14-1 8-1 3 1 2 8-2 10-5 9-7 8-9 4-9-3-1-5-2-1-1-6h-2l2-9zm18 6-13 1-3 3-5 17 1 4 5 4 5 1 5-3 8-10 2-6v-10z" fill="#1A0203"/>
<path transform="translate(1127,339)" d="m0 0 3 1 2 7-1 10-5 10-6 7-8 4h-8l-7-4-2-4v-9l7-21 3 1h12zm-3 2v5h-15l-5 2-5 15v7l4 3 9 1 5-3 6-7 3-9 1-12z" fill="#0E0102"/>
<path transform="translate(1312,339)" d="m0 0 3 1v2l23-3 3 2-1 10-7 19-4 8-5 1 3-10 7-20 1-6-2 2-18 2-3 10-6 19-3 3h-4l1-5 6-16z" fill="#0A0101"/>
<path transform="translate(1968,157)" d="m0 0h11l6 4 1 5-8-1-4-2-8 1-2 4 6 3 8 2 3 3-1 6-6 8-7 2-11-1-5-5v-5h4l5 4 2 1h9l2-2-1-5-12-5-3-2 1-6 4-6z" fill="#060101"/>
<path transform="translate(1265,339)" d="m0 0 4 1-6 17-7 18 7-3 12 1 5-10 8-23 1-1h6l-7 20-7 19-5-1h-10l-5 1h-7l-2-1 1-10 10-27z" fill="#100202"/>
<path transform="translate(1589,339)" d="m0 0 10 1 6 3 1 1-1 9-6-4-4-4h-6l-7 5-5 10-3 14 5-1h8l5-3 6-4h2l-1 4-8 6-10 3-9-1-4-5v-7l5-12 5-8 6-5z" fill="#0C0202"/>
<path transform="translate(1746,340)" d="m0 0h4v4l11-4h12l1 1-1 9-9 24-3 5h-4l3-10 9-22 1-5-2 2-18 3-4 8-8 23-4 2-2-1 1-5 12-32z" fill="#080101"/>
<path transform="translate(1516,340)" d="m0 0h13l5 3 1 5-3 2-5-4-2-1h-10l-6 4-1 5 2 2 14 1 7 4-2 7-6 7-10 4h-12l-4-2-2-7 1-2 4 1 6 5h10l6-3 4-7v-3l-5 1-6 1-10-5-3-3 1-4 5-7z" fill="#0A0101"/>
<path transform="translate(1240,328)" d="m0 0 7 1-2 7v5l2 4-7 2-10 25 7 2 1 3-1 1h-12l-1-4 8-24 1-7-4-1v-1l8-1-1 8h2l2-4 1-10-1 2h-2l1-6z" fill="#140202"/>
<path transform="translate(1442,339)" d="m0 0 4 1-11 14-12 18-12 17-12 6h-4l1-4 12-6 12-16 9-15 8-12z" fill="#070101"/>
<path transform="translate(1641,356)" d="m0 0h1l-1 10-4 4-12 5-6 1-4-5 3-6 8-4z" fill="#FEFAFA"/>
<path transform="translate(1022,325)" d="m0 0 6 1 6 5 1 3v7l-2 8h-3l-3 8h-2v-9l-1-4-1-7-4-4-6-2 3-1v-3z" fill="#FE8284"/>
<path transform="translate(1392,328)" d="m0 0h5l-1 5-1 4 4 7-7 3-3 5-7 16-1 7h2l3-3 2 3v3l-8 1-6-2 1-5 8-19 2-6-5-5v-2h5l3 6 3-1 1-5v-6l-3 1 1-5z" fill="#0C0101"/>
<path transform="translate(1677,324)" d="m0 0h5l1 3-6 15-9 26-5 11h-5l3-9 13-37z" fill="#070101"/>
<path transform="translate(1704,324)" d="m0 0 4 1-7 20-13 34h-5l3-10 14-38 3-6z" fill="#080101"/>
<path transform="translate(1076,340)" d="m0 0h4l2 8-2 10-5 9-7 8-9 4-9-3-1-3 2-3 4 3 5 1 5-3 8-11 2-15 3-1z" fill="#110202"/>
<path transform="translate(1202,339)" d="m0 0 4 2v9l-8 19-3 10-4 1-2-1 1-6 11-33z" fill="#0D0102"/>
<path transform="translate(1487,337)" d="m0 0 4 5-5 11-8 22-4 4h-4l2-6 10-27z" fill="#0A0101"/>
<path transform="translate(1024,347)" d="m0 0 2 1-1 9h2l2-8 3-1-1 6-7 11-7 7-9 5-6 2h-6l-2-5 14-2 8-6 5-7z" fill="#140202"/>
<path transform="translate(1724,336)" d="m0 0 2 1-2 12-10 28-1 2h-6l3-9 8-22 4-8z" fill="#0A0101"/>
<path transform="translate(1289,339)" d="m0 0h6l-7 20-7 19-5-1-1-3 8-19 5-15z" fill="#0D0101"/>
<path transform="translate(260,208)" d="m0 0 7 2 2 2-1 7-7 5-6-1-3-4v-6l5-4z" fill="#FEFEFE"/>
<path transform="translate(1362,340)" d="m0 0 6 1-2 6-8 20-4 12h-5l2-9 10-27z" fill="#0A0101"/>
<path transform="translate(974,67)" d="m0 0 7 1 29 8 19 7 8 4v2l-10-2-25-9-28-9z" fill="#FFBCBE"/>
<path transform="translate(1526,359)" d="m0 0 5 2-2 7-6 7-10 4h-12l-4-2-2-7 1-2 4 1 6 5h10l6-3 4-7z" fill="#0B0101"/>
<path transform="translate(1415,339)" d="m0 0 2 1-1 24-4 13-2 1v-38z" fill="#080101"/>
<path transform="translate(665,31)" d="m0 0 8 1-3 2-14 2-13 1-13 2-16 2h-5l1-3 35-5z" fill="#FE2125"/>
<path transform="translate(1043,364)" d="m0 0 1 3-1 13-2 9-4 6h-5l9-26z" fill="#100202"/>
<path transform="translate(1093,369)" d="m0 0h1l1 7-6 19h-7l10-24z" fill="#2D0404"/>
<path transform="translate(1008,325)" d="m0 0h14l-4 2h-2v3l-16 4 1-7z" fill="#A50D0F"/>
<path transform="translate(1240,328)" d="m0 0 7 1-2 7v5l2 4-7 2-2 2 1-4 2-7v-4l-1 2h-2l1-6z" fill="#1E0303"/>
<path transform="translate(1073,339)" d="m0 0 4 1v2l2 2-6 2h-14l3-5z" fill="#990C0E"/>
<path transform="translate(983,357)" d="m0 0h1l2 11 4 5 7 4 1 3h-6l-9-9-1-4v-7z" fill="#FECDCE"/>
<path transform="translate(1218,340)" d="m0 0 5 1v3l-9 3-6 1 2-5z" fill="#200303"/>
<path transform="translate(1045,363)" d="m0 0 2 1 1 7-4 10-2-1 1-13z" fill="#FD7E80"/>
<path transform="translate(1489,325)" d="m0 0h7v4l-3 3-5 1-2-5z" fill="#0D0101"/>
<path transform="translate(1839,369)" d="m0 0 3 1-2 5-5 3-4-1 1-4z" fill="#110202"/>
<path transform="translate(1024,347)" d="m0 0 2 1-1 9h2l2-8 3-1-1 6-4 7-3-1-1-7z" fill="#560708"/>
<path transform="translate(1385,372)" d="m0 0 3 3v3l-8 1-6-2 4-4h2l1 2h2z" fill="#2A1616"/>
<path transform="translate(1117,341)" d="m0 0h7v5h-13l3-2h7v-2l-2 1h-14v-1z" fill="#A10C0E"/>
<path transform="translate(1724,326)" d="m0 0h8v4l-7 3-2-6z" fill="#050101"/>
<path transform="translate(1366,326)" d="m0 0h8l-2 5-6 2-2-5z" fill="#080101"/>
<path transform="translate(952,60)" d="m0 0 12 3 9 3v1l-10-1-14-4z" fill="#FFBDBF"/>
<path transform="translate(1110,205)" d="m0 0h1v32l-2 1-1-6z" fill="#FFA1A3"/>
<path transform="translate(1495,370)" d="m0 0 4 1 5 5 1 2-4 1-4-2z" fill="#682D2D"/>
<path transform="translate(1127,339)" d="m0 0 2 4-1 11-3 4 1-15-2-3z" fill="#A50D0F"/>
<path transform="translate(1046,355)" d="m0 0 4 2-2 9-4-2z" fill="#A50D0F"/>
<path transform="translate(221,190)" d="m0 0 2 1-12 12v-3l6-7z" fill="#FE575A"/>
<path transform="translate(988,372)" d="m0 0 9 5 1 3h-6l-3-4z" fill="#FF8082"/>
<path transform="translate(1043,364)" d="m0 0 1 3-1 13v3h-2l-1-10z" fill="#A50D0F"/>
<path transform="translate(986,368)" d="m0 0 4 1 5 5v2l-5-2-4-5z" fill="#980C0D"/>
<path transform="translate(1024,347)" d="m0 0 2 1-1 9h2l-1 4-2-1-1-7z" fill="#9E0C0E"/>
<path transform="translate(617,37)" d="m0 0m-2 0 7 2v1l-13 1 1-3z" fill="#FE4246"/>
</svg>
