<?xml version="1.0" encoding="UTF-8"?>
<svg version="1.1" viewBox="0 0 2048 706" width="1280" height="1280" xmlns="http://www.w3.org/2000/svg">
<path transform="translate(138)" d="m0 0h469l-2 9-20 56-76 212-15 42-19 53-3 8h-470l3-11 18-50 20-56 76-212 15-42z" fill="#ED2C2A"/>
<path transform="translate(1839)" d="m0 0h28l35 3 24 4 23 6 22 8 16 8 14 8 16 12 12 11 9 9 7 8 1 3h2l-1 3-8 7-17 16-13 12-45 42-12 11-16 15-10 9-4-2-12-11-14-11-13-8-16-8-21-7-14-3-7-1h-29l-15 4-9 6-5 6-2 5 1 5 12 6 26 8 43 11 33 11 18 8 17 9 14 10 12 11 10 13 8 16 4 14 1 6v27l-4 20-5 17-11 26-11 20-11 16-9 11-9 10-6 7-8 7-10 9-18 13-18 11-17 9-27 11-23 7-27 6-31 4-17 1h-28l-28-2-32-5-27-7-24-9-23-11-17-11-13-10-12-11-10-10-13-17-3-4v-2l11-9 13-11 14-11 15-13 11-9 13-11 22-18 13-11 11-9 7-5 11 12 7 8 10 9 16 11 19 10 20 7 19 4 23 2h12l17-2 12-4 10-6 6-9 1-6-16-8-25-8-42-11-36-12-20-9-17-10-10-8-10-9-9-11-7-12-6-18-2-14v-14l3-21 6-21 10-25 9-17 12-18 10-13 12-13 14-14 11-9 15-11 18-11 23-12 23-9 19-6 26-6 31-4z" fill="#ED2C2A"/>
<path transform="translate(918,9)" d="m0 0h416l-7 21-18 49-28 77-1 1-249 1-17 47h225l-11 31-18 49-20 55-3 7h-226l-1 6-15 41-23 63-21 57-2 3h-166l1-6 21-57 18-50 11-30 92-252 20-55 21-57z" fill="#ED2C2A"/>
<path transform="translate(1412,9)" d="m0 0h168l-3 11-38 104-21 57-18 50-11 30-92 252-2 4h-167l1-6 18-50 18-49 21-58 14-38 20-55 21-57 22-61 14-38 23-63z" fill="#ED2C2A"/>
<path transform="translate(613,137)" d="m0 0h131l-10 29-20 55-18 51-76 212-11 30-1 2h-470l7-21 18-50 8-22 1-1 339-1 11-30 35-98 38-106z"/>
<path transform="translate(1772,640)" d="m0 0h16l7 19 2 6h2l7-8 12-14 3-3h16l-4 16-13 48h-15l10-39-8 8-7 8-8 9-3-3-8-21-2 3-9 34-1 1h-14l4-16 12-45z" fill="#010000"/>
<path transform="translate(657,640)" d="m0 0h13l10 19 9 18 7-24 3-12 1-1h14l-4 17-12 45-1 2h-13l-19-38-4 13-7 25h-14l2-11 14-52z" fill="#010000"/>
<path transform="translate(1326,640)" d="m0 0h14l9 17 9 19v2h2l1-8 8-29 1-1h14l-4 16-13 48h-13l-19-38-3 8-8 30h-15l11-42z" fill="#020000"/>
<path transform="translate(426,640)" d="m0 0h13l5 8 12 25 2 4 3-9 7-26 1-2h14l-2 11-14 52-1 1h-13l-11-23-7-14v-2h-2l-2 11-7 26-1 2h-14l2-10 14-52z" fill="#020000"/>
<path transform="translate(254,639)" d="m0 0h15l8 3 7 6 4 9v13l-5 13-9 11-11 7-11 4-11 1-11-3-6-4-4-5-3-7v-12l4-11 6-9 7-7 10-6zm-1 13-10 5-7 8-3 7-1 7 3 8 5 4 3 1h9l7-3 7-5 5-8 2-7-1-9-5-6-5-2z" fill="#020000"/>
<path transform="translate(169,639)" d="m0 0h15l8 3 7 6 4 9v12l-3 10-6 9-4 5-10 7-9 4-10 2-10-1-10-4-6-7-3-8v-11l4-11 6-9 7-7 10-6zm-1 13-10 5-7 8-3 7-1 7 3 8 5 4 2 1h10l9-4 5-4 5-8 2-11-2-7-6-5-3-1z" fill="#020000"/>
<path transform="translate(1265,639)" d="m0 0h16l9 4 5 4 4 8 1 4v9l-3 10-6 10-8 8-10 6-9 3-11 1-9-2-8-5-5-6-2-5v-14l4-11 6-8 5-5 8-6 9-4zm0 13-9 4-5 4-6 10-1 11 3 6 5 4 2 1h10l10-5 7-8 3-7v-11l-4-6-6-3z" fill="#020000"/>
<path transform="translate(315,640)" d="m0 0h36l7 3 5 5 1 3v8l-3 9-9 10-6 3h-2l9 21v2h-17l-7-18v-2h-12l-2 11-3 9h-14l2-11 14-52zm11 13-3 8-2 10h18l6-3 3-4 1-7-5-4z" fill="#010000"/>
<path transform="translate(529,639)" d="m0 0h17l8 3 6 5-6 7-5 4-4-2-7-3h-10l-12 6-6 12-1 3v8l4 7 4 2h13l7-2 2-10h-13l1-7 2-5h28l-4 17-4 12-14 7-14 3-10-1-8-3-6-5-4-9v-14l4-11 6-8 5-5 8-6 9-4z" fill="#020000"/>
<path transform="translate(1704,640)" d="m0 0h48l-1 8-2 5h-35l-1 12h28l-1 8-2 5-30 1-3 11 34 1-2 11-1 2h-49l2-11 14-52z" fill="#030000"/>
<path transform="translate(1089,639)" d="m0 0h8l5 1 10 64h-16l-1-14-28 1-8 12-1 1h-14l2-5 8-11 11-16 16-23 6-9zm0 19-8 11-4 6v2h16l-2-16z" fill="#020000"/>
<path transform="translate(882,639)" d="m0 0h7l6 2 9 57v6h-15l-1-6v-8l-28 1-8 12-1 1h-15l7-11 8-11 16-23 11-16zm0 19-8 11-5 8h17l-3-19z" fill="#020000"/>
<path transform="translate(1455,639)" d="m0 0h14l10 4 4 3-2 4-7 8-10-5h-11l-4 4v4l10 4 11 4 5 5 1 3v7l-4 9-5 6-10 5-4 1h-14l-11-4-6-5 2-4 7-7 5 2 4 3 11 2 8-2 1-8-10-3-11-4-5-5-1-2v-9l5-10 7-6z" fill="#020000"/>
<path transform="translate(1874,639)" d="m0 0h13l9 3 6 5-6 7-5 4-6-4-3-1h-10l-4 3v5l10 4 12 5 4 5v11l-4 8-9 8-9 3h-15l-11-4-6-5 2-4 8-7 4 2 7 4 9 1 7-3 1-1v-5l-9-4-11-4-5-4-2-5 1-9 5-8 8-7z" fill="#020000"/>
<path transform="translate(1588,639)" d="m0 0h13l9 3 5 4-1 4-8 8-10-5h-11l-3 1v7l10 4 12 5 4 5v10l-4 9-9 8-9 3h-15l-11-4-6-5 2-4 8-7 4 2 7 4 9 1 7-3 1-1v-5l-9-4-11-4-5-4-2-4 1-10 6-10 9-6z" fill="#010000"/>
<path transform="translate(751,639)" d="m0 0h13l11 4 4 3-2 4-8 8-10-5h-10l-4 3v5l16 6 7 4 3 4 1 7-4 11-5 5-5 4-9 3h-15l-10-4-7-6 10-10 12 6 8 1 7-3 1-1v-5l-9-4-13-5-4-5v-11l4-8 9-8z" fill="#020000"/>
<path transform="translate(17,640)" d="m0 0h49l-1 8-2 5h-35l-2 10-1 3h30l-1 7-2 6-30 1-7 24h-15l4-16z" fill="#010000"/>
<path transform="translate(1497,640)" d="m0 0h17l8 24 5-5 11-12 6-7h16l-4 6-16 17-14 16-7 25h-15l6-23-1-7-12-32z" fill="#020000"/>
<path transform="translate(1133,640)" d="m0 0h53l-3 13h-20l-4 17-9 34h-15l4-17 9-34h-19l3-12z" fill="#010000"/>
<path transform="translate(1633,640)" d="m0 0h53l-2 10-1 3h-20l-2 10-11 41h-15l9-35 4-15-19-1 3-12z" fill="#010000"/>
<path transform="translate(796,640)" d="m0 0h53l-1 8-2 5h-20l-2 11-10 37-1 3h-15l13-49 1-2h-20z" fill="#010000"/>
<path transform="translate(1e3 640)" d="m0 0h14l-1 7-11 42-1 2h32l-3 13h-47l4-17 12-45z" fill="#010000"/>
<path transform="translate(938,640)" d="m0 0h15l-13 49-1 2h32l-3 13h-47l4-16z" fill="#010000"/>
<path transform="translate(84,640)" d="m0 0h15l-4 16-9 34 31 1-2 11-1 2h-47l15-56z" fill="#010000"/>
<path transform="translate(1204,640)" d="m0 0h15l-11 42-6 22h-15l9-35z" fill="#020000"/>
<path transform="translate(619,640)" d="m0 0h15l-4 17-12 44-1 3h-15l15-56z" fill="#010000"/>
<path transform="translate(389,640)" d="m0 0h14l-4 18-12 44-1 2h-14l2-11 14-52z" fill="#010000"/>
</svg>
