<?xml version="1.0" encoding="UTF-8"?>
<svg version="1.1" viewBox="0 0 1200 1144" width="1280" height="1280" xmlns="http://www.w3.org/2000/svg">
<path transform="translate(863,297)" d="m0 0h43l40 2 42 4 28 4 21 5 27 9 21 9 21 11 16 11 11 9 14 14 10 15 7 16 3 13v26l-3 15-7 19-12 23-14 20-9 11-12 14-10 10-6 7-8 7-8 8-8 7-15 13-11 9-18 14-4 3-93 1 2-4 8-8h2l1-3h2l2-4 13-13 9-11 12-16 11-18 8-16 6-15 5-17 3-17v-29l-3-14-5-12-9-15-8-10-9-10-7-7-14-11-15-10-21-11-20-8-23-7-25-5-24-3-14-1h-41l-34 3-35 5-37 7-48 10-52 13-31 9-32 10-38 14-28 12-17 8-23 13-17 12-4 2h-83v-3l33-16 36-16 21-9 27-11 40-15 26-9 36-12 44-13 42-11 38-9 45-9 42-7 48-6 45-4z" fill="#1A96D4"/>
<path transform="translate(901,684)" d="m0 0h20v2l-36 16-51 22-27 11-41 16-41 15-50 17-43 13-24 7-3-1 3-17 7-3 48-13 35-11 25-9 30-13 38-19 41-24 13-8z" fill="#1C97D4"/>
<path transform="translate(746,603)" d="m0 0h15l5 3 3 3 4 1 1-5 1-1h18l-1 9-14 70-4 10-6 9-7 6-12 5-5 1h-16l-13-4-2-4 7-14 9 3 11 1 7-2 5-4 4-7 1-3-11 4h-12l-8-5-6-8-2-5-1-6v-10l3-15 5-13 6-10 8-6zm8 16-5 3-6 9-4 14-1 13 3 7 3 2h9l7-5 4-16 3-16v-7l-3-3z" fill="#1C97D4"/>
<path transform="translate(166,575)" d="m0 0 13 1 12 5 8 9 3 6 1 5v12l-1 1h-20l-1-3v-9l-4-6-7-3-9 1-6 4-4 5-4 10-5 21-2 10v9l3 9 5 4h12l7-4 4-5 4-10h20l1 3-6 14-8 10-8 6-13 4h-15l-10-3-8-6-7-10-3-9v-13l6-29 5-13 6-10 5-5 6-5 8-4z" fill="#1C97D4"/>
<path transform="translate(685,603)" d="m0 0h14l6 4 4 5 2 11-3 19-8 40-2 1h-18l-2-1 1-7 8-41v-12l-3-2h-7l-8 4-4 16-8 41-2 2h-19l-1-5 10-50 5-23 1-1h18l1 4-1 3 5-2 7-5z" fill="#1D97D4"/>
<path transform="translate(329,603)" d="m0 0h14l6 4 4 5 2 12-4 24-7 34-7 1h-12l-3-1 2-12 7-35v-13l-3-2h-7l-8 4-4 16-8 41-2 2h-20l-1-2 5-22 11-55h20v7l5-3 6-4z" fill="#1D97D4"/>
<path transform="translate(445,604)" d="m0 0h20l1 5-6 28-4 22 1 6 2 1h9l7-3 2-5 10-51 2-3h20l-1 10-13 66-2 3h-17l-1-1v-6l-9 6-7 2h-11l-8-4-4-5-2-6v-13l10-51z" fill="#1C97D4"/>
<path transform="translate(206,467)" d="m0 0 11 1 8 5 3 5 1 4v10l-7 37-4 18h-22l5-26 5-25v-8l-4-3h-7l-7 3-3 8-10 50-1 1h-21l2-13 13-64 1-1h19v7l14-8z" fill="#1B96D4"/>
<path transform="translate(537,467)" d="m0 0 11 1 6 4 4 6 1 4v10l-3 17-7 36-3 3-19-1 1-9 8-41v-9l-1-2-3-1h-7l-6 3h-2l-4 19-7 35-2 5-3 1-18-1 5-26 10-50 1-2h19v7l14-8z" fill="#1C96D4"/>
<path transform="translate(237,603)" d="m0 0h18l9 4 7 8 4 10v19l-4 15-6 10-4 5-10 7-5 2-6 1h-14l-8-3-8-7-5-10-1-6v-9l2-14 5-12 6-8 8-7 9-4zm4 16-7 4-5 8-4 16v11l4 8 2 1h9l7-5 4-8 3-14v-11l-3-7-4-3z" fill="#1C97D4"/>
<path transform="translate(603,467)" d="m0 0 13 1 8 4 5 5 4 8 1 3v14l-2 11-2 2h-43l5 15 7 2 10-1 13-4 2 3 2 9-4 4-13 5-6 1h-14l-8-3-6-4-6-9-3-9v-11l4-17 6-12 9-10 9-5zm-1 17-7 5-4 8v3h21l1-1v-9l-3-5z" fill="#1C96D4"/>
<path transform="translate(324,467)" d="m0 0 12 1 7 3 5 4 5 9 1 4v17l-2 9-1 1h-43l2 10 4 5 9 2 13-3 6-2 2 2 2 7-1 5-12 6-10 2h-13l-9-3-8-7-5-9-1-4v-17l3-12 7-14 8-9 10-5zm-2 17-7 6-3 6v4h20l2-6-2-7-4-3z" fill="#1C96D4"/>
<path transform="translate(390,603)" d="m0 0h19l10 4 6 7 2 4v9l-1 1h-20l-3-8-3-2-6 1-4 2-3 7 1 3 10 4 13 4 8 6 4 8-1 10-4 8-4 5-8 5-12 3h-14l-9-3-8-7-4-8v-7l1-2h18l3 8v2l9 2 8-3 2-3v-6l-3-3-18-6-8-5-4-5-1-2v-11l5-10 7-7 8-4z" fill="#1C97D4"/>
<path transform="translate(184,718)" d="m0 0h5l4 8 4 5v2l-21 4-125 22h-7l-10-10-4-3 1-3 141-23z" fill="#1C96D4"/>
<path transform="translate(255,450)" d="m0 0h22l-1 8-3 11h12l1 2-3 12-1 1h-12l-1 8-5 26-2 13 12 1-1 13-3 3-5 1h-13l-6-3-5-6-1-3v-10l8-40v-2l-10-1 3-15h11z" fill="#1C97D4"/>
<path transform="translate(570,585)" d="m0 0h21l-1 10-2 9h12l-2 13-1 2-12 1-9 46 12 1-1 13-2 3-7 1h-11l-7-3-5-6-1-9 5-28 3-14-1-4-8-1 1-8 2-7 10-1 3-16z" fill="#1C97D4"/>
<path transform="translate(431,434)" d="m0 0h21l-1 10-15 75-6 28h-22l5-25 8-39 6-31 3-16z" fill="#1D97D4"/>
<path transform="translate(533,569)" d="m0 0 20 1-1 8-13 65-7 36-1 3-6 1h-10l-6-1 5-26 17-85z" fill="#1D97D4"/>
<path transform="translate(221,760)" d="m0 0 6 2 14 10 1 2-51 19-49 18-5 1-27-11 1-3 43-15 62-21z" fill="#1C97D4"/>
<path transform="translate(136,442)" d="m0 0h21l-1 7-12 60-7 36-3 3-20-1 4-20 17-84z" fill="#1B96D4"/>
<path transform="translate(410,467)" d="m0 0 4 1-1 7-4 12-1 1-13 1-5 4-3 10-8 41-1 3h-22l5-25 10-51 1-2h19l1 5-1 2 5-3 4-4z" fill="#1C97D4"/>
<path transform="translate(275,790)" d="m0 0 6 1 22 7v2l-16 9-20 12-27 16-10-1-28-5v-3l22-11 19-10 29-15z" fill="#1B96D4"/>
<path transform="translate(462,469)" d="m0 0h21l-1 11-13 65-1 2h-22l11-55z" fill="#1C97D4"/>
<path transform="translate(614,604)" d="m0 0h14l7 1-5 27-9 45-2 5-5 1h-15l-1-3 15-75z" fill="#1D97D4"/>
<path transform="translate(340,807)" d="m0 0h9l21 2 5 1-4 5-14 11-13 11-8 6h-42v-3l15-11 17-12z" fill="#1B96D4"/>
<path transform="translate(404,811)" d="m0 0h30l-2 4-8 9-11 14-3 2-26 2h-12l6-7 8-7 16-16z" fill="#1B96D4"/>
<path transform="translate(495,805)" d="m0 0h2l-1 4-11 17-3 4-16 3-14 2h-6l4-6 13-18 2-2z" fill="#1C97D4"/>
<path transform="translate(542,798)" d="m0 0h6l-2 6-5 13-3 3-38 7 2-5 10-18 6-2z" fill="#1D97D4"/>
<path transform="translate(595,787)" d="m0 0 4 1-5 18-18 5-16 4h-4l1-8 3-11 7-3z" fill="#1F98D4"/>
<path transform="translate(470,434)" d="m0 0h20l1 2-4 14-1 1h-19l-1-5 3-11z" fill="#1C97D4"/>
<path transform="translate(622,569)" d="m0 0 20 1-2 11-2 5h-20l-1-3 3-12z" fill="#1F98D5"/>
</svg>
