<?xml version="1.0" encoding="UTF-8"?>
<svg version="1.1" viewBox="0 0 1600 1008" width="1280" height="1280" xmlns="http://www.w3.org/2000/svg">
<path transform="translate(0)" d="m0 0h1600v1008h-1600z" fill="#FDFDFD"/>
<path transform="translate(588,190)" d="m0 0h6v472l-1 1h-490l-2-5-4-23-14-77v-6l36-7 151-27 30-6 10-4 9-8 6-11 1-4v-17l-13-72-19-107-7-39v-4l12-3 240-44z" fill="#5BB2CC"/>
<path transform="translate(702,169)" d="m0 0 3 2-1 492h-102l-1-1v-473l9-3 65-12z" fill="#5BB2CC"/>
<path transform="translate(800,151)" d="m0 0h7v511l-1 1h-92l-1-1v-494l6-2 59-11z" fill="#5BB2CC"/>
<path transform="translate(1159,85)" d="m0 0h6v578h-62l-1-1v-566l46-9z" fill="#5BB2CC"/>
<path transform="translate(335,710)" d="m0 0h114l15 2 16 5 12 6 10 8 9 10 8 14 4 11 2 11v21l-4 17-6 12-10 13-12 10-17 8 1 6 38 84 10 21v3l-21 1-15-1-3-4-15-33-16-35-13-29-2-6h-72l-1 107h-32z" fill="#1D5F72"/>
<path transform="translate(1354,49)" d="m0 0h14l8 5 6 7 3 8 10 54 5 31 1 9 1 30v44l-1 426h-52v-612z" fill="#5BB2CC"/>
<path transform="translate(265,249)" d="m0 0 2 1 14 77 20 113 6 32v9l-4 7-7 4-10 3-189 34-13 2h-7l7-11 10-15 29-44 70-105 29-44 32-48 10-14z" fill="#5BB2CC"/>
<path transform="translate(892,134)" d="m0 0h4v529h-53l-1-3v-516l24-5z" fill="#5BB2CC"/>
<path transform="translate(1089,98)" d="m0 0h5v565h-50l-1-6v-550l25-5z" fill="#5BB2CC"/>
<path transform="translate(1091,710)" d="m0 0h40l7 19 19 55 15 42 21 60 19 54 9 25 2 7h-34l-3-5-12-34-7-20-112-1-10 28-10 29-2 3h-33l-1-2 6-15 13-37 15-43 20-57 7-19 7-20 19-55z" fill="#1E6073"/>
<path transform="translate(1295,709)" d="m0 0 6 2 7 11 17 29 10 16 21 35 51 84 13 22 6 9 2 1v-208l31-1 1 1v262h-38l-7-10-10-17-13-21-31-51-34-56-13-21-12-20-6-9v34l-1 171-4 1-29-1v-261l1-1z" fill="#1D5F72"/>
<path transform="translate(1272,64)" d="m0 0h7v533l-1 66h-41l-1-1v-590l9-3z" fill="#5BB2CC"/>
<path transform="translate(710,741)" d="m0 0h62l14 2 13 5 11 7 10 11 8 16 5 17 2 13 1 15v35l-3 23-5 18-7 13-6 8-10 8-14 7-11 3-47 1h-21l-3-2v-198z" fill="#FDFDFD"/>
<path transform="translate(676,710)" d="m0 0h101l14 2 16 5 17 9 11 9 9 9 10 15 8 18 4 15 3 18 1 11v43l-3 23-4 17-6 15-8 14-8 10-7 7-14 10-17 8-9 3-6 1-41 1h-36l-35-1zm34 31-1 2v198l3 2h21l47-1 16-5 12-7 7-6 9-13 5-11 4-15 3-23v-35l-2-22-4-17-6-15-6-9-8-9-13-8-11-4-14-2z" fill="#1D5F72"/>
<path transform="translate(954,123)" d="m0 0h6v539l-1 1h-38l-1-1-1-532 13-3z" fill="#5BB2CC"/>
<path transform="translate(104,710)" d="m0 0h167l8 1v29l-1 1h-141v79l124 1v31l-125 1 1 89 142 1v29h-175z" fill="#1D5F72"/>
<path transform="translate(1008,113)" d="m0 0h2v550h-38l-1-1v-541l6-2z" fill="#5BB2CC"/>
<path transform="translate(1300,59)" d="m0 0 2 1v602l-1 1h-17v-600l5-2z" fill="#5BB2CC"/>
<path transform="translate(368,741)" d="m0 0h75l14 2 13 5 8 6 7 8 4 10 1 6v17l-3 12-6 10-9 8-11 5-10 2-20 1h-63l-1-13v-72z" fill="#FDFDFD"/>
<path transform="translate(1457,709)" d="m0 0 3 1v262h-38l-7-10-10-17-13-21-10-16 1-6 4-1 8 3 2-5 4-3 4 1 11 6 4 5 6 9 2 1v-208z" fill="#1D5F72"/>
<path transform="translate(1416,251)" d="m0 0 2 1 3 16 9 53 14 78 2 17 1 25v136l-1 86h-29l-1-2z" fill="#5BB2CC"/>
<path transform="translate(1217,74)" d="m0 0h2l1 4-1 585h-16l-1-6v-578l2-2z" fill="#5BB2CC"/>
<path transform="translate(833,145)" d="m0 0 2 1v516l-1 1h-17l-1-6v-508l11-3z" fill="#5BB2CC"/>
<path transform="translate(926,710)" d="m0 0h33l1 3v259l-4 1-30-1z" fill="#1D5F72"/>
<path transform="translate(579,710)" d="m0 0h33v262h-33z" fill="#1D5E71"/>
<path transform="translate(676,710)" d="m0 0h35v1h-34l1 203 1 6 2-6 2-3h2v-3h2l2-4 2-1h6l4 5 2 5v3h2l1 3 2 1v-92h1l1 113 2 1h21l47-1 16-5 12-7 5-5h2l2-4 7-11 3-6 1 3-2 4 4 1 1-2 2 1v-2l7-2 12-2 5 2 2-5 5-5-1 8-6 15-8 14-8 10-7 7-14 10-17 8-9 3-6 1-41 1h-36l-35-1z" fill="#2A7E98"/>
<path transform="translate(104,763)" d="m0 0h1l1 170 2-12h2v-8l3-9h2v-2l5-2h5l4 6 3 7 3 16 2 13 142 1v29h-175z" fill="#2A7F99"/>
<path transform="translate(1109,747)" d="m0 0 3 3 10 28 22 65 12 34v2h-91l3-11 7-20 13-38 12-36z" fill="#FDFDFD"/>
<path transform="translate(1060,897)" d="m0 0h24l21 2 17 1 28 1 11 1 10 2h5v-2l11-2 5 4 4 5 4 1 1-2 18 52 4 10v2h-34l-3-5-12-34-7-20-112-1-10 28-10 29-2 3h-33l-1-2 6-15 13-37 3-8 2 4 9-7h3l1-3 2-1 10-1 4-2 3 2 3-1z" fill="#257289"/>
<path transform="translate(1456,478)" d="m0 0h2l2 7 6 36 18 103 7 37v2h-34l-1-54z" fill="#5BB2CC"/>
<path transform="translate(676,928)" d="m0 0h1l1 42 2 1 1-4 1 1 1-3 1-10 5-4 3-1 4 1v-2l9-1 8 1 8-1 6 1h28l2 1 3-1 3 1 14-1 6-1 13-2 6-2 10-1 14-1 4 4-3 4-2 1v2h-2v2l3 1-14 8-12 5-12 3-41 1h-36l-35-1z" fill="#5AB1CB"/>
<path transform="translate(1459,858)" d="m0 0h1v114h-38l-7-10-10-17-5-9-2-5-1-3 1-3 3-1 9 4v-4l10-2 5 1 4 3 8-1 5 1 4-1 8 2h4z" fill="#287D97"/>
<path transform="translate(480,899)" d="m0 0 7 4 7 7 4 1 13 28 9 20 5 10v3l-21 1-15-1-3-4-15-33-8-18-1-6-1-3 3-5 5 2v2l7-6z" fill="#257289"/>
<path transform="translate(1262,711)" d="m0 0h1l1 162 1 47h2l2-6 5-6 5-3 4 1 4 3 6-5 1-132 2 4-1 196-4 1-29-1z" fill="#297E98"/>
<path transform="translate(127,948)" d="m0 0 15 2 11 1 19-1h4l22 1 57 1h2 7l3 1v2l5 1v7l-2 4-2 1h-20l-5-2v2l-11-1h-9l-3 1h-45l5 1v1h-18l-4-2-9-1-18-1-11-2-6-5 1-5z" fill="#5AB1CB"/>
<path transform="translate(959,713)" d="m0 0h1v259l-4 1-30-1v-71l2 2v19l4-2 3-8 4-1 2-4 6-1 6 2 1 4h4z" fill="#257188"/>
<path transform="translate(1498,709)" d="m0 0h16l8 4 8 9 2 7v12l-3 8-6 7-7 4-4 1h-12l-8-3-5-5-4-5-3-9v-9l4-10 7-8z" fill="#FDFDFD"/>
<path transform="translate(1428,882)" d="m0 0h1v29l7-1v-2l7-4 6-2h8l1-6h1v18l-1 13-5 1-9-2-5 1-4-1-6 1-6-4-13 1v4l-5-1-5-2h-2l1 6 2 5-5-5-13-22-1-4 1-3 4-1 8 3 2-5 4-3 4 1 11 6 4 5 6 9 2 1z" fill="#257289"/>
<path transform="translate(579,760)" d="m0 0h1l1 179 1 5 4-5 3-7h2v-2h3l1-2h7l2 1 2 6 1 4 4 1v-55h1v87h-33z" fill="#2B809A"/>
<path transform="translate(335,769)" d="m0 0h1v184l2-1 3-9h2v-7l4-5 4-3h4l6 7 4 2 2-3v38h-32z" fill="#297E98"/>
<path transform="translate(1459,858)" d="m0 0h1v114h-38l-7-10-5-8 1-7 6 1 4 3h7l1 1 7-1 6-1v-2l6-1h10z" fill="#5AB1CB"/>
<path transform="translate(676,710)" d="m0 0h35v1h-34l1 203 1 6 2-6 2-3h2v-3h2l2-4 2-1h6l4 5 2 5v3h2l1 3 2 1v14l-2 3-4-1-6-7-5-1v2l-5 1-3 10-4 6h-1l-2-19z" fill="#25748B"/>
<path transform="translate(959,713)" d="m0 0h1v259l-4 1-30-1v-71h1l1 59 5-5 2-3 11-4h6l4 5 1 4 1-11z" fill="#5AB1CB"/>
<path transform="translate(1262,711)" d="m0 0h1l1 225 1 25 4-6h2l1-4 11-3h6 4l1-13h1v37l-4 1-29-1z" fill="#5AB1CB"/>
<path transform="translate(500,943)" d="m0 0 6 2 3 3 5 1v2h2l9 18v3l-21 1-15-1-3-4-3-8-2-10 1-5 4 1 7 1 5-2z" fill="#59B0CA"/>
<path transform="translate(1034,943)" d="m0 0 1 2 5-2h3l-1 6-7 20-2 3h-33l-1-2 6-15 4-11 1 4-2 5 5-2h3l2-4 13-1v-2z" fill="#5AB1CB"/>
<path transform="translate(1202,944)" d="m0 0 8 4 4-2 9 24v2h-34l-3-5-3-11 2-10h3v2h4l2-2 4-1z" fill="#59B0CA"/>
<path transform="translate(1498,709)" d="m0 0h16l8 4 8 9 2 7v12l-3 8-6 7-7 4-4 1h-12l-8-3-5-5-4-5-3-9v-9l4-10 7-8zm2 5-6 4-6 7-2 5v9l3 8 4 5 8 4h10l10-6 5-7 1-12-3-9-8-7-3-1z" fill="#2A788F"/>
<path transform="translate(120,900)" d="m0 0h5l4 6 3 7 3 16 2 15-2-1-1-4-8-8-6-2-3 1v2l-5 5-2 10-4 8h-1v-19l3-15h2v-8l3-9h2v-2z" fill="#257188"/>
<path transform="translate(486,923)" d="m0 0h7l3 1 5 7 5 1 1-2 8 18-1 3-2-2-5-1-2-3-5-1-3 3-9 1-5-2-1 4 2 10-3-3-10-22 1-9 2-2 7 4z" fill="#297E98"/>
<path transform="translate(1263,873)" d="m0 0h1l1 47h2l2-6 5-6 5-3 4 1 4 3 6-5h1v25h-3v2h-8l-5-1-6 2-5 10-3-1-1-5z" fill="#257289"/>
<path transform="translate(351,904)" d="m0 0 5 2 4 2 2 6h2v2h2l1-3v21l-1 5-6-4-5-5v-2l-5 2-6 6-1 7h-2l-1 5-2 5h-2v-26l2 1 3-11 2-6 2-4z" fill="#257188"/>
<path transform="translate(598,903)" d="m0 0 7 3 2 7 4 4v23l-4-1-3-5v-5h-9l-4 1v2h-2l-1 4-3 6-4 3-1-6v-19l1 2h2l3-10 3-1 1-4z" fill="#257188"/>
<path transform="translate(1192,923)" d="m0 0 5 1 6 7h3l2-3 5 15-1 5-4 1-4-4-10 2-3 3-3-2v-2h-3l-1 10h-2l-8-23 1-4 3-5 7 2z" fill="#297E98"/>
<path transform="translate(863,896)" d="m0 0 1 4-6 17-6 11-4-1-9-2h-16l-6-1 2-5 8-16 1 3-2 4 4 1 1-2 2 1v-2l7-2 12-2 5 2 2-5z" fill="#26738A"/>
<path transform="translate(1048,919)" d="m0 0 3 1-1 5-6 18-9 2-4-1v2l-10 2-4 1-1 2-5 2h-3l3-15 2-5 7-1 5-4 7-2v-2l5-1 6-1h2z" fill="#2A7F99"/>
<path transform="translate(927,927)" d="m0 0h1l1 15 4-4h2l-1-3 5-4 5-2 5-1 7 6 2 1v-6h1v17l-1 12-2-1-2-5-2-3-9 1-4 2h-4l-2 5-3 3h-2l-1-4z" fill="#287D97"/>
<path transform="translate(598,948)" d="m0 0h7l2 7v14l-1 3h-25l4-6v-8l2-5 4-1h3v-3z" fill="#5AB1CB"/>
<path transform="translate(1500,720)" d="m0 0h11l5 4 1 8-2 6v9l-4-1-4-6-3-1-1 9-5-1-1-2v-22z" fill="#277991"/>
<path transform="translate(1498,709)" d="m0 0h16l8 4 8 9 2 7v12l-3 8-3 2-1-2 1-18-3-9-7-6-3-1h-18l-2-4z" fill="#276D82"/>
<path transform="translate(1062,907)" d="m0 0h4l13 1 29 1 43 1 16 1v1h-110l-2-2 7-2z" fill="#3C91AB"/>
<path transform="translate(352,950)" d="m0 0 8 1 3 8-2 7-2 3-8-1-5-3v-2h-2l-1-5 5-5z" fill="#5BB2CC"/>
<path transform="translate(1525,743)" d="m0 0h1v7 3l-8 6-6 2h-12l-8-3-5-5 3-1-2-4 1-3 4 6 8 4h10l9-5z" fill="#276E83"/>
<path transform="translate(206,944)" d="m0 0h73v3l-4 1-5-1-39-1-25-1z" fill="#257188"/>
<path transform="translate(1504,725)" d="m0 0h6l2 3-1 5-4 2 1 3h2l1-3 4 1v11l-4-1-4-6v-3h-2l-2-10z" fill="#2F829B"/>
<path transform="translate(1488,745)" d="m0 0 4 5 6 4 12 2-2 1v2l4 2h-12l-8-3-5-5 3-1-2-4z" fill="#358AA4"/>
<path transform="translate(1504,720)" d="m0 0h7l5 4 1 8-2 4h-4l-1 2h-2v-2l-2-1 5-3-1-6-5-2-4-2z" fill="#24697E"/>
<path transform="translate(1497,723)" d="m0 0h1l1 6h1v13h2l1 6-5-1-1-2z" fill="#59B0CA"/>
<path transform="translate(1504,725)" d="m0 0h6l2 3-1 5h-6l-2-6z" fill="#FDFDFD"/>
<path transform="translate(1491,712)" d="m0 0h4v3l3 1-8 7-2 2-1-5 2-3-2-1z" fill="#2F7E96"/>
<path transform="translate(1525,743)" d="m0 0h1v7 3h-3l-3 1-3-2 5-5z" fill="#34869F"/>
<path transform="translate(1500,720)" d="m0 0 4 1v1l4 1 1 2h-5l-1 2h-2l-3 1v-7z" fill="#308098"/>
<path transform="translate(1500,756)" d="m0 0h10l-2 1v2l4 2h-12v-3z" fill="#308099"/>
<path transform="translate(1485,743)" d="m0 0h3l2 9-5-1-2-3 1-4z" fill="#256F85"/>
<path transform="translate(1482,728)" d="m0 0h1v18l-2-3-1-4v-9h2z" fill="#287086"/>
<path transform="translate(255,944)" d="m0 0h24v3l-4 1-3-2-17-1z" fill="#20657A"/>
<path transform="translate(1490,715)" d="m0 0v3l-2 3v6h-3l-1-7 2-3z" fill="#22677C"/>
<path transform="translate(1488,745)" d="m0 0 4 5 2 4-1 2-5-1-1-3h3l-2-4z" fill="#2B7E97"/>
<path transform="translate(1503,732)" d="m0 0h2v5h2v2h-5l-1-6z" fill="#206377"/>
</svg>
