<?xml version="1.0" encoding="UTF-8"?>
<svg version="1.1" viewBox="0 0 1920 1080" width="1280" height="1280" xmlns="http://www.w3.org/2000/svg">
<path transform="translate(589,216)" d="m0 0 47 2 21 2 24 4 10 1 2 1 9 1 15 4 22 5 10 4 24 8 15 6 23 10 14 8 12 6 24 15 13 10 9 7 21 18v2l3 1 4 5 12 2 2 4h2l7 9 10 13 9 14 8 14v2l-8 1 9 21 5 18 2 7 2 11 1 17v18l-1 17-4 20-5 17-7 17-9 17-13 20-13 16-9 11h-2v2h-2v2l-3 3h-2v2l-11 9-10 9-16 12-10 7-9 5-9 6-12 6-15 8-20 9-23 9-13 4-8 3-17 5-37 8-30 5-27 3-29 1h-31l-30-1-33-4-21-3-13-3-19-4-21-6-19-6-12-4-12-5-21-9-16-8-12-7-9-5v6l-4 1-20-13-13-10-15-13-10-9-3-13-9-9-9-11-8-10-7-11-11-19-7-16-4-10-4-13-4-20-1-11v-32l3-22 7-24 6-15 8-16 11-18 14-18 12-14h2v-2h2l2-4 3-3h2v-2l11-9 9-8 15-11 15-10 13-8 22-12 31-14 17-6 24-8 22-6 21-5 24-4 19-3 22-2z" fill="#032B62"/>
<path transform="translate(910,336)" d="m0 0 13 2 2 4h2l7 9 10 13 9 14 8 14v2l-5 1-170 1-12 6-2 5-3 9v10l3 9 6 7 9 4 44 1 19 5 14 7 12 9 8 8 9 12 5 10 4 12 3 18v11l-3 19-4 11-8 15-6 8h-2l-2 4-3 3h-2v2l-15 10-14 6-13 3h-207l-1-2 6-16 5-12 11-26 174-1 8-3 6-4 4-6 2-7v-12l-4-9-4-5-7-4-7-1-39-1-14-3-13-5-12-7-9-7v-2h-2l-9-11-6-10-4-8-4-13-1-8v-25l2-11 6-17 10-15 13-13 14-9 14-6 7-2 9-1 127-1z" fill="#FEFEFE"/>
<path transform="translate(351,338)" d="m0 0h139l3 3 9 24 4 12 4 9 2 8-1 1-157 1-8 4-6 7-2 5-1 42h100l6 12 13 33 3 7v5l-121 1v163l-2 7-5-1-15-10-11-8-13-11-14-12-4-5-1-11 1-209 2-13 3-10 7-14 9-12 8-8 10-7 16-8 13-4z" fill="#FEFEFE"/>
<path transform="translate(685,225)" d="m0 0h6l2 1 9 1 15 4 22 5 5 3-6 16-7 18-4 10-9 24-5 12-17 43-6 15-11 28-5 12-11 28-7 18-5 12-11 28-9 23-5 12-10 25-6 16-9 23-5 12-3 6h-58l-12-29-6-16-6-14-5-14-4-8-6-16-10-24-6-16-17-42-4-10 1-5h63l3 4 9 24 6 17 8 20 3 10 4 10 8 21 2 1 6-16 8-21 5-14 5-12 7-19 5-12 14-36 6-17 10-25 6-17 5-12 6-15 6-16 8-21 4-10 6-16 8-20 3-8z" fill="#34B44A"/>
<path transform="translate(1471,441)" d="m0 0h34l13 3 10 4 6 4 6 5 7 10 3 7 2 9v22l-4 15-8 13-8 8-16 8-18 4h-32l-6-2-1-1v-106l4-2zm6 11-3 2v85l1 2h23l13-3 11-6 8-9 4-8 2-7 1-8v-11l-2-11-6-12-8-7-10-5-8-2z" fill="#34B44A"/>
<path transform="translate(1173,441)" d="m0 0h31l11 3 9 5 6 8 3 8v12l-4 9-7 8-7 4h-2l5 5 6 7 4 10 6 24 2 5-1 4h-13l-3-5-6-24-4-11-6-5-5-2-20-1v47l-1 1h-13l-1-1v-108l2-2zm7 11-2 1v40h23l9-4 7-8 1-4v-9l-2-6-5-6-11-4z" fill="#34B44A"/>
<path transform="translate(1383,298)" d="m0 0h28l14 3 10 4 7 5v2h2l7 10 4 11 1 4v21l-5 16-6 9-7 7-16 8-13 3h-34l-4-1v-100zm10 10-7 1-1 1v80h26l11-4 6-4 5-4 7-12 2-9v-20l-5-13-8-8-12-6-12-2z" fill="#062D64"/>
<path transform="translate(1206,296)" d="m0 0h16l13 4 11 8 8 11 4 9 3 16v10l-3 16-4 10-6 8-8 8-10 5-13 3h-9l-13-3-9-5-3-2v-2h-2l-8-10-5-13-2-8v-21l4-14 6-12 9-9 10-6zm-1 11-10 5-8 9-5 12-2 10v15l3 12 5 10 8 8 8 4 13 1 10-3 8-6 6-9 4-11 1-4v-20l-3-11-5-10-8-8-9-4z" fill="#082F65"/>
<path transform="translate(1244,441)" d="m0 0h14l1 74 3 12 4 8 9 6 3 1h14l9-4 5-6 4-9 1-8 1-73 1-1h14v77l-3 11-6 12-7 7-9 5-8 2h-19l-9-3-9-5-8-10-4-11-1-5z" fill="#34B44A"/>
<path transform="translate(1280,298)" d="m0 0h23l12 3 8 5 6 7 3 8v9l-4 10-1 2h-2v2h-2l-1 3-7 4h-2v2l5 2 5 6 4 8 4 18 4 14h-14l-3-7-6-24-4-8-5-3-7-2-14-1-1 45h-13v-101zm8 10-7 2v36h21l9-4 5-5 2-4v-11l-3-6-6-5-10-3z" fill="#062E64"/>
<path transform="translate(1561,441)" d="m0 0h61v10l-1 1h-45v36h42l1 1v11l-43 1v40h47l1 1v11h-63z" fill="#34B44A"/>
<path transform="translate(1034,441)" d="m0 0h16l11 33 7 22 5 17 6 21 2 1 1-8 13-40 6-16 3-10 7-20h16l-3 10-7 19-6 17-14 39-9 25-2 2h-15l-4-10-4-11-4-14-12-36-13-40z" fill="#34B44A"/>
<path transform="translate(1505,587)" d="m0 0h12l10 15 6 11 8 13 9 14 6 11 4 8v2h2v-74h10l1 1v93h-13l-12-20-12-19-6-11-9-16-4-8h-1l-1 74h-11v-93z" fill="#34B44A"/>
<path transform="translate(1490,298)" d="m0 0h14l2 1 11 32 9 26 14 41v3h-14l-10-29-1-4-36 1-3 8-8 24h-14l2-9 6-16 17-51 3-8 6-17zm5 15-4 15-10 28 1 2h29l1-2-12-37-2-5z" fill="#072E64"/>
<path transform="translate(1392,438)" d="m0 0h9l18 3 3 2-2 10-5 1-7-2-7-1h-10l-13 3-11 6-7 8-4 8-3 11v19l3 12 4 8 7 8 12 6 8 2h18l11-3 4 1 2 6-1 5-11 3-6 1h-21l-12-3-12-6-9-7-9-14-4-15-1-6v-11l3-16 4-10 8-11 8-7 10-6 9-3z" fill="#34B44A"/>
<path transform="translate(1449,587)" d="m0 0h9l13 3 11 7 8 10 5 12 1 9v13l-3 14-7 12-9 8-8 4-7 2h-19l-12-4-10-8-4-5-5-11-2-9v-19l4-13 5-8 6-7 8-5 11-4zm-1 10-8 3-6 4-6 7-4 9-2 11v8l4 16 7 9 5 4 7 3 3 1h9l9-3 6-4 6-7 4-10 1-4v-20l-4-11-6-8-5-4-7-3-3-1z" fill="#34B44A"/>
<path transform="translate(1137,587)" d="m0 0h9l12 3 11 7 8 9 5 12 1 4v24l-4 12-6 9-5 5-9 6-10 3h-18l-12-4-9-7-6-8-4-8-2-8v-22l4-13 7-10 8-7 11-5zm-1 10-11 4-4 3v2h-2l-6 10-2 6-1 7v11l2 10 5 10 2 3h2v2l8 5 7 2h9l11-4 6-5 6-10 3-11v-15l-4-13-7-10-8-5-6-2z" fill="#34B44A"/>
<path transform="translate(1585,296)" d="m0 0h16l11 3 2 1-1 7-2 4-11-3h-15l-8 5-3 5v10l4 6 8 5 17 8 9 7 5 7 2 7v12l-4 9-7 8-7 4-14 3-14-1-14-4-1-1 1-9 1-2 6 1 8 3 12 1 9-2 6-4 3-5v-12l-4-6-7-6-15-6-9-6-7-8-3-9v-7l3-10 8-9 7-4z" fill="#082F65"/>
<path transform="translate(1248,587)" d="m0 0h9l1 1 1 61 3 11 4 6 4 3 6 2h8l9-4 4-5 4-11 1-63 1-1h10l1 1v59l-1 9-5 12-5 6-8 5-6 2h-19l-9-4-8-7-4-7-2-7-1-9v-59z" fill="#34B44A"/>
<path transform="translate(1045,298)" d="m0 0h55l1 1v10l-43 1 1 33 38 1v11l-38 1-1 45h-13z" fill="#032B62"/>
<path transform="translate(1610,587)" d="m0 0 14 1 9 2-1 8-2 3-13-3h-8l-9 4-3 5v9l6 7 22 10 8 7 4 8v14l-4 8-5 5-10 5-3 1h-19l-13-4 1-9 2-2 11 4 5 1h9l9-4 3-4 1-3v-9l-4-6-6-4-16-7-8-6-4-5-2-6v-9l3-8 5-6 9-5z" fill="#34B44A"/>
<path transform="translate(1068,587)" d="m0 0 14 1 9 2-1 7-2 4-13-3h-8l-9 4-3 5v9l6 7 10 5 8 3 11 8 4 7 1 3v13l-4 8-8 7-10 4h-19l-13-4-1-4 3-7 12 4 5 1h8l8-3 5-5 1-3v-8l-3-6-7-5-16-7-8-6-4-5-2-5v-11l4-9 7-6 9-4z" fill="#34B44A"/>
<path transform="translate(1109,298)" d="m0 0h13l1 1v91h43l1 1v10h-58z" fill="#032B62"/>
<path transform="translate(1427,441)" d="m0 0h15v112h-14l-1-1z" fill="#34B44A"/>
<path transform="translate(1131,441)" d="m0 0h15v111l-1 1h-13l-1-1z" fill="#34B44A"/>
<path transform="translate(1319,587)" d="m0 0h65l3 1v8l-3 2h-26l-1 83h-11l-1-83h-26l-1-1v-9z" fill="#34B44A"/>
<path transform="translate(1344,298)" d="m0 0h13v103h-14v-102z" fill="#032B62"/>
<path transform="translate(1195,587)" d="m0 0h10l1 84h38l1 2v8h-51v-93z" fill="#34B44A"/>
<path transform="translate(1392,587)" d="m0 0h10l1 1v93h-12v-93z" fill="#34B44A"/>
<path transform="translate(1547,296)" d="m0 0h7l-2 10-8 20-3 6-8 1-1-2 4-14 4-18 2-2z" fill="#062E64"/>
</svg>
