<?xml version="1.0" encoding="UTF-8"?>
<svg version="1.1" viewBox="0 0 900 900" width="1280" height="1280" xmlns="http://www.w3.org/2000/svg">
<path transform="translate(447,37)" d="m0 0 5 1 27 16 18 10 24 14 28 16 24 14 18 10 22 13 52 30 28 16 27 16 15 9 1 1v332l-10 7-16 9-24 14-28 16-26 15-22 13-27 15-22 13-26 15-24 14-28 16-17 10-13 8-4 1-12-6-48-28-26-15-23-13-95-55-23-13-48-28-11-7-2-4v-327l4-5 15-8 22-13 52-30 35-20 41-24 16-9 42-24 20-12 14-8 16-9z" fill="#F94546"/>
<path transform="translate(454,217)" d="m0 0 10 2 28 7 4 2-1 11-18 71-14 55-20 79-22 86-9 32-1 2-8-1-33-8-1-1v-7l5-18 16-64 16-62 16-64 12-46 15-60z" fill="#FEFDFD"/>
<path transform="translate(447,37)" d="m0 0 5 1 27 16 18 10 24 14 28 16 24 14 18 10 22 13 52 30 28 16 27 16 15 9 1 1v332l-10 7-16 9-24 14-28 16-26 15-22 13-27 15-22 13-26 15-24 14-28 16-17 10-13 8-4 1-12-6-48-28-26-15-23-13-95-55-23-13-48-28-11-7-2-4v-327l4-5 15-8 22-13 52-30 35-20 41-24 16-9 42-24 20-12 14-8 16-9zm-1 9-12 7-11 6-17 10-11 6-29 17-14 8-24 14-20 11-20 12-23 13-52 30-15 9-18 10-11 7-1 1-1 309 1 16 23 13 24 14 29 16 17 10 22 13 23 13 24 14 26 15 70 40 22 13 4-1 34-20 29-16 15-9 25-14 43-25 26-15 14-8 10-6 24-14 23-13 21-12 13-8 1-1v-323l-4-4-26-15-21-12-26-15-17-10-26-15-24-14-21-12-23-13-43-25-24-14-16-9-7-4z" fill="#FDFCFC"/>
<path transform="translate(308,261)" d="m0 0h45l1 3-14 25-26 46-14 25-11 19 1 4 11 20 26 46 10 18 15 26 2 6h-47l-7-10-12-22-26-46-14-25-6-11-2-3 1-5 12-22 12-21 26-46 14-25z" fill="#FEFDFD"/>
<path transform="translate(530,262)" d="m0 0h42l4 4 16 29 12 21 15 27 16 29 4 6v6l-8 14-16 29-15 27-12 21-10 18-3 6h-47l1-6 14-24 9-17 14-24 11-21 8-14 6-10-1-6-12-21-13-23-12-22-12-21-13-24v-3z" fill="#FEFDFD"/>
<path transform="translate(527,752)" d="m0 0h13l8 3 7 6 4 8 1 6v33l-3 9-6 7-5 3-4 1h-20l-6-1v-7l23-1 6-3 4-6 1-9-1-27-4-8-6-3-8-1-9 4-5 10v7l6 8 5 4h9l11-6 1 1v7l-6 6-6 2h-11l-10-5-6-7-3-8v-14l4-8 5-5 5-4z" fill="#DE3F46"/>
<path transform="translate(717,729)" d="m0 0h10v53l-4 11-5 6-10 5-5 1h-8l-9-3-8-7-4-8-1-3v-12l4-9 5-5 7-5 3-1h13l6 3 5 6zm-22 32-6 3-5 6-1 2v11l3 6 5 5 5 2h8l6-3 5-6 1-2 1-10-1-10-8-2-5-2z" fill="#F74546"/>
<path transform="translate(313,728)" d="m0 0h6l2 2v51l-2 8-6 9-7 5-8 2h-8l-10-3-7-6-5-9v-18l3-6 5-6 9-5h15l6 3 3 5v6l-5-1-7-3-9 1-6 3-4 7-1 7 4 9 6 5 2 1h9l6-3 4-5 3-10 1-48z" fill="#FEFDFD"/>
<path transform="translate(225,752)" d="m0 0h15l8 3 5 4 6 10 1 5v10l-3 8-7 8-8 4-4 1h-10l-9-3-7-6-5-9-1-3v-12l5-10 7-7zm4 9-8 4-4 5-2 10 3 7 6 7 5 2h8l7-4 4-5 1-3v-12l-4-6-6-4-3-1z" fill="#FDFCFC"/>
<path transform="translate(349,752)" d="m0 0h15l10 5 5 6 1 5-27 18-6 1-2-2 1-5 10-7 11-7-1-3-8-3-6 1-5 3h-2l-2 5-3 7 1 9 7 8 8 3 9-1 6-4 4-5 2-5 3-1 3 2v7l-4 6-8 7-9 3h-9l-9-3-8-7-5-9-1-4v-8l4-10 7-8z" fill="#FDFCFC"/>
<path transform="translate(573,752)" d="m0 0 9 1 1 1v24l1 10 2 4 6 3h7l5-4 2-4 1-7 1-27 1-1h7l2 1v29l-2 10-6 8-6 4-5 1h-8l-9-3-5-5-4-8-1-7v-27z" fill="#DE3F46"/>
<path transform="translate(439,752)" d="m0 0h27l1 1v8l-28 2-3 1 2 5 12 5 15 6 5 5 1 2v6l-5 8-3 2-12 1-23-1 1-7 29-1 1-1v-6l-8-4-14-5-7-4-3-7 1-8 5-5z" fill="#FDFCFC"/>
<path transform="translate(190,752)" d="m0 0 9 1 1 1v6l-1 1-14 2-6 3-3 4-1 5v7l3 7 5 4 10 3 6 1 1 5-5 2-14-1-6-3-5-4-5-10-1-4v-7l3-9 6-8 8-4z" fill="#FDFCFC"/>
<path transform="translate(653,729)" d="m0 0h10v73l-1 1h-9l-1-3z" fill="#F84546"/>
<path transform="translate(393,752)" d="m0 0h6l2 1v5l11-6h8l3 2-1 4-13 6h-2v2h-2l-2 9-1 28-2 1h-6l-2-1v-49z" fill="#FDF2F2"/>
<path transform="translate(523,753)" d="m0 0 2 1-4 5 1 5-2 2v3l-3 7v7l6 8 5 4h9l11-6 1 1v7l-6 6-6 2h-11l-10-5-6-7-3-8v-14l4-8 5-5 5-4z" fill="#F94646"/>
<path transform="translate(631,752)" d="m0 0h8l1 1v50h-9l-1-1v-49z" fill="#F94546"/>
<path transform="translate(692,752)" d="m0 0h13l6 3 4 4v5l-5 1-7-3h-8l-6 3-4 5-1 2-1 9-2 2-2-2-5 2-1-2v-9l4-9 5-5 7-5z" fill="#DD3F46"/>
<path transform="translate(480,299)" d="m0 0h1l-1 9-6 24-4 14-5 22-5 18-8 32-5 21-3 11-5 19-4 15-2 3v-8l17-66 16-64 12-47z" fill="#E34046"/>
<path transform="translate(609,752)" d="m0 0h7l2 1v29l-2 10-6 8-5 3 2-4 2-3-1-6-3 1 2-11 1-27z" fill="#DE3F46"/>
<path transform="translate(517,788)" d="m0 0 4 1 7 6h9l11-6 1 1v7l-6 6-6 2h-11l-6-3 1-4-3-4v-3z" fill="#DE3F46"/>
<path transform="translate(244,391)" d="m0 0 3 1 9 17 12 21 10 18 9 16 13 23 3 5-1 4-6-9-5-10-7-12-3-5-13-23-6-10-7-14-5-9-6-11z" fill="#E64146"/>
<path transform="translate(717,729)" d="m0 0h10v26l-1 1h-5l-1 2-2-1z" fill="#F84546"/>
<path transform="translate(532,277)" d="m0 0h3l9 17 14 24 11 21 10 17 5 9-1 4-13-23-10-17-6-10-6-11-7-13-6-11-3-5z" fill="#E64146"/>
<path transform="translate(630,733)" d="m0 0h10l2 3-1 7-1 1h-9l-2-1-1-8z" fill="#F64546"/>
<path transform="translate(432,491)" d="m0 0 1 3-7 26-3 12-4 14h-2l1-9 11-42z" fill="#E64146"/>
<path transform="translate(307,500)" d="m0 0h48v2l-8 1h-37z" fill="#DB3F46"/>
<path transform="translate(426,316)" d="m0 0h1v8l-11 43-4 16-2 1v-6l4-14 7-28 1-7 3-9z" fill="#E44146"/>
<path transform="translate(445,439)" d="m0 0 1 3-2 8-5 19-4 15-2 3v-8l10-39z" fill="#E54146"/>
<path transform="translate(494,243)" d="m0 0 2 1-6 24-5 21-2 5h-1v-8l9-36h2z" fill="#E74146"/>
<path transform="translate(717,732)" d="m0 0h1v25l9-2v15h-1l-1-5-5-1v2h-2l-1 2z" fill="#DB3F46"/>
<path transform="translate(638,753)" d="m0 0h2v50h-9l4-2 2-3z" fill="#E04046"/>
<path transform="translate(576,784)" d="m0 0 2 1v4l5 5 5 6h-2l-1 3-6-3-5-8-1-5z" fill="#F94546"/>
<path transform="translate(606,790)" d="m0 0 4 1-1 7-4 4-4 1v-2h2l1-5-2-1 2-4z" fill="#F94546"/>
<path transform="translate(417,356)" d="m0 0 1 3-6 24-2 1v-6l4-14 2-6z" fill="#E74146"/>
<path transform="translate(487,274)" d="m0 0 1 3-4 15-2 2v-8l2-8h2z" fill="#E24046"/>
<path transform="translate(638,735)" d="m0 0 4 1-1 7h-5l1-6z" fill="#DF3F46"/>
<path transform="translate(458,387)" d="m0 0 1 3-2 10-4 3 2-11 1-4z" fill="#E54146"/>
<path transform="translate(529,754)" d="m0 0h18l5 5-6-1v-2h-11l-6-1z" fill="#FA4646"/>
<path transform="translate(468,348)" d="m0 0 1 4-5 12-1-4 3-11z" fill="#E74146"/>
<path transform="translate(296,485)" d="m0 0h3l4 7-1 4-6-9z" fill="#E34146"/>
<path transform="translate(432,491)" d="m0 0 1 3-3 8-2 1 1-8z" fill="#E34046"/>
</svg>
