<?xml version="1.0" encoding="UTF-8"?>
<svg version="1.1" viewBox="0 0 2048 675" width="1280" height="1280" xmlns="http://www.w3.org/2000/svg">
<path transform="translate(321,163)" d="m0 0h33l11 3 20 4 19 7 16 8 16 10 14 11 16 16 5 4-1 4-15 14-15 15-7 8-4-2-7-7-4-5-14-11-11-7-15-7-13-4-20-4h-17l-20 4-10 3-19 9-12 8-12 11-8 8-11 17-8 17-5 19-2 9v23l5 23 6 15 7 13 9 12 17 17 15 10 15 7 16 5 17 3h18l22-4 17-6 13-7 16-12 160-160 7 6 31 31 1 4-73 73-7 8-43 43-8 7-7 8-7 7-8 7-12 12-12 9-15 9-19 9-14 5-14 4-21 3-11 2h-12l-16-3-14-2-18-5-19-8-15-8-13-9-10-8-21-21-10-14-11-18-7-15-6-18-6-31-1-8v-11l6-37 9-27 10-19 10-15 9-10 7-8 10-10 11-9 15-10 19-10 20-7 18-4z" fill="#FB6C51"/>
<path transform="translate(620,163)" d="m0 0h33l11 3 20 4 22 8 19 10 14 10 14 12 14 14 11 14 11 18 8 17 7 21 5 27 1 10v12l-2 16-4 21-6 18-7 16-7 13-11 16-12 13-11 11-11 9-17 11-16 8-15 6-19 5-24 4-5 1h-14l-17-3-14-2-17-5-19-8-15-8-13-9-10-8-10-10-8-7-4-4 2-4 7-6 12-12 7-8 8-8 4-2 6 5 7 8 12 10 16 10 8 4 15 5 21 4h18l25-5 16-6 11-6 14-10 16-16 11-16 6-13 5-16 4-20v-15l-3-15-4-16-5-12-8-15-9-11-9-10-13-10-16-9-12-5-14-4-16-3h-17l-21 4-14 5-19 10-13 10-159 159-6-1-9-10-16-15-7-8-2-2 1-5 12-12 8-7 43-43 7-8 84-84 8-7 10-9 15-10 19-10 27-9 18-3z" fill="#FB6C51"/>
<path transform="translate(1e3 217)" d="m0 0h18l19 3 16 5 16 8 12 8 13 12 2 3v3l-8 6-11 11-4-2-12-10-13-8-11-5-16-4-7-1h-11l-15 3-16 6-12 7-12 11-9 10-10 19-6 22-1 6v15l6 25 10 19 11 13 9 8 17 10 11 4 10 2 17 1 19-3 15-6 12-7 13-11 4-2 5 5 10 8 5 3 1 3-7 8-9 8-20 12-19 7-9 2-9 1h-33l-16-3-15-6-12-6-11-8-12-11-10-11-9-14-8-17-5-16-2-11-1-18 2-19 6-21 12-23 12-16 9-9 15-11 14-8 21-7z" fill="#FDFDFD"/>
<path transform="translate(1285,292)" d="m0 0h24l14 3 14 7 11 9 5 5v-21l2-1h26l1 1v158h-28l-1-1v-21l-9 9-13 9-15 5-7 1h-28l-15-4-14-8-10-9-7-7-8-13-5-12-3-13-2-16 3-21 4-13 8-15 9-11 10-8 14-8 13-4zm12 26-12 3-12 5-11 9-6 8-5 11-3 15v9l3 16 6 12 10 11 14 8 9 3 5 1h9l16-4 11-6 10-9 7-11 4-10 1-5v-20l-4-13-5-9-9-10-9-6-8-4-16-4z" fill="#FEFEFE"/>
<path transform="translate(1626,292)" d="m0 0h24l16 3 12 5 11 7 12 11 8 11 7 14 5 18v25l-5 19-8 15-9 11-11 10-11 7-15 5-11 2h-29l-16-4-17-9-12-10-10-14-7-15-4-14-1-22 2-14 5-14 8-15 11-12 9-7 15-8 9-3zm10 26-14 3-16 8-6 5-7 10-5 11-2 8v23l5 14 7 10 8 8 10 6 12 4 5 1h10l14-4 12-6 8-7 8-11 5-13 2-11-1-14-4-13-6-10-8-9-11-7-15-5z" fill="#FDFDFD"/>
<path transform="translate(1809,292)" d="m0 0h21l14 3 14 7 8 7 9 13 5 14 3 14 1 101-2 2h-27l-1-3-1-86-2-14-5-12-6-8-10-6-11-2h-11l-12 2-10 5-8 7-7 11-2 7-1 8-1 90-1 1h-28l-1-3v-155l5-1 25 1v20l10-10 14-8 8-3z" fill="#FDFDFD"/>
<path transform="translate(1399,294)" d="m0 0 31 1 6 12 30 74 10 24 2 3 4-8 17-41 15-36 8-19 5-10h31l-1 5-11 26-55 132-13 31-8 19-1 1h-33l9-19 8-21 7-16v-7l-5-10-11-28-34-82-11-28z" fill="#FEFEFE"/>
<path transform="translate(1183,292)" d="m0 0h19l15 3 2 2-1 13-3 13-1 1-8-1-8-2h-14l-11 4-9 8-8 14-4 12-4 22-1 71-1 1h-28l-1-2v-156l5-1h24l1 2 1 29 9-17 5-6 10-7 5-2z" fill="#FDFDFD"/>
</svg>
