<?xml version="1.0" encoding="UTF-8"?>
<svg version="1.1" viewBox="0 0 2048 607" width="1280" height="1280" xmlns="http://www.w3.org/2000/svg">
<path transform="translate(765,84)" d="m0 0h47l23 4 18 5 19 8 15 8 17 12 15 13 8 8 11 14 8 11 1 9-4 6-14 12-10 8-11 9-13 11-6 4-9 1-11-2-12-13-7-8-12-9-15-8-13-4-19-2-17 1-14 3-13 5-11 7-10 9-8 9-9 17-4 13-2 11v28l3 15 5 13 6 12 11 13 11 9 16 8 16 5 17 2h10l21-3 16-6 12-7 10-9 3-3 1-3h-74l-6-3-8-8-2-4v-64l4-6 7-7 7-2h150l11 1 10 9 3 5v104l-6 12-10 14-9 11-19 19-19 14-19 11-17 8-19 6-24 5-19 2h-28l-17-2-23-5-21-7-19-9-17-11-13-10-12-11-10-10-13-17-11-18-8-17-6-18-5-22-2-19v-23l2-18 5-23 7-20 8-16 9-15 10-13 9-10 15-15 16-12 15-9 16-8 15-6 23-6z" fill="#CC1426"/>
<path transform="translate(11,93)" d="m0 0h249l15 3 27 9 27 13 17 11 12 9 14 12 12 13 11 15 10 17 8 19 6 22 3 18 1 11v23l-3 23-5 21-8 21-10 18-9 12-12 14-13 12-18 13-21 12-21 9-21 7-18 4h-256l-5-3-3-3v-10l14-25 16-28 13-23 4-4 3-1 28-1 187-1 16-5 16-8 11-8 9-9 8-14 4-10 2-9 1-11v-10l-2-16-5-14-6-11-9-11-14-11-16-8-14-5-214-1-7-2-6-8-15-29-12-22-12-23v-10l5-5z" fill="#FEFEFE"/>
<path transform="translate(1476,89)" d="m0 0h224l7 4 7 8 2 6v55l-1 9-4 6-8 7-3 1h-137v31h98l8 6 4 5 2 4v61l-4 8-8 7-3 1h-97v47h142l7 3 8 9 1 2v68l-6 8-6 5-4 1h-229l-7-4-7-8-1-2v-334l4-6 8-7z" fill="#CC1427"/>
<path transform="translate(1169,89)" d="m0 0h135l23 3 22 6 16 7 16 10 13 11 7 7 11 15 8 16 5 14 4 21v27l-4 20-5 15-9 17-10 13-7 8-14 11-14 9-16 7-16 5-21 4-12 1h-45v97l-2 6-7 8-4 3-3 1h-71l-7-4-7-8-2-5v-328l4-8 9-8zm87 95v58h43l10-2 8-5 5-6 3-8v-18l-5-10-8-6-8-3z" fill="#0438A7"/>
<path transform="translate(1773,89)" d="m0 0h135l22 3 19 5 15 6 13 7 14 10 16 16 9 13 8 16 5 15 3 14 1 9v19l-3 18-6 20-10 19-8 10-9 10-9 8-15 10-19 9-21 6-17 3-11 1h-46v101l-6 8-6 5-4 1h-70l-6-3-8-8-2-5v-331l4-6 7-7zm86 95v58h43l10-2 10-6 5-8 2-7v-14l-4-10-9-8-9-3z" fill="#0438A7"/>
<path transform="translate(477,89)" d="m0 0h71l7 4 8 9 1 3v329l-3 7-8 8-6 2h-70l-6-3-7-7-2-3-1-5v-327l4-8 7-7z" fill="#CC1427"/>
<path transform="translate(1014,89)" d="m0 0h71l6 3 5 4 5 8v332l-4 6-5 5-4 3-3 1h-71l-7-4-7-8-1-2-1-94v-152l1-88 7-9z" fill="#CC1427"/>
<path transform="translate(182,104)" d="m0 0h80l19 5 25 10 23 12 12 8 13 10 12 11 11 12 10 14 9 16 6 14 6 20 3 18 1 11v24l-2 18-5 21-6 16-8 16-11 16-11 12-11 11-13 10-18 11-16 8-20 8-21 6-4 1h-86l6-7 18-20 7-8 9-10 7-8 10-11 7-8 4-4 16-1 19-5 19-9 11-8 10-9 9-13 5-11 4-14 2-16v-12l-3-18-5-15-6-11-8-10-9-9-15-10-15-7-16-5-18-1-11-12-9-11-10-11-9-11-9-10-9-11-10-11z" fill="#0438A7"/>
<path transform="translate(1478,100)" d="m0 0h220l6 6 1 35v25l-7 8-23 1h-95l-28-1v53h106l6 7v41l-1 1h-191l-1-19v-134l1-17z" fill="#0438A7"/>
<path transform="translate(773,94)" d="m0 0h31l21 3 20 5 20 8 17 9 14 10 13 11 12 12 13 17 2 5-10 8-13 11-10 8-11 9-8 6-9-1-5-5-9-10-8-8-15-10-16-7-19-4h-29l-18 4-13 5-12 7-10 8-7 7-7 10-8 16-5 16-2 12-1 19-1 1h-81l-1-1v-16l3-24 6-23 9-21 8-14 10-14 12-14 9-9 14-11 15-10 19-10 22-8 23-5z" fill="#0438A7"/>
<path transform="translate(765,84)" d="m0 0h47l23 4 18 5 19 8 15 8 17 12 15 13 8 8 11 14 8 11 1 9-4 6-14 12-10 8-11 9-13 11-6 4-9 1-11-2-12-13-7-8-12-9-15-8-13-4-19-2-17 1-14 3-13 5-11 7-10 9-8 9-9 17-4 13-2 11v28l3 15 5 13 6 12 11 13 11 9 16 8 16 5 17 2h10l21-3 16-6 12-7 10-9 3-3 1-3h-74l-6-3-8-8-2-4v-64l4-6 7-7 7-2h150l11 1 10 9 3 5v104l-6 12-10 14-9 11-19 19-19 14-19 11-17 8-19 6-24 5-19 2h-28l-17-2-23-5-21-7-19-9-17-11-13-10-12-11-10-10-13-17-11-18-8-17-6-18-5-22-2-19v-23l2-18 5-23 7-20 8-16 9-15 10-13 9-10 15-15 16-12 15-9 16-8 15-6 23-6zm8 10-26 4-21 6-19 8-15 8-17 12-14 12-9 9-11 14-10 15-8 15-6 15-6 23-3 24v16l1 1h81l1-1 1-19 4-20 6-15 7-12 8-10 7-7 15-10 11-5 13-4 11-2h29l19 4 16 7 12 8 10 9 8 8 5 7 7 2 6-1 14-12 14-11 15-13 7-5-2-5-10-13-11-12-8-8-17-13-15-9-17-8-18-6-25-5-9-1zm-165 187 2 18 4 19 7 20 10 20 8 12 10 13 13 14 8 7 17 13 19 11 19 8 21 6 25 4h35l27-4 21-6 17-7 17-9 16-11 13-11 14-14 13-17 8-13v-73h-170v32l6 6 83 1v16l-6 8-10 9-14 8-11 5-16 4-7 1h-29l-15-3-15-5-15-8-10-8-10-10-9-14-7-16-4-17-2-9z" fill="#FEFEFE"/>
<path transform="translate(1476,89)" d="m0 0h224l7 4 7 8 2 6v55l-1 9-4 6-8 7-3 1h-137v31h98l8 6 4 5 2 4v61l-4 8-8 7-3 1h-97v47h142l7 3 8 9 1 2v68l-6 8-6 5-4 1h-229l-7-4-7-8-1-2v-334l4-6 8-7zm2 11-6 6-1 17v134l1 19h191l1-1v-41l-6-7h-106v-53l28 1h95l23-1 7-8v-25l-1-35-6-6zm38 180-45 1v152l6 7 11 1h36l180-1 5-4 2-3v-59l-7-8-151-1-1-67 106-1 6-6v-10l-25-1z" fill="#FEFEFE"/>
<path transform="translate(1165,280)" d="m0 0h127l102 1-2 4-10 10-15 11-16 8-13 5-23 5-9 1-60 1-1 107-6 7h-68l-6-5-1-2v-152z" fill="#CC1427"/>
<path transform="translate(1804,280)" d="m0 0h88l106 1-6 8-10 9-15 10-17 8-20 6-21 3-60 1v106l-7 8h-68l-6-6v-153z" fill="#CC1427"/>
<path transform="translate(344,274)" d="m0 0h68v15l-2 18-5 21-6 16-8 16-11 16-11 12-11 11-13 10-18 11-16 8-20 8-21 6-4 1h-86l6-7 18-20 7-8 9-10 7-8 10-11 7-8 4-4 16-1 19-5 19-9 11-8 10-9 9-13 5-11 4-14z" fill="#CC1427"/>
<path transform="translate(1016,100)" d="m0 0h67l6 5 1 2v169h-80v-170z" fill="#0437A6"/>
<path transform="translate(479,100)" d="m0 0h67l7 8v167l-1 1h-79v-170l5-5z" fill="#0437A6"/>
<path transform="translate(1773,89)" d="m0 0h135l22 3 19 5 15 6 13 7 14 10 16 16 9 13 8 16 5 15 3 14 1 9v19l-3 18-6 20-10 19-8 10-9 10-9 8-15 10-19 9-21 6-17 3-11 1h-46v101l-6 8-6 5-4 1h-70l-6-3-8-8-2-5v-331l4-6 7-7zm2 11-6 5-1 2v169h233l5-5 8-16 5-15 3-17v-21l-3-18-5-15-9-17-11-14-7-7-15-11-19-10-15-5-19-4-9-1zm29 180-36 1v153l6 6h68l7-8v-106l60-1 21-3 20-6 19-9 14-10 11-10 4-6-106-1z" fill="#FEFEFE"/>
<path transform="translate(1169,89)" d="m0 0h135l23 3 22 6 16 7 16 10 13 11 7 7 11 15 8 16 5 14 4 21v27l-4 20-5 15-9 17-10 13-7 8-14 11-14 9-16 7-16 5-21 4-12 1h-45v97l-2 6-7 8-4 3-3 1h-71l-7-4-7-8-2-5v-328l4-8 9-8zm2 11-7 8v168h233l5-5 9-17 5-17 2-11v-28l-4-19-6-15-8-14-9-11-10-10-14-10-16-8-16-6-20-4-8-1zm-6 180-1 1v152l5 6 2 1h68l6-7 1-107 60-1 20-3 18-5 18-8 12-8 11-9 9-9v-2l-102-1z" fill="#FEFEFE"/>
<path transform="translate(477,89)" d="m0 0h71l7 4 8 9 1 3v329l-3 7-8 8-6 2h-70l-6-3-7-7-2-3-1-5v-327l4-8 7-7zm2 11-6 6v170h79l1-1v-167l-7-8zm-7 181v152l2 3h2l2 4h69l6-7v-152z" fill="#FEFEFE"/>
<path transform="translate(1014,89)" d="m0 0h71l6 3 5 4 5 8v332l-4 6-5 5-4 3-3 1h-71l-7-4-7-8-1-2-1-94v-152l1-88 7-9zm2 11-6 6v170h80v-169l-5-6-2-1zm39 180-45 1-1 83 1 70 6 6h68l6-6v-153l-19-1z" fill="#FEFEFE"/>
<path transform="translate(110,201)" d="m0 0 4 2 1 1v13l-2 23h3l1-16 2-14 4 2-1 10-4 19 6 1 4 2 4-1 12-18 3-3h4l-2 4-10 13-6 9 7-6 9-11 7-8 4-1 4 1v6l-12 11-11 9-4 2v2l5-2 20-16h2v5l-19 13-5 2 5 10v3l26-5 4 1 1 3-30 4v2l25-2h11l3 3v3h-2v2l-2 1-21-1-14-1v2l26 3 5 1-3 4-24-4-5-1-1 6-2 4v3l11 7 11 8v5l-9-6-14-11h-3l10 9 11 9 5 5v5l-2 2-6-1-12-14-8-9v-2h-2l2 5 12 15 3 4v2l-5-1-9-12-6-9-5 1-8 2 5 24v5l-3 2-2-6-3-24h-2l2 22v14l-3 3-4-2-2-2 2-32 1-3h-3l-1 12-2 17h-4l-1-4 5-25-12-5-15 22-5 1 1-4 16-20 1-3-5 4-9 11-10 11h-7v-7l10-9 11-9 5-6-14 10-10 8h-3l1-5 21-14h2l-6-13-27 5-3-2v-2l27-4h4v-2l-29 2h-7l-4-5 4-4 35 1-1-1-29-4 2-4 15 2 14 3 3-9 2-4-5-2-16-11-3-3v-4l4 2 11 8 9 7 1-1-7-7-11-9-6-6v-6l5-1 7 6 9 11 8 9v-3l-14-18-2-5 5 1 8 11 7 11 12-5-5-25 1-4 3-2 2 12 2 14v5h3l-1-3-2-26v-6z" fill="#FFD31D"/>
<path transform="translate(789,247)" d="m0 0h156l7 7v22h-170v-22l5-5z" fill="#0437A6"/>
<path transform="translate(1245,173)" d="m0 0h59l10 3 9 5 7 7 4 8 2 6 1 14-2 11-5 10-6 7-8 5-10 3-8 1h-53l-1-48v-31zm11 11v58h43l10-2 8-5 5-6 3-8v-18l-5-10-8-6-8-3z" fill="#FEFEFE"/>
<path transform="translate(1848,173)" d="m0 0h60l12 4 9 6 7 9 4 13v15l-4 13-6 8-7 6-9 4-12 2h-54zm11 11v58h43l10-2 10-6 5-8 2-7v-14l-4-10-9-8-9-3z" fill="#FEFEFE"/>
<path transform="translate(556,486)" d="m0 0h12l3 4 13 28 1 4h2l3-9 12-25 2-2h12v2l-5 2v39l5 1v2h-18v-2l5-1v-33l-16 33-2 4-3-3-14-29-1-5h-2l1 4 1 29 5 2v1h-16v-2l6-1-1-39-5-2z" fill="#180A1C"/>
<path transform="translate(1286,486)" d="m0 0h12l4 6 13 28v2h2l3-9 12-25 2-2h12v2l-5 2v39l5 1v2h-18v-2l4-1 1-33-16 33-2 4-3-3-15-32-1-1v32l6 2v1h-16v-2l6-1-1-39-5-2z" fill="#1E0815"/>
<path transform="translate(1213,486)" d="m0 0h12l8 16 9 19 3-4 12-25 3-6h13v2l-6 1 1 40 5 1v2h-19l1-2 5-1v-33l-8 16-10 21h-2l-15-32-2-4v31l6 3v1h-16v-2l5-2v-38l-5-2z" fill="#170713"/>
<path transform="translate(1981,486)" d="m0 0h13l17 35 8-16 10-19h12l1 2-6 2v39l6 2v1h-19l1-2 4-2v-31l-8 16-9 20-3-1-16-34-1 31 6 1v2h-16v-2l6-1v-39l-6-2z" fill="#110919"/>
<path transform="translate(952,486)" d="m0 0h30l8 3 7 6 3 7v10l-4 10-9 8-5 2-6 1h-10l-11-1v-2l2-1 1-39-6-2zm17 3-4 1v38l1 1h13l8-4 4-5 2-7v-9l-3-8-6-5-8-2z" fill="#200713"/>
<path transform="translate(680,486)" d="m0 0h12l10 12 8 10 9 11 3 4v-33l-6-2 1-2h16v2l-6 1v43l-4 1-7-6-9-11-13-16-3-5-1 34 6 1v2h-16v-2l5-1 1-38-6-3z" fill="#1F091A"/>
<path transform="translate(7,486)" d="m0 0h31l8 3 6 5 3 6v14l-4 8-7 7-7 3-6 1-21-1 3-4v-37l-6-3zm18 3-5 2v37l1 1h14l8-4 4-6 1-4v-13l-4-8-7-4z" fill="#10050E"/>
<path transform="translate(887,486)" d="m0 0h11l8 9 22 28h1l-1-33-5-2v-2h16v2l-5 2-1 42-4 1-6-5-9-11-8-10-9-12v33l6 3v1h-16v-2l5-2v-37l-5-3z" fill="#1C0714"/>
<path transform="translate(1927,486)" d="m0 0h28l6 3 3 5-1 7-4 5-7 4 12 16 5 6-2 1-8-1-10-14-7-9v-2l10-2 3-3 1-6-3-5-2-1h-10l-1 2v36l6 2v2h-19v-2l5-1v-39l-5-2z" fill="#100714"/>
<path transform="translate(1411,486)" d="m0 0h28l6 3 3 6-1 6-5 5-6 4 12 16 5 6-2 1-7-1-9-11-9-12v-2l10-2 3-3 1-6-3-5-2-1h-10l-1 3v35l6 2v2h-19v-2l5-1v-39l-5-2z" fill="#0F0714"/>
<path transform="translate(1170,485)" d="m0 0h10l9 3 6 5 4 8v14l-4 8-9 8-7 2h-12l-7-3-5-4-4-8-1-3v-12l5-10 9-6zm-2 4-7 4-4 7v15l4 8 7 6 3 1h8l8-4 4-5 1-4v-14l-3-7-5-5-4-2z" fill="#170713"/>
<path transform="translate(1884,485)" d="m0 0h9l11 4 5 5 4 8v11l-3 8-6 7-7 4-4 1h-12l-8-3-6-7-3-7v-14l4-8 7-6zm-3 4-6 4-4 6-1 11 2 9 5 7 8 4h8l8-4 4-6 1-4v-12l-3-8-7-6-2-1z" fill="#160611"/>
<path transform="translate(630,486)" d="m0 0h35v7l-1 4-3-1v-6h-18v17h14v-5h4v14l-2 1-2-1v-5l-14-1v18h18l3-7h2v7l-1 4-6 1h-16l-13-1 1-2 5-1v-39l-7-2z" fill="#18091A"/>
<path transform="translate(1042,486)" d="m0 0h35v7l-1 4h-2l-1-6-18-1v17h14l1-6 3 1v14h-3l-1-4-14-2v19l18-1 3-7h2v9l-1 2-6 1h-16l-13-1 1-2 5-1v-39l-7-2z" fill="#1A0C21"/>
<path transform="translate(1360,486)" d="m0 0h35v7l-1 4h-2l-1-6-18-1v17h14l1-6 3 1v14h-3l-1-4-14-2v19l18-1 4-8h1v10l-1 2-7 1h-13l-15-1 1-2 5-1v-39l-7-2z" fill="#1A0B20"/>
<path transform="translate(1523,486)" d="m0 0h36l-1 10h-3l-1-5-17-1-1 17h15v-5l3-1v16l-3-1v-5h-14v17h18l3-7h2l-1 11-4 1h-21l-10-1v-2l4-1 1-2v-35l-1-2-5-2z" fill="#11091A"/>
<path transform="translate(124,485)" d="m0 0h10l13 3v10h-3l-2-6-6-2h-14l-6 3-5 6-1 4v12l4 8 5 4 6 2h9l6-2v-9l-7-2v-2h17l-2 4-1 12-6 2-7 1h-13l-10-4-7-8-2-6v-12l4-8 7-6 6-3z" fill="#160815"/>
<path transform="translate(1601,486)" d="m0 0h29l6 3 3 4v8l-7 8-6 2h-7l-2-4h8l5-3 1-2v-7l-5-5h-12l1 39 6 1v2h-20v-2h6v-39l-6-3z" fill="#0F0713"/>
<path transform="translate(1816,486)" d="m0 0h34l-1 10-2 1-2-6-13-1h-3v17l13-1 2-5h2v16h-3v-6h-9l-5-1 1 19 6 2v1h-20v-2l5-1v-39l-5-2z" fill="#180B20"/>
<path transform="translate(1727,485)" d="m0 0 3 2 17 40 5 5h-18v-2l5-1-3-10-1-1h-18l-5 11 6 1v2h-16l6-6 9-19 7-16zm-2 11-7 16v2h15l-1-6-5-12z" fill="#120610"/>
<path transform="translate(849,485)" d="m0 0 3 3 13 31 4 9 5 3v1h-19l1-2h5l-4-11v-2h-19l-4 12 6 1v2h-16l3-3h2l2-6 10-22 7-15zm-2 11-7 15v3h15l-1-5-5-13z" fill="#0F0611"/>
<path transform="translate(388,486)" d="m0 0h29l6 3 3 4v8l-7 8-5 2h-8l-1-4h7l5-3 1-1v-9l-3-3-2-1h-10l-1 1v38l6 1v2h-20v-2l6-1v-39l-6-2z" fill="#0C050E"/>
<path transform="translate(272,485)" d="m0 0 3 2 17 40 5 5h-18v-2l5-1-3-10-1-1h-18l-5 11 6 1v2h-16l1-2 5-3 16-36zm-1 11-8 16 1 2h14l1-2-6-15z" fill="#120610"/>
<path transform="translate(463,485)" d="m0 0 3 2 14 33 4 8 4 2v2h-18v-2l5-1-3-10-1-1h-18l-5 11 6 1v2h-16l1-2 5-3 13-29zm-1 11-6 12-2 6h16l-3-9-4-9z" fill="#0F0611"/>
<path transform="translate(1115,485)" d="m0 0h10l12 3-2 10-2 1-2-7-5-2h-13l-8 5-3 6v14l3 6 6 5 4 2h14l8-3-1 4-5 3-6 1h-11l-9-3-7-6-4-8v-14l4-8 8-6z" fill="#210712"/>
<path transform="translate(1489,485)" d="m0 0h8l11 2 1 1-1 10-2 1-2-7-5-2h-13l-8 5-3 6-1 10 3 9 8 7 3 1h14l6-3h2l-1 4-5 3-6 1h-11l-9-3-8-7-3-7-1-9 2-8 6-8 10-5z" fill="#200712"/>
<path transform="translate(197,486)" d="m0 0h38v10l-3 1-1-6-12-1 1 39 6 2v1h-20v-2l5-1 1-39h-12v6l-4 1v-10z" fill="#360916"/>
<path transform="translate(1652,486)" d="m0 0h20v2l-7 1v40l15-1 5-1 2-7h3l-2 12-7 1h-25v-4h2v-40l-6-1z" fill="#190B20"/>
<path transform="translate(746,486)" d="m0 0h38v11l-3-1v-6h-13l1 39 6 2v1h-20v-2l7-1v-39h-13v6h-4z" fill="#1C060F"/>
<path transform="translate(1765,486)" d="m0 0h38v11l-3-1v-6h-13l1 39 6 2v1h-20v-2l7-1v-39h-13v6l-3 1-1-6z" fill="#17060F"/>
<path transform="translate(503,486)" d="m0 0h7l7 10 7 12 12-20 2-2h5l-7 11-7 10-2 4-1 18 7 2v1h-20v-2l5-1 1-6v-8l-7-14-6-8v-2l-6-2v-2z" fill="#160713"/>
<path transform="translate(310,486)" d="m0 0h20v2l-6 2-1 39 18-1 2-1 3-7h2l-1 11-7 2h-21l-6-1 3-4v-38l-6-2z" fill="#0F050F"/>
<path transform="translate(109,383)" d="m0 0 3 1 3 6v2l13-1-2 4-5 4 1 8 1 6-5-2-4-3-4 1-6 5h-2l2-12-9-5 1-3 10-1 2-6z" fill="#FFD31D"/>
<path transform="translate(103,135)" d="m0 0 8 6 6-1 5-3h2l-1 4-3 5 1 4 6 5 1 3h-12l-5 9h-2l-2-9v-2l-13-1 4-4 6-4-1-7-1-4z" fill="#FFD31D"/>
<path transform="translate(252,258)" d="m0 0h1l1 11 12 5-3 2-9 2v14l-10-10-8 3-3-1 6-8-2-5-4-5v-2l9 2 5-1z" fill="#FFD31D"/>
<path transform="translate(604,486)" d="m0 0h12v2l-5 2v39l5 1v2h-18v-2l5-1v-33l-3 6-3-1 1-5 5-9z" fill="#2B060E"/>
<path transform="translate(164,486)" d="m0 0h19v2l-6 1 1 40 5 1v2h-19l1-2 5-1v-40l-6-1z" fill="#35060E"/>
<path transform="translate(70,486)" d="m0 0h19v2l-6 1 1 40 5 2v1h-19v-2l5-1v-39l-5-2z" fill="#2F0711"/>
<path transform="translate(596,500)" d="m0 0h3l-1 6-6 13-3-1 1-5z" fill="#180E28"/>
<path transform="translate(0,481)" d="m0 0 2 1z" fill="#682667"/>
</svg>
