<?xml version="1.0" encoding="UTF-8"?>
<svg version="1.1" viewBox="0 0 2048 824" width="1280" height="1280" xmlns="http://www.w3.org/2000/svg">
<path transform="translate(75,465)" d="m0 0h50l10 12 12 16 11 14 14 18 10 13 14 18 10 13 28 36 10 13 14 18 10 13 14 18 4 5v2h2v-209h52v304h-45l-11-14-28-36-10-13-28-36-10-13-14-18-10-13-28-36-13-17-11-14-3-4-1 214h-53z" fill="#36474F"/>
<path transform="translate(447,43)" d="m0 0h30l27 2 33 5 25 6 24 7 21 8 18 8 16 8 17 9 22 14 16 12 14 11 11 10 8 7 18 18 7 8 11 13 14 19 10 15 14 24 12 24 11 27 9 28 7 30 4 26 2 20 1 27-1 1h-36l-1-24-3-28-6-31-8-28-10-26-14-29-12-21-11-16-13-17-12-14-14-15-16-15-11-9-20-15-19-12-16-9-16-8-23-10-30-10-30-7-27-4-11-1-31-1-23 1-33 4-27 6-24 7-24 9-24 11-20 11-27 18-14 11-13 11-13 12-11 11-7 8-14 17-14 20-11 18-12 22-10 23-10 28-8 32-4 25-2 19-1 25-1 1h-35l-1-1v-12l2-28 4-28 5-24 9-31 10-26 12-26 11-20 12-19 10-14 10-13 11-13 11-12 21-21 11-9 12-10 18-13 22-14 24-13 24-11 30-11 29-8 31-6 26-3z" fill="#75C043"/>
<path transform="translate(882,465)" d="m0 0h121l17 1 22 4 17 6 17 9 11 9 9 9 9 14 5 10 5 17 2 14v19l-2 14-5 17-9 17-9 11-7 7-14 10-16 8-21 7-17 3-12 1h-70v97h-54v-303zm53 49v109h76l16-4 14-7 10-9 7-11 4-12v-23l-4-13-6-9-4-5-10-7-11-5-13-3-9-1z" fill="#374850"/>
<path transform="translate(718,460)" d="m0 0h17l21 2 19 4 18 6 16 8 14 9 14 11 7 7-2 4-9 11-11 12-9 11-4 2-7-7-15-11-16-9-16-6-14-3h-30l-17 4-16 7-11 7-12 11-8 9-8 13-6 13-5 17-2 14v22l3 18 6 18 7 14 9 12 9 10 15 11 15 7 13 4 12 2h22l17-3 15-5 17-9 13-10 13-11 7 6 28 28-6 7-8 8-14 11-14 9-16 8-17 6-19 4-24 2h-10l-22-2-21-5-16-6-16-8-12-8-10-8-12-11-9-11-9-13-10-19-7-19-4-18-2-15v-29l3-20 4-15 8-21 10-18 10-13 9-10 10-10 15-11 18-10 15-6 17-5 17-3z" fill="#36474F"/>
<path transform="translate(439,145)" d="m0 0h46l24 3 24 5 26 8 24 10 23 12 17 11 16 12 11 9 15 14 7 7 9 11 10 12 14 21 10 17 10 21 8 21 7 25 5 26 2 21v19h-36l-3-35-5-26-7-23-11-26-11-20-8-12-12-16-12-13-5-6-8-7-10-9-19-14-15-9-21-11-23-9-22-6-20-4-19-2h-37l-24 3-26 6-21 7-20 9-17 9-18 12-13 10-10 9-8 7-13 14-13 17-10 15-9 16-9 19-7 19-6 23-4 24-2 29h-36v-23l3-25 6-27 10-30 9-20 11-21 14-21 11-14 12-14 17-17 11-9 15-12 17-11 18-10 21-10 25-9 22-6 22-4z" fill="#75C043"/>
<path transform="translate(471,482)" d="m0 0h28l1 237 2 11 4 6 7 4h17l11-2-5 5-14 11-15 10-16 9-16 6-5 1h-17l-9-4-8-7-6-10-4-13-2-15 1-206 5-15 8-11 10-9 13-6z" fill="#75C043"/>
<path transform="translate(443,248)" d="m0 0h38l19 3 22 6 21 9 16 9 14 10 11 9 17 17 10 13 10 16 8 16 6 15 5 17 4 25v17h-36l-2-21-4-19-6-17-8-16-7-11-11-14-12-12-13-10-17-10-19-8-19-5-13-2h-30l-18 3-20 6-19 9-15 10-11 9-13 13-11 15-9 16-7 17-5 19-2 13-1 15h-36l-1-2 2-25 4-20 7-21 11-23 10-15 11-14 11-12 8-7 17-13 17-10 17-8 21-7 20-4z" fill="#75C043"/>
<path transform="translate(451,374)" d="m0 0h18l13 5 9 7 7 9 4 10 1 3v18l-4 11-6 9-9 8-11 5-4 1h-18l-11-4-9-6-8-9-5-11-1-4v-18l4-11 7-10 7-6 12-6z" fill="#75C043"/>
<path transform="translate(1173,482)" d="m0 0h12l40 52 3 4 1-56h13v81h-11l-7-8-12-16-14-18-11-15-1 57h-13z" fill="#37474F"/>
<path transform="translate(1475,691)" d="m0 0h38l10 4 7 7 4 9v12l-5 10-8 7-9 3h-25l1 28-1 1h-12zm12 12v28h25l6-4 3-5v-10l-4-6-5-3z" fill="#384950"/>
<path transform="translate(1208,585)" d="m0 0 13 1 11 4 8 6 4 4-2 4-6 5-8-7-11-4h-11l-11 4-5 4-6 10-2 9 1 10 5 10 5 5 6 4 6 2h13l10-4 8-7 4 2 5 6-8 8-12 6-9 2h-9l-12-3-8-4-10-9-5-8-3-10v-16l4-12 7-9 7-6 10-5z" fill="#394A52"/>
<path transform="translate(1672,481)" d="m0 0h17l10 3 9 6 5 5-2 4-6 5-8-7-7-3-5-1h-9l-11 4-7 6-5 9-1 4v13l4 10 4 5 10 6 4 1h14l9-4 6-4 2-3 4 2 5 5-2 4-7 6-10 5-8 2h-13l-13-4-9-6-8-9-5-11-1-5v-13l4-13 6-8 7-7 10-5z" fill="#384951"/>
<path transform="translate(1776,715)" d="m0 0h7l11 4 5 4 5 7 3 10v8l-3 10-6 8-7 5-6 2h-10l-10-4-2-2-1 29h-12v-79h12l1 4 6-4zm-2 11-7 4-4 6-1 3v10l4 8 7 5 7 1 7-3 5-5 3-6v-10l-3-6-5-5-4-2z" fill="#384951"/>
<path transform="translate(1516,587)" d="m0 0h12v80h-12l-1-4-6 4-7 2h-7l-9-3-10-9-4-9-1-11 3-10 6-9 7-5 6-2h11l9 4 2 2zm-18 34-7 3-5 5-3 7v8l4 8 6 5 2 1h9l7-4 5-8v-12l-4-7-5-4z" fill="#384951"/>
<path transform="translate(1711,715)" d="m0 0h7l11 4 8 8 4 9 1 11-3 10-6 9-7 5-6 2h-11l-10-5-1-1-1 29h-12v-79h12l1 4 6-4zm-2 11-7 4-5 8v12l5 8 6 4 7 1 7-3 5-5 3-7v-8l-4-8-6-5-2-1z" fill="#384850"/>
<path transform="translate(1328,691)" d="m0 0h11v30l10-5 4-1h7l9 3 7 8 3 9v36l-1 1h-11l-1-37-4-6-4-2h-9l-5 3-3 5-1 6-1 31h-11z" fill="#374850"/>
<path transform="translate(1433,611)" d="m0 0h12l10 4 7 7 4 10v11l-1 1-42 1 3 6 6 5 2 1h11l6-3 4-4 4 2 4 4-1 4-9 6-10 3h-7l-9-3-6-4-7-8-3-8v-14l5-10 7-7zm1 10-7 4-4 7v2h32l-3-7-6-5-2-1z" fill="#384951"/>
<path transform="translate(1560,611)" d="m0 0h12l10 4 7 7 4 10v11l-1 1-42 1 3 6 6 5 2 1h11l6-3 6-4 7 7-5 5-8 5-8 2h-7l-9-3-6-4-7-8-3-8v-14l5-10 9-8zm1 10-7 4-4 7v2h32l-3-7-6-5-2-1z" fill="#384951"/>
<path transform="translate(1412,715)" d="m0 0h8l11 4 7 7 4 8 1 11-1 3h-43l4 8 5 4 6 2 9-1 6-4 4-3 7 7-1 3-9 6-8 3h-11l-9-3-9-8-5-10-1-4v-9l3-9 5-7 9-6zm0 10-8 4-5 8v1h32l-2-6-5-5-5-2z" fill="#394951"/>
<path transform="translate(1925,715)" d="m0 0h8l11 4 7 7 4 8 1 11-1 3h-43l4 8 5 4 6 2 9-1 6-4 4-3 7 7-1 3-9 6-8 3h-11l-9-3-9-8-5-10-1-4v-8l3-10 5-7 9-6zm0 10-8 4-4 6v3h31l-2-6-5-5-5-2z" fill="#394A52"/>
<path transform="translate(1546,691)" d="m0 0h11v30l9-5 4-1h8l10 4 6 7 2 6v40h-11l-1-36-3-6-5-3h-9l-5 3-3 4-1 4-1 34h-11z" fill="#374850"/>
<path transform="translate(1521,506)" d="m0 0h9l9 3 7 6 3 7v41h-11l-2-4-10 5h-10l-7-3-5-4-3-6v-7l4-8 8-5 21-4h3l-3-7-3-2h-10l-6 3-4 3-7-7 5-6 8-4zm15 30-18 3-5 4v6l4 4 7 1 7-2 5-6 2-9z" fill="#394951"/>
<path transform="translate(1654,611)" d="m0 0h12l9 4 6 7 2 5v40l-11 1-2-4-8 4-4 1h-7l-8-3-5-5-3-6 1-9 4-6 6-4 20-4h5l-3-7-6-3-8 1-9 6-7-7 6-7zm14 30-16 3-5 4v6l5 4h10l6-4 3-5v-8z" fill="#394A51"/>
<path transform="translate(1274,506)" d="m0 0h9l10 4 6 7 2 5v41h-11v-5l-12 6h-10l-9-4-4-5-2-5 1-9 4-6 7-4 21-4h3l-2-6-4-3h-10l-6 3-4 3-7-7 5-6 8-4zm14 30-20 4-3 4v5l4 4 7 1 7-2 5-5 2-10z" fill="#394A52"/>
<path transform="translate(1780,611)" d="m0 0h11l10 4 6 5 6 10 1 3v13l-4 9-7 8-9 5-5 1h-7l-9-3-6-4-7-8-3-8v-12l4-10 5-6 10-6zm4 10-8 3-6 7-2 10 3 9 4 5 6 3h9l7-4 4-5 2-10-2-8-6-7-8-3z" fill="#394A51"/>
<path transform="translate(1399,506)" d="m0 0h9l9 3 7 5 6 9 2 5v14l-6 12-9 7-8 3h-11l-9-4-8-7-4-6-2-6v-12l4-9 7-8 7-4zm0 11-7 4-5 8v12l4 7 5 4 9 2 8-3 6-7 2-6-1-10-4-6-5-4-2-1z" fill="#394951"/>
<path transform="translate(1191,715)" d="m0 0h7l10 3 10 9 4 8 1 3v12l-4 10-5 6-10 6-4 1h-11l-10-4-6-5-6-10-1-4v-12l4-9 7-8 7-4zm-1 11-7 4-5 8-1 8 3 9 7 6 9 2 8-3 6-7 2-7-1-8-4-7-5-4-3-1z" fill="#3A4A52"/>
<path transform="translate(1273,611)" d="m0 0h11l10 4 8 8 4 8 1 4v10l-4 10-7 8-10 5-4 1h-7l-10-3-8-6-6-10-1-3v-14l4-9 6-7 9-5zm4 10-7 2-7 8-2 5v7l3 8 7 6 2 1h10l8-5 4-8v-11l-5-8-6-4z" fill="#394A51"/>
<path transform="translate(1717,482)" d="m0 0h61v11h-24v70h-12l-1-1v-69h-24z" fill="#36474F"/>
<path transform="translate(1466,506)" d="m0 0h8l8 3 5 4 4 7 1 4v39h-11l-1-1-1-37-3-5-4-2h-10l-5 3-3 6-1 36h-11l-1-1v-54l1-1h10l1 5 6-4z" fill="#3C4C54"/>
<path transform="translate(1846,611)" d="m0 0h11l9 4 6 8 2 6v38l-11 1-1-1-1-37-3-5-7-3-8 1-5 4-2 5-1 35-11 1-1-1v-55h12l1 4z" fill="#3B4C53"/>
<path transform="translate(1865,715)" d="m0 0h8l10 4 5 6 3 7v40h-11l-1-35-4-8-4-2h-10l-6 5-2 5-1 35h-11v-55h11l1 4 8-5z" fill="#374850"/>
<path transform="translate(1339,611)" d="m0 0h10l8 3 7 8 2 6v39h-11l-1-34-3-7-4-3-7-1-6 2-4 4-2 5-1 34h-11v-55h11v5l8-5z" fill="#37474F"/>
<path transform="translate(1245,690)" d="m0 0h13l1 1v10h-8l-3 3-1 12h12v11h-12v45h-12v-45h-8v-10l1-1h7v-13l3-8 5-4z" fill="#394A52"/>
<path transform="translate(1395,585)" d="m0 0 11 1v11h-9l-2 2-1 5v7l12 1v11h-13l1 2v42l-2 1-10-1v-44h-8v-11h8v-14l3-8 6-4z" fill="#415159"/>
<path transform="translate(1978,715)" d="m0 0h8l10 4 3 3-2 4-4 4-5-2-2-1h-8l-3 2v5l8 4 11 4 6 5 2 5v7l-4 8-8 5-3 1h-12l-9-4-6-5v-2l8-6 7 5 8 1 5-2 1-1v-6l-8-4-13-5-5-6-1-9 4-8 8-5z" fill="#394A52"/>
<path transform="translate(1320,489)" d="m0 0h11v18h11v11h-11l1 32 5 3h7v9l-3 2h-11l-7-4-3-5-1-5v-32h-10v-11l9-1 1-1z" fill="#3A4B53"/>
<path transform="translate(1294,698)" d="m0 0h10v18h11l1 1v9l-1 1h-11l1 31 2 3 5 1h5v10l-3 1h-10l-7-3-4-7-1-35-10-1v-10l1-1 8-1 2-4z" fill="#3B4C54"/>
<path transform="translate(1702,594)" d="m0 0h10v18h12v10l-1 1h-11l1 30 3 4h9v11l-5 1h-7l-7-3-4-5-1-3v-35h-10l-1-1v-10l9-1 2-3z" fill="#3A4B53"/>
<path transform="translate(1611,482)" d="m0 0h12v81h-12l-1-1v-79z" fill="#44545C"/>
<path transform="translate(1562,482)" d="m0 0h12v81h-12z" fill="#36474F"/>
<path transform="translate(1635,691)" d="m0 0h12v80l-1 1h-11z" fill="#36474F"/>
<path transform="translate(1625,611)" d="m0 0h8v11h-7l-8 3-3 5-1 5-1 32h-11v-55h11v5l6-4z" fill="#374850"/>
<path transform="translate(1355,507)" d="m0 0h10l1 1v55h-11l-1-1v-54z" fill="#394951"/>
<path transform="translate(1816,717)" d="m0 0h12v55h-12z" fill="#36474F"/>
<path transform="translate(1661,717)" d="m0 0h11v55h-11z" fill="#36474F"/>
<path transform="translate(1610,717)" d="m0 0h11v55h-11z" fill="#36474F"/>
<path transform="translate(1736,612)" d="m0 0h11v55h-11z" fill="#36474F"/>
<path transform="translate(1358,483)" d="m0 0 6 1 3 3v6l-4 4h-6l-4-4 1-7z" fill="#3C4C54"/>
<path transform="translate(1820,692)" d="m0 0 6 1 3 4-1 7-3 2h-6l-4-4 1-7z" fill="#384951"/>
<path transform="translate(1739,588)" d="m0 0 7 1 3 5-2 6-3 2-7-1-2-2v-8z" fill="#3B4B53"/>
<path transform="translate(1614,692)" d="m0 0 5 1 3 3v7l-3 3h-7l-3-3-1-5 3-5z" fill="#3F4F56"/>
<path transform="translate(1665,692)" d="m0 0 6 1 3 7-3 5-1 1h-7l-3-3v-7l3-3z" fill="#394A52"/>
<path transform="translate(541,737)" d="m0 0" fill="#75C043"/>
</svg>
