<?xml version="1.0" encoding="UTF-8"?>
<svg version="1.1" viewBox="0 0 2048 853" width="1280" height="1280" xmlns="http://www.w3.org/2000/svg">
<path transform="translate(0)" d="m0 0h2048v853h-2048z" fill="#FCFAFA"/>
<path transform="translate(0,487)" d="m0 0h208l1 2 1 98v45l-1 63-1 1h-203l-3-1-1-5h-1z" fill="#01A5F9"/>
<path transform="translate(226,488)" d="m0 0h206l1 94v86l-1 29h-58l-135-1-12-1-1-19-1-187z" fill="#FEB706"/>
<path transform="translate(2,263)" d="m0 0 77 1h129l1 4-1 122v80l-1 1h-138l-67-1-1-47v-124z" fill="#F65621"/>
<path transform="translate(227,263)" d="m0 0h36l144 1 25 1 1 7v197l-60 1h-117l-29-1-1-132v-57z" fill="#93BA0C"/>
<path transform="translate(588,350)" d="m0 0h37l8 16 16 42 40 100 13 34 1 2 11-31 12-30 17-41 18-43 15-38 4-11h62v256l-1 2h-43l-1-1v-188l1-14-6 18-11 27-6 16-12 30-15 36-13 32-12 29-6 14-9 2h-18l-5-2-6-14-11-28-16-39-15-37-15-36-11-27-6-17v178l-1 21-4 1h-25l-11-1-1-1v-256z" fill="#757676"/>
<path transform="translate(1333,419)" d="m0 0h19l21 3 13 5 13 7 12 11 7 8 9 16 6 15 2 9 1 11v14l-3 24-4 13-5 12-8 12-11 12-14 10-16 7-14 4-16 2h-9l-18-2-16-4-16-8-11-8-10-10-7-10-7-14-5-17-2-12v-20l3-17 6-21 8-15 10-12 12-9 19-10 15-4z" fill="#757676"/>
<path transform="translate(1685,419)" d="m0 0h21l19 3 14 5 11 6 9 7 10 10 10 16 6 14 3 13v35l-3 18-6 16-7 13-11 13-9 8-13 8-17 6-15 3-9 1h-11l-21-3-16-5-12-6-13-10-10-11-8-13-5-14-3-13-1-8v-26l3-18 6-17 8-14 9-11 8-7 13-8 11-5 14-4z" fill="#757676"/>
<path transform="translate(1880,332)" d="m0 0h18l16 2 2 1v37l-17-2h-8l-9 2-8 6-4 7-1 4-1 21v12l6 1h57v-41l8-3 33-9h3l1 12 1 41 42 1v36l-43 1v42l1 45 2 16 4 7 4 3 3 1h20l9-2 1 9v21l-1 4-16 5-6 1h-23l-15-5-11-7-8-9-5-12-3-14-1-17v-88l-1-1h-64l1 45v103l-1 1h-43l-1-98v-51h-30l-1-1v-28l1-7 30-1v-25l1-15 5-14 7-12 9-10 10-7 11-5z" fill="#757676"/>
<path transform="translate(1519,419)" d="m0 0h14l25 4 10 3 2 2v40l-5-2-13-6-15-4h-21l-10 5-5 10 1 9 5 7 9 6 24 10 12 7 12 9 8 9 5 11 2 9v15l-3 13-6 11-5 6-13 10-14 6-18 4-7 1-19-1-25-5-13-4-1-2-1-42 22 11 17 5 6 1h18l11-4 5-7 1-10-3-7-9-6-15-8-22-10-12-9-8-8-6-10-3-10v-22l3-10 7-12 9-9 13-8 13-5 9-2z" fill="#757776"/>
<path transform="translate(1048,419)" d="m0 0h10l25 3 15 4 4 2 1 4v40l-7-4-16-8-11-3h-20l-11 3-8 4-9 7-7 7-6 11-3 10-1 8v17l2 14 4 11 6 10 8 8 12 6 13 3h16l15-4 21-10h2v40l-27 9-11 2-18 1-18-2-15-4-16-8-11-8-9-9-9-13-6-13-4-13-2-10v-24l3-19 5-16 8-15 7-9 9-9 13-9 15-8 13-4z" fill="#757776"/>
<path transform="translate(1212,421)" d="m0 0h29l1 2v44l-13-4-7-1h-11l-9 3-10 9-6 8-5 12-1 6-2 108-2 1h-42v-185h44l1 26 11-13 5-6 10-7z" fill="#757776"/>
<path transform="translate(1330,456)" d="m0 0h21l10 3 11 7 8 9 6 12 3 11 1 7v21l-3 17-6 14-7 9-5 4-8 4-7 2-13 1-17-2-12-5-10-9-8-16-4-18v-23l4-16 6-12 9-10 11-7z" fill="#FCFAFA"/>
<path transform="translate(1682,456)" d="m0 0h23l11 4 11 8 8 10 5 12 2 8 1 9v17l-3 19-5 12-7 10-8 6-9 4-12 2-17-1-13-4-8-6-8-9-5-11-3-11-1-6v-27l4-16 6-11 7-8 14-9z" fill="#FCFAFA"/>
<path transform="translate(884,424)" d="m0 0h44v184l-1 1h-42l-1-1z" fill="#757677"/>
<path transform="translate(899,346)" d="m0 0h14l8 4 5 4 6 10 1 4v8l-4 8-5 5-8 5-10 3-9-2-10-6-6-8-1-3v-13l5-10 8-7z" fill="#757776"/>
<path transform="translate(0,506)" d="m0 0h1l1 6 1 129v54h-1l-1-5h-1z" fill="#868789"/>
<path transform="translate(2,665)" d="m0 0h1v30h-1l-1-5h-1v-24z" fill="#757678"/>
</svg>
