<?xml version="1.0" encoding="UTF-8"?>
<svg version="1.1" viewBox="0 0 2048 293" width="1280" height="1280" xmlns="http://www.w3.org/2000/svg">
<path transform="translate(218,36)" d="m0 0h19l9 8 2 9-2 16-6 15-8 16-12 19-13 17-9 11-10 12h-2v3l29-6 17-6 9-6 4-7-1-6-6-7-4-4 5 1 11 7 8 9v13l-9 10-11 7-16 7-18 5-10 2 1 4 13 15 11 13 5 6-1 4-7 7-4-1-14-12-22-18-13-11-3-1-9 9-11 9-15 12-14 10-16 10-19 10-18 6-4 1h-12l-8-5-4-5v-20l6-17 8-16 2-1-1 4-8 22-1 5v10l4 5 2 1h10l12-4 17-9 16-11 14-11 15-13 4-2v-3h-10l-27-4-22-6-17-7-11-7-8-9-1-3v-10l6-8 9-7 6-3h3v2l-8 6-2 3v8l3 5 9 6 17 6 19 4 37 4-5-5-13-11-11-9-12-10 1-4 10-10 8-7 12-12 11-9 13-11 18-13 19-12 16-8 13-5zm6 15-11 4-18 10-17 13-14 11-14 12-14 13 3 5 12 14 9 11 5 6 3-1 7-8 12-13 9-11 10-12 13-18 9-16 4-10v-7l-4-3z" fill="#084CBE"/>
<path transform="translate(1700,65)" d="m0 0h41l12 3 10 5 7 8 4 13v57l-3 12-5 6-9 4-18 2h-67l-1-2 1-18 65-1 6-3 2-11h-45l-14-3-8-4-8-7-5-10-1-5v-17l4-11 5-7 9-6 12-4zm5 20-8 4-4 5-1 3v11l4 8 8 4 6 1h35v-28l-4-6-4-2z" fill="#084CBE"/>
<path transform="translate(283,39)" d="m0 0h85l12 3 8 5 6 7 3 9 1 14-2 13-4 8-8 7-11 4-6 1h-55v35h-29zm29 22v27h49l5-3 2-4v-13l-3-5-4-2z" fill="#000101"/>
<path transform="translate(1155,35)" d="m0 0h28v30h46l12 3 10 6 6 7 4 11v53h-28l-1-47-3-8-5-3-5-1-36-1v60h-28l-1-2v-107z" fill="#084CBE"/>
<path transform="translate(1855,65)" d="m0 0h50l10 3 6 4 5 8 1 4v11l-3 8-4 5-6 3-5 1h-57l3 8 4 3 3 1 61 1v20h-65l-12-2-9-4-5-4-5-8-3-12v-21l3-12 6-9 8-5zm8 17-7 3-4 6v4h45l3-3v-7l-4-3z" fill="#084CBE"/>
<path transform="translate(974,65)" d="m0 0h50l9 2 6 4 5 6 2 4 1 9-2 11-7 8-10 3-56 1 3 8 6 3 61 1v20h-64l-16-3-9-6-6-8-3-10-1-16 2-16 5-10 7-6 11-4zm8 17-8 4-3 9h46l3-4-1-7-3-2z" fill="#084CBE"/>
<path transform="translate(762,65)" d="m0 0h50l9 2 6 4 6 7 2 9-1 11-3 6-7 6-8 2-56 1 3 8 6 3 61 1 1 19-1 1h-64l-16-3-9-6-6-8-3-10v-27l3-10 6-8 8-5zm8 17-8 4-3 9h46l3-4-1-7-3-2z" fill="#020202"/>
<path transform="translate(1424,65)" d="m0 0h37l16 4 9 6 7 8 4 11 1 14-2 12-4 8-7 8-11 6-16 3h-31l-12-2-12-5-8-7-6-12-1-4v-20l3-10 6-8 7-6 10-4zm8 20-9 3-5 5-2 5v14l3 6 6 5 3 1h28l8-4 4-5 1-2v-16l-4-7-8-4-5-1z" fill="#084CBE"/>
<path transform="translate(1583,65)" d="m0 0h36l16 4 9 6 7 8 4 11 1 7v8l-2 11-5 10-9 8-8 4-16 3h-31l-12-2-12-5-8-7-6-12-1-4v-20l4-11 4-6 7-6 8-4zm7 20-9 3-5 5-2 5v14l3 6 6 5 3 1h28l7-3 5-6 2-9-2-12-5-5-6-3-5-1z" fill="#084CBE"/>
<path transform="translate(1953,65)" d="m0 0h73v19l-63 1-3 2v6l3 2 47 1 11 4 6 7 2 7v14l-3 8-7 6-6 2-7 1h-72v-20l64-1 2-1v-7l-5-2-44-1-10-4-7-8-2-6v-12l3-8 4-5 9-4z" fill="#084CBE"/>
<path transform="translate(1272,65)" d="m0 0h74l13 3 10 6 6 8 3 8 1 5v50h-28l-1-1-1-49-2-6-10-3-36-1v59l-1 1h-28z" fill="#084CBE"/>
<path transform="translate(517,65)" d="m0 0h74l13 3 8 5 5 5 4 6 3 11v50h-28l-1-1-1-49-3-5-4-3-5-1-36-1v59l-1 1h-28z" fill="#020202"/>
<path transform="translate(828,39)" d="m0 0h122v21l-46 1v83l-1 1h-29v-85h-46z" fill="#0B4EBF"/>
<path transform="translate(1086,65)" d="m0 0h59v20l-1 1-52 1-6 3-3 5-1 13 2 9 4 4 5 2 52 1v21h-57l-14-3-9-5-7-8-4-11-1-8v-11l3-14 5-8 8-7 11-4z" fill="#084CBE"/>
<path transform="translate(665,65)" d="m0 0h59v21l-53 1-6 3-3 6v18l3 6 7 3 52 1v21h-57l-14-3-10-6-6-8-4-11v-24l4-12 8-9 10-5z" fill="#020202"/>
<path transform="translate(1508,35)" d="m0 0h28v110h-28l-1-1v-108z" fill="#084CBE"/>
<path transform="translate(434,65)" d="m0 0h34v19l-25 1-8 2-2 6-1 51-1 1h-28v-54l4-11 7-8 10-5z" fill="#010202"/>
<path transform="translate(1785,67)" d="m0 0h29v78h-29z" fill="#084CBE"/>
<path transform="translate(823,198)" d="m0 0h28l11 4 6 7 2 7v10l-4 10-8 6-8 2h-27v17h-16v-50l5-8 7-4zm4 12-4 4v18h24l5-3 2-6-1-8-4-4-2-1z" fill="#212223"/>
<path transform="translate(477,67)" d="m0 0h28v78h-28z"/>
<path transform="translate(1318,198)" d="m0 0h40l9 3 6 7 2 10v26h-50l-5-3-3-3-1-3v-11l4-6 5-2h33l-2-5-2-1-36-1zm14 27-1 1v5l4 2h23l1-1v-7z" fill="#202224"/>
<path transform="translate(1e3 198)" d="m0 0h26l9 3 5 4 4 8 1 11-3 10-5 5-8 4-4 1h-24l-11-4-5-5-3-6-1-5v-7l3-9 4-5 8-4zm4 12-5 3-1 2v12l6 5h17l5-3 2-3v-11l-6-5z" fill="#202226"/>
<path transform="translate(1789,198)" d="m0 0h26l10 4 6 7 2 5v14l-4 8-6 5-10 3h-23l-10-3-6-5-3-5-1-4v-12l3-8 7-6zm3 12-5 4-1 3v8l4 6 3 1h17l6-4 1-3v-8l-3-5-3-2z" fill="#202224"/>
<path transform="translate(494,198)" d="m0 0h25l9 3 7 6 3 7v14l-4 8-6 5-10 3h-23l-10-3-7-6-3-8v-12l3-8 7-6zm3 12-5 4-1 3v8l4 6 3 1h17l6-4 1-3v-8l-3-5-3-2z" fill="#202224"/>
<path transform="translate(1950,198)" d="m0 0h45l8 3 5 5 3 6v32h-16l-1-29-4-4-24-1v34h-16z" fill="#202123"/>
<path transform="translate(323,198)" d="m0 0h37v11l-1 1-31 1-3 3-1 2v9l1 5 3 1 31 1 1 1v11h-35l-9-3-6-5-3-8v-14l3-8 7-6z" fill="#202327"/>
<path transform="translate(1491,182)" d="m0 0h17v16h14v10l-1 1h-13l1 22 2 1 9 1v11h-15l-9-3-4-4-1-4z" fill="#202327"/>
<path transform="translate(670,198)" d="m0 0h22v11l-17 1-3 3-1 31h-17v-30l3-9 5-4z" fill="#212122"/>
<path transform="translate(1180,198)" d="m0 0h22v11l-17 1-3 5-1 29h-16v-33l3-6 6-5z" fill="#202122"/>
<path transform="translate(1637,199)" d="m0 0h16v45h-16z" fill="#212121"/>
<path transform="translate(87,83)" d="m0 0h8l7 4 4 8-1 8-4 6-6 3h-8l-8-5-3-8 2-9 5-5z" fill="#0A4DBE"/>
<path transform="translate(1785,35)" d="m0 0h29v21h-29z" fill="#084CBE"/>
<path transform="translate(477,35)" d="m0 0h28v21h-28z" fill="#010101"/>
<path transform="translate(124,57)" d="m0 0h9l6 5 1 8-4 7-5 2-7-1-5-4-1-2v-8z" fill="#094CBE"/>
<path transform="translate(162,36)" d="m0 0h7l5 6-1 7-5 4-7-1-4-5 1-7z" fill="#084CBE"/>
<path transform="translate(227,229)" d="m0 0h8l4 5v6l-5 5h-6l-5-4-1-5 3-5z" fill="#084CBE"/>
<path transform="translate(1637,181)" d="m0 0h16v12h-16z" fill="#212121"/>
<path transform="translate(47,187)" d="m0 0v3z" fill="#084CBE"/>
<path transform="translate(231,118)" d="m0 0 3 2h-3z" fill="#83A5DE"/>
<path transform="translate(58,119)" d="m0 0 2 1z" fill="#084CBE"/>
</svg>
