<?xml version="1.0" encoding="UTF-8"?>
<svg version="1.1" viewBox="0 0 2048 1000" width="1280" height="1280" xmlns="http://www.w3.org/2000/svg">
<path transform="translate(475,102)" d="m0 0h18l34 3 28 4 28 6 33 10 25 10 24 11 18 10 21 13 18 13 14 11 15 13 13 12 9 9 7 8 12 14 14 18 14 21 14 24 8 15 10 23 10 28 6 20 6 26 5 33 2 25v41l-3 32-4 24-7 30-7 23-11 28-12 25-9 17-12 19-9 13-12 16-11 13-11 12-25 25-11 9-15 12-22 15-20 12-22 12-30 13-36 12-30 7-29 5-35 3h-32l-27-2-38-6-32-8-29-10-26-11-20-10-24-14-16-11-19-14-15-13-10-9-24-24-9-11-10-12-13-18-10-15-12-21-8-15-12-28-9-25-8-29-6-30-4-35-1-18v-20l2-27 4-32 8-36 12-36 10-24 8-17 13-23 14-22 10-13 7-9 11-13 18-20 8-8 8-7 14-12 17-13 19-13 18-11 22-12 24-11 27-10 29-8 24-5 28-4zm-52 287-15 33-13 27-15 33-17 36-26 56-28 60-10 22v2h40l4-5 10-22 9-20 6-12 1-1h107l15 36 9 20 4 4h40l-5-13-19-43-16-35-16-36-18-40-13-29-14-32-15-33-3-8zm247 11-19 3-21 7-15 8-16 12-12 11-9 11-7 10-10 19-6 18-4 24v19l4 23 6 18 8 16 9 13 11 12 12 12 10 7 14 8 11 5 21 6 12 1h25l14-2 20-6 19-10 14-11 12-12 10-14 8-16 5-18 4-32v-13l-2-3h-103l-1 2v34l1 1h63l-8 23-8 12-5 6-13 10-16 8-13 3-8 1h-11l-15-2-13-5-13-7-14-11-9-9-7-10-8-16-4-14-2-16 1-19 3-14 6-15 9-15 11-12 12-9 14-8 12-4 12-2h24l13 2 14 5 13 8 10 8 17 17 24-24 1-4-7-8-9-9-17-13-16-9-15-6-17-4-9-1zm-517 5-1 22v14l51 1 7 1 1 215 15 1h22l1-1 1-215 4-1h50l2-1 1-3v-33z" fill="#EA4236"/>
<path transform="translate(1681,403)" d="m0 0h39l2 1v105l115-1 1-105h37l3 1v265l-1 1-38 1-1-1v-125h-116v125h-39l-1-1z" fill="#EA4236"/>
<path transform="translate(1310,388)" d="m0 0 4 1 12 26 13 29 16 35 14 32 19 42 18 40 16 36 15 33 3 6v2h-43l-6-10-12-29-11-25-116-1-2 9-13 28-12 26-3 3h-39l-2-1 1-5 9-17 15-33 14-30 17-37 18-38 18-39 19-41 15-33zm0 89-7 17-17 37-8 18-8 16-1 3 63 1h20l1-2-12-25-9-21-14-33-6-11z" fill="#EA4236"/>
<path transform="translate(1543,398)" d="m0 0h19l16 3 13 6 11 7 10 9 9 12 3 6-1 3-25 15-5 2-6-7-6-8-8-6-8-3-6-1h-13l-12 3-9 6-6 7-5 11v11l5 10 5 5 8 6 19 9 22 9 16 8 13 8 10 9 8 9 8 16 3 9 1 5v27l-4 16-5 12-8 12-9 10-11 8-16 8-14 4-6 1h-29l-16-4-16-8-13-11-8-10-7-12-6-16-3-11v-6l6-2 24-5 6-2h4l3 15 4 12 6 8 1 3 4 2 11 7 9 2h16l11-3 10-6 8-8 4-8 4-16v-7l-4-14-6-9-5-5-10-7-26-12-21-9-15-8-11-9-7-7-8-13-5-12-1-5v-19l3-14 8-15 11-12 10-8 15-8 15-4z" fill="#EA4236"/>
<path transform="translate(1070,398)" d="m0 0h24l20 3 16 5 16 7 6 4 1 2 1 45-5-2-18-12-17-8-17-5-7-1h-20l-20 4-16 7-13 9-12 11-8 10-8 14-5 12-4 15-1 8v26l4 17 5 13 6 11 10 13 9 9 13 9 14 7 12 4 14 2h22l16-3 14-5 15-9 11-9 3-3 3 1-1 46-4 4-19 8-22 6-13 2-19 1-16-1-19-4-17-6-17-9-11-8-10-9-13-13-10-13-6-10-9-21-4-15-2-15v-28l3-19 6-18 8-16 9-15 11-13 9-10 14-11 13-8 17-8 18-5z" fill="#EA4236"/>
<path transform="translate(422,477)" d="m0 0 4 2 7 19 11 25 12 27 4 10-7 1h-67l-1-3 16-35 13-28 7-17z" fill="#EA4236"/>
</svg>
